<?xml version="1.0" standalone="no"?>
<!DOCTYPE svg PUBLIC "-//W3C//DTD SVG 20010904//EN"
 "http://www.w3.org/TR/2001/REC-SVG-20010904/DTD/svg10.dtd">
<svg version="1.0" xmlns="http://www.w3.org/2000/svg"
 width="528.000000pt" height="528.000000pt" viewBox="0 0 528.000000 528.000000"
 preserveAspectRatio="xMidYMid meet">
<metadata>
Created by potrace 1.14, written by Peter Selinger 2001-2017
</metadata>
<g transform="translate(0.000000,528.000000) scale(0.100000,-0.100000)"
fill="#000000" stroke="none">
<path d="M2638 5215 c-2 -2 -59 -6 -128 -9 -151 -8 -192 -12 -320 -36 -36 -6
-74 -13 -85 -15 -11 -1 -27 -5 -35 -8 -8 -3 -35 -10 -60 -16 -25 -5 -70 -17
-100 -26 -30 -9 -67 -19 -82 -22 -16 -3 -28 -9 -28 -14 0 -5 -3 -8 -7 -7 -10
3 -114 -32 -128 -42 -5 -4 -21 -11 -35 -15 -20 -6 -124 -56 -287 -139 -13 -6
-23 -14 -23 -18 0 -5 -5 -8 -10 -8 -10 0 -139 -78 -150 -90 -3 -3 -18 -14 -35
-24 -114 -72 -385 -321 -496 -455 -24 -29 -48 -59 -54 -65 -27 -31 -75 -96
-75 -101 0 -3 -4 -11 -10 -18 -97 -120 -225 -358 -304 -569 -20 -53 -36 -99
-36 -102 0 -3 -5 -17 -12 -33 -6 -15 -13 -39 -15 -53 -2 -14 -10 -45 -18 -70
-13 -42 -17 -62 -30 -130 -3 -14 -7 -36 -10 -50 -5 -27 -9 -55 -22 -145 -10
-76 -10 -501 1 -575 4 -30 9 -68 11 -85 2 -16 5 -32 6 -35 1 -3 1 -8 1 -11 -1
-4 3 -21 8 -39 5 -18 12 -50 15 -72 8 -50 60 -235 90 -319 95 -265 235 -516
412 -739 68 -86 291 -314 352 -360 18 -14 45 -35 59 -48 32 -27 193 -137 242
-165 176 -103 390 -199 563 -254 45 -14 89 -28 97 -31 17 -6 26 -8 60 -16 14
-3 34 -7 45 -10 38 -9 160 -35 190 -40 17 -2 30 -5 30 -6 0 -2 14 -4 120 -15
39 -3 84 -9 100 -11 42 -7 398 -6 465 1 146 15 191 23 305 51 55 14 105 26
110 28 35 8 122 40 129 47 6 5 16 9 23 9 19 0 175 75 258 123 63 37 232 152
245 166 3 3 34 31 70 61 36 30 98 88 138 128 39 41 72 72 73 70 0 -2 1 -136 2
-298 l2 -295 493 -1 c305 0 495 3 499 9 8 13 7 2488 -1 2613 -4 56 -9 112 -11
125 -2 13 -6 44 -9 69 -3 25 -8 56 -11 70 -3 14 -8 41 -11 60 -3 19 -10 49
-14 65 -5 17 -12 44 -15 60 -10 50 -18 77 -67 215 -36 103 -33 96 -104 248
-31 67 -61 122 -66 122 -4 0 -8 7 -8 15 0 26 -201 323 -265 391 -5 6 -33 38
-62 71 -50 57 -160 168 -213 213 -14 12 -36 31 -50 43 -21 19 -49 40 -125 100
-90 69 -241 164 -368 231 -114 60 -347 157 -410 171 -16 4 -65 19 -107 33 -8
3 -20 6 -26 7 -7 2 -45 11 -85 20 -121 28 -125 28 -299 51 -19 2 -84 7 -145
10 -60 2 -118 6 -127 8 -9 2 -18 3 -20 1z m232 -958 c14 -3 41 -8 60 -11 150
-24 423 -121 499 -178 13 -10 27 -18 32 -18 10 0 87 -51 164 -109 72 -54 255
-232 278 -269 8 -15 24 -36 34 -47 72 -77 186 -295 238 -455 49 -152 54 -169
59 -210 3 -19 8 -46 11 -60 3 -14 8 -63 11 -110 9 -114 9 -1738 1 -1747 -9 -8
-1630 -8 -1742 0 -173 13 -345 56 -515 129 -218 94 -407 234 -581 428 -44 50
-149 196 -149 208 0 6 -4 12 -8 14 -12 4 -104 189 -131 263 -28 74 -71 228
-76 275 -3 19 -8 51 -11 70 -13 68 -19 301 -10 375 11 90 17 133 22 155 3 14
8 36 11 50 3 14 6 30 7 35 40 179 172 447 303 615 55 70 248 255 303 291 28
18 50 36 50 41 0 4 5 8 11 8 6 0 25 10 42 22 69 49 271 144 372 174 82 25 152
41 205 50 79 12 95 15 98 19 6 6 384 -1 412 -8z"/>
</g>
</svg>
