<svg width="354" height="167" viewBox="0 0 354 167" fill="none" xmlns="http://www.w3.org/2000/svg">
<rect x="0.57959" width="352.526" height="167" rx="24" fill="white"/>
<rect x="16.5796" y="16" width="40" height="40" rx="12" fill="url(#paint0_linear_1293_7267)" fill-opacity="0.1"/>
<path d="M38.6421 34.625H31.7671C31.2201 34.625 30.6955 34.8423 30.3087 35.2291C29.9219 35.6159 29.7046 36.1405 29.7046 36.6875V44.25C29.7053 44.3857 29.7461 44.5182 29.822 44.6308C29.8978 44.7433 30.0053 44.8309 30.1308 44.8825C30.2124 44.921 30.3019 44.9398 30.3921 44.9375C30.4826 44.938 30.5723 44.9207 30.656 44.8865C30.7398 44.8523 30.816 44.8018 30.8802 44.7381L32.7365 42.875H38.6421C39.1891 42.875 39.7137 42.6577 40.1005 42.2709C40.4873 41.8841 40.7046 41.3595 40.7046 40.8125V36.6875C40.7046 36.1405 40.4873 35.6159 40.1005 35.2291C39.7137 34.8423 39.1891 34.625 38.6421 34.625ZM37.2671 39.4375H33.1421C32.9598 39.4375 32.7849 39.3651 32.656 39.2361C32.527 39.1072 32.4546 38.9323 32.4546 38.75C32.4546 38.5677 32.527 38.3928 32.656 38.2639C32.7849 38.1349 32.9598 38.0625 33.1421 38.0625H37.2671C37.4494 38.0625 37.6243 38.1349 37.7532 38.2639C37.8822 38.3928 37.9546 38.5677 37.9546 38.75C37.9546 38.9323 37.8822 39.1072 37.7532 39.2361C37.6243 39.3651 37.4494 39.4375 37.2671 39.4375Z" fill="black"/>
<path d="M31.7671 30.4999C31.7666 30.621 31.7982 30.7402 31.8585 30.8452C31.9189 30.9502 32.0059 31.0374 32.1108 31.098L36.2358 33.4905C36.3404 33.5509 36.4589 33.5826 36.5796 33.5826C36.7003 33.5826 36.8188 33.5509 36.9233 33.4905C37.0273 33.4305 37.1137 33.3444 37.174 33.2407C37.2343 33.1369 37.2664 33.0192 37.2671 32.8993V32.3011C38.5072 32.1812 39.7588 32.3124 40.947 32.6869C42.1353 33.0613 43.236 33.6713 44.1833 34.4805C44.307 34.5831 44.4626 34.6391 44.6233 34.6389C44.7839 34.6387 44.9394 34.5822 45.0628 34.4793C45.1861 34.3763 45.2695 34.2335 45.2985 34.0755C45.3275 33.9174 45.3002 33.7543 45.2215 33.6143C44.345 32.2642 43.1739 31.1303 41.7961 30.298C40.4184 29.4656 38.8699 28.9564 37.2671 28.8086V28.1211C37.2676 28 37.236 27.8809 37.1757 27.7758C37.1153 27.6708 37.0283 27.5836 36.9233 27.523C36.8188 27.4627 36.7003 27.4309 36.5796 27.4309C36.4589 27.4309 36.3404 27.4627 36.2358 27.523L32.1108 29.9155C32.0079 29.9749 31.9222 30.06 31.8619 30.1624C31.8017 30.2648 31.769 30.3811 31.7671 30.4999Z" fill="black"/>
<rect x="16.5796" y="64" width="153" height="20" rx="10" fill="#E729BD" fill-opacity="0.08"/>
<path d="M29.5636 78V69.672H30.3556L30.6916 70.98V78H29.5636ZM35.3236 78L30.2116 71.172L30.3556 69.672L35.4796 76.488L35.3236 78ZM35.3236 78L34.9876 76.764V69.672H36.1156V78H35.3236ZM40.5311 78.12C39.9631 78.12 39.4511 77.992 38.9951 77.736C38.5391 77.472 38.1791 77.116 37.9151 76.668C37.6511 76.22 37.5191 75.712 37.5191 75.144C37.5191 74.584 37.6471 74.08 37.9031 73.632C38.1671 73.184 38.5191 72.832 38.9591 72.576C39.4071 72.312 39.9071 72.18 40.4591 72.18C40.9871 72.18 41.4511 72.3 41.8511 72.54C42.2591 72.78 42.5751 73.112 42.7991 73.536C43.0311 73.96 43.1471 74.44 43.1471 74.976C43.1471 75.056 43.1431 75.144 43.1351 75.24C43.1271 75.328 43.1111 75.432 43.0871 75.552H38.2751V74.652H42.5111L42.1151 75C42.1151 74.616 42.0471 74.292 41.9111 74.028C41.7751 73.756 41.5831 73.548 41.3351 73.404C41.0871 73.252 40.7871 73.176 40.4351 73.176C40.0671 73.176 39.7431 73.256 39.4631 73.416C39.1831 73.576 38.9671 73.8 38.8151 74.088C38.6631 74.376 38.5871 74.716 38.5871 75.108C38.5871 75.508 38.6671 75.86 38.8271 76.164C38.9871 76.46 39.2151 76.692 39.5111 76.86C39.8071 77.02 40.1471 77.1 40.5311 77.1C40.8511 77.1 41.1431 77.044 41.4071 76.932C41.6791 76.82 41.9111 76.652 42.1031 76.428L42.7991 77.136C42.5271 77.456 42.1911 77.7 41.7911 77.868C41.3991 78.036 40.9791 78.12 40.5311 78.12ZM45.8864 78L43.6304 72.3H44.7584L46.3904 76.74H46.0304L47.6504 72.3H48.2744L49.8944 76.74H49.5344L51.1664 72.3H52.2944L50.0504 78H49.4144L47.7704 73.692H48.1664L46.5104 78H45.8864ZM61.4025 78L57.4185 73.728C57.1065 73.392 56.8745 73.072 56.7225 72.768C56.5705 72.464 56.4945 72.128 56.4945 71.76C56.4945 71.336 56.5945 70.96 56.7945 70.632C56.9945 70.296 57.2705 70.032 57.6225 69.84C57.9745 69.64 58.3785 69.54 58.8345 69.54C59.1705 69.54 59.4745 69.596 59.7465 69.708C60.0265 69.812 60.2705 69.952 60.4785 70.128C60.6945 70.304 60.8745 70.504 61.0185 70.728L60.2385 71.436C60.0545 71.18 59.8505 70.976 59.6265 70.824C59.4105 70.664 59.1465 70.584 58.8345 70.584C58.4745 70.584 58.1745 70.692 57.9345 70.908C57.6945 71.124 57.5745 71.404 57.5745 71.748C57.5745 72.036 57.6345 72.28 57.7545 72.48C57.8745 72.68 58.0545 72.912 58.2945 73.176L62.7225 78H61.4025ZM58.4145 78.12C57.8625 78.12 57.3785 78.012 56.9625 77.796C56.5465 77.58 56.2225 77.284 55.9905 76.908C55.7665 76.524 55.6545 76.088 55.6545 75.6C55.6545 75.096 55.7905 74.64 56.0625 74.232C56.3345 73.824 56.7305 73.5 57.2505 73.26L57.7665 73.932C57.4465 74.092 57.1945 74.312 57.0105 74.592C56.8265 74.864 56.7345 75.192 56.7345 75.576C56.7345 75.888 56.8065 76.156 56.9505 76.38C57.0945 76.604 57.2945 76.78 57.5505 76.908C57.8145 77.028 58.1145 77.088 58.4505 77.088C58.8745 77.088 59.2345 77 59.5305 76.824C59.8265 76.648 60.0505 76.424 60.2025 76.152L60.9105 76.98C60.7505 77.196 60.5385 77.392 60.2745 77.568C60.0185 77.736 59.7305 77.872 59.4105 77.976C59.0985 78.072 58.7665 78.12 58.4145 78.12ZM69.0117 78.12C68.3957 78.12 67.8437 77.984 67.3557 77.712C66.8757 77.432 66.4957 77.052 66.2157 76.572C65.9357 76.084 65.7957 75.532 65.7957 74.916V69.672H66.9237V74.892C66.9237 75.332 67.0157 75.712 67.1997 76.032C67.3837 76.352 67.6317 76.6 67.9437 76.776C68.2637 76.952 68.6197 77.04 69.0117 77.04C69.4197 77.04 69.7757 76.952 70.0797 76.776C70.3917 76.6 70.6357 76.352 70.8117 76.032C70.9957 75.712 71.0877 75.336 71.0877 74.904V69.672H72.2277V74.928C72.2277 75.544 72.0877 76.092 71.8077 76.572C71.5277 77.052 71.1477 77.432 70.6677 77.712C70.1877 77.984 69.6357 78.12 69.0117 78.12ZM76.8911 78.12C76.4591 78.12 76.0671 78.032 75.7151 77.856C75.3711 77.672 75.0951 77.42 74.8871 77.1C74.6791 76.78 74.5631 76.416 74.5391 76.008V74.292C74.5631 73.876 74.6791 73.512 74.8871 73.2C75.1031 72.88 75.3831 72.632 75.7271 72.456C76.0791 72.272 76.4671 72.18 76.8911 72.18C77.4111 72.18 77.8791 72.312 78.2951 72.576C78.7191 72.84 79.0511 73.196 79.2911 73.644C79.5311 74.092 79.6511 74.596 79.6511 75.156C79.6511 75.716 79.5311 76.22 79.2911 76.668C79.0511 77.116 78.7191 77.472 78.2951 77.736C77.8791 77.992 77.4111 78.12 76.8911 78.12ZM76.7111 77.1C77.0711 77.1 77.3871 77.016 77.6591 76.848C77.9311 76.68 78.1471 76.452 78.3071 76.164C78.4671 75.868 78.5471 75.528 78.5471 75.144C78.5471 74.768 78.4671 74.432 78.3071 74.136C78.1471 73.84 77.9311 73.612 77.6591 73.452C77.3871 73.284 77.0751 73.2 76.7231 73.2C76.3631 73.2 76.0471 73.284 75.7751 73.452C75.5031 73.612 75.2911 73.84 75.1391 74.136C74.9871 74.432 74.9111 74.772 74.9111 75.156C74.9111 75.532 74.9831 75.868 75.1271 76.164C75.2791 76.452 75.4911 76.68 75.7631 76.848C76.0431 77.016 76.3591 77.1 76.7111 77.1ZM73.8911 80.388V72.3H74.9711V73.8L74.7671 75.18L74.9711 76.572V80.388H73.8911ZM83.2875 78.12C82.7595 78.12 82.2875 77.992 81.8715 77.736C81.4555 77.472 81.1235 77.116 80.8755 76.668C80.6355 76.22 80.5155 75.716 80.5155 75.156C80.5155 74.596 80.6355 74.092 80.8755 73.644C81.1235 73.196 81.4555 72.84 81.8715 72.576C82.2875 72.312 82.7595 72.18 83.2875 72.18C83.7115 72.18 84.0955 72.272 84.4395 72.456C84.7835 72.632 85.0595 72.88 85.2675 73.2C85.4835 73.512 85.6035 73.876 85.6275 74.292V76.008C85.6035 76.416 85.4875 76.78 85.2795 77.1C85.0715 77.42 84.7955 77.672 84.4515 77.856C84.1075 78.032 83.7195 78.12 83.2875 78.12ZM83.4675 77.1C83.8275 77.1 84.1395 77.016 84.4035 76.848C84.6755 76.68 84.8875 76.452 85.0395 76.164C85.1915 75.868 85.2675 75.532 85.2675 75.156C85.2675 74.764 85.1875 74.424 85.0275 74.136C84.8755 73.848 84.6635 73.62 84.3915 73.452C84.1275 73.284 83.8155 73.2 83.4555 73.2C83.0955 73.2 82.7795 73.284 82.5075 73.452C82.2355 73.62 82.0195 73.852 81.8595 74.148C81.7075 74.436 81.6315 74.768 81.6315 75.144C81.6315 75.528 81.7075 75.868 81.8595 76.164C82.0195 76.452 82.2355 76.68 82.5075 76.848C82.7875 77.016 83.1075 77.1 83.4675 77.1ZM86.2875 78H85.1955V76.464L85.3995 75.072L85.1955 73.692V69.432H86.2875V78ZM90.2839 78.12C89.7639 78.12 89.2919 77.992 88.8679 77.736C88.4439 77.472 88.1079 77.116 87.8599 76.668C87.6199 76.22 87.4999 75.716 87.4999 75.156C87.4999 74.596 87.6199 74.092 87.8599 73.644C88.1079 73.196 88.4399 72.84 88.8559 72.576C89.2799 72.312 89.7559 72.18 90.2839 72.18C90.7159 72.18 91.0999 72.272 91.4359 72.456C91.7799 72.632 92.0559 72.88 92.2639 73.2C92.4719 73.512 92.5879 73.876 92.6119 74.292V76.008C92.5879 76.416 92.4719 76.78 92.2639 77.1C92.0639 77.42 91.7919 77.672 91.4479 77.856C91.1119 78.032 90.7239 78.12 90.2839 78.12ZM90.4639 77.1C90.9999 77.1 91.4319 76.92 91.7599 76.56C92.0879 76.192 92.2519 75.724 92.2519 75.156C92.2519 74.764 92.1759 74.424 92.0239 74.136C91.8799 73.84 91.6719 73.612 91.3999 73.452C91.1279 73.284 90.8119 73.2 90.4519 73.2C90.0919 73.2 89.7719 73.284 89.4919 73.452C89.2199 73.62 89.0039 73.852 88.8439 74.148C88.6919 74.436 88.6159 74.768 88.6159 75.144C88.6159 75.528 88.6919 75.868 88.8439 76.164C89.0039 76.452 89.2239 76.68 89.5039 76.848C89.7839 77.016 90.1039 77.1 90.4639 77.1ZM92.1799 78V76.464L92.3839 75.072L92.1799 73.692V72.3H93.2719V78H92.1799ZM95.6968 78V69.912H96.7768V78H95.6968ZM94.2928 73.284V72.3H98.1808V73.284H94.2928ZM101.703 78.12C101.135 78.12 100.623 77.992 100.167 77.736C99.711 77.472 99.351 77.116 99.087 76.668C98.823 76.22 98.691 75.712 98.691 75.144C98.691 74.584 98.819 74.08 99.075 73.632C99.339 73.184 99.691 72.832 100.131 72.576C100.579 72.312 101.079 72.18 101.631 72.18C102.159 72.18 102.623 72.3 103.023 72.54C103.431 72.78 103.747 73.112 103.971 73.536C104.203 73.96 104.319 74.44 104.319 74.976C104.319 75.056 104.315 75.144 104.307 75.24C104.299 75.328 104.283 75.432 104.259 75.552H99.447V74.652H103.683L103.287 75C103.287 74.616 103.219 74.292 103.083 74.028C102.947 73.756 102.755 73.548 102.507 73.404C102.259 73.252 101.959 73.176 101.607 73.176C101.239 73.176 100.915 73.256 100.635 73.416C100.355 73.576 100.139 73.8 99.987 74.088C99.835 74.376 99.759 74.716 99.759 75.108C99.759 75.508 99.839 75.86 99.999 76.164C100.159 76.46 100.387 76.692 100.683 76.86C100.979 77.02 101.319 77.1 101.703 77.1C102.023 77.1 102.315 77.044 102.579 76.932C102.851 76.82 103.083 76.652 103.275 76.428L103.971 77.136C103.699 77.456 103.363 77.7 102.963 77.868C102.571 78.036 102.151 78.12 101.703 78.12ZM107.909 78.12C107.381 78.12 106.909 77.992 106.493 77.736C106.077 77.472 105.745 77.116 105.497 76.668C105.257 76.22 105.137 75.716 105.137 75.156C105.137 74.596 105.257 74.092 105.497 73.644C105.745 73.196 106.077 72.84 106.493 72.576C106.909 72.312 107.381 72.18 107.909 72.18C108.333 72.18 108.717 72.272 109.061 72.456C109.405 72.632 109.681 72.88 109.889 73.2C110.105 73.512 110.225 73.876 110.249 74.292V76.008C110.225 76.416 110.109 76.78 109.901 77.1C109.693 77.42 109.417 77.672 109.073 77.856C108.729 78.032 108.341 78.12 107.909 78.12ZM108.089 77.1C108.449 77.1 108.761 77.016 109.025 76.848C109.297 76.68 109.509 76.452 109.661 76.164C109.813 75.868 109.889 75.532 109.889 75.156C109.889 74.764 109.809 74.424 109.649 74.136C109.497 73.848 109.285 73.62 109.013 73.452C108.749 73.284 108.437 73.2 108.077 73.2C107.717 73.2 107.401 73.284 107.129 73.452C106.857 73.62 106.641 73.852 106.481 74.148C106.329 74.436 106.253 74.768 106.253 75.144C106.253 75.528 106.329 75.868 106.481 76.164C106.641 76.452 106.857 76.68 107.129 76.848C107.409 77.016 107.729 77.1 108.089 77.1ZM110.909 78H109.817V76.464L110.021 75.072L109.817 73.692V69.432H110.909V78ZM118.949 78.12C118.349 78.12 117.793 78.012 117.281 77.796C116.769 77.572 116.321 77.264 115.937 76.872C115.561 76.48 115.269 76.024 115.061 75.504C114.853 74.984 114.749 74.428 114.749 73.836C114.749 73.236 114.853 72.676 115.061 72.156C115.269 71.636 115.561 71.184 115.937 70.8C116.321 70.408 116.765 70.104 117.269 69.888C117.781 69.664 118.337 69.552 118.937 69.552C119.593 69.552 120.169 69.664 120.665 69.888C121.161 70.112 121.601 70.416 121.985 70.8L121.205 71.58C120.941 71.284 120.617 71.052 120.233 70.884C119.857 70.716 119.425 70.632 118.937 70.632C118.497 70.632 118.093 70.712 117.725 70.872C117.357 71.024 117.037 71.244 116.765 71.532C116.493 71.82 116.281 72.16 116.129 72.552C115.985 72.944 115.913 73.372 115.913 73.836C115.913 74.3 115.985 74.728 116.129 75.12C116.281 75.512 116.493 75.852 116.765 76.14C117.037 76.428 117.357 76.652 117.725 76.812C118.093 76.964 118.497 77.04 118.937 77.04C119.457 77.04 119.909 76.956 120.293 76.788C120.677 76.612 121.001 76.376 121.265 76.08L122.045 76.848C121.661 77.248 121.209 77.56 120.689 77.784C120.177 78.008 119.597 78.12 118.949 78.12ZM125.644 78.12C125.084 78.12 124.58 77.988 124.132 77.724C123.684 77.46 123.328 77.104 123.064 76.656C122.8 76.2 122.668 75.692 122.668 75.132C122.668 74.58 122.8 74.084 123.064 73.644C123.328 73.196 123.684 72.84 124.132 72.576C124.58 72.312 125.084 72.18 125.644 72.18C126.196 72.18 126.696 72.312 127.144 72.576C127.6 72.832 127.96 73.184 128.224 73.632C128.488 74.08 128.62 74.58 128.62 75.132C128.62 75.692 128.488 76.2 128.224 76.656C127.96 77.104 127.6 77.46 127.144 77.724C126.696 77.988 126.196 78.12 125.644 78.12ZM125.644 77.076C126.004 77.076 126.324 76.992 126.604 76.824C126.884 76.656 127.104 76.428 127.264 76.14C127.424 75.844 127.504 75.508 127.504 75.132C127.504 74.764 127.42 74.436 127.252 74.148C127.092 73.86 126.872 73.636 126.592 73.476C126.32 73.308 126.004 73.224 125.644 73.224C125.284 73.224 124.964 73.308 124.684 73.476C124.404 73.636 124.184 73.86 124.024 74.148C123.864 74.436 123.784 74.764 123.784 75.132C123.784 75.508 123.864 75.844 124.024 76.14C124.184 76.428 124.404 76.656 124.684 76.824C124.964 76.992 125.284 77.076 125.644 77.076ZM133.868 78V74.676C133.868 74.244 133.732 73.888 133.46 73.608C133.188 73.328 132.836 73.188 132.404 73.188C132.116 73.188 131.86 73.252 131.636 73.38C131.412 73.508 131.236 73.684 131.108 73.908C130.98 74.132 130.916 74.388 130.916 74.676L130.472 74.424C130.472 73.992 130.568 73.608 130.76 73.272C130.952 72.936 131.22 72.672 131.564 72.48C131.908 72.28 132.296 72.18 132.728 72.18C133.16 72.18 133.54 72.288 133.868 72.504C134.204 72.72 134.468 73.004 134.66 73.356C134.852 73.7 134.948 74.068 134.948 74.46V78H133.868ZM129.836 78V72.3H130.916V78H129.836ZM137.216 78V69.912H138.296V78H137.216ZM135.812 73.284V72.3H139.7V73.284H135.812ZM143.007 78.12C142.487 78.12 142.015 77.992 141.591 77.736C141.167 77.472 140.831 77.116 140.583 76.668C140.343 76.22 140.223 75.716 140.223 75.156C140.223 74.596 140.343 74.092 140.583 73.644C140.831 73.196 141.163 72.84 141.579 72.576C142.003 72.312 142.479 72.18 143.007 72.18C143.439 72.18 143.823 72.272 144.159 72.456C144.503 72.632 144.779 72.88 144.987 73.2C145.195 73.512 145.311 73.876 145.335 74.292V76.008C145.311 76.416 145.195 76.78 144.987 77.1C144.787 77.42 144.515 77.672 144.171 77.856C143.835 78.032 143.447 78.12 143.007 78.12ZM143.187 77.1C143.723 77.1 144.155 76.92 144.483 76.56C144.811 76.192 144.975 75.724 144.975 75.156C144.975 74.764 144.899 74.424 144.747 74.136C144.603 73.84 144.395 73.612 144.123 73.452C143.851 73.284 143.535 73.2 143.175 73.2C142.815 73.2 142.495 73.284 142.215 73.452C141.943 73.62 141.727 73.852 141.567 74.148C141.415 74.436 141.339 74.768 141.339 75.144C141.339 75.528 141.415 75.868 141.567 76.164C141.727 76.452 141.947 76.68 142.227 76.848C142.507 77.016 142.827 77.1 143.187 77.1ZM144.903 78V76.464L145.107 75.072L144.903 73.692V72.3H145.995V78H144.903ZM150.171 78.12C149.611 78.12 149.103 77.988 148.647 77.724C148.199 77.46 147.843 77.104 147.579 76.656C147.323 76.2 147.195 75.696 147.195 75.144C147.195 74.584 147.323 74.08 147.579 73.632C147.843 73.184 148.199 72.832 148.647 72.576C149.103 72.312 149.611 72.18 150.171 72.18C150.611 72.18 151.019 72.264 151.395 72.432C151.771 72.592 152.095 72.828 152.367 73.14L151.647 73.86C151.471 73.652 151.255 73.496 150.999 73.392C150.751 73.28 150.475 73.224 150.171 73.224C149.811 73.224 149.491 73.308 149.211 73.476C148.931 73.636 148.711 73.86 148.551 74.148C148.391 74.436 148.311 74.768 148.311 75.144C148.311 75.52 148.391 75.852 148.551 76.14C148.711 76.428 148.931 76.656 149.211 76.824C149.491 76.992 149.811 77.076 150.171 77.076C150.475 77.076 150.751 77.024 150.999 76.92C151.255 76.808 151.475 76.648 151.659 76.44L152.367 77.16C152.103 77.464 151.779 77.7 151.395 77.868C151.019 78.036 150.611 78.12 150.171 78.12ZM154.244 78V69.912H155.324V78H154.244ZM152.84 73.284V72.3H156.728V73.284H152.84Z" fill="#E729BD"/>
<path d="M17.0116 110L22.1956 97.4H23.6356L28.7836 110H26.5516L22.5196 99.794H23.2756L19.2076 110H17.0116ZM19.5676 107.57V105.77H26.2456V107.57H19.5676ZM33.5459 110.18C32.8139 110.18 32.1599 110.018 31.5839 109.694C31.0199 109.37 30.5759 108.926 30.2519 108.362C29.9399 107.786 29.7839 107.126 29.7839 106.382V101.36H31.7639V106.292C31.7639 106.712 31.8299 107.072 31.9619 107.372C32.1059 107.66 32.3099 107.882 32.5739 108.038C32.8499 108.194 33.1739 108.272 33.5459 108.272C34.1219 108.272 34.5599 108.104 34.8599 107.768C35.1719 107.42 35.3279 106.928 35.3279 106.292V101.36H37.3079V106.382C37.3079 107.138 37.1459 107.804 36.8219 108.38C36.5099 108.944 36.0719 109.388 35.5079 109.712C34.9439 110.024 34.2899 110.18 33.5459 110.18ZM40.6127 110V97.76H42.5927V110H40.6127ZM38.5427 103.16V101.36H44.6627V103.16H38.5427ZM49.8153 110.18C48.9753 110.18 48.2133 109.982 47.5293 109.586C46.8453 109.178 46.2993 108.632 45.8913 107.948C45.4953 107.264 45.2973 106.502 45.2973 105.662C45.2973 104.822 45.4953 104.066 45.8913 103.394C46.2993 102.722 46.8453 102.188 47.5293 101.792C48.2133 101.384 48.9753 101.18 49.8153 101.18C50.6673 101.18 51.4353 101.378 52.1193 101.774C52.8033 102.17 53.3433 102.71 53.7393 103.394C54.1473 104.066 54.3513 104.822 54.3513 105.662C54.3513 106.502 54.1473 107.264 53.7393 107.948C53.3433 108.632 52.8033 109.178 52.1193 109.586C51.4353 109.982 50.6673 110.18 49.8153 110.18ZM49.8153 108.272C50.3073 108.272 50.7393 108.164 51.1113 107.948C51.4953 107.72 51.7893 107.408 51.9933 107.012C52.2093 106.616 52.3173 106.166 52.3173 105.662C52.3173 105.158 52.2093 104.714 51.9933 104.33C51.7773 103.946 51.4833 103.646 51.1113 103.43C50.7393 103.202 50.3073 103.088 49.8153 103.088C49.3353 103.088 48.9033 103.202 48.5193 103.43C48.1473 103.646 47.8533 103.946 47.6373 104.33C47.4333 104.714 47.3313 105.158 47.3313 105.662C47.3313 106.166 47.4333 106.616 47.6373 107.012C47.8533 107.408 48.1473 107.72 48.5193 107.948C48.9033 108.164 49.3353 108.272 49.8153 108.272ZM59.6014 110V101.36H61.5814V110H59.6014ZM61.5814 105.194L60.8974 104.852C60.8974 103.76 61.1374 102.878 61.6174 102.206C62.1094 101.522 62.8474 101.18 63.8314 101.18C64.2634 101.18 64.6534 101.258 65.0014 101.414C65.3494 101.57 65.6734 101.822 65.9734 102.17L64.6774 103.502C64.5214 103.334 64.3474 103.214 64.1554 103.142C63.9634 103.07 63.7414 103.034 63.4894 103.034C62.9374 103.034 62.4814 103.208 62.1214 103.556C61.7614 103.904 61.5814 104.45 61.5814 105.194ZM70.6818 110.18C69.8178 110.18 69.0378 109.988 68.3418 109.604C67.6578 109.208 67.1118 108.668 66.7038 107.984C66.3078 107.3 66.1098 106.532 66.1098 105.68C66.1098 104.828 66.3078 104.066 66.7038 103.394C67.0998 102.71 67.6338 102.17 68.3058 101.774C68.9898 101.378 69.7458 101.18 70.5738 101.18C71.3778 101.18 72.0858 101.366 72.6978 101.738C73.3218 102.11 73.8078 102.62 74.1558 103.268C74.5158 103.916 74.6958 104.654 74.6958 105.482C74.6958 105.626 74.6838 105.776 74.6598 105.932C74.6478 106.076 74.6238 106.238 74.5878 106.418H67.4958V104.798H73.5618L72.8238 105.446C72.7998 104.918 72.6978 104.474 72.5178 104.114C72.3378 103.754 72.0798 103.478 71.7438 103.286C71.4198 103.094 71.0178 102.998 70.5378 102.998C70.0338 102.998 69.5958 103.106 69.2238 103.322C68.8518 103.538 68.5638 103.844 68.3598 104.24C68.1558 104.624 68.0538 105.086 68.0538 105.626C68.0538 106.166 68.1618 106.64 68.3778 107.048C68.5938 107.456 68.8998 107.774 69.2958 108.002C69.6918 108.218 70.1478 108.326 70.6638 108.326C71.1078 108.326 71.5158 108.248 71.8878 108.092C72.2718 107.936 72.5958 107.708 72.8598 107.408L74.1198 108.686C73.6998 109.178 73.1898 109.55 72.5898 109.802C71.9898 110.054 71.3538 110.18 70.6818 110.18ZM80.9091 110.18C80.2491 110.18 79.6611 110.042 79.1451 109.766C78.6291 109.478 78.2211 109.088 77.9211 108.596C77.6331 108.104 77.4891 107.546 77.4891 106.922V104.438C77.4891 103.814 77.6391 103.256 77.9391 102.764C78.2391 102.272 78.6471 101.888 79.1631 101.612C79.6791 101.324 80.2611 101.18 80.9091 101.18C81.6891 101.18 82.3911 101.384 83.0151 101.792C83.6511 102.188 84.1491 102.728 84.5091 103.412C84.8811 104.084 85.0671 104.846 85.0671 105.698C85.0671 106.538 84.8811 107.3 84.5091 107.984C84.1491 108.656 83.6511 109.19 83.0151 109.586C82.3911 109.982 81.6891 110.18 80.9091 110.18ZM80.5851 108.308C81.0651 108.308 81.4851 108.2 81.8451 107.984C82.2171 107.756 82.5051 107.444 82.7091 107.048C82.9251 106.652 83.0331 106.196 83.0331 105.68C83.0331 105.164 82.9251 104.708 82.7091 104.312C82.5051 103.916 82.2171 103.61 81.8451 103.394C81.4851 103.166 81.0651 103.052 80.5851 103.052C80.1051 103.052 79.6791 103.166 79.3071 103.394C78.9351 103.61 78.6471 103.916 78.4431 104.312C78.2391 104.708 78.1371 105.164 78.1371 105.68C78.1371 106.196 78.2391 106.652 78.4431 107.048C78.6471 107.444 78.9351 107.756 79.3071 107.984C79.6791 108.2 80.1051 108.308 80.5851 108.308ZM76.2831 113.6V101.36H78.2631V103.682L77.9211 105.788L78.2631 107.876V113.6H76.2831ZM86.7245 110V97.04H88.7045V110H86.7245ZM93.6981 110.09L90.0081 101.36H92.1861L94.7061 107.768H94.0761L96.7401 101.36H98.9361L94.9221 110.09H93.6981ZM91.1241 113.6L93.8061 108.074L94.9221 110.09L93.3201 113.6H91.1241ZM106.546 112.142C105.91 111.578 105.358 110.888 104.89 110.072C104.434 109.256 104.08 108.362 103.828 107.39C103.576 106.418 103.45 105.41 103.45 104.366C103.45 103.322 103.576 102.314 103.828 101.342C104.08 100.37 104.434 99.476 104.89 98.66C105.358 97.844 105.91 97.154 106.546 96.59L107.68 97.598C106.888 98.33 106.27 99.278 105.826 100.442C105.394 101.594 105.178 102.902 105.178 104.366C105.178 105.818 105.394 107.126 105.826 108.29C106.27 109.454 106.888 110.402 107.68 111.134L106.546 112.142ZM112.717 110L108.577 97.4H110.611L113.725 107.102H113.185L116.227 97.4H117.667L120.709 107.102H120.169L123.283 97.4H125.317L121.177 110H119.737L116.677 100.316H117.217L114.157 110H112.717ZM129.639 110.18C128.775 110.18 127.995 109.988 127.299 109.604C126.615 109.208 126.069 108.668 125.661 107.984C125.265 107.3 125.067 106.532 125.067 105.68C125.067 104.828 125.265 104.066 125.661 103.394C126.057 102.71 126.591 102.17 127.263 101.774C127.947 101.378 128.703 101.18 129.531 101.18C130.335 101.18 131.043 101.366 131.655 101.738C132.279 102.11 132.765 102.62 133.113 103.268C133.473 103.916 133.653 104.654 133.653 105.482C133.653 105.626 133.641 105.776 133.617 105.932C133.605 106.076 133.581 106.238 133.545 106.418H126.453V104.798H132.519L131.781 105.446C131.757 104.918 131.655 104.474 131.475 104.114C131.295 103.754 131.037 103.478 130.701 103.286C130.377 103.094 129.975 102.998 129.495 102.998C128.991 102.998 128.553 103.106 128.181 103.322C127.809 103.538 127.521 103.844 127.317 104.24C127.113 104.624 127.011 105.086 127.011 105.626C127.011 106.166 127.119 106.64 127.335 107.048C127.551 107.456 127.857 107.774 128.253 108.002C128.649 108.218 129.105 108.326 129.621 108.326C130.065 108.326 130.473 108.248 130.845 108.092C131.229 107.936 131.553 107.708 131.817 107.408L133.077 108.686C132.657 109.178 132.147 109.55 131.547 109.802C130.947 110.054 130.311 110.18 129.639 110.18ZM139.254 110.18C138.39 110.18 137.61 109.988 136.914 109.604C136.23 109.208 135.684 108.668 135.276 107.984C134.88 107.3 134.682 106.532 134.682 105.68C134.682 104.828 134.88 104.066 135.276 103.394C135.672 102.71 136.206 102.17 136.878 101.774C137.562 101.378 138.318 101.18 139.146 101.18C139.95 101.18 140.658 101.366 141.27 101.738C141.894 102.11 142.38 102.62 142.728 103.268C143.088 103.916 143.268 104.654 143.268 105.482C143.268 105.626 143.256 105.776 143.232 105.932C143.22 106.076 143.196 106.238 143.16 106.418H136.068V104.798H142.134L141.396 105.446C141.372 104.918 141.27 104.474 141.09 104.114C140.91 103.754 140.652 103.478 140.316 103.286C139.992 103.094 139.59 102.998 139.11 102.998C138.606 102.998 138.168 103.106 137.796 103.322C137.424 103.538 137.136 103.844 136.932 104.24C136.728 104.624 136.626 105.086 136.626 105.626C136.626 106.166 136.734 106.64 136.95 107.048C137.166 107.456 137.472 107.774 137.868 108.002C138.264 108.218 138.72 108.326 139.236 108.326C139.68 108.326 140.088 108.248 140.46 108.092C140.844 107.936 141.168 107.708 141.432 107.408L142.692 108.686C142.272 109.178 141.762 109.55 141.162 109.802C140.562 110.054 139.926 110.18 139.254 110.18ZM150.345 110L146.691 105.59L150.327 101.36H152.685L148.509 106.112L148.599 104.978L152.865 110H150.345ZM144.855 110V97.04H146.835V110H144.855ZM157.623 110.18C156.759 110.18 155.979 109.988 155.283 109.604C154.599 109.208 154.053 108.668 153.645 107.984C153.249 107.3 153.051 106.532 153.051 105.68C153.051 104.828 153.249 104.066 153.645 103.394C154.041 102.71 154.575 102.17 155.247 101.774C155.931 101.378 156.687 101.18 157.515 101.18C158.319 101.18 159.027 101.366 159.639 101.738C160.263 102.11 160.749 102.62 161.097 103.268C161.457 103.916 161.637 104.654 161.637 105.482C161.637 105.626 161.625 105.776 161.601 105.932C161.589 106.076 161.565 106.238 161.529 106.418H154.437V104.798H160.503L159.765 105.446C159.741 104.918 159.639 104.474 159.459 104.114C159.279 103.754 159.021 103.478 158.685 103.286C158.361 103.094 157.959 102.998 157.479 102.998C156.975 102.998 156.537 103.106 156.165 103.322C155.793 103.538 155.505 103.844 155.301 104.24C155.097 104.624 154.995 105.086 154.995 105.626C154.995 106.166 155.103 106.64 155.319 107.048C155.535 107.456 155.841 107.774 156.237 108.002C156.633 108.218 157.089 108.326 157.605 108.326C158.049 108.326 158.457 108.248 158.829 108.092C159.213 107.936 159.537 107.708 159.801 107.408L161.061 108.686C160.641 109.178 160.131 109.55 159.531 109.802C158.931 110.054 158.295 110.18 157.623 110.18ZM169.146 110V105.014C169.146 104.438 168.96 103.964 168.588 103.592C168.228 103.22 167.76 103.034 167.184 103.034C166.8 103.034 166.458 103.118 166.158 103.286C165.858 103.454 165.624 103.688 165.456 103.988C165.288 104.288 165.204 104.63 165.204 105.014L164.43 104.582C164.43 103.922 164.574 103.34 164.862 102.836C165.15 102.32 165.546 101.918 166.05 101.63C166.566 101.33 167.142 101.18 167.778 101.18C168.426 101.18 169.002 101.348 169.506 101.684C170.01 102.008 170.406 102.434 170.694 102.962C170.982 103.478 171.126 104.018 171.126 104.582V110H169.146ZM163.224 110V101.36H165.204V110H163.224ZM176.757 110.18C175.977 110.18 175.269 109.982 174.633 109.586C174.009 109.19 173.511 108.656 173.139 107.984C172.779 107.3 172.599 106.538 172.599 105.698C172.599 104.846 172.779 104.084 173.139 103.412C173.511 102.728 174.009 102.188 174.633 101.792C175.269 101.384 175.977 101.18 176.757 101.18C177.417 101.18 177.999 101.324 178.503 101.612C179.019 101.888 179.427 102.272 179.727 102.764C180.027 103.256 180.177 103.814 180.177 104.438V106.922C180.177 107.546 180.027 108.104 179.727 108.596C179.439 109.088 179.037 109.478 178.521 109.766C178.005 110.042 177.417 110.18 176.757 110.18ZM177.081 108.308C177.573 108.308 177.999 108.2 178.359 107.984C178.731 107.756 179.019 107.444 179.223 107.048C179.427 106.652 179.529 106.196 179.529 105.68C179.529 105.164 179.427 104.708 179.223 104.312C179.019 103.916 178.731 103.61 178.359 103.394C177.999 103.166 177.573 103.052 177.081 103.052C176.601 103.052 176.175 103.166 175.803 103.394C175.443 103.61 175.155 103.916 174.939 104.312C174.735 104.708 174.633 105.164 174.633 105.68C174.633 106.196 174.735 106.652 174.939 107.048C175.155 107.444 175.443 107.756 175.803 107.984C176.175 108.2 176.601 108.308 177.081 108.308ZM181.383 110H179.403V107.678L179.745 105.572L179.403 103.484V97.04H181.383V110ZM184.048 112.142L182.914 111.134C183.706 110.402 184.318 109.454 184.75 108.29C185.194 107.126 185.416 105.818 185.416 104.366C185.416 102.902 185.194 101.594 184.75 100.442C184.318 99.278 183.706 98.33 182.914 97.598L184.048 96.59C184.684 97.154 185.23 97.844 185.686 98.66C186.154 99.476 186.514 100.37 186.766 101.342C187.018 102.314 187.144 103.322 187.144 104.366C187.144 105.41 187.018 106.418 186.766 107.39C186.514 108.362 186.154 109.256 185.686 110.072C185.23 110.888 184.684 111.578 184.048 112.142Z" fill="#030037"/>
<path d="M17.0136 138L20.9896 128.284H21.9416L25.9036 138H24.4756L21.2136 129.782H21.7036L18.4136 138H17.0136ZM18.9036 135.802V134.654H24.0136V135.802H18.9036ZM29.6795 138.14C29.1382 138.14 28.6482 138.019 28.2095 137.776C27.7802 137.524 27.4442 137.179 27.2015 136.74C26.9589 136.301 26.8375 135.793 26.8375 135.214V131.35H28.0975V135.158C28.0975 135.522 28.1582 135.839 28.2795 136.11C28.4102 136.371 28.5969 136.572 28.8395 136.712C29.0822 136.852 29.3669 136.922 29.6935 136.922C30.1882 136.922 30.5755 136.768 30.8555 136.46C31.1355 136.143 31.2755 135.709 31.2755 135.158V131.35H32.5355V135.214C32.5355 135.793 32.4142 136.301 32.1715 136.74C31.9289 137.179 31.5929 137.524 31.1635 137.776C30.7435 138.019 30.2489 138.14 29.6795 138.14ZM35.2463 138V128.564H36.5063V138H35.2463ZM33.6083 132.498V131.35H38.1443V132.498H33.6083ZM42.2115 138.14C41.5582 138.14 40.9702 137.986 40.4475 137.678C39.9248 137.37 39.5095 136.955 39.2015 136.432C38.8935 135.9 38.7395 135.307 38.7395 134.654C38.7395 134.01 38.8935 133.431 39.2015 132.918C39.5095 132.395 39.9248 131.98 40.4475 131.672C40.9702 131.364 41.5582 131.21 42.2115 131.21C42.8555 131.21 43.4388 131.364 43.9615 131.672C44.4935 131.971 44.9135 132.381 45.2215 132.904C45.5295 133.427 45.6835 134.01 45.6835 134.654C45.6835 135.307 45.5295 135.9 45.2215 136.432C44.9135 136.955 44.4935 137.37 43.9615 137.678C43.4388 137.986 42.8555 138.14 42.2115 138.14ZM42.2115 136.922C42.6315 136.922 43.0048 136.824 43.3315 136.628C43.6582 136.432 43.9148 136.166 44.1015 135.83C44.2882 135.485 44.3815 135.093 44.3815 134.654C44.3815 134.225 44.2835 133.842 44.0875 133.506C43.9008 133.17 43.6442 132.909 43.3175 132.722C43.0002 132.526 42.6315 132.428 42.2115 132.428C41.7915 132.428 41.4182 132.526 41.0915 132.722C40.7648 132.909 40.5082 133.17 40.3215 133.506C40.1348 133.842 40.0415 134.225 40.0415 134.654C40.0415 135.093 40.1348 135.485 40.3215 135.83C40.5082 136.166 40.7648 136.432 41.0915 136.628C41.4182 136.824 41.7915 136.922 42.2115 136.922ZM47.3219 135.032V133.842H51.9279V135.032H47.3219ZM53.7751 138V131.35H55.0351V138H53.7751ZM55.0351 134.206L54.5591 133.996C54.5591 133.147 54.7551 132.47 55.1471 131.966C55.5391 131.462 56.1037 131.21 56.8411 131.21C57.1771 131.21 57.4804 131.271 57.7511 131.392C58.0217 131.504 58.2737 131.695 58.5071 131.966L57.6811 132.82C57.5411 132.671 57.3871 132.563 57.2191 132.498C57.0511 132.433 56.8551 132.4 56.6311 132.4C56.1644 132.4 55.7817 132.549 55.4831 132.848C55.1844 133.147 55.0351 133.599 55.0351 134.206ZM62.2555 138.14C61.5928 138.14 60.9955 137.991 60.4635 137.692C59.9315 137.384 59.5115 136.969 59.2035 136.446C58.8955 135.923 58.7415 135.331 58.7415 134.668C58.7415 134.015 58.8908 133.427 59.1895 132.904C59.4975 132.381 59.9081 131.971 60.4215 131.672C60.9441 131.364 61.5275 131.21 62.1715 131.21C62.7875 131.21 63.3288 131.35 63.7955 131.63C64.2715 131.91 64.6401 132.297 64.9015 132.792C65.1721 133.287 65.3075 133.847 65.3075 134.472C65.3075 134.565 65.3028 134.668 65.2935 134.78C65.2841 134.883 65.2655 135.004 65.2375 135.144H59.6235V134.094H64.5655L64.1035 134.5C64.1035 134.052 64.0241 133.674 63.8655 133.366C63.7068 133.049 63.4828 132.806 63.1935 132.638C62.9041 132.461 62.5541 132.372 62.1435 132.372C61.7141 132.372 61.3361 132.465 61.0095 132.652C60.6828 132.839 60.4308 133.1 60.2535 133.436C60.0761 133.772 59.9875 134.169 59.9875 134.626C59.9875 135.093 60.0808 135.503 60.2675 135.858C60.4541 136.203 60.7201 136.474 61.0655 136.67C61.4108 136.857 61.8075 136.95 62.2555 136.95C62.6288 136.95 62.9695 136.885 63.2775 136.754C63.5948 136.623 63.8655 136.427 64.0895 136.166L64.9015 136.992C64.5841 137.365 64.1921 137.65 63.7255 137.846C63.2681 138.042 62.7781 138.14 62.2555 138.14ZM70.1813 138.14C69.6773 138.14 69.22 138.037 68.8093 137.832C68.408 137.617 68.086 137.323 67.8433 136.95C67.6007 136.577 67.4653 136.152 67.4373 135.676V133.674C67.4653 133.189 67.6007 132.764 67.8433 132.4C68.0953 132.027 68.422 131.737 68.8233 131.532C69.234 131.317 69.6867 131.21 70.1813 131.21C70.788 131.21 71.334 131.364 71.8193 131.672C72.314 131.98 72.7013 132.395 72.9813 132.918C73.2613 133.441 73.4013 134.029 73.4013 134.682C73.4013 135.335 73.2613 135.923 72.9813 136.446C72.7013 136.969 72.314 137.384 71.8193 137.692C71.334 137.991 70.788 138.14 70.1813 138.14ZM69.9713 136.95C70.3913 136.95 70.76 136.852 71.0773 136.656C71.3947 136.46 71.6467 136.194 71.8333 135.858C72.02 135.513 72.1133 135.116 72.1133 134.668C72.1133 134.229 72.02 133.837 71.8333 133.492C71.6467 133.147 71.3947 132.881 71.0773 132.694C70.76 132.498 70.396 132.4 69.9853 132.4C69.5653 132.4 69.1967 132.498 68.8793 132.694C68.562 132.881 68.3147 133.147 68.1373 133.492C67.96 133.837 67.8713 134.234 67.8713 134.682C67.8713 135.121 67.9553 135.513 68.1233 135.858C68.3007 136.194 68.548 136.46 68.8653 136.656C69.192 136.852 69.5607 136.95 69.9713 136.95ZM66.6813 140.786V131.35H67.9413V133.1L67.7033 134.71L67.9413 136.334V140.786H66.6813ZM74.8298 138V128.004H76.0898V138H74.8298ZM80.1173 138.056L77.2333 131.35H78.6333L80.7753 136.6H80.3273L82.5813 131.35H83.9813L80.8733 138.056H80.1173ZM78.2133 140.786L80.1733 136.768L80.8733 138.056L79.6133 140.786H78.2133ZM91.0748 138.14C90.4215 138.14 89.8335 137.986 89.3108 137.678C88.7881 137.37 88.3728 136.955 88.0648 136.432C87.7568 135.9 87.6028 135.307 87.6028 134.654C87.6028 134.01 87.7568 133.431 88.0648 132.918C88.3728 132.395 88.7881 131.98 89.3108 131.672C89.8335 131.364 90.4215 131.21 91.0748 131.21C91.7188 131.21 92.3021 131.364 92.8248 131.672C93.3568 131.971 93.7768 132.381 94.0848 132.904C94.3928 133.427 94.5468 134.01 94.5468 134.654C94.5468 135.307 94.3928 135.9 94.0848 136.432C93.7768 136.955 93.3568 137.37 92.8248 137.678C92.3021 137.986 91.7188 138.14 91.0748 138.14ZM91.0748 136.922C91.4948 136.922 91.8681 136.824 92.1948 136.628C92.5215 136.432 92.7781 136.166 92.9648 135.83C93.1515 135.485 93.2448 135.093 93.2448 134.654C93.2448 134.225 93.1468 133.842 92.9508 133.506C92.7641 133.17 92.5075 132.909 92.1808 132.722C91.8635 132.526 91.4948 132.428 91.0748 132.428C90.6548 132.428 90.2815 132.526 89.9548 132.722C89.6281 132.909 89.3715 133.17 89.1848 133.506C88.9981 133.842 88.9048 134.225 88.9048 134.654C88.9048 135.093 88.9981 135.485 89.1848 135.83C89.3715 136.166 89.6281 136.432 89.9548 136.628C90.2815 136.824 90.6548 136.922 91.0748 136.922ZM98.6405 138.14C98.0991 138.14 97.6091 138.019 97.1705 137.776C96.7411 137.524 96.4051 137.179 96.1625 136.74C95.9198 136.301 95.7985 135.793 95.7985 135.214V131.35H97.0585V135.158C97.0585 135.522 97.1191 135.839 97.2405 136.11C97.3711 136.371 97.5578 136.572 97.8005 136.712C98.0431 136.852 98.3278 136.922 98.6545 136.922C99.1491 136.922 99.5365 136.768 99.8165 136.46C100.096 136.143 100.236 135.709 100.236 135.158V131.35H101.496V135.214C101.496 135.793 101.375 136.301 101.132 136.74C100.89 137.179 100.554 137.524 100.124 137.776C99.7045 138.019 99.2098 138.14 98.6405 138.14ZM104.207 138V128.564H105.467V138H104.207ZM102.569 132.498V131.35H107.105V132.498H102.569ZM114.29 138.14C113.636 138.14 113.048 137.986 112.526 137.678C112.003 137.37 111.588 136.955 111.28 136.432C110.972 135.9 110.818 135.307 110.818 134.654C110.818 134.01 110.972 133.431 111.28 132.918C111.588 132.395 112.003 131.98 112.526 131.672C113.048 131.364 113.636 131.21 114.29 131.21C114.934 131.21 115.517 131.364 116.04 131.672C116.572 131.971 116.992 132.381 117.3 132.904C117.608 133.427 117.762 134.01 117.762 134.654C117.762 135.307 117.608 135.9 117.3 136.432C116.992 136.955 116.572 137.37 116.04 137.678C115.517 137.986 114.934 138.14 114.29 138.14ZM114.29 136.922C114.71 136.922 115.083 136.824 115.41 136.628C115.736 136.432 115.993 136.166 116.18 135.83C116.366 135.485 116.46 135.093 116.46 134.654C116.46 134.225 116.362 133.842 116.166 133.506C115.979 133.17 115.722 132.909 115.396 132.722C115.078 132.526 114.71 132.428 114.29 132.428C113.87 132.428 113.496 132.526 113.17 132.722C112.843 132.909 112.586 133.17 112.4 133.506C112.213 133.842 112.12 134.225 112.12 134.654C112.12 135.093 112.213 135.485 112.4 135.83C112.586 136.166 112.843 136.432 113.17 136.628C113.496 136.824 113.87 136.922 114.29 136.922ZM119.928 138V130.356C119.928 129.861 120.036 129.432 120.25 129.068C120.465 128.695 120.759 128.401 121.132 128.186C121.515 127.971 121.958 127.864 122.462 127.864C122.845 127.864 123.176 127.929 123.456 128.06C123.736 128.191 123.993 128.382 124.226 128.634L123.4 129.446C123.279 129.315 123.144 129.217 122.994 129.152C122.845 129.077 122.663 129.04 122.448 129.04C122.047 129.04 121.734 129.157 121.51 129.39C121.296 129.623 121.188 129.945 121.188 130.356V138H119.928ZM118.29 132.498V131.35H123.302V132.498H118.29ZM130.98 138.14C130.476 138.14 130.019 138.037 129.608 137.832C129.207 137.617 128.885 137.323 128.642 136.95C128.399 136.577 128.264 136.152 128.236 135.676V133.674C128.264 133.189 128.399 132.764 128.642 132.4C128.894 132.027 129.221 131.737 129.622 131.532C130.033 131.317 130.485 131.21 130.98 131.21C131.587 131.21 132.133 131.364 132.618 131.672C133.113 131.98 133.5 132.395 133.78 132.918C134.06 133.441 134.2 134.029 134.2 134.682C134.2 135.335 134.06 135.923 133.78 136.446C133.5 136.969 133.113 137.384 132.618 137.692C132.133 137.991 131.587 138.14 130.98 138.14ZM130.77 136.95C131.19 136.95 131.559 136.852 131.876 136.656C132.193 136.46 132.445 136.194 132.632 135.858C132.819 135.513 132.912 135.116 132.912 134.668C132.912 134.229 132.819 133.837 132.632 133.492C132.445 133.147 132.193 132.881 131.876 132.694C131.559 132.498 131.195 132.4 130.784 132.4C130.364 132.4 129.995 132.498 129.678 132.694C129.361 132.881 129.113 133.147 128.936 133.492C128.759 133.837 128.67 134.234 128.67 134.682C128.67 135.121 128.754 135.513 128.922 135.858C129.099 136.194 129.347 136.46 129.664 136.656C129.991 136.852 130.359 136.95 130.77 136.95ZM127.48 138V128.004H128.74V132.974L128.502 134.584L128.74 136.208V138H127.48ZM138.303 138.14C137.761 138.14 137.271 138.019 136.833 137.776C136.403 137.524 136.067 137.179 135.825 136.74C135.582 136.301 135.461 135.793 135.461 135.214V131.35H136.721V135.158C136.721 135.522 136.781 135.839 136.903 136.11C137.033 136.371 137.22 136.572 137.463 136.712C137.705 136.852 137.99 136.922 138.317 136.922C138.811 136.922 139.199 136.768 139.479 136.46C139.759 136.143 139.899 135.709 139.899 135.158V131.35H141.159V135.214C141.159 135.793 141.037 136.301 140.795 136.74C140.552 137.179 140.216 137.524 139.787 137.776C139.367 138.019 138.872 138.14 138.303 138.14ZM144.961 138.14C144.588 138.14 144.233 138.093 143.897 138C143.571 137.897 143.267 137.757 142.987 137.58C142.707 137.393 142.465 137.174 142.259 136.922L143.071 136.11C143.314 136.409 143.594 136.633 143.911 136.782C144.229 136.922 144.583 136.992 144.975 136.992C145.367 136.992 145.671 136.927 145.885 136.796C146.1 136.656 146.207 136.465 146.207 136.222C146.207 135.979 146.119 135.793 145.941 135.662C145.773 135.522 145.554 135.41 145.283 135.326C145.013 135.233 144.723 135.144 144.415 135.06C144.117 134.967 143.832 134.85 143.561 134.71C143.291 134.57 143.067 134.379 142.889 134.136C142.721 133.893 142.637 133.571 142.637 133.17C142.637 132.769 142.735 132.423 142.931 132.134C143.127 131.835 143.398 131.607 143.743 131.448C144.098 131.289 144.523 131.21 145.017 131.21C145.54 131.21 146.002 131.303 146.403 131.49C146.814 131.667 147.15 131.938 147.411 132.302L146.599 133.114C146.413 132.871 146.179 132.685 145.899 132.554C145.629 132.423 145.321 132.358 144.975 132.358C144.611 132.358 144.331 132.423 144.135 132.554C143.949 132.675 143.855 132.848 143.855 133.072C143.855 133.296 143.939 133.469 144.107 133.59C144.275 133.711 144.495 133.814 144.765 133.898C145.045 133.982 145.335 134.071 145.633 134.164C145.932 134.248 146.217 134.365 146.487 134.514C146.758 134.663 146.977 134.864 147.145 135.116C147.323 135.368 147.411 135.699 147.411 136.11C147.411 136.735 147.187 137.23 146.739 137.594C146.301 137.958 145.708 138.14 144.961 138.14ZM148.836 138V131.35H150.096V138H148.836ZM149.466 130.02C149.233 130.02 149.041 129.945 148.892 129.796C148.743 129.637 148.668 129.441 148.668 129.208C148.668 128.984 148.743 128.797 148.892 128.648C149.041 128.489 149.233 128.41 149.466 128.41C149.699 128.41 149.891 128.489 150.04 128.648C150.189 128.797 150.264 128.984 150.264 129.208C150.264 129.441 150.189 129.637 150.04 129.796C149.891 129.945 149.699 130.02 149.466 130.02ZM156.657 138V134.122C156.657 133.618 156.498 133.203 156.181 132.876C155.863 132.549 155.453 132.386 154.949 132.386C154.613 132.386 154.314 132.461 154.053 132.61C153.791 132.759 153.586 132.965 153.437 133.226C153.287 133.487 153.213 133.786 153.213 134.122L152.695 133.828C152.695 133.324 152.807 132.876 153.031 132.484C153.255 132.092 153.567 131.784 153.969 131.56C154.37 131.327 154.823 131.21 155.327 131.21C155.831 131.21 156.274 131.336 156.657 131.588C157.049 131.84 157.357 132.171 157.581 132.582C157.805 132.983 157.917 133.413 157.917 133.87V138H156.657ZM151.953 138V131.35H153.213V138H151.953ZM162.703 138.14C162.04 138.14 161.443 137.991 160.911 137.692C160.379 137.384 159.959 136.969 159.651 136.446C159.343 135.923 159.189 135.331 159.189 134.668C159.189 134.015 159.338 133.427 159.637 132.904C159.945 132.381 160.355 131.971 160.869 131.672C161.391 131.364 161.975 131.21 162.619 131.21C163.235 131.21 163.776 131.35 164.243 131.63C164.719 131.91 165.087 132.297 165.349 132.792C165.619 133.287 165.755 133.847 165.755 134.472C165.755 134.565 165.75 134.668 165.741 134.78C165.731 134.883 165.713 135.004 165.685 135.144H160.071V134.094H165.013L164.551 134.5C164.551 134.052 164.471 133.674 164.313 133.366C164.154 133.049 163.93 132.806 163.641 132.638C163.351 132.461 163.001 132.372 162.591 132.372C162.161 132.372 161.783 132.465 161.457 132.652C161.13 132.839 160.878 133.1 160.701 133.436C160.523 133.772 160.435 134.169 160.435 134.626C160.435 135.093 160.528 135.503 160.715 135.858C160.901 136.203 161.167 136.474 161.513 136.67C161.858 136.857 162.255 136.95 162.703 136.95C163.076 136.95 163.417 136.885 163.725 136.754C164.042 136.623 164.313 136.427 164.537 136.166L165.349 136.992C165.031 137.365 164.639 137.65 164.173 137.846C163.715 138.042 163.225 138.14 162.703 138.14ZM169.243 138.14C168.869 138.14 168.515 138.093 168.179 138C167.852 137.897 167.549 137.757 167.269 137.58C166.989 137.393 166.746 137.174 166.541 136.922L167.353 136.11C167.595 136.409 167.875 136.633 168.193 136.782C168.51 136.922 168.865 136.992 169.257 136.992C169.649 136.992 169.952 136.927 170.167 136.796C170.381 136.656 170.489 136.465 170.489 136.222C170.489 135.979 170.4 135.793 170.223 135.662C170.055 135.522 169.835 135.41 169.565 135.326C169.294 135.233 169.005 135.144 168.697 135.06C168.398 134.967 168.113 134.85 167.843 134.71C167.572 134.57 167.348 134.379 167.171 134.136C167.003 133.893 166.919 133.571 166.919 133.17C166.919 132.769 167.017 132.423 167.213 132.134C167.409 131.835 167.679 131.607 168.025 131.448C168.379 131.289 168.804 131.21 169.299 131.21C169.821 131.21 170.283 131.303 170.685 131.49C171.095 131.667 171.431 131.938 171.693 132.302L170.881 133.114C170.694 132.871 170.461 132.685 170.181 132.554C169.91 132.423 169.602 132.358 169.257 132.358C168.893 132.358 168.613 132.423 168.417 132.554C168.23 132.675 168.137 132.848 168.137 133.072C168.137 133.296 168.221 133.469 168.389 133.59C168.557 133.711 168.776 133.814 169.047 133.898C169.327 133.982 169.616 134.071 169.915 134.164C170.213 134.248 170.498 134.365 170.769 134.514C171.039 134.663 171.259 134.864 171.427 135.116C171.604 135.368 171.693 135.699 171.693 136.11C171.693 136.735 171.469 137.23 171.021 137.594C170.582 137.958 169.989 138.14 169.243 138.14ZM175.217 138.14C174.844 138.14 174.489 138.093 174.153 138C173.827 137.897 173.523 137.757 173.243 137.58C172.963 137.393 172.721 137.174 172.515 136.922L173.327 136.11C173.57 136.409 173.85 136.633 174.167 136.782C174.485 136.922 174.839 136.992 175.231 136.992C175.623 136.992 175.927 136.927 176.141 136.796C176.356 136.656 176.463 136.465 176.463 136.222C176.463 135.979 176.375 135.793 176.197 135.662C176.029 135.522 175.81 135.41 175.539 135.326C175.269 135.233 174.979 135.144 174.671 135.06C174.373 134.967 174.088 134.85 173.817 134.71C173.547 134.57 173.323 134.379 173.145 134.136C172.977 133.893 172.893 133.571 172.893 133.17C172.893 132.769 172.991 132.423 173.187 132.134C173.383 131.835 173.654 131.607 173.999 131.448C174.354 131.289 174.779 131.21 175.273 131.21C175.796 131.21 176.258 131.303 176.659 131.49C177.07 131.667 177.406 131.938 177.667 132.302L176.855 133.114C176.669 132.871 176.435 132.685 176.155 132.554C175.885 132.423 175.577 132.358 175.231 132.358C174.867 132.358 174.587 132.423 174.391 132.554C174.205 132.675 174.111 132.848 174.111 133.072C174.111 133.296 174.195 133.469 174.363 133.59C174.531 133.711 174.751 133.814 175.021 133.898C175.301 133.982 175.591 134.071 175.889 134.164C176.188 134.248 176.473 134.365 176.743 134.514C177.014 134.663 177.233 134.864 177.401 135.116C177.579 135.368 177.667 135.699 177.667 136.11C177.667 136.735 177.443 137.23 176.995 137.594C176.557 137.958 175.964 138.14 175.217 138.14ZM186.694 138V134.122C186.694 133.618 186.535 133.203 186.218 132.876C185.901 132.549 185.49 132.386 184.986 132.386C184.65 132.386 184.351 132.461 184.09 132.61C183.829 132.759 183.623 132.965 183.474 133.226C183.325 133.487 183.25 133.786 183.25 134.122L182.732 133.828C182.732 133.324 182.844 132.876 183.068 132.484C183.292 132.092 183.605 131.784 184.006 131.56C184.407 131.327 184.86 131.21 185.364 131.21C185.868 131.21 186.311 131.322 186.694 131.546C187.086 131.77 187.394 132.083 187.618 132.484C187.842 132.885 187.954 133.347 187.954 133.87V138H186.694ZM181.99 138V128.004H183.25V138H181.99ZM192.698 138.14C192.045 138.14 191.457 137.986 190.934 137.678C190.411 137.37 189.996 136.955 189.688 136.432C189.38 135.9 189.226 135.307 189.226 134.654C189.226 134.01 189.38 133.431 189.688 132.918C189.996 132.395 190.411 131.98 190.934 131.672C191.457 131.364 192.045 131.21 192.698 131.21C193.342 131.21 193.925 131.364 194.448 131.672C194.98 131.971 195.4 132.381 195.708 132.904C196.016 133.427 196.17 134.01 196.17 134.654C196.17 135.307 196.016 135.9 195.708 136.432C195.4 136.955 194.98 137.37 194.448 137.678C193.925 137.986 193.342 138.14 192.698 138.14ZM192.698 136.922C193.118 136.922 193.491 136.824 193.818 136.628C194.145 136.432 194.401 136.166 194.588 135.83C194.775 135.485 194.868 135.093 194.868 134.654C194.868 134.225 194.77 133.842 194.574 133.506C194.387 133.17 194.131 132.909 193.804 132.722C193.487 132.526 193.118 132.428 192.698 132.428C192.278 132.428 191.905 132.526 191.578 132.722C191.251 132.909 190.995 133.17 190.808 133.506C190.621 133.842 190.528 134.225 190.528 134.654C190.528 135.093 190.621 135.485 190.808 135.83C190.995 136.166 191.251 136.432 191.578 136.628C191.905 136.824 192.278 136.922 192.698 136.922ZM200.264 138.14C199.722 138.14 199.232 138.019 198.794 137.776C198.364 137.524 198.028 137.179 197.786 136.74C197.543 136.301 197.422 135.793 197.422 135.214V131.35H198.682V135.158C198.682 135.522 198.742 135.839 198.864 136.11C198.994 136.371 199.181 136.572 199.424 136.712C199.666 136.852 199.951 136.922 200.278 136.922C200.772 136.922 201.16 136.768 201.44 136.46C201.72 136.143 201.86 135.709 201.86 135.158V131.35H203.12V135.214C203.12 135.793 202.998 136.301 202.756 136.74C202.513 137.179 202.177 137.524 201.748 137.776C201.328 138.019 200.833 138.14 200.264 138.14ZM204.808 138V131.35H206.068V138H204.808ZM206.068 134.206L205.592 133.996C205.592 133.147 205.788 132.47 206.18 131.966C206.572 131.462 207.137 131.21 207.874 131.21C208.21 131.21 208.514 131.271 208.784 131.392C209.055 131.504 209.307 131.695 209.54 131.966L208.714 132.82C208.574 132.671 208.42 132.563 208.252 132.498C208.084 132.433 207.888 132.4 207.664 132.4C207.198 132.4 206.815 132.549 206.516 132.848C206.218 133.147 206.068 133.599 206.068 134.206ZM212.391 138.14C212.018 138.14 211.663 138.093 211.327 138C211 137.897 210.697 137.757 210.417 137.58C210.137 137.393 209.894 137.174 209.689 136.922L210.501 136.11C210.744 136.409 211.024 136.633 211.341 136.782C211.658 136.922 212.013 136.992 212.405 136.992C212.797 136.992 213.1 136.927 213.315 136.796C213.53 136.656 213.637 136.465 213.637 136.222C213.637 135.979 213.548 135.793 213.371 135.662C213.203 135.522 212.984 135.41 212.713 135.326C212.442 135.233 212.153 135.144 211.845 135.06C211.546 134.967 211.262 134.85 210.991 134.71C210.72 134.57 210.496 134.379 210.319 134.136C210.151 133.893 210.067 133.571 210.067 133.17C210.067 132.769 210.165 132.423 210.361 132.134C210.557 131.835 210.828 131.607 211.173 131.448C211.528 131.289 211.952 131.21 212.447 131.21C212.97 131.21 213.432 131.303 213.833 131.49C214.244 131.667 214.58 131.938 214.841 132.302L214.029 133.114C213.842 132.871 213.609 132.685 213.329 132.554C213.058 132.423 212.75 132.358 212.405 132.358C212.041 132.358 211.761 132.423 211.565 132.554C211.378 132.675 211.285 132.848 211.285 133.072C211.285 133.296 211.369 133.469 211.537 133.59C211.705 133.711 211.924 133.814 212.195 133.898C212.475 133.982 212.764 134.071 213.063 134.164C213.362 134.248 213.646 134.365 213.917 134.514C214.188 134.663 214.407 134.864 214.575 135.116C214.752 135.368 214.841 135.699 214.841 136.11C214.841 136.735 214.617 137.23 214.169 137.594C213.73 137.958 213.138 138.14 212.391 138.14ZM221.334 139.624C220.82 139.195 220.382 138.663 220.018 138.028C219.654 137.403 219.374 136.717 219.178 135.97C218.982 135.223 218.884 134.449 218.884 133.646C218.884 132.843 218.982 132.069 219.178 131.322C219.374 130.575 219.654 129.889 220.018 129.264C220.382 128.629 220.82 128.097 221.334 127.668L222.062 128.326C221.399 128.905 220.886 129.651 220.522 130.566C220.167 131.481 219.99 132.507 219.99 133.646C219.99 134.775 220.167 135.797 220.522 136.712C220.886 137.627 221.399 138.378 222.062 138.966L221.334 139.624ZM226.104 138L222.926 128.284H224.242L226.762 136.208H226.384L228.862 128.284H229.814L232.292 136.208H231.928L234.448 128.284H235.75L232.586 138H231.648L229.156 130.09H229.52L227.042 138H226.104ZM239.197 138.14C238.534 138.14 237.937 137.991 237.405 137.692C236.873 137.384 236.453 136.969 236.145 136.446C235.837 135.923 235.683 135.331 235.683 134.668C235.683 134.015 235.832 133.427 236.131 132.904C236.439 132.381 236.85 131.971 237.363 131.672C237.886 131.364 238.469 131.21 239.113 131.21C239.729 131.21 240.27 131.35 240.737 131.63C241.213 131.91 241.582 132.297 241.843 132.792C242.114 133.287 242.249 133.847 242.249 134.472C242.249 134.565 242.244 134.668 242.235 134.78C242.226 134.883 242.207 135.004 242.179 135.144H236.565V134.094H241.507L241.045 134.5C241.045 134.052 240.966 133.674 240.807 133.366C240.648 133.049 240.424 132.806 240.135 132.638C239.846 132.461 239.496 132.372 239.085 132.372C238.656 132.372 238.278 132.465 237.951 132.652C237.624 132.839 237.372 133.1 237.195 133.436C237.018 133.772 236.929 134.169 236.929 134.626C236.929 135.093 237.022 135.503 237.209 135.858C237.396 136.203 237.662 136.474 238.007 136.67C238.352 136.857 238.749 136.95 239.197 136.95C239.57 136.95 239.911 136.885 240.219 136.754C240.536 136.623 240.807 136.427 241.031 136.166L241.843 136.992C241.526 137.365 241.134 137.65 240.667 137.846C240.21 138.042 239.72 138.14 239.197 138.14ZM246.703 138.14C246.04 138.14 245.443 137.991 244.911 137.692C244.379 137.384 243.959 136.969 243.651 136.446C243.343 135.923 243.189 135.331 243.189 134.668C243.189 134.015 243.338 133.427 243.637 132.904C243.945 132.381 244.355 131.971 244.869 131.672C245.391 131.364 245.975 131.21 246.619 131.21C247.235 131.21 247.776 131.35 248.243 131.63C248.719 131.91 249.087 132.297 249.349 132.792C249.619 133.287 249.755 133.847 249.755 134.472C249.755 134.565 249.75 134.668 249.741 134.78C249.731 134.883 249.713 135.004 249.685 135.144H244.071V134.094H249.013L248.551 134.5C248.551 134.052 248.471 133.674 248.313 133.366C248.154 133.049 247.93 132.806 247.641 132.638C247.351 132.461 247.001 132.372 246.591 132.372C246.161 132.372 245.783 132.465 245.457 132.652C245.13 132.839 244.878 133.1 244.701 133.436C244.523 133.772 244.435 134.169 244.435 134.626C244.435 135.093 244.528 135.503 244.715 135.858C244.901 136.203 245.167 136.474 245.513 136.67C245.858 136.857 246.255 136.95 246.703 136.95C247.076 136.95 247.417 136.885 247.725 136.754C248.042 136.623 248.313 136.427 248.537 136.166L249.349 136.992C249.031 137.365 248.639 137.65 248.173 137.846C247.715 138.042 247.225 138.14 246.703 138.14ZM255.385 138L252.277 134.598L255.357 131.35H256.883L253.453 134.934L253.509 134.206L257.009 138H255.385ZM251.129 138V128.004H252.389V138H251.129ZM260.798 138.14C260.136 138.14 259.538 137.991 259.006 137.692C258.474 137.384 258.054 136.969 257.746 136.446C257.438 135.923 257.284 135.331 257.284 134.668C257.284 134.015 257.434 133.427 257.732 132.904C258.04 132.381 258.451 131.971 258.964 131.672C259.487 131.364 260.07 131.21 260.714 131.21C261.33 131.21 261.872 131.35 262.338 131.63C262.814 131.91 263.183 132.297 263.444 132.792C263.715 133.287 263.85 133.847 263.85 134.472C263.85 134.565 263.846 134.668 263.836 134.78C263.827 134.883 263.808 135.004 263.78 135.144H258.166V134.094H263.108L262.646 134.5C262.646 134.052 262.567 133.674 262.408 133.366C262.25 133.049 262.026 132.806 261.736 132.638C261.447 132.461 261.097 132.372 260.686 132.372C260.257 132.372 259.879 132.465 259.552 132.652C259.226 132.839 258.974 133.1 258.796 133.436C258.619 133.772 258.53 134.169 258.53 134.626C258.53 135.093 258.624 135.503 258.81 135.858C258.997 136.203 259.263 136.474 259.608 136.67C259.954 136.857 260.35 136.95 260.798 136.95C261.172 136.95 261.512 136.885 261.82 136.754C262.138 136.623 262.408 136.427 262.632 136.166L263.444 136.992C263.127 137.365 262.735 137.65 262.268 137.846C261.811 138.042 261.321 138.14 260.798 138.14ZM269.928 138V134.122C269.928 133.618 269.77 133.203 269.452 132.876C269.135 132.549 268.724 132.386 268.22 132.386C267.884 132.386 267.586 132.461 267.324 132.61C267.063 132.759 266.858 132.965 266.708 133.226C266.559 133.487 266.484 133.786 266.484 134.122L265.966 133.828C265.966 133.324 266.078 132.876 266.302 132.484C266.526 132.092 266.839 131.784 267.24 131.56C267.642 131.327 268.094 131.21 268.598 131.21C269.102 131.21 269.546 131.336 269.928 131.588C270.32 131.84 270.628 132.171 270.852 132.582C271.076 132.983 271.188 133.413 271.188 133.87V138H269.928ZM265.224 138V131.35H266.484V138H265.224ZM275.708 138.14C275.092 138.14 274.542 137.991 274.056 137.692C273.571 137.384 273.184 136.969 272.894 136.446C272.614 135.923 272.474 135.335 272.474 134.682C272.474 134.029 272.614 133.441 272.894 132.918C273.184 132.395 273.571 131.98 274.056 131.672C274.542 131.364 275.092 131.21 275.708 131.21C276.203 131.21 276.651 131.317 277.052 131.532C277.454 131.737 277.776 132.027 278.018 132.4C278.27 132.764 278.41 133.189 278.438 133.674V135.676C278.41 136.152 278.275 136.577 278.032 136.95C277.79 137.323 277.468 137.617 277.066 137.832C276.665 138.037 276.212 138.14 275.708 138.14ZM275.918 136.95C276.338 136.95 276.702 136.852 277.01 136.656C277.328 136.46 277.575 136.194 277.752 135.858C277.93 135.513 278.018 135.121 278.018 134.682C278.018 134.225 277.925 133.828 277.738 133.492C277.561 133.156 277.314 132.89 276.996 132.694C276.688 132.498 276.324 132.4 275.904 132.4C275.484 132.4 275.116 132.498 274.798 132.694C274.481 132.89 274.229 133.161 274.042 133.506C273.865 133.842 273.776 134.229 273.776 134.668C273.776 135.116 273.865 135.513 274.042 135.858C274.229 136.194 274.481 136.46 274.798 136.656C275.125 136.852 275.498 136.95 275.918 136.95ZM279.208 138H277.934V136.208L278.172 134.584L277.934 132.974V128.004H279.208V138ZM281.267 139.624L280.539 138.966C281.201 138.378 281.71 137.627 282.065 136.712C282.419 135.797 282.597 134.775 282.597 133.646C282.597 132.507 282.419 131.481 282.065 130.566C281.71 129.651 281.201 128.905 280.539 128.326L281.267 127.668C281.78 128.097 282.219 128.629 282.583 129.264C282.947 129.889 283.227 130.575 283.423 131.322C283.619 132.069 283.717 132.843 283.717 133.646C283.717 134.449 283.619 135.223 283.423 135.97C283.227 136.717 282.947 137.403 282.583 138.028C282.219 138.663 281.78 139.195 281.267 139.624Z" fill="#A7AEB6"/>
<defs>
<linearGradient id="paint0_linear_1293_7267" x1="-24.2254" y1="57.6178" x2="98.8664" y2="20.3042" gradientUnits="userSpaceOnUse">
<stop stop-color="#29F2BC"/>
<stop offset="0.5" stop-color="#4877FF"/>
<stop offset="1" stop-color="#F945B3"/>
</linearGradient>
</defs>
</svg>
