<svg width="354" height="167" viewBox="0 0 354 167" fill="none" xmlns="http://www.w3.org/2000/svg">
<rect x="0.57959" width="352.526" height="167" rx="24" fill="white"/>
<rect x="16.5796" y="16" width="40" height="40" rx="12" fill="url(#paint0_linear_1293_7280)" fill-opacity="0.1"/>
<path fill-rule="evenodd" clip-rule="evenodd" d="M32.6213 29.75C32.0135 29.75 31.4306 29.9914 31.0008 30.4212C30.571 30.851 30.3296 31.4339 30.3296 32.0417V37.5625C30.3296 38.5408 31.1221 39.3333 32.1004 39.3333C32.3879 39.3333 32.6213 39.5667 32.6213 39.8542V41.625C32.6213 41.7451 32.6559 41.8626 32.721 41.9635C32.7861 42.0644 32.8788 42.1444 32.9882 42.194C33.0975 42.2435 33.2188 42.2606 33.3376 42.243C33.4564 42.2255 33.5676 42.1741 33.6579 42.095L36.5196 39.5908C36.7096 39.4242 36.9529 39.3333 37.2054 39.3333H40.5379C41.1457 39.3333 41.7286 39.0919 42.1584 38.6621C42.5881 38.2323 42.8296 37.6495 42.8296 37.0417V32.0417C42.8296 31.4339 42.5881 30.851 42.1584 30.4212C41.7286 29.9914 41.1457 29.75 40.5379 29.75H32.6213ZM34.8879 33.0583C35.0051 32.9413 35.164 32.8756 35.3296 32.8756C35.4952 32.8756 35.6541 32.9413 35.7713 33.0583L36.5796 33.8667L37.3879 33.0583C37.4451 32.9969 37.5141 32.9477 37.5908 32.9135C37.6675 32.8794 37.7502 32.861 37.8342 32.8595C37.9181 32.858 38.0014 32.8735 38.0793 32.9049C38.1571 32.9363 38.2278 32.9831 38.2871 33.0425C38.3465 33.1018 38.3933 33.1725 38.4247 33.2503C38.4561 33.3282 38.4716 33.4115 38.4701 33.4954C38.4686 33.5794 38.4502 33.6621 38.4161 33.7388C38.3819 33.8154 38.3327 33.8844 38.2713 33.9417L37.4629 34.75L38.2713 35.5583C38.3327 35.6156 38.3819 35.6846 38.4161 35.7612C38.4502 35.8379 38.4686 35.9206 38.4701 36.0046C38.4716 36.0885 38.4561 36.1718 38.4247 36.2497C38.3933 36.3275 38.3465 36.3982 38.2871 36.4575C38.2278 36.5169 38.1571 36.5637 38.0793 36.5951C38.0014 36.6265 37.9181 36.642 37.8342 36.6405C37.7502 36.639 37.6675 36.6206 37.5908 36.5865C37.5141 36.5523 37.4451 36.5031 37.3879 36.4417L36.5796 35.6333L35.7713 36.4417C35.714 36.5031 35.645 36.5523 35.5684 36.5865C35.4917 36.6206 35.4089 36.639 35.325 36.6405C35.2411 36.642 35.1577 36.6265 35.0799 36.5951C35.0021 36.5637 34.9314 36.5169 34.8721 36.4575C34.8127 36.3982 34.7659 36.3275 34.7345 36.2497C34.7031 36.1718 34.6876 36.0885 34.6891 36.0046C34.6906 35.9206 34.7089 35.8379 34.7431 35.7612C34.7773 35.6846 34.8265 35.6156 34.8879 35.5583L35.6963 34.75L34.8879 33.9417C34.7709 33.8245 34.7051 33.6656 34.7051 33.5C34.7051 33.3344 34.7709 33.1755 34.8879 33.0583Z" fill="black"/>
<rect x="16.5796" y="64" width="127" height="20" rx="10" fill="#1CB703" fill-opacity="0.1"/>
<path d="M31.8796 78.12C31.2236 78.12 30.6636 78 30.1996 77.76C29.7356 77.52 29.3236 77.172 28.9636 76.716L29.7316 75.948C29.9956 76.316 30.2996 76.596 30.6436 76.788C30.9876 76.972 31.4116 77.064 31.9156 77.064C32.4116 77.064 32.8076 76.956 33.1036 76.74C33.4076 76.524 33.5596 76.228 33.5596 75.852C33.5596 75.54 33.4876 75.288 33.3436 75.096C33.1996 74.904 33.0036 74.748 32.7556 74.628C32.5156 74.5 32.2516 74.388 31.9636 74.292C31.6756 74.188 31.3876 74.08 31.0996 73.968C30.8116 73.848 30.5476 73.704 30.3076 73.536C30.0676 73.36 29.8716 73.132 29.7196 72.852C29.5756 72.572 29.5036 72.22 29.5036 71.796C29.5036 71.324 29.6156 70.924 29.8396 70.596C30.0716 70.26 30.3836 70.004 30.7756 69.828C31.1756 69.644 31.6236 69.552 32.1196 69.552C32.6636 69.552 33.1516 69.66 33.5836 69.876C34.0156 70.084 34.3676 70.36 34.6396 70.704L33.8716 71.472C33.6236 71.184 33.3556 70.968 33.0676 70.824C32.7876 70.68 32.4636 70.608 32.0956 70.608C31.6476 70.608 31.2916 70.708 31.0276 70.908C30.7636 71.1 30.6316 71.372 30.6316 71.724C30.6316 72.004 30.7036 72.232 30.8476 72.408C30.9996 72.576 31.1956 72.72 31.4356 72.84C31.6756 72.96 31.9396 73.072 32.2276 73.176C32.5236 73.272 32.8156 73.38 33.1036 73.5C33.3916 73.62 33.6556 73.772 33.8956 73.956C34.1356 74.14 34.3276 74.38 34.4716 74.676C34.6236 74.964 34.6996 75.328 34.6996 75.768C34.6996 76.504 34.4436 77.08 33.9316 77.496C33.4276 77.912 32.7436 78.12 31.8796 78.12ZM38.5498 78.12C37.9898 78.12 37.4818 77.988 37.0258 77.724C36.5778 77.46 36.2218 77.104 35.9578 76.656C35.7018 76.2 35.5738 75.696 35.5738 75.144C35.5738 74.584 35.7018 74.08 35.9578 73.632C36.2218 73.184 36.5778 72.832 37.0258 72.576C37.4818 72.312 37.9898 72.18 38.5498 72.18C38.9898 72.18 39.3978 72.264 39.7738 72.432C40.1498 72.592 40.4738 72.828 40.7458 73.14L40.0258 73.86C39.8498 73.652 39.6338 73.496 39.3778 73.392C39.1298 73.28 38.8538 73.224 38.5498 73.224C38.1898 73.224 37.8698 73.308 37.5898 73.476C37.3098 73.636 37.0898 73.86 36.9298 74.148C36.7698 74.436 36.6898 74.768 36.6898 75.144C36.6898 75.52 36.7698 75.852 36.9298 76.14C37.0898 76.428 37.3098 76.656 37.5898 76.824C37.8698 76.992 38.1898 77.076 38.5498 77.076C38.8538 77.076 39.1298 77.024 39.3778 76.92C39.6338 76.808 39.8538 76.648 40.0378 76.44L40.7458 77.16C40.4818 77.464 40.1578 77.7 39.7738 77.868C39.3978 78.036 38.9898 78.12 38.5498 78.12ZM45.8489 78V74.676C45.8489 74.244 45.7129 73.888 45.4409 73.608C45.1689 73.328 44.8169 73.188 44.3849 73.188C44.0969 73.188 43.8409 73.252 43.6169 73.38C43.3929 73.508 43.2169 73.684 43.0889 73.908C42.9609 74.132 42.8969 74.388 42.8969 74.676L42.4529 74.424C42.4529 73.992 42.5489 73.608 42.7409 73.272C42.9329 72.936 43.2009 72.672 43.5449 72.48C43.8889 72.28 44.2769 72.18 44.7089 72.18C45.1409 72.18 45.5209 72.276 45.8489 72.468C46.1849 72.66 46.4489 72.928 46.6409 73.272C46.8329 73.616 46.9289 74.012 46.9289 74.46V78H45.8489ZM41.8169 78V69.432H42.8969V78H41.8169ZM51.0311 78.12C50.4631 78.12 49.9511 77.992 49.4951 77.736C49.0391 77.472 48.6791 77.116 48.4151 76.668C48.1511 76.22 48.0191 75.712 48.0191 75.144C48.0191 74.584 48.1471 74.08 48.4031 73.632C48.6671 73.184 49.0191 72.832 49.4591 72.576C49.9071 72.312 50.4071 72.18 50.9591 72.18C51.4871 72.18 51.9511 72.3 52.3511 72.54C52.7591 72.78 53.0751 73.112 53.2991 73.536C53.5311 73.96 53.6471 74.44 53.6471 74.976C53.6471 75.056 53.6431 75.144 53.6351 75.24C53.6271 75.328 53.6111 75.432 53.5871 75.552H48.7751V74.652H53.0111L52.6151 75C52.6151 74.616 52.5471 74.292 52.4111 74.028C52.2751 73.756 52.0831 73.548 51.8351 73.404C51.5871 73.252 51.2871 73.176 50.9351 73.176C50.5671 73.176 50.2431 73.256 49.9631 73.416C49.6831 73.576 49.4671 73.8 49.3151 74.088C49.1631 74.376 49.0871 74.716 49.0871 75.108C49.0871 75.508 49.1671 75.86 49.3271 76.164C49.4871 76.46 49.7151 76.692 50.0111 76.86C50.3071 77.02 50.6471 77.1 51.0311 77.1C51.3511 77.1 51.6431 77.044 51.9071 76.932C52.1791 76.82 52.4111 76.652 52.6031 76.428L53.2991 77.136C53.0271 77.456 52.6911 77.7 52.2911 77.868C51.8991 78.036 51.4791 78.12 51.0311 78.12ZM57.2367 78.12C56.7087 78.12 56.2367 77.992 55.8207 77.736C55.4047 77.472 55.0727 77.116 54.8247 76.668C54.5847 76.22 54.4647 75.716 54.4647 75.156C54.4647 74.596 54.5847 74.092 54.8247 73.644C55.0727 73.196 55.4047 72.84 55.8207 72.576C56.2367 72.312 56.7087 72.18 57.2367 72.18C57.6607 72.18 58.0447 72.272 58.3887 72.456C58.7327 72.632 59.0087 72.88 59.2167 73.2C59.4327 73.512 59.5527 73.876 59.5767 74.292V76.008C59.5527 76.416 59.4367 76.78 59.2287 77.1C59.0207 77.42 58.7447 77.672 58.4007 77.856C58.0567 78.032 57.6687 78.12 57.2367 78.12ZM57.4167 77.1C57.7767 77.1 58.0887 77.016 58.3527 76.848C58.6247 76.68 58.8367 76.452 58.9887 76.164C59.1407 75.868 59.2167 75.532 59.2167 75.156C59.2167 74.764 59.1367 74.424 58.9767 74.136C58.8247 73.848 58.6127 73.62 58.3407 73.452C58.0767 73.284 57.7647 73.2 57.4047 73.2C57.0447 73.2 56.7287 73.284 56.4567 73.452C56.1847 73.62 55.9687 73.852 55.8087 74.148C55.6567 74.436 55.5807 74.768 55.5807 75.144C55.5807 75.528 55.6567 75.868 55.8087 76.164C55.9687 76.452 56.1847 76.68 56.4567 76.848C56.7367 77.016 57.0567 77.1 57.4167 77.1ZM60.2367 78H59.1447V76.464L59.3487 75.072L59.1447 73.692V69.432H60.2367V78ZM64.1011 78.12C63.6371 78.12 63.2171 78.016 62.8411 77.808C62.4731 77.592 62.1851 77.296 61.9771 76.92C61.7691 76.544 61.6651 76.108 61.6651 75.612V72.3H62.7451V75.564C62.7451 75.876 62.7971 76.148 62.9011 76.38C63.0131 76.604 63.1731 76.776 63.3811 76.896C63.5891 77.016 63.8331 77.076 64.1131 77.076C64.5371 77.076 64.8691 76.944 65.1091 76.68C65.3491 76.408 65.4691 76.036 65.4691 75.564V72.3H66.5491V75.612C66.5491 76.108 66.4451 76.544 66.2371 76.92C66.0291 77.296 65.7411 77.592 65.3731 77.808C65.0131 78.016 64.5891 78.12 64.1011 78.12ZM67.9966 78V69.432H69.0766V78H67.9966ZM73.2967 78.12C72.7287 78.12 72.2167 77.992 71.7607 77.736C71.3047 77.472 70.9447 77.116 70.6807 76.668C70.4167 76.22 70.2847 75.712 70.2847 75.144C70.2847 74.584 70.4127 74.08 70.6687 73.632C70.9327 73.184 71.2847 72.832 71.7247 72.576C72.1727 72.312 72.6727 72.18 73.2247 72.18C73.7527 72.18 74.2167 72.3 74.6167 72.54C75.0247 72.78 75.3407 73.112 75.5647 73.536C75.7967 73.96 75.9127 74.44 75.9127 74.976C75.9127 75.056 75.9087 75.144 75.9007 75.24C75.8927 75.328 75.8767 75.432 75.8527 75.552H71.0407V74.652H75.2767L74.8807 75C74.8807 74.616 74.8127 74.292 74.6767 74.028C74.5407 73.756 74.3487 73.548 74.1007 73.404C73.8527 73.252 73.5527 73.176 73.2007 73.176C72.8327 73.176 72.5087 73.256 72.2287 73.416C71.9487 73.576 71.7327 73.8 71.5807 74.088C71.4287 74.376 71.3527 74.716 71.3527 75.108C71.3527 75.508 71.4327 75.86 71.5927 76.164C71.7527 76.46 71.9807 76.692 72.2767 76.86C72.5727 77.02 72.9127 77.1 73.2967 77.1C73.6167 77.1 73.9087 77.044 74.1727 76.932C74.4447 76.82 74.6767 76.652 74.8687 76.428L75.5647 77.136C75.2927 77.456 74.9567 77.7 74.5567 77.868C74.1647 78.036 73.7447 78.12 73.2967 78.12ZM79.7784 78V69.672H80.5704L84.0984 75.468H83.5584L87.0864 69.672H87.8784V78H86.7504V71.652L87.0144 71.724L84.2304 76.296H83.4384L80.6544 71.724L80.9064 71.652V78H79.7784ZM92.2928 78.12C91.7248 78.12 91.2128 77.992 90.7568 77.736C90.3008 77.472 89.9408 77.116 89.6768 76.668C89.4128 76.22 89.2808 75.712 89.2808 75.144C89.2808 74.584 89.4088 74.08 89.6648 73.632C89.9288 73.184 90.2808 72.832 90.7208 72.576C91.1688 72.312 91.6688 72.18 92.2208 72.18C92.7488 72.18 93.2128 72.3 93.6128 72.54C94.0208 72.78 94.3368 73.112 94.5608 73.536C94.7928 73.96 94.9088 74.44 94.9088 74.976C94.9088 75.056 94.9048 75.144 94.8968 75.24C94.8888 75.328 94.8728 75.432 94.8488 75.552H90.0368V74.652H94.2728L93.8768 75C93.8768 74.616 93.8088 74.292 93.6728 74.028C93.5368 73.756 93.3448 73.548 93.0968 73.404C92.8488 73.252 92.5488 73.176 92.1968 73.176C91.8288 73.176 91.5048 73.256 91.2248 73.416C90.9448 73.576 90.7288 73.8 90.5768 74.088C90.4248 74.376 90.3488 74.716 90.3488 75.108C90.3488 75.508 90.4288 75.86 90.5888 76.164C90.7488 76.46 90.9768 76.692 91.2728 76.86C91.5688 77.02 91.9088 77.1 92.2928 77.1C92.6128 77.1 92.9048 77.044 93.1688 76.932C93.4408 76.82 93.6728 76.652 93.8648 76.428L94.5608 77.136C94.2888 77.456 93.9528 77.7 93.5528 77.868C93.1608 78.036 92.7408 78.12 92.2928 78.12ZM97.8984 78.12C97.5784 78.12 97.2744 78.08 96.9864 78C96.7064 77.912 96.4464 77.792 96.2064 77.64C95.9664 77.48 95.7584 77.292 95.5824 77.076L96.2784 76.38C96.4864 76.636 96.7264 76.828 96.9984 76.956C97.2704 77.076 97.5744 77.136 97.9104 77.136C98.2464 77.136 98.5064 77.08 98.6904 76.968C98.8744 76.848 98.9664 76.684 98.9664 76.476C98.9664 76.268 98.8904 76.108 98.7384 75.996C98.5944 75.876 98.4064 75.78 98.1744 75.708C97.9424 75.628 97.6944 75.552 97.4304 75.48C97.1744 75.4 96.9304 75.3 96.6984 75.18C96.4664 75.06 96.2744 74.896 96.1224 74.688C95.9784 74.48 95.9064 74.204 95.9064 73.86C95.9064 73.516 95.9904 73.22 96.1584 72.972C96.3264 72.716 96.5584 72.52 96.8544 72.384C97.1584 72.248 97.5224 72.18 97.9464 72.18C98.3944 72.18 98.7904 72.26 99.1344 72.42C99.4864 72.572 99.7744 72.804 99.9984 73.116L99.3024 73.812C99.1424 73.604 98.9424 73.444 98.7024 73.332C98.4704 73.22 98.2064 73.164 97.9104 73.164C97.5984 73.164 97.3584 73.22 97.1904 73.332C97.0304 73.436 96.9504 73.584 96.9504 73.776C96.9504 73.968 97.0224 74.116 97.1664 74.22C97.3104 74.324 97.4984 74.412 97.7304 74.484C97.9704 74.556 98.2184 74.632 98.4744 74.712C98.7304 74.784 98.9744 74.884 99.2064 75.012C99.4384 75.14 99.6264 75.312 99.7704 75.528C99.9224 75.744 99.9984 76.028 99.9984 76.38C99.9984 76.916 99.8064 77.34 99.4224 77.652C99.0464 77.964 98.5384 78.12 97.8984 78.12ZM103.02 78.12C102.7 78.12 102.396 78.08 102.108 78C101.828 77.912 101.568 77.792 101.328 77.64C101.088 77.48 100.88 77.292 100.704 77.076L101.4 76.38C101.608 76.636 101.848 76.828 102.12 76.956C102.392 77.076 102.696 77.136 103.032 77.136C103.368 77.136 103.628 77.08 103.812 76.968C103.996 76.848 104.088 76.684 104.088 76.476C104.088 76.268 104.012 76.108 103.86 75.996C103.716 75.876 103.528 75.78 103.296 75.708C103.064 75.628 102.816 75.552 102.552 75.48C102.296 75.4 102.052 75.3 101.82 75.18C101.588 75.06 101.396 74.896 101.244 74.688C101.1 74.48 101.028 74.204 101.028 73.86C101.028 73.516 101.112 73.22 101.28 72.972C101.448 72.716 101.68 72.52 101.976 72.384C102.28 72.248 102.644 72.18 103.068 72.18C103.516 72.18 103.912 72.26 104.256 72.42C104.608 72.572 104.896 72.804 105.12 73.116L104.424 73.812C104.264 73.604 104.064 73.444 103.824 73.332C103.592 73.22 103.328 73.164 103.032 73.164C102.72 73.164 102.48 73.22 102.312 73.332C102.152 73.436 102.072 73.584 102.072 73.776C102.072 73.968 102.144 74.116 102.288 74.22C102.432 74.324 102.62 74.412 102.852 74.484C103.092 74.556 103.34 74.632 103.596 74.712C103.852 74.784 104.096 74.884 104.328 75.012C104.56 75.14 104.748 75.312 104.892 75.528C105.044 75.744 105.12 76.028 105.12 76.38C105.12 76.916 104.928 77.34 104.544 77.652C104.168 77.964 103.66 78.12 103.02 78.12ZM108.753 78.12C108.233 78.12 107.761 77.992 107.337 77.736C106.913 77.472 106.577 77.116 106.329 76.668C106.089 76.22 105.969 75.716 105.969 75.156C105.969 74.596 106.089 74.092 106.329 73.644C106.577 73.196 106.909 72.84 107.325 72.576C107.749 72.312 108.225 72.18 108.753 72.18C109.185 72.18 109.569 72.272 109.905 72.456C110.249 72.632 110.525 72.88 110.733 73.2C110.941 73.512 111.057 73.876 111.081 74.292V76.008C111.057 76.416 110.941 76.78 110.733 77.1C110.533 77.42 110.261 77.672 109.917 77.856C109.581 78.032 109.193 78.12 108.753 78.12ZM108.933 77.1C109.469 77.1 109.901 76.92 110.229 76.56C110.557 76.192 110.721 75.724 110.721 75.156C110.721 74.764 110.645 74.424 110.493 74.136C110.349 73.84 110.141 73.612 109.869 73.452C109.597 73.284 109.281 73.2 108.921 73.2C108.561 73.2 108.241 73.284 107.961 73.452C107.689 73.62 107.473 73.852 107.313 74.148C107.161 74.436 107.085 74.768 107.085 75.144C107.085 75.528 107.161 75.868 107.313 76.164C107.473 76.452 107.693 76.68 107.973 76.848C108.253 77.016 108.573 77.1 108.933 77.1ZM110.649 78V76.464L110.853 75.072L110.649 73.692V72.3H111.741V78H110.649ZM115.677 80.508C115.093 80.508 114.573 80.4 114.117 80.184C113.669 79.968 113.309 79.664 113.037 79.272L113.733 78.564C113.965 78.86 114.241 79.084 114.561 79.236C114.881 79.396 115.261 79.476 115.701 79.476C116.285 79.476 116.745 79.32 117.081 79.008C117.425 78.704 117.597 78.292 117.597 77.772V76.356L117.789 75.072L117.597 73.8V72.3H118.677V77.772C118.677 78.316 118.549 78.792 118.293 79.2C118.045 79.608 117.693 79.928 117.237 80.16C116.789 80.392 116.269 80.508 115.677 80.508ZM115.677 77.904C115.157 77.904 114.689 77.78 114.273 77.532C113.865 77.284 113.541 76.944 113.301 76.512C113.061 76.072 112.941 75.58 112.941 75.036C112.941 74.492 113.061 74.008 113.301 73.584C113.541 73.152 113.865 72.812 114.273 72.564C114.689 72.308 115.157 72.18 115.677 72.18C116.125 72.18 116.521 72.268 116.865 72.444C117.209 72.62 117.481 72.868 117.681 73.188C117.889 73.5 118.001 73.868 118.017 74.292V75.804C117.993 76.22 117.877 76.588 117.669 76.908C117.469 77.22 117.197 77.464 116.853 77.64C116.509 77.816 116.117 77.904 115.677 77.904ZM115.893 76.884C116.245 76.884 116.553 76.808 116.817 76.656C117.089 76.504 117.297 76.292 117.441 76.02C117.585 75.74 117.657 75.416 117.657 75.048C117.657 74.68 117.581 74.36 117.429 74.088C117.285 73.808 117.081 73.592 116.817 73.44C116.553 73.28 116.241 73.2 115.881 73.2C115.521 73.2 115.205 73.28 114.933 73.44C114.661 73.592 114.445 73.808 114.285 74.088C114.133 74.36 114.057 74.676 114.057 75.036C114.057 75.396 114.133 75.716 114.285 75.996C114.445 76.276 114.661 76.496 114.933 76.656C115.213 76.808 115.533 76.884 115.893 76.884ZM122.902 78.12C122.334 78.12 121.822 77.992 121.366 77.736C120.91 77.472 120.55 77.116 120.286 76.668C120.022 76.22 119.89 75.712 119.89 75.144C119.89 74.584 120.018 74.08 120.274 73.632C120.538 73.184 120.89 72.832 121.33 72.576C121.778 72.312 122.278 72.18 122.83 72.18C123.358 72.18 123.822 72.3 124.222 72.54C124.63 72.78 124.946 73.112 125.17 73.536C125.402 73.96 125.518 74.44 125.518 74.976C125.518 75.056 125.514 75.144 125.506 75.24C125.498 75.328 125.482 75.432 125.458 75.552H120.646V74.652H124.882L124.486 75C124.486 74.616 124.418 74.292 124.282 74.028C124.146 73.756 123.954 73.548 123.706 73.404C123.458 73.252 123.158 73.176 122.806 73.176C122.438 73.176 122.114 73.256 121.834 73.416C121.554 73.576 121.338 73.8 121.186 74.088C121.034 74.376 120.958 74.716 120.958 75.108C120.958 75.508 121.038 75.86 121.198 76.164C121.358 76.46 121.586 76.692 121.882 76.86C122.178 77.02 122.518 77.1 122.902 77.1C123.222 77.1 123.514 77.044 123.778 76.932C124.05 76.82 124.282 76.652 124.474 76.428L125.17 77.136C124.898 77.456 124.562 77.7 124.162 77.868C123.77 78.036 123.35 78.12 122.902 78.12ZM128.508 78.12C128.188 78.12 127.884 78.08 127.596 78C127.316 77.912 127.056 77.792 126.816 77.64C126.576 77.48 126.368 77.292 126.192 77.076L126.888 76.38C127.096 76.636 127.336 76.828 127.608 76.956C127.88 77.076 128.184 77.136 128.52 77.136C128.856 77.136 129.116 77.08 129.3 76.968C129.484 76.848 129.576 76.684 129.576 76.476C129.576 76.268 129.5 76.108 129.348 75.996C129.204 75.876 129.016 75.78 128.784 75.708C128.552 75.628 128.304 75.552 128.04 75.48C127.784 75.4 127.54 75.3 127.308 75.18C127.076 75.06 126.884 74.896 126.732 74.688C126.588 74.48 126.516 74.204 126.516 73.86C126.516 73.516 126.6 73.22 126.768 72.972C126.936 72.716 127.168 72.52 127.464 72.384C127.768 72.248 128.132 72.18 128.556 72.18C129.004 72.18 129.4 72.26 129.744 72.42C130.096 72.572 130.384 72.804 130.608 73.116L129.912 73.812C129.752 73.604 129.552 73.444 129.312 73.332C129.08 73.22 128.816 73.164 128.52 73.164C128.208 73.164 127.968 73.22 127.8 73.332C127.64 73.436 127.56 73.584 127.56 73.776C127.56 73.968 127.632 74.116 127.776 74.22C127.92 74.324 128.108 74.412 128.34 74.484C128.58 74.556 128.828 74.632 129.084 74.712C129.34 74.784 129.584 74.884 129.816 75.012C130.048 75.14 130.236 75.312 130.38 75.528C130.532 75.744 130.608 76.028 130.608 76.38C130.608 76.916 130.416 77.34 130.032 77.652C129.656 77.964 129.148 78.12 128.508 78.12Z" fill="#1CB703"/>
<path d="M17.0116 110L22.1956 97.4H23.6356L28.7836 110H26.5516L22.5196 99.794H23.2756L19.2076 110H17.0116ZM19.5676 107.57V105.77H26.2456V107.57H19.5676ZM33.5459 110.18C32.8139 110.18 32.1599 110.018 31.5839 109.694C31.0199 109.37 30.5759 108.926 30.2519 108.362C29.9399 107.786 29.7839 107.126 29.7839 106.382V101.36H31.7639V106.292C31.7639 106.712 31.8299 107.072 31.9619 107.372C32.1059 107.66 32.3099 107.882 32.5739 108.038C32.8499 108.194 33.1739 108.272 33.5459 108.272C34.1219 108.272 34.5599 108.104 34.8599 107.768C35.1719 107.42 35.3279 106.928 35.3279 106.292V101.36H37.3079V106.382C37.3079 107.138 37.1459 107.804 36.8219 108.38C36.5099 108.944 36.0719 109.388 35.5079 109.712C34.9439 110.024 34.2899 110.18 33.5459 110.18ZM40.6127 110V97.76H42.5927V110H40.6127ZM38.5427 103.16V101.36H44.6627V103.16H38.5427ZM49.8153 110.18C48.9753 110.18 48.2133 109.982 47.5293 109.586C46.8453 109.178 46.2993 108.632 45.8913 107.948C45.4953 107.264 45.2973 106.502 45.2973 105.662C45.2973 104.822 45.4953 104.066 45.8913 103.394C46.2993 102.722 46.8453 102.188 47.5293 101.792C48.2133 101.384 48.9753 101.18 49.8153 101.18C50.6673 101.18 51.4353 101.378 52.1193 101.774C52.8033 102.17 53.3433 102.71 53.7393 103.394C54.1473 104.066 54.3513 104.822 54.3513 105.662C54.3513 106.502 54.1473 107.264 53.7393 107.948C53.3433 108.632 52.8033 109.178 52.1193 109.586C51.4353 109.982 50.6673 110.18 49.8153 110.18ZM49.8153 108.272C50.3073 108.272 50.7393 108.164 51.1113 107.948C51.4953 107.72 51.7893 107.408 51.9933 107.012C52.2093 106.616 52.3173 106.166 52.3173 105.662C52.3173 105.158 52.2093 104.714 51.9933 104.33C51.7773 103.946 51.4833 103.646 51.1113 103.43C50.7393 103.202 50.3073 103.088 49.8153 103.088C49.3353 103.088 48.9033 103.202 48.5193 103.43C48.1473 103.646 47.8533 103.946 47.6373 104.33C47.4333 104.714 47.3313 105.158 47.3313 105.662C47.3313 106.166 47.4333 106.616 47.6373 107.012C47.8533 107.408 48.1473 107.72 48.5193 107.948C48.9033 108.164 49.3353 108.272 49.8153 108.272ZM65.5954 110.18C64.6834 110.18 63.8374 110.018 63.0574 109.694C62.2894 109.358 61.6174 108.896 61.0414 108.308C60.4654 107.708 60.0214 107.018 59.7094 106.238C59.3974 105.446 59.2414 104.6 59.2414 103.7C59.2414 102.8 59.3974 101.96 59.7094 101.18C60.0214 100.388 60.4654 99.698 61.0414 99.11C61.6174 98.522 62.2894 98.06 63.0574 97.724C63.8374 97.388 64.6834 97.22 65.5954 97.22C66.6154 97.22 67.4974 97.388 68.2414 97.724C68.9854 98.06 69.6454 98.516 70.2214 99.092L68.8174 100.496C68.4454 100.088 67.9894 99.77 67.4494 99.542C66.9214 99.314 66.3034 99.2 65.5954 99.2C64.9714 99.2 64.4014 99.308 63.8854 99.524C63.3694 99.74 62.9194 100.052 62.5354 100.46C62.1634 100.856 61.8754 101.33 61.6714 101.882C61.4674 102.434 61.3654 103.04 61.3654 103.7C61.3654 104.36 61.4674 104.966 61.6714 105.518C61.8754 106.07 62.1634 106.55 62.5354 106.958C62.9194 107.354 63.3694 107.66 63.8854 107.876C64.4014 108.092 64.9714 108.2 65.5954 108.2C66.3634 108.2 67.0114 108.086 67.5394 107.858C68.0794 107.618 68.5354 107.294 68.9074 106.886L70.3114 108.29C69.7354 108.878 69.0574 109.34 68.2774 109.676C67.4974 110.012 66.6034 110.18 65.5954 110.18ZM71.8885 110V97.04H73.8685V110H71.8885ZM80.0321 110.18C79.1921 110.18 78.4301 109.982 77.7461 109.586C77.0621 109.178 76.5161 108.632 76.1081 107.948C75.7121 107.264 75.5141 106.502 75.5141 105.662C75.5141 104.822 75.7121 104.066 76.1081 103.394C76.5161 102.722 77.0621 102.188 77.7461 101.792C78.4301 101.384 79.1921 101.18 80.0321 101.18C80.8841 101.18 81.6521 101.378 82.3361 101.774C83.0201 102.17 83.5601 102.71 83.9561 103.394C84.3641 104.066 84.5681 104.822 84.5681 105.662C84.5681 106.502 84.3641 107.264 83.9561 107.948C83.5601 108.632 83.0201 109.178 82.3361 109.586C81.6521 109.982 80.8841 110.18 80.0321 110.18ZM80.0321 108.272C80.5241 108.272 80.9561 108.164 81.3281 107.948C81.7121 107.72 82.0061 107.408 82.2101 107.012C82.4261 106.616 82.5341 106.166 82.5341 105.662C82.5341 105.158 82.4261 104.714 82.2101 104.33C81.9941 103.946 81.7001 103.646 81.3281 103.43C80.9561 103.202 80.5241 103.088 80.0321 103.088C79.5521 103.088 79.1201 103.202 78.7361 103.43C78.3641 103.646 78.0701 103.946 77.8541 104.33C77.6501 104.714 77.5481 105.158 77.5481 105.662C77.5481 106.166 77.6501 106.616 77.8541 107.012C78.0701 107.408 78.3641 107.72 78.7361 107.948C79.1201 108.164 79.5521 108.272 80.0321 108.272ZM89.0407 110.18C88.5607 110.18 88.0987 110.12 87.6547 110C87.2107 109.868 86.8027 109.688 86.4307 109.46C86.0587 109.22 85.7347 108.932 85.4587 108.596L86.7187 107.336C87.0187 107.684 87.3607 107.948 87.7447 108.128C88.1407 108.296 88.5847 108.38 89.0767 108.38C89.5207 108.38 89.8567 108.314 90.0847 108.182C90.3127 108.05 90.4267 107.858 90.4267 107.606C90.4267 107.342 90.3187 107.138 90.1027 106.994C89.8867 106.85 89.6047 106.73 89.2567 106.634C88.9207 106.526 88.5607 106.418 88.1767 106.31C87.8047 106.202 87.4447 106.058 87.0967 105.878C86.7607 105.686 86.4847 105.428 86.2687 105.104C86.0527 104.78 85.9447 104.36 85.9447 103.844C85.9447 103.292 86.0707 102.818 86.3227 102.422C86.5867 102.026 86.9527 101.72 87.4207 101.504C87.9007 101.288 88.4707 101.18 89.1307 101.18C89.8267 101.18 90.4387 101.306 90.9667 101.558C91.5067 101.798 91.9567 102.164 92.3167 102.656L91.0567 103.916C90.8047 103.604 90.5167 103.37 90.1927 103.214C89.8687 103.058 89.4967 102.98 89.0767 102.98C88.6807 102.98 88.3747 103.04 88.1587 103.16C87.9427 103.28 87.8347 103.454 87.8347 103.682C87.8347 103.922 87.9427 104.108 88.1587 104.24C88.3747 104.372 88.6507 104.486 88.9867 104.582C89.3347 104.678 89.6947 104.786 90.0667 104.906C90.4507 105.014 90.8107 105.17 91.1467 105.374C91.4947 105.566 91.7767 105.83 91.9927 106.166C92.2087 106.49 92.3167 106.916 92.3167 107.444C92.3167 108.284 92.0227 108.95 91.4347 109.442C90.8467 109.934 90.0487 110.18 89.0407 110.18ZM97.9631 110.18C97.0991 110.18 96.3191 109.988 95.6231 109.604C94.9391 109.208 94.3931 108.668 93.9851 107.984C93.5891 107.3 93.3911 106.532 93.3911 105.68C93.3911 104.828 93.5891 104.066 93.9851 103.394C94.3811 102.71 94.9151 102.17 95.5871 101.774C96.2711 101.378 97.0271 101.18 97.8551 101.18C98.6591 101.18 99.3671 101.366 99.9791 101.738C100.603 102.11 101.089 102.62 101.437 103.268C101.797 103.916 101.977 104.654 101.977 105.482C101.977 105.626 101.965 105.776 101.941 105.932C101.929 106.076 101.905 106.238 101.869 106.418H94.7771V104.798H100.843L100.105 105.446C100.081 104.918 99.9791 104.474 99.7991 104.114C99.6191 103.754 99.3611 103.478 99.0251 103.286C98.7011 103.094 98.2991 102.998 97.8191 102.998C97.3151 102.998 96.8771 103.106 96.5051 103.322C96.1331 103.538 95.8451 103.844 95.6411 104.24C95.4371 104.624 95.3351 105.086 95.3351 105.626C95.3351 106.166 95.4431 106.64 95.6591 107.048C95.8751 107.456 96.1811 107.774 96.5771 108.002C96.9731 108.218 97.4291 108.326 97.9451 108.326C98.3891 108.326 98.7971 108.248 99.1691 108.092C99.5531 107.936 99.8771 107.708 100.141 107.408L101.401 108.686C100.981 109.178 100.471 109.55 99.8711 109.802C99.2711 110.054 98.6351 110.18 97.9631 110.18ZM113.162 110.18C112.25 110.18 111.404 110.018 110.624 109.694C109.856 109.358 109.184 108.896 108.608 108.308C108.032 107.708 107.588 107.018 107.276 106.238C106.964 105.446 106.808 104.6 106.808 103.7C106.808 102.8 106.964 101.96 107.276 101.18C107.588 100.388 108.032 99.698 108.608 99.11C109.184 98.522 109.856 98.06 110.624 97.724C111.404 97.388 112.25 97.22 113.162 97.22C114.182 97.22 115.064 97.388 115.808 97.724C116.552 98.06 117.212 98.516 117.788 99.092L116.384 100.496C116.012 100.088 115.556 99.77 115.016 99.542C114.488 99.314 113.87 99.2 113.162 99.2C112.538 99.2 111.968 99.308 111.452 99.524C110.936 99.74 110.486 100.052 110.102 100.46C109.73 100.856 109.442 101.33 109.238 101.882C109.034 102.434 108.932 103.04 108.932 103.7C108.932 104.36 109.034 104.966 109.238 105.518C109.442 106.07 109.73 106.55 110.102 106.958C110.486 107.354 110.936 107.66 111.452 107.876C111.968 108.092 112.538 108.2 113.162 108.2C113.93 108.2 114.578 108.086 115.106 107.858C115.646 107.618 116.102 107.294 116.474 106.886L117.878 108.29C117.302 108.878 116.624 109.34 115.844 109.676C115.064 110.012 114.17 110.18 113.162 110.18ZM123.151 110.18C122.311 110.18 121.549 109.982 120.865 109.586C120.181 109.178 119.635 108.632 119.227 107.948C118.831 107.264 118.633 106.502 118.633 105.662C118.633 104.822 118.831 104.066 119.227 103.394C119.635 102.722 120.181 102.188 120.865 101.792C121.549 101.384 122.311 101.18 123.151 101.18C124.003 101.18 124.771 101.378 125.455 101.774C126.139 102.17 126.679 102.71 127.075 103.394C127.483 104.066 127.687 104.822 127.687 105.662C127.687 106.502 127.483 107.264 127.075 107.948C126.679 108.632 126.139 109.178 125.455 109.586C124.771 109.982 124.003 110.18 123.151 110.18ZM123.151 108.272C123.643 108.272 124.075 108.164 124.447 107.948C124.831 107.72 125.125 107.408 125.329 107.012C125.545 106.616 125.653 106.166 125.653 105.662C125.653 105.158 125.545 104.714 125.329 104.33C125.113 103.946 124.819 103.646 124.447 103.43C124.075 103.202 123.643 103.088 123.151 103.088C122.671 103.088 122.239 103.202 121.855 103.43C121.483 103.646 121.189 103.946 120.973 104.33C120.769 104.714 120.667 105.158 120.667 105.662C120.667 106.166 120.769 106.616 120.973 107.012C121.189 107.408 121.483 107.72 121.855 107.948C122.239 108.164 122.671 108.272 123.151 108.272ZM135.256 110V105.014C135.256 104.438 135.07 103.964 134.698 103.592C134.338 103.22 133.87 103.034 133.294 103.034C132.91 103.034 132.568 103.118 132.268 103.286C131.968 103.454 131.734 103.688 131.566 103.988C131.398 104.288 131.314 104.63 131.314 105.014L130.54 104.582C130.54 103.922 130.684 103.34 130.972 102.836C131.26 102.32 131.656 101.918 132.16 101.63C132.676 101.33 133.252 101.18 133.888 101.18C134.536 101.18 135.112 101.348 135.616 101.684C136.12 102.008 136.516 102.434 136.804 102.962C137.092 103.478 137.236 104.018 137.236 104.582V110H135.256ZM129.334 110V101.36H131.314V110H129.334ZM142.164 110L138.222 101.36H140.418L143.424 108.398H142.128L145.152 101.36H147.258L143.316 110H142.164ZM152.139 110.18C151.275 110.18 150.495 109.988 149.799 109.604C149.115 109.208 148.569 108.668 148.161 107.984C147.765 107.3 147.567 106.532 147.567 105.68C147.567 104.828 147.765 104.066 148.161 103.394C148.557 102.71 149.091 102.17 149.763 101.774C150.447 101.378 151.203 101.18 152.031 101.18C152.835 101.18 153.543 101.366 154.155 101.738C154.779 102.11 155.265 102.62 155.613 103.268C155.973 103.916 156.153 104.654 156.153 105.482C156.153 105.626 156.141 105.776 156.117 105.932C156.105 106.076 156.081 106.238 156.045 106.418H148.953V104.798H155.019L154.281 105.446C154.257 104.918 154.155 104.474 153.975 104.114C153.795 103.754 153.537 103.478 153.201 103.286C152.877 103.094 152.475 102.998 151.995 102.998C151.491 102.998 151.053 103.106 150.681 103.322C150.309 103.538 150.021 103.844 149.817 104.24C149.613 104.624 149.511 105.086 149.511 105.626C149.511 106.166 149.619 106.64 149.835 107.048C150.051 107.456 150.357 107.774 150.753 108.002C151.149 108.218 151.605 108.326 152.121 108.326C152.565 108.326 152.973 108.248 153.345 108.092C153.729 107.936 154.053 107.708 154.317 107.408L155.577 108.686C155.157 109.178 154.647 109.55 154.047 109.802C153.447 110.054 152.811 110.18 152.139 110.18ZM157.74 110V101.36H159.72V110H157.74ZM159.72 105.194L159.036 104.852C159.036 103.76 159.276 102.878 159.756 102.206C160.248 101.522 160.986 101.18 161.97 101.18C162.402 101.18 162.792 101.258 163.14 101.414C163.488 101.57 163.812 101.822 164.112 102.17L162.816 103.502C162.66 103.334 162.486 103.214 162.294 103.142C162.102 103.07 161.88 103.034 161.628 103.034C161.076 103.034 160.62 103.208 160.26 103.556C159.9 103.904 159.72 104.45 159.72 105.194ZM167.703 110.18C167.223 110.18 166.761 110.12 166.317 110C165.873 109.868 165.465 109.688 165.093 109.46C164.721 109.22 164.397 108.932 164.121 108.596L165.381 107.336C165.681 107.684 166.023 107.948 166.407 108.128C166.803 108.296 167.247 108.38 167.739 108.38C168.183 108.38 168.519 108.314 168.747 108.182C168.975 108.05 169.089 107.858 169.089 107.606C169.089 107.342 168.981 107.138 168.765 106.994C168.549 106.85 168.267 106.73 167.919 106.634C167.583 106.526 167.223 106.418 166.839 106.31C166.467 106.202 166.107 106.058 165.759 105.878C165.423 105.686 165.147 105.428 164.931 105.104C164.715 104.78 164.607 104.36 164.607 103.844C164.607 103.292 164.733 102.818 164.985 102.422C165.249 102.026 165.615 101.72 166.083 101.504C166.563 101.288 167.133 101.18 167.793 101.18C168.489 101.18 169.101 101.306 169.629 101.558C170.169 101.798 170.619 102.164 170.979 102.656L169.719 103.916C169.467 103.604 169.179 103.37 168.855 103.214C168.531 103.058 168.159 102.98 167.739 102.98C167.343 102.98 167.037 103.04 166.821 103.16C166.605 103.28 166.497 103.454 166.497 103.682C166.497 103.922 166.605 104.108 166.821 104.24C167.037 104.372 167.313 104.486 167.649 104.582C167.997 104.678 168.357 104.786 168.729 104.906C169.113 105.014 169.473 105.17 169.809 105.374C170.157 105.566 170.439 105.83 170.655 106.166C170.871 106.49 170.979 106.916 170.979 107.444C170.979 108.284 170.685 108.95 170.097 109.442C169.509 109.934 168.711 110.18 167.703 110.18ZM176.229 110.18C175.449 110.18 174.741 109.982 174.105 109.586C173.481 109.19 172.983 108.656 172.611 107.984C172.251 107.3 172.071 106.538 172.071 105.698C172.071 104.846 172.251 104.084 172.611 103.412C172.983 102.728 173.481 102.188 174.105 101.792C174.741 101.384 175.449 101.18 176.229 101.18C176.889 101.18 177.471 101.324 177.975 101.612C178.491 101.888 178.899 102.272 179.199 102.764C179.499 103.256 179.649 103.814 179.649 104.438V106.922C179.649 107.546 179.499 108.104 179.199 108.596C178.911 109.088 178.509 109.478 177.993 109.766C177.477 110.042 176.889 110.18 176.229 110.18ZM176.553 108.308C177.285 108.308 177.873 108.062 178.317 107.57C178.773 107.078 179.001 106.448 179.001 105.68C179.001 105.164 178.899 104.708 178.695 104.312C178.491 103.916 178.203 103.61 177.831 103.394C177.471 103.166 177.045 103.052 176.553 103.052C176.073 103.052 175.647 103.166 175.275 103.394C174.915 103.61 174.627 103.916 174.411 104.312C174.207 104.708 174.105 105.164 174.105 105.68C174.105 106.196 174.207 106.652 174.411 107.048C174.627 107.444 174.915 107.756 175.275 107.984C175.647 108.2 176.073 108.308 176.553 108.308ZM178.875 110V107.678L179.217 105.572L178.875 103.484V101.36H180.855V110H178.875ZM184.367 110V97.76H186.347V110H184.367ZM182.297 103.16V101.36H188.417V103.16H182.297ZM189.873 110V101.36H191.853V110H189.873ZM190.863 99.776C190.527 99.776 190.245 99.662 190.017 99.434C189.801 99.206 189.693 98.924 189.693 98.588C189.693 98.252 189.801 97.97 190.017 97.742C190.245 97.514 190.527 97.4 190.863 97.4C191.211 97.4 191.493 97.514 191.709 97.742C191.925 97.97 192.033 98.252 192.033 98.588C192.033 98.924 191.925 99.206 191.709 99.434C191.493 99.662 191.211 99.776 190.863 99.776ZM198.034 110.18C197.194 110.18 196.432 109.982 195.748 109.586C195.064 109.178 194.518 108.632 194.11 107.948C193.714 107.264 193.516 106.502 193.516 105.662C193.516 104.822 193.714 104.066 194.11 103.394C194.518 102.722 195.064 102.188 195.748 101.792C196.432 101.384 197.194 101.18 198.034 101.18C198.886 101.18 199.654 101.378 200.338 101.774C201.022 102.17 201.562 102.71 201.958 103.394C202.366 104.066 202.57 104.822 202.57 105.662C202.57 106.502 202.366 107.264 201.958 107.948C201.562 108.632 201.022 109.178 200.338 109.586C199.654 109.982 198.886 110.18 198.034 110.18ZM198.034 108.272C198.526 108.272 198.958 108.164 199.33 107.948C199.714 107.72 200.008 107.408 200.212 107.012C200.428 106.616 200.536 106.166 200.536 105.662C200.536 105.158 200.428 104.714 200.212 104.33C199.996 103.946 199.702 103.646 199.33 103.43C198.958 103.202 198.526 103.088 198.034 103.088C197.554 103.088 197.122 103.202 196.738 103.43C196.366 103.646 196.072 103.946 195.856 104.33C195.652 104.714 195.55 105.158 195.55 105.662C195.55 106.166 195.652 106.616 195.856 107.012C196.072 107.408 196.366 107.72 196.738 107.948C197.122 108.164 197.554 108.272 198.034 108.272ZM210.139 110V105.014C210.139 104.438 209.953 103.964 209.581 103.592C209.221 103.22 208.753 103.034 208.177 103.034C207.793 103.034 207.451 103.118 207.151 103.286C206.851 103.454 206.617 103.688 206.449 103.988C206.281 104.288 206.197 104.63 206.197 105.014L205.423 104.582C205.423 103.922 205.567 103.34 205.855 102.836C206.143 102.32 206.539 101.918 207.043 101.63C207.559 101.33 208.135 101.18 208.771 101.18C209.419 101.18 209.995 101.348 210.499 101.684C211.003 102.008 211.399 102.434 211.687 102.962C211.975 103.478 212.119 104.018 212.119 104.582V110H210.139ZM204.217 110V101.36H206.197V110H204.217Z" fill="#030037"/>
<path d="M17.0136 138L20.9896 128.284H21.9416L25.9036 138H24.4756L21.2136 129.782H21.7036L18.4136 138H17.0136ZM18.9036 135.802V134.654H24.0136V135.802H18.9036ZM29.6795 138.14C29.1382 138.14 28.6482 138.019 28.2095 137.776C27.7802 137.524 27.4442 137.179 27.2015 136.74C26.9589 136.301 26.8375 135.793 26.8375 135.214V131.35H28.0975V135.158C28.0975 135.522 28.1582 135.839 28.2795 136.11C28.4102 136.371 28.5969 136.572 28.8395 136.712C29.0822 136.852 29.3669 136.922 29.6935 136.922C30.1882 136.922 30.5755 136.768 30.8555 136.46C31.1355 136.143 31.2755 135.709 31.2755 135.158V131.35H32.5355V135.214C32.5355 135.793 32.4142 136.301 32.1715 136.74C31.9289 137.179 31.5929 137.524 31.1635 137.776C30.7435 138.019 30.2489 138.14 29.6795 138.14ZM35.2463 138V128.564H36.5063V138H35.2463ZM33.6083 132.498V131.35H38.1443V132.498H33.6083ZM42.2115 138.14C41.5582 138.14 40.9702 137.986 40.4475 137.678C39.9248 137.37 39.5095 136.955 39.2015 136.432C38.8935 135.9 38.7395 135.307 38.7395 134.654C38.7395 134.01 38.8935 133.431 39.2015 132.918C39.5095 132.395 39.9248 131.98 40.4475 131.672C40.9702 131.364 41.5582 131.21 42.2115 131.21C42.8555 131.21 43.4388 131.364 43.9615 131.672C44.4935 131.971 44.9135 132.381 45.2215 132.904C45.5295 133.427 45.6835 134.01 45.6835 134.654C45.6835 135.307 45.5295 135.9 45.2215 136.432C44.9135 136.955 44.4935 137.37 43.9615 137.678C43.4388 137.986 42.8555 138.14 42.2115 138.14ZM42.2115 136.922C42.6315 136.922 43.0048 136.824 43.3315 136.628C43.6582 136.432 43.9148 136.166 44.1015 135.83C44.2882 135.485 44.3815 135.093 44.3815 134.654C44.3815 134.225 44.2835 133.842 44.0875 133.506C43.9008 133.17 43.6442 132.909 43.3175 132.722C43.0002 132.526 42.6315 132.428 42.2115 132.428C41.7915 132.428 41.4182 132.526 41.0915 132.722C40.7648 132.909 40.5082 133.17 40.3215 133.506C40.1348 133.842 40.0415 134.225 40.0415 134.654C40.0415 135.093 40.1348 135.485 40.3215 135.83C40.5082 136.166 40.7648 136.432 41.0915 136.628C41.4182 136.824 41.7915 136.922 42.2115 136.922ZM53.0533 138.14C52.4 138.14 51.8073 137.986 51.2753 137.678C50.7526 137.37 50.3373 136.955 50.0293 136.432C49.7306 135.9 49.5813 135.312 49.5813 134.668C49.5813 134.015 49.7306 133.427 50.0293 132.904C50.3373 132.381 50.7526 131.971 51.2753 131.672C51.8073 131.364 52.4 131.21 53.0533 131.21C53.5666 131.21 54.0426 131.308 54.4813 131.504C54.92 131.691 55.298 131.966 55.6153 132.33L54.7753 133.17C54.57 132.927 54.318 132.745 54.0193 132.624C53.73 132.493 53.408 132.428 53.0533 132.428C52.6333 132.428 52.26 132.526 51.9333 132.722C51.6066 132.909 51.35 133.17 51.1633 133.506C50.9766 133.842 50.8833 134.229 50.8833 134.668C50.8833 135.107 50.9766 135.494 51.1633 135.83C51.35 136.166 51.6066 136.432 51.9333 136.628C52.26 136.824 52.6333 136.922 53.0533 136.922C53.408 136.922 53.73 136.861 54.0193 136.74C54.318 136.609 54.5746 136.423 54.7893 136.18L55.6153 137.02C55.3073 137.375 54.9293 137.65 54.4813 137.846C54.0426 138.042 53.5666 138.14 53.0533 138.14ZM56.8649 138V128.004H58.1249V138H56.8649ZM63.0064 138.14C62.3531 138.14 61.7651 137.986 61.2424 137.678C60.7198 137.37 60.3044 136.955 59.9964 136.432C59.6884 135.9 59.5344 135.307 59.5344 134.654C59.5344 134.01 59.6884 133.431 59.9964 132.918C60.3044 132.395 60.7198 131.98 61.2424 131.672C61.7651 131.364 62.3531 131.21 63.0064 131.21C63.6504 131.21 64.2338 131.364 64.7564 131.672C65.2884 131.971 65.7084 132.381 66.0164 132.904C66.3244 133.427 66.4784 134.01 66.4784 134.654C66.4784 135.307 66.3244 135.9 66.0164 136.432C65.7084 136.955 65.2884 137.37 64.7564 137.678C64.2338 137.986 63.6504 138.14 63.0064 138.14ZM63.0064 136.922C63.4264 136.922 63.7998 136.824 64.1264 136.628C64.4531 136.432 64.7098 136.166 64.8964 135.83C65.0831 135.485 65.1764 135.093 65.1764 134.654C65.1764 134.225 65.0784 133.842 64.8824 133.506C64.6958 133.17 64.4391 132.909 64.1124 132.722C63.7951 132.526 63.4264 132.428 63.0064 132.428C62.5864 132.428 62.2131 132.526 61.8864 132.722C61.5598 132.909 61.3031 133.17 61.1164 133.506C60.9298 133.842 60.8364 134.225 60.8364 134.654C60.8364 135.093 60.9298 135.485 61.1164 135.83C61.3031 136.166 61.5598 136.432 61.8864 136.628C62.2131 136.824 62.5864 136.922 63.0064 136.922ZM70.0121 138.14C69.6388 138.14 69.2841 138.093 68.9481 138C68.6215 137.897 68.3181 137.757 68.0381 137.58C67.7581 137.393 67.5155 137.174 67.3101 136.922L68.1221 136.11C68.3648 136.409 68.6448 136.633 68.9621 136.782C69.2795 136.922 69.6341 136.992 70.0261 136.992C70.4181 136.992 70.7215 136.927 70.9361 136.796C71.1508 136.656 71.2581 136.465 71.2581 136.222C71.2581 135.979 71.1695 135.793 70.9921 135.662C70.8241 135.522 70.6048 135.41 70.3341 135.326C70.0635 135.233 69.7741 135.144 69.4661 135.06C69.1675 134.967 68.8828 134.85 68.6121 134.71C68.3415 134.57 68.1175 134.379 67.9401 134.136C67.7721 133.893 67.6881 133.571 67.6881 133.17C67.6881 132.769 67.7861 132.423 67.9821 132.134C68.1781 131.835 68.4488 131.607 68.7941 131.448C69.1488 131.289 69.5735 131.21 70.0681 131.21C70.5908 131.21 71.0528 131.303 71.4541 131.49C71.8648 131.667 72.2008 131.938 72.4621 132.302L71.6501 133.114C71.4635 132.871 71.2301 132.685 70.9501 132.554C70.6795 132.423 70.3715 132.358 70.0261 132.358C69.6621 132.358 69.3821 132.423 69.1861 132.554C68.9995 132.675 68.9061 132.848 68.9061 133.072C68.9061 133.296 68.9901 133.469 69.1581 133.59C69.3261 133.711 69.5455 133.814 69.8161 133.898C70.0961 133.982 70.3855 134.071 70.6841 134.164C70.9828 134.248 71.2675 134.365 71.5381 134.514C71.8088 134.663 72.0281 134.864 72.1961 135.116C72.3735 135.368 72.4621 135.699 72.4621 136.11C72.4621 136.735 72.2381 137.23 71.7901 137.594C71.3515 137.958 70.7588 138.14 70.0121 138.14ZM76.9527 138.14C76.2901 138.14 75.6927 137.991 75.1607 137.692C74.6287 137.384 74.2087 136.969 73.9007 136.446C73.5927 135.923 73.4387 135.331 73.4387 134.668C73.4387 134.015 73.5881 133.427 73.8867 132.904C74.1947 132.381 74.6054 131.971 75.1187 131.672C75.6414 131.364 76.2247 131.21 76.8687 131.21C77.4847 131.21 78.0261 131.35 78.4927 131.63C78.9687 131.91 79.3374 132.297 79.5987 132.792C79.8694 133.287 80.0047 133.847 80.0047 134.472C80.0047 134.565 80.0001 134.668 79.9907 134.78C79.9814 134.883 79.9627 135.004 79.9347 135.144H74.3207V134.094H79.2627L78.8007 134.5C78.8007 134.052 78.7214 133.674 78.5627 133.366C78.4041 133.049 78.1801 132.806 77.8907 132.638C77.6014 132.461 77.2514 132.372 76.8407 132.372C76.4114 132.372 76.0334 132.465 75.7067 132.652C75.3801 132.839 75.1281 133.1 74.9507 133.436C74.7734 133.772 74.6847 134.169 74.6847 134.626C74.6847 135.093 74.7781 135.503 74.9647 135.858C75.1514 136.203 75.4174 136.474 75.7627 136.67C76.1081 136.857 76.5047 136.95 76.9527 136.95C77.3261 136.95 77.6667 136.885 77.9747 136.754C78.2921 136.623 78.5627 136.427 78.7867 136.166L79.5987 136.992C79.2814 137.365 78.8894 137.65 78.4227 137.846C77.9654 138.042 77.4754 138.14 76.9527 138.14ZM84.3047 138V131.35H85.5647V138H84.3047ZM84.9347 130.02C84.7014 130.02 84.51 129.945 84.3607 129.796C84.2114 129.637 84.1367 129.441 84.1367 129.208C84.1367 128.984 84.2114 128.797 84.3607 128.648C84.51 128.489 84.7014 128.41 84.9347 128.41C85.168 128.41 85.3594 128.489 85.5087 128.648C85.658 128.797 85.7327 128.984 85.7327 129.208C85.7327 129.441 85.658 129.637 85.5087 129.796C85.3594 129.945 85.168 130.02 84.9347 130.02ZM92.1256 138V134.122C92.1256 133.618 91.9669 133.203 91.6496 132.876C91.3322 132.549 90.9216 132.386 90.4176 132.386C90.0816 132.386 89.7829 132.461 89.5216 132.61C89.2602 132.759 89.0549 132.965 88.9056 133.226C88.7562 133.487 88.6816 133.786 88.6816 134.122L88.1636 133.828C88.1636 133.324 88.2756 132.876 88.4996 132.484C88.7236 132.092 89.0362 131.784 89.4376 131.56C89.8389 131.327 90.2916 131.21 90.7956 131.21C91.2996 131.21 91.7429 131.336 92.1256 131.588C92.5176 131.84 92.8256 132.171 93.0496 132.582C93.2736 132.983 93.3856 133.413 93.3856 133.87V138H92.1256ZM87.4216 138V131.35H88.6816V138H87.4216ZM97.9195 138.14C97.3128 138.14 96.7621 137.991 96.2675 137.692C95.7728 137.384 95.3808 136.969 95.0915 136.446C94.8115 135.923 94.6715 135.335 94.6715 134.682C94.6715 134.029 94.8115 133.441 95.0915 132.918C95.3808 132.395 95.7681 131.98 96.2535 131.672C96.7481 131.364 97.3035 131.21 97.9195 131.21C98.4235 131.21 98.8715 131.317 99.2635 131.532C99.6648 131.737 99.9868 132.027 100.229 132.4C100.472 132.764 100.607 133.189 100.635 133.674V135.676C100.607 136.152 100.472 136.577 100.229 136.95C99.9961 137.323 99.6788 137.617 99.2775 137.832C98.8855 138.037 98.4328 138.14 97.9195 138.14ZM98.1295 136.95C98.7548 136.95 99.2588 136.74 99.6415 136.32C100.024 135.891 100.215 135.345 100.215 134.682C100.215 134.225 100.127 133.828 99.9495 133.492C99.7815 133.147 99.5388 132.881 99.2215 132.694C98.9041 132.498 98.5355 132.4 98.1155 132.4C97.6955 132.4 97.3221 132.498 96.9955 132.694C96.6781 132.89 96.4261 133.161 96.2395 133.506C96.0621 133.842 95.9735 134.229 95.9735 134.668C95.9735 135.116 96.0621 135.513 96.2395 135.858C96.4261 136.194 96.6828 136.46 97.0095 136.656C97.3361 136.852 97.7095 136.95 98.1295 136.95ZM100.131 138V136.208L100.369 134.584L100.131 132.974V131.35H101.405V138H100.131ZM106.278 138.14C105.625 138.14 105.032 137.986 104.5 137.678C103.977 137.37 103.562 136.955 103.254 136.432C102.955 135.9 102.806 135.312 102.806 134.668C102.806 134.015 102.955 133.427 103.254 132.904C103.562 132.381 103.977 131.971 104.5 131.672C105.032 131.364 105.625 131.21 106.278 131.21C106.791 131.21 107.267 131.308 107.706 131.504C108.145 131.691 108.523 131.966 108.84 132.33L108 133.17C107.795 132.927 107.543 132.745 107.244 132.624C106.955 132.493 106.633 132.428 106.278 132.428C105.858 132.428 105.485 132.526 105.158 132.722C104.831 132.909 104.575 133.17 104.388 133.506C104.201 133.842 104.108 134.229 104.108 134.668C104.108 135.107 104.201 135.494 104.388 135.83C104.575 136.166 104.831 136.432 105.158 136.628C105.485 136.824 105.858 136.922 106.278 136.922C106.633 136.922 106.955 136.861 107.244 136.74C107.543 136.609 107.799 136.423 108.014 136.18L108.84 137.02C108.532 137.375 108.154 137.65 107.706 137.846C107.267 138.042 106.791 138.14 106.278 138.14ZM111.029 138V128.564H112.289V138H111.029ZM109.391 132.498V131.35H113.927V132.498H109.391ZM115.176 138V131.35H116.436V138H115.176ZM115.806 130.02C115.572 130.02 115.381 129.945 115.232 129.796C115.082 129.637 115.008 129.441 115.008 129.208C115.008 128.984 115.082 128.797 115.232 128.648C115.381 128.489 115.572 128.41 115.806 128.41C116.039 128.41 116.23 128.489 116.38 128.648C116.529 128.797 116.604 128.984 116.604 129.208C116.604 129.441 116.529 129.637 116.38 129.796C116.23 129.945 116.039 130.02 115.806 130.02ZM120.575 138L117.523 131.35H118.923L121.373 136.964H120.561L123.025 131.35H124.369L121.317 138H120.575ZM128.263 138.14C127.601 138.14 127.003 137.991 126.471 137.692C125.939 137.384 125.519 136.969 125.211 136.446C124.903 135.923 124.749 135.331 124.749 134.668C124.749 134.015 124.899 133.427 125.197 132.904C125.505 132.381 125.916 131.971 126.429 131.672C126.952 131.364 127.535 131.21 128.179 131.21C128.795 131.21 129.337 131.35 129.803 131.63C130.279 131.91 130.648 132.297 130.909 132.792C131.18 133.287 131.315 133.847 131.315 134.472C131.315 134.565 131.311 134.668 131.301 134.78C131.292 134.883 131.273 135.004 131.245 135.144H125.631V134.094H130.573L130.111 134.5C130.111 134.052 130.032 133.674 129.873 133.366C129.715 133.049 129.491 132.806 129.201 132.638C128.912 132.461 128.562 132.372 128.151 132.372C127.722 132.372 127.344 132.465 127.017 132.652C126.691 132.839 126.439 133.1 126.261 133.436C126.084 133.772 125.995 134.169 125.995 134.626C125.995 135.093 126.089 135.503 126.275 135.858C126.462 136.203 126.728 136.474 127.073 136.67C127.419 136.857 127.815 136.95 128.263 136.95C128.637 136.95 128.977 136.885 129.285 136.754C129.603 136.623 129.873 136.427 130.097 136.166L130.909 136.992C130.592 137.365 130.2 137.65 129.733 137.846C129.276 138.042 128.786 138.14 128.263 138.14ZM138.639 138.14C137.986 138.14 137.393 137.986 136.861 137.678C136.339 137.37 135.923 136.955 135.615 136.432C135.317 135.9 135.167 135.312 135.167 134.668C135.167 134.015 135.317 133.427 135.615 132.904C135.923 132.381 136.339 131.971 136.861 131.672C137.393 131.364 137.986 131.21 138.639 131.21C139.153 131.21 139.629 131.308 140.067 131.504C140.506 131.691 140.884 131.966 141.201 132.33L140.361 133.17C140.156 132.927 139.904 132.745 139.605 132.624C139.316 132.493 138.994 132.428 138.639 132.428C138.219 132.428 137.846 132.526 137.519 132.722C137.193 132.909 136.936 133.17 136.749 133.506C136.563 133.842 136.469 134.229 136.469 134.668C136.469 135.107 136.563 135.494 136.749 135.83C136.936 136.166 137.193 136.432 137.519 136.628C137.846 136.824 138.219 136.922 138.639 136.922C138.994 136.922 139.316 136.861 139.605 136.74C139.904 136.609 140.161 136.423 140.375 136.18L141.201 137.02C140.893 137.375 140.515 137.65 140.067 137.846C139.629 138.042 139.153 138.14 138.639 138.14ZM145.352 138.14C144.699 138.14 144.111 137.986 143.588 137.678C143.065 137.37 142.65 136.955 142.342 136.432C142.034 135.9 141.88 135.307 141.88 134.654C141.88 134.01 142.034 133.431 142.342 132.918C142.65 132.395 143.065 131.98 143.588 131.672C144.111 131.364 144.699 131.21 145.352 131.21C145.996 131.21 146.579 131.364 147.102 131.672C147.634 131.971 148.054 132.381 148.362 132.904C148.67 133.427 148.824 134.01 148.824 134.654C148.824 135.307 148.67 135.9 148.362 136.432C148.054 136.955 147.634 137.37 147.102 137.678C146.579 137.986 145.996 138.14 145.352 138.14ZM145.352 136.922C145.772 136.922 146.145 136.824 146.472 136.628C146.799 136.432 147.055 136.166 147.242 135.83C147.429 135.485 147.522 135.093 147.522 134.654C147.522 134.225 147.424 133.842 147.228 133.506C147.041 133.17 146.785 132.909 146.458 132.722C146.141 132.526 145.772 132.428 145.352 132.428C144.932 132.428 144.559 132.526 144.232 132.722C143.905 132.909 143.649 133.17 143.462 133.506C143.275 133.842 143.182 134.225 143.182 134.654C143.182 135.093 143.275 135.485 143.462 135.83C143.649 136.166 143.905 136.432 144.232 136.628C144.559 136.824 144.932 136.922 145.352 136.922ZM154.948 138V134.122C154.948 133.618 154.789 133.203 154.472 132.876C154.154 132.549 153.744 132.386 153.24 132.386C152.904 132.386 152.605 132.461 152.344 132.61C152.082 132.759 151.877 132.965 151.728 133.226C151.578 133.487 151.504 133.786 151.504 134.122L150.986 133.828C150.986 133.324 151.098 132.876 151.322 132.484C151.546 132.092 151.858 131.784 152.26 131.56C152.661 131.327 153.114 131.21 153.618 131.21C154.122 131.21 154.565 131.336 154.948 131.588C155.34 131.84 155.648 132.171 155.872 132.582C156.096 132.983 156.208 133.413 156.208 133.87V138H154.948ZM150.244 138V131.35H151.504V138H150.244ZM160.196 138L157.144 131.35H158.544L160.994 136.964H160.182L162.646 131.35H163.99L160.938 138H160.196ZM167.884 138.14C167.222 138.14 166.624 137.991 166.092 137.692C165.56 137.384 165.14 136.969 164.832 136.446C164.524 135.923 164.37 135.331 164.37 134.668C164.37 134.015 164.52 133.427 164.818 132.904C165.126 132.381 165.537 131.971 166.05 131.672C166.573 131.364 167.156 131.21 167.8 131.21C168.416 131.21 168.958 131.35 169.424 131.63C169.9 131.91 170.269 132.297 170.53 132.792C170.801 133.287 170.936 133.847 170.936 134.472C170.936 134.565 170.932 134.668 170.922 134.78C170.913 134.883 170.894 135.004 170.866 135.144H165.252V134.094H170.194L169.732 134.5C169.732 134.052 169.653 133.674 169.494 133.366C169.336 133.049 169.112 132.806 168.822 132.638C168.533 132.461 168.183 132.372 167.772 132.372C167.343 132.372 166.965 132.465 166.638 132.652C166.312 132.839 166.06 133.1 165.882 133.436C165.705 133.772 165.616 134.169 165.616 134.626C165.616 135.093 165.71 135.503 165.896 135.858C166.083 136.203 166.349 136.474 166.694 136.67C167.04 136.857 167.436 136.95 167.884 136.95C168.258 136.95 168.598 136.885 168.906 136.754C169.224 136.623 169.494 136.427 169.718 136.166L170.53 136.992C170.213 137.365 169.821 137.65 169.354 137.846C168.897 138.042 168.407 138.14 167.884 138.14ZM172.31 138V131.35H173.57V138H172.31ZM173.57 134.206L173.094 133.996C173.094 133.147 173.29 132.47 173.682 131.966C174.074 131.462 174.639 131.21 175.376 131.21C175.712 131.21 176.016 131.271 176.286 131.392C176.557 131.504 176.809 131.695 177.042 131.966L176.216 132.82C176.076 132.671 175.922 132.563 175.754 132.498C175.586 132.433 175.39 132.4 175.166 132.4C174.7 132.4 174.317 132.549 174.018 132.848C173.72 133.147 173.57 133.599 173.57 134.206ZM179.893 138.14C179.52 138.14 179.165 138.093 178.829 138C178.502 137.897 178.199 137.757 177.919 137.58C177.639 137.393 177.396 137.174 177.191 136.922L178.003 136.11C178.246 136.409 178.526 136.633 178.843 136.782C179.16 136.922 179.515 136.992 179.907 136.992C180.299 136.992 180.602 136.927 180.817 136.796C181.032 136.656 181.139 136.465 181.139 136.222C181.139 135.979 181.05 135.793 180.873 135.662C180.705 135.522 180.486 135.41 180.215 135.326C179.944 135.233 179.655 135.144 179.347 135.06C179.048 134.967 178.764 134.85 178.493 134.71C178.222 134.57 177.998 134.379 177.821 134.136C177.653 133.893 177.569 133.571 177.569 133.17C177.569 132.769 177.667 132.423 177.863 132.134C178.059 131.835 178.33 131.607 178.675 131.448C179.03 131.289 179.454 131.21 179.949 131.21C180.472 131.21 180.934 131.303 181.335 131.49C181.746 131.667 182.082 131.938 182.343 132.302L181.531 133.114C181.344 132.871 181.111 132.685 180.831 132.554C180.56 132.423 180.252 132.358 179.907 132.358C179.543 132.358 179.263 132.423 179.067 132.554C178.88 132.675 178.787 132.848 178.787 133.072C178.787 133.296 178.871 133.469 179.039 133.59C179.207 133.711 179.426 133.814 179.697 133.898C179.977 133.982 180.266 134.071 180.565 134.164C180.864 134.248 181.148 134.365 181.419 134.514C181.69 134.663 181.909 134.864 182.077 135.116C182.254 135.368 182.343 135.699 182.343 136.11C182.343 136.735 182.119 137.23 181.671 137.594C181.232 137.958 180.64 138.14 179.893 138.14ZM186.582 138.14C185.975 138.14 185.424 137.991 184.93 137.692C184.435 137.384 184.043 136.969 183.754 136.446C183.474 135.923 183.334 135.335 183.334 134.682C183.334 134.029 183.474 133.441 183.754 132.918C184.043 132.395 184.43 131.98 184.916 131.672C185.41 131.364 185.966 131.21 186.582 131.21C187.086 131.21 187.534 131.317 187.926 131.532C188.327 131.737 188.649 132.027 188.892 132.4C189.134 132.764 189.27 133.189 189.298 133.674V135.676C189.27 136.152 189.134 136.577 188.892 136.95C188.658 137.323 188.341 137.617 187.94 137.832C187.548 138.037 187.095 138.14 186.582 138.14ZM186.792 136.95C187.417 136.95 187.921 136.74 188.304 136.32C188.686 135.891 188.878 135.345 188.878 134.682C188.878 134.225 188.789 133.828 188.612 133.492C188.444 133.147 188.201 132.881 187.884 132.694C187.566 132.498 187.198 132.4 186.778 132.4C186.358 132.4 185.984 132.498 185.658 132.694C185.34 132.89 185.088 133.161 184.902 133.506C184.724 133.842 184.636 134.229 184.636 134.668C184.636 135.116 184.724 135.513 184.902 135.858C185.088 136.194 185.345 136.46 185.672 136.656C185.998 136.852 186.372 136.95 186.792 136.95ZM188.794 138V136.208L189.032 134.584L188.794 132.974V131.35H190.068V138H188.794ZM192.897 138V128.564H194.157V138H192.897ZM191.259 132.498V131.35H195.795V132.498H191.259ZM197.043 138V131.35H198.303V138H197.043ZM197.673 130.02C197.44 130.02 197.248 129.945 197.099 129.796C196.95 129.637 196.875 129.441 196.875 129.208C196.875 128.984 196.95 128.797 197.099 128.648C197.248 128.489 197.44 128.41 197.673 128.41C197.906 128.41 198.098 128.489 198.247 128.648C198.396 128.797 198.471 128.984 198.471 129.208C198.471 129.441 198.396 129.637 198.247 129.796C198.098 129.945 197.906 130.02 197.673 130.02ZM203.198 138.14C202.545 138.14 201.957 137.986 201.434 137.678C200.911 137.37 200.496 136.955 200.188 136.432C199.88 135.9 199.726 135.307 199.726 134.654C199.726 134.01 199.88 133.431 200.188 132.918C200.496 132.395 200.911 131.98 201.434 131.672C201.957 131.364 202.545 131.21 203.198 131.21C203.842 131.21 204.425 131.364 204.948 131.672C205.48 131.971 205.9 132.381 206.208 132.904C206.516 133.427 206.67 134.01 206.67 134.654C206.67 135.307 206.516 135.9 206.208 136.432C205.9 136.955 205.48 137.37 204.948 137.678C204.425 137.986 203.842 138.14 203.198 138.14ZM203.198 136.922C203.618 136.922 203.991 136.824 204.318 136.628C204.645 136.432 204.901 136.166 205.088 135.83C205.275 135.485 205.368 135.093 205.368 134.654C205.368 134.225 205.27 133.842 205.074 133.506C204.887 133.17 204.631 132.909 204.304 132.722C203.987 132.526 203.618 132.428 203.198 132.428C202.778 132.428 202.405 132.526 202.078 132.722C201.751 132.909 201.495 133.17 201.308 133.506C201.121 133.842 201.028 134.225 201.028 134.654C201.028 135.093 201.121 135.485 201.308 135.83C201.495 136.166 201.751 136.432 202.078 136.628C202.405 136.824 202.778 136.922 203.198 136.922ZM212.794 138V134.122C212.794 133.618 212.635 133.203 212.318 132.876C212 132.549 211.59 132.386 211.086 132.386C210.75 132.386 210.451 132.461 210.19 132.61C209.928 132.759 209.723 132.965 209.574 133.226C209.424 133.487 209.35 133.786 209.35 134.122L208.832 133.828C208.832 133.324 208.944 132.876 209.168 132.484C209.392 132.092 209.704 131.784 210.106 131.56C210.507 131.327 210.96 131.21 211.464 131.21C211.968 131.21 212.411 131.336 212.794 131.588C213.186 131.84 213.494 132.171 213.718 132.582C213.942 132.983 214.054 133.413 214.054 133.87V138H212.794ZM208.09 138V131.35H209.35V138H208.09ZM218.672 138V131.35H219.932V138H218.672ZM219.932 134.206L219.456 133.996C219.456 133.147 219.652 132.47 220.044 131.966C220.436 131.462 221 131.21 221.738 131.21C222.074 131.21 222.377 131.271 222.648 131.392C222.918 131.504 223.17 131.695 223.404 131.966L222.578 132.82C222.438 132.671 222.284 132.563 222.116 132.498C221.948 132.433 221.752 132.4 221.528 132.4C221.061 132.4 220.678 132.549 220.38 132.848C220.081 133.147 219.932 133.599 219.932 134.206ZM227.152 138.14C226.489 138.14 225.892 137.991 225.36 137.692C224.828 137.384 224.408 136.969 224.1 136.446C223.792 135.923 223.638 135.331 223.638 134.668C223.638 134.015 223.787 133.427 224.086 132.904C224.394 132.381 224.805 131.971 225.318 131.672C225.841 131.364 226.424 131.21 227.068 131.21C227.684 131.21 228.225 131.35 228.692 131.63C229.168 131.91 229.537 132.297 229.798 132.792C230.069 133.287 230.204 133.847 230.204 134.472C230.204 134.565 230.199 134.668 230.19 134.78C230.181 134.883 230.162 135.004 230.134 135.144H224.52V134.094H229.462L229 134.5C229 134.052 228.921 133.674 228.762 133.366C228.603 133.049 228.379 132.806 228.09 132.638C227.801 132.461 227.451 132.372 227.04 132.372C226.611 132.372 226.233 132.465 225.906 132.652C225.579 132.839 225.327 133.1 225.15 133.436C224.973 133.772 224.884 134.169 224.884 134.626C224.884 135.093 224.977 135.503 225.164 135.858C225.351 136.203 225.617 136.474 225.962 136.67C226.307 136.857 226.704 136.95 227.152 136.95C227.525 136.95 227.866 136.885 228.174 136.754C228.491 136.623 228.762 136.427 228.986 136.166L229.798 136.992C229.481 137.365 229.089 137.65 228.622 137.846C228.165 138.042 227.675 138.14 227.152 138.14ZM234.336 140.926C233.654 140.926 233.048 140.8 232.516 140.548C231.993 140.296 231.573 139.941 231.256 139.484L232.068 138.658C232.338 139.003 232.66 139.265 233.034 139.442C233.407 139.629 233.85 139.722 234.364 139.722C235.045 139.722 235.582 139.54 235.974 139.176C236.375 138.821 236.576 138.341 236.576 137.734V136.082L236.8 134.584L236.576 133.1V131.35H237.836V137.734C237.836 138.369 237.686 138.924 237.388 139.4C237.098 139.876 236.688 140.249 236.156 140.52C235.633 140.791 235.026 140.926 234.336 140.926ZM234.336 137.888C233.729 137.888 233.183 137.743 232.698 137.454C232.222 137.165 231.844 136.768 231.564 136.264C231.284 135.751 231.144 135.177 231.144 134.542C231.144 133.907 231.284 133.343 231.564 132.848C231.844 132.344 232.222 131.947 232.698 131.658C233.183 131.359 233.729 131.21 234.336 131.21C234.858 131.21 235.32 131.313 235.722 131.518C236.123 131.723 236.44 132.013 236.674 132.386C236.916 132.75 237.047 133.179 237.066 133.674V135.438C237.038 135.923 236.902 136.353 236.66 136.726C236.426 137.09 236.109 137.375 235.708 137.58C235.306 137.785 234.849 137.888 234.336 137.888ZM234.588 136.698C234.998 136.698 235.358 136.609 235.666 136.432C235.983 136.255 236.226 136.007 236.394 135.69C236.562 135.363 236.646 134.985 236.646 134.556C236.646 134.127 236.557 133.753 236.38 133.436C236.212 133.109 235.974 132.857 235.666 132.68C235.358 132.493 234.994 132.4 234.574 132.4C234.154 132.4 233.785 132.493 233.468 132.68C233.15 132.857 232.898 133.109 232.712 133.436C232.534 133.753 232.446 134.122 232.446 134.542C232.446 134.962 232.534 135.335 232.712 135.662C232.898 135.989 233.15 136.245 233.468 136.432C233.794 136.609 234.168 136.698 234.588 136.698ZM242.359 138.14C241.818 138.14 241.328 138.019 240.889 137.776C240.46 137.524 240.124 137.179 239.881 136.74C239.639 136.301 239.517 135.793 239.517 135.214V131.35H240.777V135.158C240.777 135.522 240.838 135.839 240.959 136.11C241.09 136.371 241.277 136.572 241.519 136.712C241.762 136.852 242.047 136.922 242.373 136.922C242.868 136.922 243.255 136.768 243.535 136.46C243.815 136.143 243.955 135.709 243.955 135.158V131.35H245.215V135.214C245.215 135.793 245.094 136.301 244.851 136.74C244.609 137.179 244.273 137.524 243.843 137.776C243.423 138.019 242.929 138.14 242.359 138.14ZM246.904 138V128.004H248.164V138H246.904ZM252.835 138.14C252.229 138.14 251.678 137.991 251.183 137.692C250.689 137.384 250.297 136.969 250.007 136.446C249.727 135.923 249.587 135.335 249.587 134.682C249.587 134.029 249.727 133.441 250.007 132.918C250.297 132.395 250.684 131.98 251.169 131.672C251.664 131.364 252.219 131.21 252.835 131.21C253.339 131.21 253.787 131.317 254.179 131.532C254.581 131.737 254.903 132.027 255.145 132.4C255.388 132.764 255.523 133.189 255.551 133.674V135.676C255.523 136.152 255.388 136.577 255.145 136.95C254.912 137.323 254.595 137.617 254.193 137.832C253.801 138.037 253.349 138.14 252.835 138.14ZM253.045 136.95C253.671 136.95 254.175 136.74 254.557 136.32C254.94 135.891 255.131 135.345 255.131 134.682C255.131 134.225 255.043 133.828 254.865 133.492C254.697 133.147 254.455 132.881 254.137 132.694C253.82 132.498 253.451 132.4 253.031 132.4C252.611 132.4 252.238 132.498 251.911 132.694C251.594 132.89 251.342 133.161 251.155 133.506C250.978 133.842 250.889 134.229 250.889 134.668C250.889 135.116 250.978 135.513 251.155 135.858C251.342 136.194 251.599 136.46 251.925 136.656C252.252 136.852 252.625 136.95 253.045 136.95ZM255.047 138V136.208L255.285 134.584L255.047 132.974V131.35H256.321V138H255.047ZM258.156 138V131.35H259.416V138H258.156ZM259.416 134.206L258.94 133.996C258.94 133.147 259.136 132.47 259.528 131.966C259.92 131.462 260.485 131.21 261.222 131.21C261.558 131.21 261.861 131.271 262.132 131.392C262.403 131.504 262.655 131.695 262.888 131.966L262.062 132.82C261.922 132.671 261.768 132.563 261.6 132.498C261.432 132.433 261.236 132.4 261.012 132.4C260.545 132.4 260.163 132.549 259.864 132.848C259.565 133.147 259.416 133.599 259.416 134.206ZM263.775 138V128.004H265.035V138H263.775ZM269.063 138.056L266.179 131.35H267.579L269.721 136.6H269.273L271.527 131.35H272.927L269.819 138.056H269.063ZM267.159 140.786L269.119 136.768L269.819 138.056L268.559 140.786H267.159Z" fill="#A7AEB6"/>
<defs>
<linearGradient id="paint0_linear_1293_7280" x1="-24.2254" y1="57.6178" x2="98.8664" y2="20.3042" gradientUnits="userSpaceOnUse">
<stop stop-color="#29F2BC"/>
<stop offset="0.5" stop-color="#4877FF"/>
<stop offset="1" stop-color="#F945B3"/>
</linearGradient>
</defs>
</svg>
