<svg width="354" height="167" viewBox="0 0 354 167" fill="none" xmlns="http://www.w3.org/2000/svg">
<rect x="0.57959" width="352.526" height="167" rx="24" fill="white"/>
<rect x="16.5796" y="16" width="40" height="40" rx="12" fill="url(#paint0_linear_1293_7254)" fill-opacity="0.1"/>
<path d="M38.6421 34.625H31.7671C31.2201 34.625 30.6955 34.8423 30.3087 35.2291C29.9219 35.6159 29.7046 36.1405 29.7046 36.6875V44.25C29.7053 44.3857 29.7461 44.5182 29.822 44.6308C29.8978 44.7433 30.0053 44.8309 30.1308 44.8825C30.2124 44.921 30.3019 44.9398 30.3921 44.9375C30.4826 44.938 30.5723 44.9207 30.656 44.8865C30.7398 44.8523 30.816 44.8018 30.8802 44.7381L32.7365 42.875H38.6421C39.1891 42.875 39.7137 42.6577 40.1005 42.2709C40.4873 41.8841 40.7046 41.3595 40.7046 40.8125V36.6875C40.7046 36.1405 40.4873 35.6159 40.1005 35.2291C39.7137 34.8423 39.1891 34.625 38.6421 34.625ZM37.2671 39.4375H33.1421C32.9598 39.4375 32.7849 39.3651 32.656 39.2361C32.527 39.1072 32.4546 38.9323 32.4546 38.75C32.4546 38.5677 32.527 38.3928 32.656 38.2639C32.7849 38.1349 32.9598 38.0625 33.1421 38.0625H37.2671C37.4494 38.0625 37.6243 38.1349 37.7532 38.2639C37.8822 38.3928 37.9546 38.5677 37.9546 38.75C37.9546 38.9323 37.8822 39.1072 37.7532 39.2361C37.6243 39.3651 37.4494 39.4375 37.2671 39.4375Z" fill="black"/>
<path d="M31.7671 30.4999C31.7666 30.621 31.7982 30.7402 31.8585 30.8452C31.9189 30.9502 32.0059 31.0374 32.1108 31.098L36.2358 33.4905C36.3404 33.5509 36.4589 33.5826 36.5796 33.5826C36.7003 33.5826 36.8188 33.5509 36.9233 33.4905C37.0273 33.4305 37.1137 33.3444 37.174 33.2407C37.2343 33.1369 37.2664 33.0192 37.2671 32.8993V32.3011C38.5072 32.1812 39.7588 32.3124 40.947 32.6869C42.1353 33.0613 43.236 33.6713 44.1833 34.4805C44.307 34.5831 44.4626 34.6391 44.6233 34.6389C44.7839 34.6387 44.9394 34.5822 45.0628 34.4793C45.1861 34.3763 45.2695 34.2335 45.2985 34.0755C45.3275 33.9174 45.3002 33.7543 45.2215 33.6143C44.345 32.2642 43.1739 31.1303 41.7961 30.298C40.4184 29.4656 38.8699 28.9564 37.2671 28.8086V28.1211C37.2676 28 37.236 27.8809 37.1757 27.7758C37.1153 27.6708 37.0283 27.5836 36.9233 27.523C36.8188 27.4627 36.7003 27.4309 36.5796 27.4309C36.4589 27.4309 36.3404 27.4627 36.2358 27.523L32.1108 29.9155C32.0079 29.9749 31.9222 30.06 31.8619 30.1624C31.8017 30.2648 31.769 30.3811 31.7671 30.4999Z" fill="black"/>
<rect x="16.5796" y="64" width="128" height="20" rx="10" fill="#EF6400" fill-opacity="0.08"/>
<path d="M29.5636 78V69.672H30.6916V78H29.5636ZM36.4973 78V74.676C36.4973 74.244 36.3613 73.888 36.0893 73.608C35.8173 73.328 35.4653 73.188 35.0333 73.188C34.7453 73.188 34.4893 73.252 34.2653 73.38C34.0413 73.508 33.8653 73.684 33.7373 73.908C33.6093 74.132 33.5453 74.388 33.5453 74.676L33.1013 74.424C33.1013 73.992 33.1973 73.608 33.3893 73.272C33.5813 72.936 33.8493 72.672 34.1933 72.48C34.5373 72.28 34.9253 72.18 35.3573 72.18C35.7893 72.18 36.1693 72.288 36.4973 72.504C36.8333 72.72 37.0973 73.004 37.2893 73.356C37.4813 73.7 37.5773 74.068 37.5773 74.46V78H36.4973ZM32.4653 78V72.3H33.5453V78H32.4653ZM41.6436 78.12C41.0836 78.12 40.5756 77.988 40.1196 77.724C39.6716 77.46 39.3156 77.104 39.0516 76.656C38.7956 76.2 38.6676 75.696 38.6676 75.144C38.6676 74.584 38.7956 74.08 39.0516 73.632C39.3156 73.184 39.6716 72.832 40.1196 72.576C40.5756 72.312 41.0836 72.18 41.6436 72.18C42.0836 72.18 42.4916 72.264 42.8676 72.432C43.2436 72.592 43.5676 72.828 43.8396 73.14L43.1196 73.86C42.9436 73.652 42.7276 73.496 42.4716 73.392C42.2236 73.28 41.9476 73.224 41.6436 73.224C41.2836 73.224 40.9636 73.308 40.6836 73.476C40.4036 73.636 40.1836 73.86 40.0236 74.148C39.8636 74.436 39.7836 74.768 39.7836 75.144C39.7836 75.52 39.8636 75.852 40.0236 76.14C40.1836 76.428 40.4036 76.656 40.6836 76.824C40.9636 76.992 41.2836 77.076 41.6436 77.076C41.9476 77.076 42.2236 77.024 42.4716 76.92C42.7276 76.808 42.9476 76.648 43.1316 76.44L43.8396 77.16C43.5756 77.464 43.2516 77.7 42.8676 77.868C42.4916 78.036 42.0836 78.12 41.6436 78.12ZM47.3975 78.12C46.8375 78.12 46.3335 77.988 45.8855 77.724C45.4375 77.46 45.0815 77.104 44.8175 76.656C44.5535 76.2 44.4215 75.692 44.4215 75.132C44.4215 74.58 44.5535 74.084 44.8175 73.644C45.0815 73.196 45.4375 72.84 45.8855 72.576C46.3335 72.312 46.8375 72.18 47.3975 72.18C47.9495 72.18 48.4495 72.312 48.8975 72.576C49.3535 72.832 49.7135 73.184 49.9775 73.632C50.2415 74.08 50.3735 74.58 50.3735 75.132C50.3735 75.692 50.2415 76.2 49.9775 76.656C49.7135 77.104 49.3535 77.46 48.8975 77.724C48.4495 77.988 47.9495 78.12 47.3975 78.12ZM47.3975 77.076C47.7575 77.076 48.0775 76.992 48.3575 76.824C48.6375 76.656 48.8575 76.428 49.0175 76.14C49.1775 75.844 49.2575 75.508 49.2575 75.132C49.2575 74.764 49.1735 74.436 49.0055 74.148C48.8455 73.86 48.6255 73.636 48.3455 73.476C48.0735 73.308 47.7575 73.224 47.3975 73.224C47.0375 73.224 46.7175 73.308 46.4375 73.476C46.1575 73.636 45.9375 73.86 45.7775 74.148C45.6175 74.436 45.5375 74.764 45.5375 75.132C45.5375 75.508 45.6175 75.844 45.7775 76.14C45.9375 76.428 46.1575 76.656 46.4375 76.824C46.7175 76.992 47.0375 77.076 47.3975 77.076ZM51.5903 78V72.3H52.6703V78H51.5903ZM55.4423 78V74.556C55.4423 74.132 55.3103 73.8 55.0463 73.56C54.7903 73.312 54.4663 73.188 54.0743 73.188C53.8103 73.188 53.5743 73.244 53.3663 73.356C53.1583 73.468 52.9903 73.624 52.8623 73.824C52.7343 74.024 52.6703 74.264 52.6703 74.544L52.2263 74.328C52.2263 73.896 52.3183 73.52 52.5023 73.2C52.6943 72.88 52.9543 72.632 53.2823 72.456C53.6103 72.272 53.9783 72.18 54.3863 72.18C54.7863 72.18 55.1463 72.268 55.4663 72.444C55.7943 72.62 56.0503 72.868 56.2343 73.188C56.4263 73.508 56.5223 73.888 56.5223 74.328V78H55.4423ZM59.2943 78V74.556C59.2943 74.132 59.1623 73.8 58.8983 73.56C58.6423 73.312 58.3223 73.188 57.9383 73.188C57.6743 73.188 57.4343 73.244 57.2183 73.356C57.0103 73.468 56.8423 73.624 56.7143 73.824C56.5863 74.024 56.5223 74.264 56.5223 74.544L55.9103 74.328C55.9343 73.888 56.0503 73.512 56.2583 73.2C56.4743 72.88 56.7503 72.632 57.0863 72.456C57.4223 72.272 57.7903 72.18 58.1903 72.18C58.6063 72.18 58.9783 72.268 59.3063 72.444C59.6343 72.62 59.8943 72.868 60.0863 73.188C60.2863 73.508 60.3863 73.892 60.3863 74.34V78H59.2943ZM61.868 78V72.3H62.948V78H61.868ZM62.408 71.16C62.208 71.16 62.044 71.096 61.916 70.968C61.788 70.832 61.724 70.664 61.724 70.464C61.724 70.272 61.788 70.112 61.916 69.984C62.044 69.848 62.208 69.78 62.408 69.78C62.608 69.78 62.772 69.848 62.9 69.984C63.028 70.112 63.092 70.272 63.092 70.464C63.092 70.664 63.028 70.832 62.9 70.968C62.772 71.096 62.608 71.16 62.408 71.16ZM68.5716 78V74.676C68.5716 74.244 68.4356 73.888 68.1636 73.608C67.8916 73.328 67.5396 73.188 67.1076 73.188C66.8196 73.188 66.5636 73.252 66.3396 73.38C66.1156 73.508 65.9396 73.684 65.8116 73.908C65.6836 74.132 65.6196 74.388 65.6196 74.676L65.1756 74.424C65.1756 73.992 65.2716 73.608 65.4636 73.272C65.6556 72.936 65.9236 72.672 66.2676 72.48C66.6116 72.28 66.9996 72.18 67.4316 72.18C67.8636 72.18 68.2436 72.288 68.5716 72.504C68.9076 72.72 69.1716 73.004 69.3636 73.356C69.5556 73.7 69.6516 74.068 69.6516 74.46V78H68.5716ZM64.5396 78V72.3H65.6196V78H64.5396ZM73.4778 80.508C72.8938 80.508 72.3738 80.4 71.9178 80.184C71.4698 79.968 71.1098 79.664 70.8378 79.272L71.5338 78.564C71.7658 78.86 72.0418 79.084 72.3618 79.236C72.6818 79.396 73.0618 79.476 73.5018 79.476C74.0858 79.476 74.5458 79.32 74.8818 79.008C75.2258 78.704 75.3978 78.292 75.3978 77.772V76.356L75.5898 75.072L75.3978 73.8V72.3H76.4778V77.772C76.4778 78.316 76.3498 78.792 76.0938 79.2C75.8458 79.608 75.4938 79.928 75.0378 80.16C74.5898 80.392 74.0698 80.508 73.4778 80.508ZM73.4778 77.904C72.9578 77.904 72.4898 77.78 72.0738 77.532C71.6658 77.284 71.3418 76.944 71.1018 76.512C70.8618 76.072 70.7418 75.58 70.7418 75.036C70.7418 74.492 70.8618 74.008 71.1018 73.584C71.3418 73.152 71.6658 72.812 72.0738 72.564C72.4898 72.308 72.9578 72.18 73.4778 72.18C73.9258 72.18 74.3218 72.268 74.6658 72.444C75.0098 72.62 75.2818 72.868 75.4818 73.188C75.6898 73.5 75.8018 73.868 75.8178 74.292V75.804C75.7938 76.22 75.6778 76.588 75.4698 76.908C75.2698 77.22 74.9978 77.464 74.6538 77.64C74.3098 77.816 73.9178 77.904 73.4778 77.904ZM73.6938 76.884C74.0458 76.884 74.3538 76.808 74.6178 76.656C74.8898 76.504 75.0978 76.292 75.2418 76.02C75.3858 75.74 75.4578 75.416 75.4578 75.048C75.4578 74.68 75.3818 74.36 75.2298 74.088C75.0858 73.808 74.8818 73.592 74.6178 73.44C74.3538 73.28 74.0418 73.2 73.6818 73.2C73.3218 73.2 73.0058 73.28 72.7338 73.44C72.4618 73.592 72.2458 73.808 72.0858 74.088C71.9338 74.36 71.8578 74.676 71.8578 75.036C71.8578 75.396 71.9338 75.716 72.0858 75.996C72.2458 76.276 72.4618 76.496 72.7338 76.656C73.0138 76.808 73.3338 76.884 73.6938 76.884ZM80.7511 78V69.672H81.5431L85.0711 75.468H84.5311L88.0591 69.672H88.8511V78H87.7231V71.652L87.9871 71.724L85.2031 76.296H84.4111L81.6271 71.724L81.8791 71.652V78H80.7511ZM93.2655 78.12C92.6975 78.12 92.1855 77.992 91.7295 77.736C91.2735 77.472 90.9135 77.116 90.6495 76.668C90.3855 76.22 90.2535 75.712 90.2535 75.144C90.2535 74.584 90.3815 74.08 90.6375 73.632C90.9015 73.184 91.2535 72.832 91.6935 72.576C92.1415 72.312 92.6415 72.18 93.1935 72.18C93.7215 72.18 94.1855 72.3 94.5855 72.54C94.9935 72.78 95.3095 73.112 95.5335 73.536C95.7655 73.96 95.8815 74.44 95.8815 74.976C95.8815 75.056 95.8775 75.144 95.8695 75.24C95.8615 75.328 95.8455 75.432 95.8215 75.552H91.0095V74.652H95.2455L94.8495 75C94.8495 74.616 94.7815 74.292 94.6455 74.028C94.5095 73.756 94.3175 73.548 94.0695 73.404C93.8215 73.252 93.5215 73.176 93.1695 73.176C92.8015 73.176 92.4775 73.256 92.1975 73.416C91.9175 73.576 91.7015 73.8 91.5495 74.088C91.3975 74.376 91.3215 74.716 91.3215 75.108C91.3215 75.508 91.4015 75.86 91.5615 76.164C91.7215 76.46 91.9495 76.692 92.2455 76.86C92.5415 77.02 92.8815 77.1 93.2655 77.1C93.5855 77.1 93.8775 77.044 94.1415 76.932C94.4135 76.82 94.6455 76.652 94.8375 76.428L95.5335 77.136C95.2615 77.456 94.9255 77.7 94.5255 77.868C94.1335 78.036 93.7135 78.12 93.2655 78.12ZM98.8711 78.12C98.5511 78.12 98.2471 78.08 97.9591 78C97.6791 77.912 97.4191 77.792 97.1791 77.64C96.9391 77.48 96.7311 77.292 96.5551 77.076L97.2511 76.38C97.4591 76.636 97.6991 76.828 97.9711 76.956C98.2431 77.076 98.5471 77.136 98.8831 77.136C99.2191 77.136 99.4791 77.08 99.6631 76.968C99.8471 76.848 99.9391 76.684 99.9391 76.476C99.9391 76.268 99.8631 76.108 99.7111 75.996C99.5671 75.876 99.3791 75.78 99.1471 75.708C98.9151 75.628 98.6671 75.552 98.4031 75.48C98.1471 75.4 97.9031 75.3 97.6711 75.18C97.4391 75.06 97.2471 74.896 97.0951 74.688C96.9511 74.48 96.8791 74.204 96.8791 73.86C96.8791 73.516 96.9631 73.22 97.1311 72.972C97.2991 72.716 97.5311 72.52 97.8271 72.384C98.1311 72.248 98.4951 72.18 98.9191 72.18C99.3671 72.18 99.7631 72.26 100.107 72.42C100.459 72.572 100.747 72.804 100.971 73.116L100.275 73.812C100.115 73.604 99.9151 73.444 99.6751 73.332C99.4431 73.22 99.1791 73.164 98.8831 73.164C98.5711 73.164 98.3311 73.22 98.1631 73.332C98.0031 73.436 97.9231 73.584 97.9231 73.776C97.9231 73.968 97.9951 74.116 98.1391 74.22C98.2831 74.324 98.4711 74.412 98.7031 74.484C98.9431 74.556 99.1911 74.632 99.4471 74.712C99.7031 74.784 99.9471 74.884 100.179 75.012C100.411 75.14 100.599 75.312 100.743 75.528C100.895 75.744 100.971 76.028 100.971 76.38C100.971 76.916 100.779 77.34 100.395 77.652C100.019 77.964 99.5111 78.12 98.8711 78.12ZM103.992 78.12C103.672 78.12 103.368 78.08 103.08 78C102.8 77.912 102.54 77.792 102.3 77.64C102.06 77.48 101.852 77.292 101.676 77.076L102.372 76.38C102.58 76.636 102.82 76.828 103.092 76.956C103.364 77.076 103.668 77.136 104.004 77.136C104.34 77.136 104.6 77.08 104.784 76.968C104.968 76.848 105.06 76.684 105.06 76.476C105.06 76.268 104.984 76.108 104.832 75.996C104.688 75.876 104.5 75.78 104.268 75.708C104.036 75.628 103.788 75.552 103.524 75.48C103.268 75.4 103.024 75.3 102.792 75.18C102.56 75.06 102.368 74.896 102.216 74.688C102.072 74.48 102 74.204 102 73.86C102 73.516 102.084 73.22 102.252 72.972C102.42 72.716 102.652 72.52 102.948 72.384C103.252 72.248 103.616 72.18 104.04 72.18C104.488 72.18 104.884 72.26 105.228 72.42C105.58 72.572 105.868 72.804 106.092 73.116L105.396 73.812C105.236 73.604 105.036 73.444 104.796 73.332C104.564 73.22 104.3 73.164 104.004 73.164C103.692 73.164 103.452 73.22 103.284 73.332C103.124 73.436 103.044 73.584 103.044 73.776C103.044 73.968 103.116 74.116 103.26 74.22C103.404 74.324 103.592 74.412 103.824 74.484C104.064 74.556 104.312 74.632 104.568 74.712C104.824 74.784 105.068 74.884 105.3 75.012C105.532 75.14 105.72 75.312 105.864 75.528C106.016 75.744 106.092 76.028 106.092 76.38C106.092 76.916 105.9 77.34 105.516 77.652C105.14 77.964 104.632 78.12 103.992 78.12ZM109.725 78.12C109.205 78.12 108.733 77.992 108.309 77.736C107.885 77.472 107.549 77.116 107.301 76.668C107.061 76.22 106.941 75.716 106.941 75.156C106.941 74.596 107.061 74.092 107.301 73.644C107.549 73.196 107.881 72.84 108.297 72.576C108.721 72.312 109.197 72.18 109.725 72.18C110.157 72.18 110.541 72.272 110.877 72.456C111.221 72.632 111.497 72.88 111.705 73.2C111.913 73.512 112.029 73.876 112.053 74.292V76.008C112.029 76.416 111.913 76.78 111.705 77.1C111.505 77.42 111.233 77.672 110.889 77.856C110.553 78.032 110.165 78.12 109.725 78.12ZM109.905 77.1C110.441 77.1 110.873 76.92 111.201 76.56C111.529 76.192 111.693 75.724 111.693 75.156C111.693 74.764 111.617 74.424 111.465 74.136C111.321 73.84 111.113 73.612 110.841 73.452C110.569 73.284 110.253 73.2 109.893 73.2C109.533 73.2 109.213 73.284 108.933 73.452C108.661 73.62 108.445 73.852 108.285 74.148C108.133 74.436 108.057 74.768 108.057 75.144C108.057 75.528 108.133 75.868 108.285 76.164C108.445 76.452 108.665 76.68 108.945 76.848C109.225 77.016 109.545 77.1 109.905 77.1ZM111.621 78V76.464L111.825 75.072L111.621 73.692V72.3H112.713V78H111.621ZM116.65 80.508C116.066 80.508 115.546 80.4 115.09 80.184C114.642 79.968 114.282 79.664 114.01 79.272L114.706 78.564C114.938 78.86 115.214 79.084 115.534 79.236C115.854 79.396 116.234 79.476 116.674 79.476C117.258 79.476 117.718 79.32 118.054 79.008C118.398 78.704 118.57 78.292 118.57 77.772V76.356L118.762 75.072L118.57 73.8V72.3H119.65V77.772C119.65 78.316 119.522 78.792 119.266 79.2C119.018 79.608 118.666 79.928 118.21 80.16C117.762 80.392 117.242 80.508 116.65 80.508ZM116.65 77.904C116.13 77.904 115.662 77.78 115.246 77.532C114.838 77.284 114.514 76.944 114.274 76.512C114.034 76.072 113.914 75.58 113.914 75.036C113.914 74.492 114.034 74.008 114.274 73.584C114.514 73.152 114.838 72.812 115.246 72.564C115.662 72.308 116.13 72.18 116.65 72.18C117.098 72.18 117.494 72.268 117.838 72.444C118.182 72.62 118.454 72.868 118.654 73.188C118.862 73.5 118.974 73.868 118.99 74.292V75.804C118.966 76.22 118.85 76.588 118.642 76.908C118.442 77.22 118.17 77.464 117.826 77.64C117.482 77.816 117.09 77.904 116.65 77.904ZM116.866 76.884C117.218 76.884 117.526 76.808 117.79 76.656C118.062 76.504 118.27 76.292 118.414 76.02C118.558 75.74 118.63 75.416 118.63 75.048C118.63 74.68 118.554 74.36 118.402 74.088C118.258 73.808 118.054 73.592 117.79 73.44C117.526 73.28 117.214 73.2 116.854 73.2C116.494 73.2 116.178 73.28 115.906 73.44C115.634 73.592 115.418 73.808 115.258 74.088C115.106 74.36 115.03 74.676 115.03 75.036C115.03 75.396 115.106 75.716 115.258 75.996C115.418 76.276 115.634 76.496 115.906 76.656C116.186 76.808 116.506 76.884 116.866 76.884ZM123.875 78.12C123.307 78.12 122.795 77.992 122.339 77.736C121.883 77.472 121.523 77.116 121.259 76.668C120.995 76.22 120.863 75.712 120.863 75.144C120.863 74.584 120.991 74.08 121.247 73.632C121.511 73.184 121.863 72.832 122.303 72.576C122.751 72.312 123.251 72.18 123.803 72.18C124.331 72.18 124.795 72.3 125.195 72.54C125.603 72.78 125.919 73.112 126.143 73.536C126.375 73.96 126.491 74.44 126.491 74.976C126.491 75.056 126.487 75.144 126.479 75.24C126.471 75.328 126.455 75.432 126.431 75.552H121.619V74.652H125.855L125.459 75C125.459 74.616 125.391 74.292 125.255 74.028C125.119 73.756 124.927 73.548 124.679 73.404C124.431 73.252 124.131 73.176 123.779 73.176C123.411 73.176 123.087 73.256 122.807 73.416C122.527 73.576 122.311 73.8 122.159 74.088C122.007 74.376 121.931 74.716 121.931 75.108C121.931 75.508 122.011 75.86 122.171 76.164C122.331 76.46 122.559 76.692 122.855 76.86C123.151 77.02 123.491 77.1 123.875 77.1C124.195 77.1 124.487 77.044 124.751 76.932C125.023 76.82 125.255 76.652 125.447 76.428L126.143 77.136C125.871 77.456 125.535 77.7 125.135 77.868C124.743 78.036 124.323 78.12 123.875 78.12ZM129.48 78.12C129.16 78.12 128.856 78.08 128.568 78C128.288 77.912 128.028 77.792 127.788 77.64C127.548 77.48 127.34 77.292 127.164 77.076L127.86 76.38C128.068 76.636 128.308 76.828 128.58 76.956C128.852 77.076 129.156 77.136 129.492 77.136C129.828 77.136 130.088 77.08 130.272 76.968C130.456 76.848 130.548 76.684 130.548 76.476C130.548 76.268 130.472 76.108 130.32 75.996C130.176 75.876 129.988 75.78 129.756 75.708C129.524 75.628 129.276 75.552 129.012 75.48C128.756 75.4 128.512 75.3 128.28 75.18C128.048 75.06 127.856 74.896 127.704 74.688C127.56 74.48 127.488 74.204 127.488 73.86C127.488 73.516 127.572 73.22 127.74 72.972C127.908 72.716 128.14 72.52 128.436 72.384C128.74 72.248 129.104 72.18 129.528 72.18C129.976 72.18 130.372 72.26 130.716 72.42C131.068 72.572 131.356 72.804 131.58 73.116L130.884 73.812C130.724 73.604 130.524 73.444 130.284 73.332C130.052 73.22 129.788 73.164 129.492 73.164C129.18 73.164 128.94 73.22 128.772 73.332C128.612 73.436 128.532 73.584 128.532 73.776C128.532 73.968 128.604 74.116 128.748 74.22C128.892 74.324 129.08 74.412 129.312 74.484C129.552 74.556 129.8 74.632 130.056 74.712C130.312 74.784 130.556 74.884 130.788 75.012C131.02 75.14 131.208 75.312 131.352 75.528C131.504 75.744 131.58 76.028 131.58 76.38C131.58 76.916 131.388 77.34 131.004 77.652C130.628 77.964 130.12 78.12 129.48 78.12Z" fill="#EF6400"/>
<path d="M17.0116 110L22.1956 97.4H23.6356L28.7836 110H26.5516L22.5196 99.794H23.2756L19.2076 110H17.0116ZM19.5676 107.57V105.77H26.2456V107.57H19.5676ZM33.5459 110.18C32.8139 110.18 32.1599 110.018 31.5839 109.694C31.0199 109.37 30.5759 108.926 30.2519 108.362C29.9399 107.786 29.7839 107.126 29.7839 106.382V101.36H31.7639V106.292C31.7639 106.712 31.8299 107.072 31.9619 107.372C32.1059 107.66 32.3099 107.882 32.5739 108.038C32.8499 108.194 33.1739 108.272 33.5459 108.272C34.1219 108.272 34.5599 108.104 34.8599 107.768C35.1719 107.42 35.3279 106.928 35.3279 106.292V101.36H37.3079V106.382C37.3079 107.138 37.1459 107.804 36.8219 108.38C36.5099 108.944 36.0719 109.388 35.5079 109.712C34.9439 110.024 34.2899 110.18 33.5459 110.18ZM40.6127 110V97.76H42.5927V110H40.6127ZM38.5427 103.16V101.36H44.6627V103.16H38.5427ZM49.8153 110.18C48.9753 110.18 48.2133 109.982 47.5293 109.586C46.8453 109.178 46.2993 108.632 45.8913 107.948C45.4953 107.264 45.2973 106.502 45.2973 105.662C45.2973 104.822 45.4953 104.066 45.8913 103.394C46.2993 102.722 46.8453 102.188 47.5293 101.792C48.2133 101.384 48.9753 101.18 49.8153 101.18C50.6673 101.18 51.4353 101.378 52.1193 101.774C52.8033 102.17 53.3433 102.71 53.7393 103.394C54.1473 104.066 54.3513 104.822 54.3513 105.662C54.3513 106.502 54.1473 107.264 53.7393 107.948C53.3433 108.632 52.8033 109.178 52.1193 109.586C51.4353 109.982 50.6673 110.18 49.8153 110.18ZM49.8153 108.272C50.3073 108.272 50.7393 108.164 51.1113 107.948C51.4953 107.72 51.7893 107.408 51.9933 107.012C52.2093 106.616 52.3173 106.166 52.3173 105.662C52.3173 105.158 52.2093 104.714 51.9933 104.33C51.7773 103.946 51.4833 103.646 51.1113 103.43C50.7393 103.202 50.3073 103.088 49.8153 103.088C49.3353 103.088 48.9033 103.202 48.5193 103.43C48.1473 103.646 47.8533 103.946 47.6373 104.33C47.4333 104.714 47.3313 105.158 47.3313 105.662C47.3313 106.166 47.4333 106.616 47.6373 107.012C47.8533 107.408 48.1473 107.72 48.5193 107.948C48.9033 108.164 49.3353 108.272 49.8153 108.272ZM59.6014 110V101.36H61.5814V110H59.6014ZM61.5814 105.194L60.8974 104.852C60.8974 103.76 61.1374 102.878 61.6174 102.206C62.1094 101.522 62.8474 101.18 63.8314 101.18C64.2634 101.18 64.6534 101.258 65.0014 101.414C65.3494 101.57 65.6734 101.822 65.9734 102.17L64.6774 103.502C64.5214 103.334 64.3474 103.214 64.1554 103.142C63.9634 103.07 63.7414 103.034 63.4894 103.034C62.9374 103.034 62.4814 103.208 62.1214 103.556C61.7614 103.904 61.5814 104.45 61.5814 105.194ZM70.6818 110.18C69.8178 110.18 69.0378 109.988 68.3418 109.604C67.6578 109.208 67.1118 108.668 66.7038 107.984C66.3078 107.3 66.1098 106.532 66.1098 105.68C66.1098 104.828 66.3078 104.066 66.7038 103.394C67.0998 102.71 67.6338 102.17 68.3058 101.774C68.9898 101.378 69.7458 101.18 70.5738 101.18C71.3778 101.18 72.0858 101.366 72.6978 101.738C73.3218 102.11 73.8078 102.62 74.1558 103.268C74.5158 103.916 74.6958 104.654 74.6958 105.482C74.6958 105.626 74.6838 105.776 74.6598 105.932C74.6478 106.076 74.6238 106.238 74.5878 106.418H67.4958V104.798H73.5618L72.8238 105.446C72.7998 104.918 72.6978 104.474 72.5178 104.114C72.3378 103.754 72.0798 103.478 71.7438 103.286C71.4198 103.094 71.0178 102.998 70.5378 102.998C70.0338 102.998 69.5958 103.106 69.2238 103.322C68.8518 103.538 68.5638 103.844 68.3598 104.24C68.1558 104.624 68.0538 105.086 68.0538 105.626C68.0538 106.166 68.1618 106.64 68.3778 107.048C68.5938 107.456 68.8998 107.774 69.2958 108.002C69.6918 108.218 70.1478 108.326 70.6638 108.326C71.1078 108.326 71.5158 108.248 71.8878 108.092C72.2718 107.936 72.5958 107.708 72.8598 107.408L74.1198 108.686C73.6998 109.178 73.1898 109.55 72.5898 109.802C71.9898 110.054 71.3538 110.18 70.6818 110.18ZM80.9091 110.18C80.2491 110.18 79.6611 110.042 79.1451 109.766C78.6291 109.478 78.2211 109.088 77.9211 108.596C77.6331 108.104 77.4891 107.546 77.4891 106.922V104.438C77.4891 103.814 77.6391 103.256 77.9391 102.764C78.2391 102.272 78.6471 101.888 79.1631 101.612C79.6791 101.324 80.2611 101.18 80.9091 101.18C81.6891 101.18 82.3911 101.384 83.0151 101.792C83.6511 102.188 84.1491 102.728 84.5091 103.412C84.8811 104.084 85.0671 104.846 85.0671 105.698C85.0671 106.538 84.8811 107.3 84.5091 107.984C84.1491 108.656 83.6511 109.19 83.0151 109.586C82.3911 109.982 81.6891 110.18 80.9091 110.18ZM80.5851 108.308C81.0651 108.308 81.4851 108.2 81.8451 107.984C82.2171 107.756 82.5051 107.444 82.7091 107.048C82.9251 106.652 83.0331 106.196 83.0331 105.68C83.0331 105.164 82.9251 104.708 82.7091 104.312C82.5051 103.916 82.2171 103.61 81.8451 103.394C81.4851 103.166 81.0651 103.052 80.5851 103.052C80.1051 103.052 79.6791 103.166 79.3071 103.394C78.9351 103.61 78.6471 103.916 78.4431 104.312C78.2391 104.708 78.1371 105.164 78.1371 105.68C78.1371 106.196 78.2391 106.652 78.4431 107.048C78.6471 107.444 78.9351 107.756 79.3071 107.984C79.6791 108.2 80.1051 108.308 80.5851 108.308ZM76.2831 113.6V101.36H78.2631V103.682L77.9211 105.788L78.2631 107.876V113.6H76.2831ZM86.7245 110V97.04H88.7045V110H86.7245ZM93.6981 110.09L90.0081 101.36H92.1861L94.7061 107.768H94.0761L96.7401 101.36H98.9361L94.9221 110.09H93.6981ZM91.1241 113.6L93.8061 108.074L94.9221 110.09L93.3201 113.6H91.1241ZM106.546 112.142C105.91 111.578 105.358 110.888 104.89 110.072C104.434 109.256 104.08 108.362 103.828 107.39C103.576 106.418 103.45 105.41 103.45 104.366C103.45 103.322 103.576 102.314 103.828 101.342C104.08 100.37 104.434 99.476 104.89 98.66C105.358 97.844 105.91 97.154 106.546 96.59L107.68 97.598C106.888 98.33 106.27 99.278 105.826 100.442C105.394 101.594 105.178 102.902 105.178 104.366C105.178 105.818 105.394 107.126 105.826 108.29C106.27 109.454 106.888 110.402 107.68 111.134L106.546 112.142ZM112.717 110L108.577 97.4H110.611L113.725 107.102H113.185L116.227 97.4H117.667L120.709 107.102H120.169L123.283 97.4H125.317L121.177 110H119.737L116.677 100.316H117.217L114.157 110H112.717ZM129.639 110.18C128.775 110.18 127.995 109.988 127.299 109.604C126.615 109.208 126.069 108.668 125.661 107.984C125.265 107.3 125.067 106.532 125.067 105.68C125.067 104.828 125.265 104.066 125.661 103.394C126.057 102.71 126.591 102.17 127.263 101.774C127.947 101.378 128.703 101.18 129.531 101.18C130.335 101.18 131.043 101.366 131.655 101.738C132.279 102.11 132.765 102.62 133.113 103.268C133.473 103.916 133.653 104.654 133.653 105.482C133.653 105.626 133.641 105.776 133.617 105.932C133.605 106.076 133.581 106.238 133.545 106.418H126.453V104.798H132.519L131.781 105.446C131.757 104.918 131.655 104.474 131.475 104.114C131.295 103.754 131.037 103.478 130.701 103.286C130.377 103.094 129.975 102.998 129.495 102.998C128.991 102.998 128.553 103.106 128.181 103.322C127.809 103.538 127.521 103.844 127.317 104.24C127.113 104.624 127.011 105.086 127.011 105.626C127.011 106.166 127.119 106.64 127.335 107.048C127.551 107.456 127.857 107.774 128.253 108.002C128.649 108.218 129.105 108.326 129.621 108.326C130.065 108.326 130.473 108.248 130.845 108.092C131.229 107.936 131.553 107.708 131.817 107.408L133.077 108.686C132.657 109.178 132.147 109.55 131.547 109.802C130.947 110.054 130.311 110.18 129.639 110.18ZM139.254 110.18C138.39 110.18 137.61 109.988 136.914 109.604C136.23 109.208 135.684 108.668 135.276 107.984C134.88 107.3 134.682 106.532 134.682 105.68C134.682 104.828 134.88 104.066 135.276 103.394C135.672 102.71 136.206 102.17 136.878 101.774C137.562 101.378 138.318 101.18 139.146 101.18C139.95 101.18 140.658 101.366 141.27 101.738C141.894 102.11 142.38 102.62 142.728 103.268C143.088 103.916 143.268 104.654 143.268 105.482C143.268 105.626 143.256 105.776 143.232 105.932C143.22 106.076 143.196 106.238 143.16 106.418H136.068V104.798H142.134L141.396 105.446C141.372 104.918 141.27 104.474 141.09 104.114C140.91 103.754 140.652 103.478 140.316 103.286C139.992 103.094 139.59 102.998 139.11 102.998C138.606 102.998 138.168 103.106 137.796 103.322C137.424 103.538 137.136 103.844 136.932 104.24C136.728 104.624 136.626 105.086 136.626 105.626C136.626 106.166 136.734 106.64 136.95 107.048C137.166 107.456 137.472 107.774 137.868 108.002C138.264 108.218 138.72 108.326 139.236 108.326C139.68 108.326 140.088 108.248 140.46 108.092C140.844 107.936 141.168 107.708 141.432 107.408L142.692 108.686C142.272 109.178 141.762 109.55 141.162 109.802C140.562 110.054 139.926 110.18 139.254 110.18ZM150.345 110L146.691 105.59L150.327 101.36H152.685L148.509 106.112L148.599 104.978L152.865 110H150.345ZM144.855 110V97.04H146.835V110H144.855ZM157.227 110.18C156.447 110.18 155.739 109.982 155.103 109.586C154.479 109.19 153.981 108.656 153.609 107.984C153.249 107.3 153.069 106.538 153.069 105.698C153.069 104.846 153.249 104.084 153.609 103.412C153.981 102.728 154.479 102.188 155.103 101.792C155.739 101.384 156.447 101.18 157.227 101.18C157.887 101.18 158.469 101.324 158.973 101.612C159.489 101.888 159.897 102.272 160.197 102.764C160.497 103.256 160.647 103.814 160.647 104.438V106.922C160.647 107.546 160.497 108.104 160.197 108.596C159.909 109.088 159.507 109.478 158.991 109.766C158.475 110.042 157.887 110.18 157.227 110.18ZM157.551 108.308C158.043 108.308 158.469 108.2 158.829 107.984C159.201 107.756 159.489 107.444 159.693 107.048C159.897 106.652 159.999 106.196 159.999 105.68C159.999 105.164 159.897 104.708 159.693 104.312C159.489 103.916 159.201 103.61 158.829 103.394C158.469 103.166 158.043 103.052 157.551 103.052C157.071 103.052 156.645 103.166 156.273 103.394C155.913 103.61 155.625 103.916 155.409 104.312C155.205 104.708 155.103 105.164 155.103 105.68C155.103 106.196 155.205 106.652 155.409 107.048C155.625 107.444 155.913 107.756 156.273 107.984C156.645 108.2 157.071 108.308 157.551 108.308ZM161.853 110H159.873V107.678L160.215 105.572L159.873 103.484V97.04H161.853V110ZM167.669 110.18C166.889 110.18 166.181 109.982 165.545 109.586C164.921 109.19 164.423 108.656 164.051 107.984C163.691 107.3 163.511 106.538 163.511 105.698C163.511 104.846 163.691 104.084 164.051 103.412C164.423 102.728 164.921 102.188 165.545 101.792C166.181 101.384 166.889 101.18 167.669 101.18C168.329 101.18 168.911 101.324 169.415 101.612C169.931 101.888 170.339 102.272 170.639 102.764C170.939 103.256 171.089 103.814 171.089 104.438V106.922C171.089 107.546 170.939 108.104 170.639 108.596C170.351 109.088 169.949 109.478 169.433 109.766C168.917 110.042 168.329 110.18 167.669 110.18ZM167.993 108.308C168.725 108.308 169.313 108.062 169.757 107.57C170.213 107.078 170.441 106.448 170.441 105.68C170.441 105.164 170.339 104.708 170.135 104.312C169.931 103.916 169.643 103.61 169.271 103.394C168.911 103.166 168.485 103.052 167.993 103.052C167.513 103.052 167.087 103.166 166.715 103.394C166.355 103.61 166.067 103.916 165.851 104.312C165.647 104.708 165.545 105.164 165.545 105.68C165.545 106.196 165.647 106.652 165.851 107.048C166.067 107.444 166.355 107.756 166.715 107.984C167.087 108.2 167.513 108.308 167.993 108.308ZM170.315 110V107.678L170.657 105.572L170.315 103.484V101.36H172.295V110H170.315ZM177.282 110.09L173.592 101.36H175.77L178.29 107.768H177.66L180.324 101.36H182.52L178.506 110.09H177.282ZM174.708 113.6L177.39 108.074L178.506 110.09L176.904 113.6H174.708ZM183.626 112.142L182.492 111.134C183.284 110.402 183.896 109.454 184.328 108.29C184.772 107.126 184.994 105.818 184.994 104.366C184.994 102.902 184.772 101.594 184.328 100.442C183.896 99.278 183.284 98.33 182.492 97.598L183.626 96.59C184.262 97.154 184.808 97.844 185.264 98.66C185.732 99.476 186.092 100.37 186.344 101.342C186.596 102.314 186.722 103.322 186.722 104.366C186.722 105.41 186.596 106.418 186.344 107.39C186.092 108.362 185.732 109.256 185.264 110.072C184.808 110.888 184.262 111.578 183.626 112.142Z" fill="#030037"/>
<path d="M17.0136 138L20.9896 128.284H21.9416L25.9036 138H24.4756L21.2136 129.782H21.7036L18.4136 138H17.0136ZM18.9036 135.802V134.654H24.0136V135.802H18.9036ZM29.6795 138.14C29.1382 138.14 28.6482 138.019 28.2095 137.776C27.7802 137.524 27.4442 137.179 27.2015 136.74C26.9589 136.301 26.8375 135.793 26.8375 135.214V131.35H28.0975V135.158C28.0975 135.522 28.1582 135.839 28.2795 136.11C28.4102 136.371 28.5969 136.572 28.8395 136.712C29.0822 136.852 29.3669 136.922 29.6935 136.922C30.1882 136.922 30.5755 136.768 30.8555 136.46C31.1355 136.143 31.2755 135.709 31.2755 135.158V131.35H32.5355V135.214C32.5355 135.793 32.4142 136.301 32.1715 136.74C31.9289 137.179 31.5929 137.524 31.1635 137.776C30.7435 138.019 30.2489 138.14 29.6795 138.14ZM35.2463 138V128.564H36.5063V138H35.2463ZM33.6083 132.498V131.35H38.1443V132.498H33.6083ZM42.2115 138.14C41.5582 138.14 40.9702 137.986 40.4475 137.678C39.9248 137.37 39.5095 136.955 39.2015 136.432C38.8935 135.9 38.7395 135.307 38.7395 134.654C38.7395 134.01 38.8935 133.431 39.2015 132.918C39.5095 132.395 39.9248 131.98 40.4475 131.672C40.9702 131.364 41.5582 131.21 42.2115 131.21C42.8555 131.21 43.4388 131.364 43.9615 131.672C44.4935 131.971 44.9135 132.381 45.2215 132.904C45.5295 133.427 45.6835 134.01 45.6835 134.654C45.6835 135.307 45.5295 135.9 45.2215 136.432C44.9135 136.955 44.4935 137.37 43.9615 137.678C43.4388 137.986 42.8555 138.14 42.2115 138.14ZM42.2115 136.922C42.6315 136.922 43.0048 136.824 43.3315 136.628C43.6582 136.432 43.9148 136.166 44.1015 135.83C44.2882 135.485 44.3815 135.093 44.3815 134.654C44.3815 134.225 44.2835 133.842 44.0875 133.506C43.9008 133.17 43.6442 132.909 43.3175 132.722C43.0002 132.526 42.6315 132.428 42.2115 132.428C41.7915 132.428 41.4182 132.526 41.0915 132.722C40.7648 132.909 40.5082 133.17 40.3215 133.506C40.1348 133.842 40.0415 134.225 40.0415 134.654C40.0415 135.093 40.1348 135.485 40.3215 135.83C40.5082 136.166 40.7648 136.432 41.0915 136.628C41.4182 136.824 41.7915 136.922 42.2115 136.922ZM50.0153 138V131.35H51.2753V138H50.0153ZM51.2753 134.206L50.7993 133.996C50.7993 133.147 50.9953 132.47 51.3873 131.966C51.7793 131.462 52.344 131.21 53.0813 131.21C53.4173 131.21 53.7206 131.271 53.9913 131.392C54.262 131.504 54.514 131.695 54.7473 131.966L53.9213 132.82C53.7813 132.671 53.6273 132.563 53.4593 132.498C53.2913 132.433 53.0953 132.4 52.8713 132.4C52.4046 132.4 52.022 132.549 51.7233 132.848C51.4246 133.147 51.2753 133.599 51.2753 134.206ZM58.4957 138.14C57.833 138.14 57.2357 137.991 56.7037 137.692C56.1717 137.384 55.7517 136.969 55.4437 136.446C55.1357 135.923 54.9817 135.331 54.9817 134.668C54.9817 134.015 55.131 133.427 55.4297 132.904C55.7377 132.381 56.1484 131.971 56.6617 131.672C57.1844 131.364 57.7677 131.21 58.4117 131.21C59.0277 131.21 59.569 131.35 60.0357 131.63C60.5117 131.91 60.8804 132.297 61.1417 132.792C61.4124 133.287 61.5477 133.847 61.5477 134.472C61.5477 134.565 61.543 134.668 61.5337 134.78C61.5244 134.883 61.5057 135.004 61.4777 135.144H55.8637V134.094H60.8057L60.3437 134.5C60.3437 134.052 60.2644 133.674 60.1057 133.366C59.947 133.049 59.723 132.806 59.4337 132.638C59.1444 132.461 58.7944 132.372 58.3837 132.372C57.9544 132.372 57.5764 132.465 57.2497 132.652C56.923 132.839 56.671 133.1 56.4937 133.436C56.3164 133.772 56.2277 134.169 56.2277 134.626C56.2277 135.093 56.321 135.503 56.5077 135.858C56.6944 136.203 56.9604 136.474 57.3057 136.67C57.651 136.857 58.0477 136.95 58.4957 136.95C58.869 136.95 59.2097 136.885 59.5177 136.754C59.835 136.623 60.1057 136.427 60.3297 136.166L61.1417 136.992C60.8244 137.365 60.4324 137.65 59.9657 137.846C59.5084 138.042 59.0184 138.14 58.4957 138.14ZM66.4216 138.14C65.9176 138.14 65.4602 138.037 65.0496 137.832C64.6482 137.617 64.3262 137.323 64.0836 136.95C63.8409 136.577 63.7056 136.152 63.6776 135.676V133.674C63.7056 133.189 63.8409 132.764 64.0836 132.4C64.3356 132.027 64.6622 131.737 65.0636 131.532C65.4742 131.317 65.9269 131.21 66.4216 131.21C67.0282 131.21 67.5742 131.364 68.0596 131.672C68.5542 131.98 68.9416 132.395 69.2216 132.918C69.5016 133.441 69.6416 134.029 69.6416 134.682C69.6416 135.335 69.5016 135.923 69.2216 136.446C68.9416 136.969 68.5542 137.384 68.0596 137.692C67.5742 137.991 67.0282 138.14 66.4216 138.14ZM66.2116 136.95C66.6316 136.95 67.0002 136.852 67.3176 136.656C67.6349 136.46 67.8869 136.194 68.0736 135.858C68.2602 135.513 68.3536 135.116 68.3536 134.668C68.3536 134.229 68.2602 133.837 68.0736 133.492C67.8869 133.147 67.6349 132.881 67.3176 132.694C67.0002 132.498 66.6362 132.4 66.2256 132.4C65.8056 132.4 65.4369 132.498 65.1196 132.694C64.8022 132.881 64.5549 133.147 64.3776 133.492C64.2002 133.837 64.1116 134.234 64.1116 134.682C64.1116 135.121 64.1956 135.513 64.3636 135.858C64.5409 136.194 64.7882 136.46 65.1056 136.656C65.4322 136.852 65.8009 136.95 66.2116 136.95ZM62.9216 140.786V131.35H64.1816V133.1L63.9436 134.71L64.1816 136.334V140.786H62.9216ZM71.07 138V128.004H72.33V138H71.07ZM76.3575 138.056L73.4735 131.35H74.8735L77.0155 136.6H76.5675L78.8215 131.35H80.2215L77.1135 138.056H76.3575ZM74.4535 140.786L76.4135 136.768L77.1135 138.056L75.8535 140.786H74.4535ZM87.315 138.14C86.6617 138.14 86.0737 137.986 85.551 137.678C85.0284 137.37 84.613 136.955 84.305 136.432C83.997 135.9 83.843 135.307 83.843 134.654C83.843 134.01 83.997 133.431 84.305 132.918C84.613 132.395 85.0284 131.98 85.551 131.672C86.0737 131.364 86.6617 131.21 87.315 131.21C87.959 131.21 88.5424 131.364 89.065 131.672C89.597 131.971 90.017 132.381 90.325 132.904C90.633 133.427 90.787 134.01 90.787 134.654C90.787 135.307 90.633 135.9 90.325 136.432C90.017 136.955 89.597 137.37 89.065 137.678C88.5424 137.986 87.959 138.14 87.315 138.14ZM87.315 136.922C87.735 136.922 88.1084 136.824 88.435 136.628C88.7617 136.432 89.0184 136.166 89.205 135.83C89.3917 135.485 89.485 135.093 89.485 134.654C89.485 134.225 89.387 133.842 89.191 133.506C89.0044 133.17 88.7477 132.909 88.421 132.722C88.1037 132.526 87.735 132.428 87.315 132.428C86.895 132.428 86.5217 132.526 86.195 132.722C85.8684 132.909 85.6117 133.17 85.425 133.506C85.2384 133.842 85.145 134.225 85.145 134.654C85.145 135.093 85.2384 135.485 85.425 135.83C85.6117 136.166 85.8684 136.432 86.195 136.628C86.5217 136.824 86.895 136.922 87.315 136.922ZM94.8807 138.14C94.3394 138.14 93.8494 138.019 93.4107 137.776C92.9814 137.524 92.6454 137.179 92.4027 136.74C92.16 136.301 92.0387 135.793 92.0387 135.214V131.35H93.2987V135.158C93.2987 135.522 93.3594 135.839 93.4807 136.11C93.6114 136.371 93.798 136.572 94.0407 136.712C94.2834 136.852 94.568 136.922 94.8947 136.922C95.3894 136.922 95.7767 136.768 96.0567 136.46C96.3367 136.143 96.4767 135.709 96.4767 135.158V131.35H97.7367V135.214C97.7367 135.793 97.6154 136.301 97.3727 136.74C97.13 137.179 96.794 137.524 96.3647 137.776C95.9447 138.019 95.45 138.14 94.8807 138.14ZM100.447 138V128.564H101.707V138H100.447ZM98.8095 132.498V131.35H103.345V132.498H98.8095ZM110.53 138.14C109.877 138.14 109.289 137.986 108.766 137.678C108.243 137.37 107.828 136.955 107.52 136.432C107.212 135.9 107.058 135.307 107.058 134.654C107.058 134.01 107.212 133.431 107.52 132.918C107.828 132.395 108.243 131.98 108.766 131.672C109.289 131.364 109.877 131.21 110.53 131.21C111.174 131.21 111.757 131.364 112.28 131.672C112.812 131.971 113.232 132.381 113.54 132.904C113.848 133.427 114.002 134.01 114.002 134.654C114.002 135.307 113.848 135.9 113.54 136.432C113.232 136.955 112.812 137.37 112.28 137.678C111.757 137.986 111.174 138.14 110.53 138.14ZM110.53 136.922C110.95 136.922 111.323 136.824 111.65 136.628C111.977 136.432 112.233 136.166 112.42 135.83C112.607 135.485 112.7 135.093 112.7 134.654C112.7 134.225 112.602 133.842 112.406 133.506C112.219 133.17 111.963 132.909 111.636 132.722C111.319 132.526 110.95 132.428 110.53 132.428C110.11 132.428 109.737 132.526 109.41 132.722C109.083 132.909 108.827 133.17 108.64 133.506C108.453 133.842 108.36 134.225 108.36 134.654C108.36 135.093 108.453 135.485 108.64 135.83C108.827 136.166 109.083 136.432 109.41 136.628C109.737 136.824 110.11 136.922 110.53 136.922ZM116.168 138V130.356C116.168 129.861 116.276 129.432 116.49 129.068C116.705 128.695 116.999 128.401 117.372 128.186C117.755 127.971 118.198 127.864 118.702 127.864C119.085 127.864 119.416 127.929 119.696 128.06C119.976 128.191 120.233 128.382 120.466 128.634L119.64 129.446C119.519 129.315 119.384 129.217 119.234 129.152C119.085 129.077 118.903 129.04 118.688 129.04C118.287 129.04 117.974 129.157 117.75 129.39C117.536 129.623 117.428 129.945 117.428 130.356V138H116.168ZM114.53 132.498V131.35H119.542V132.498H114.53ZM127.22 138.14C126.716 138.14 126.259 138.037 125.848 137.832C125.447 137.617 125.125 137.323 124.882 136.95C124.64 136.577 124.504 136.152 124.476 135.676V133.674C124.504 133.189 124.64 132.764 124.882 132.4C125.134 132.027 125.461 131.737 125.862 131.532C126.273 131.317 126.726 131.21 127.22 131.21C127.827 131.21 128.373 131.364 128.858 131.672C129.353 131.98 129.74 132.395 130.02 132.918C130.3 133.441 130.44 134.029 130.44 134.682C130.44 135.335 130.3 135.923 130.02 136.446C129.74 136.969 129.353 137.384 128.858 137.692C128.373 137.991 127.827 138.14 127.22 138.14ZM127.01 136.95C127.43 136.95 127.799 136.852 128.116 136.656C128.434 136.46 128.686 136.194 128.872 135.858C129.059 135.513 129.152 135.116 129.152 134.668C129.152 134.229 129.059 133.837 128.872 133.492C128.686 133.147 128.434 132.881 128.116 132.694C127.799 132.498 127.435 132.4 127.024 132.4C126.604 132.4 126.236 132.498 125.918 132.694C125.601 132.881 125.354 133.147 125.176 133.492C124.999 133.837 124.91 134.234 124.91 134.682C124.91 135.121 124.994 135.513 125.162 135.858C125.34 136.194 125.587 136.46 125.904 136.656C126.231 136.852 126.6 136.95 127.01 136.95ZM123.72 138V128.004H124.98V132.974L124.742 134.584L124.98 136.208V138H123.72ZM134.543 138.14C134.001 138.14 133.511 138.019 133.073 137.776C132.643 137.524 132.307 137.179 132.065 136.74C131.822 136.301 131.701 135.793 131.701 135.214V131.35H132.961V135.158C132.961 135.522 133.021 135.839 133.143 136.11C133.273 136.371 133.46 136.572 133.703 136.712C133.945 136.852 134.23 136.922 134.557 136.922C135.051 136.922 135.439 136.768 135.719 136.46C135.999 136.143 136.139 135.709 136.139 135.158V131.35H137.399V135.214C137.399 135.793 137.277 136.301 137.035 136.74C136.792 137.179 136.456 137.524 136.027 137.776C135.607 138.019 135.112 138.14 134.543 138.14ZM141.202 138.14C140.828 138.14 140.474 138.093 140.138 138C139.811 137.897 139.508 137.757 139.228 137.58C138.948 137.393 138.705 137.174 138.5 136.922L139.312 136.11C139.554 136.409 139.834 136.633 140.152 136.782C140.469 136.922 140.824 136.992 141.216 136.992C141.608 136.992 141.911 136.927 142.126 136.796C142.34 136.656 142.448 136.465 142.448 136.222C142.448 135.979 142.359 135.793 142.182 135.662C142.014 135.522 141.794 135.41 141.524 135.326C141.253 135.233 140.964 135.144 140.656 135.06C140.357 134.967 140.072 134.85 139.802 134.71C139.531 134.57 139.307 134.379 139.13 134.136C138.962 133.893 138.878 133.571 138.878 133.17C138.878 132.769 138.976 132.423 139.172 132.134C139.368 131.835 139.638 131.607 139.984 131.448C140.338 131.289 140.763 131.21 141.258 131.21C141.78 131.21 142.242 131.303 142.644 131.49C143.054 131.667 143.39 131.938 143.652 132.302L142.84 133.114C142.653 132.871 142.42 132.685 142.14 132.554C141.869 132.423 141.561 132.358 141.216 132.358C140.852 132.358 140.572 132.423 140.376 132.554C140.189 132.675 140.096 132.848 140.096 133.072C140.096 133.296 140.18 133.469 140.348 133.59C140.516 133.711 140.735 133.814 141.006 133.898C141.286 133.982 141.575 134.071 141.874 134.164C142.172 134.248 142.457 134.365 142.728 134.514C142.998 134.663 143.218 134.864 143.386 135.116C143.563 135.368 143.652 135.699 143.652 136.11C143.652 136.735 143.428 137.23 142.98 137.594C142.541 137.958 141.948 138.14 141.202 138.14ZM145.076 138V131.35H146.336V138H145.076ZM145.706 130.02C145.473 130.02 145.282 129.945 145.132 129.796C144.983 129.637 144.908 129.441 144.908 129.208C144.908 128.984 144.983 128.797 145.132 128.648C145.282 128.489 145.473 128.41 145.706 128.41C145.94 128.41 146.131 128.489 146.28 128.648C146.43 128.797 146.504 128.984 146.504 129.208C146.504 129.441 146.43 129.637 146.28 129.796C146.131 129.945 145.94 130.02 145.706 130.02ZM152.897 138V134.122C152.897 133.618 152.738 133.203 152.421 132.876C152.104 132.549 151.693 132.386 151.189 132.386C150.853 132.386 150.554 132.461 150.293 132.61C150.032 132.759 149.826 132.965 149.677 133.226C149.528 133.487 149.453 133.786 149.453 134.122L148.935 133.828C148.935 133.324 149.047 132.876 149.271 132.484C149.495 132.092 149.808 131.784 150.209 131.56C150.61 131.327 151.063 131.21 151.567 131.21C152.071 131.21 152.514 131.336 152.897 131.588C153.289 131.84 153.597 132.171 153.821 132.582C154.045 132.983 154.157 133.413 154.157 133.87V138H152.897ZM148.193 138V131.35H149.453V138H148.193ZM158.943 138.14C158.28 138.14 157.683 137.991 157.151 137.692C156.619 137.384 156.199 136.969 155.891 136.446C155.583 135.923 155.429 135.331 155.429 134.668C155.429 134.015 155.578 133.427 155.877 132.904C156.185 132.381 156.596 131.971 157.109 131.672C157.632 131.364 158.215 131.21 158.859 131.21C159.475 131.21 160.016 131.35 160.483 131.63C160.959 131.91 161.328 132.297 161.589 132.792C161.86 133.287 161.995 133.847 161.995 134.472C161.995 134.565 161.99 134.668 161.981 134.78C161.972 134.883 161.953 135.004 161.925 135.144H156.311V134.094H161.253L160.791 134.5C160.791 134.052 160.712 133.674 160.553 133.366C160.394 133.049 160.17 132.806 159.881 132.638C159.592 132.461 159.242 132.372 158.831 132.372C158.402 132.372 158.024 132.465 157.697 132.652C157.37 132.839 157.118 133.1 156.941 133.436C156.764 133.772 156.675 134.169 156.675 134.626C156.675 135.093 156.768 135.503 156.955 135.858C157.142 136.203 157.408 136.474 157.753 136.67C158.098 136.857 158.495 136.95 158.943 136.95C159.316 136.95 159.657 136.885 159.965 136.754C160.282 136.623 160.553 136.427 160.777 136.166L161.589 136.992C161.272 137.365 160.88 137.65 160.413 137.846C159.956 138.042 159.466 138.14 158.943 138.14ZM165.483 138.14C165.109 138.14 164.755 138.093 164.419 138C164.092 137.897 163.789 137.757 163.509 137.58C163.229 137.393 162.986 137.174 162.781 136.922L163.593 136.11C163.835 136.409 164.115 136.633 164.433 136.782C164.75 136.922 165.105 136.992 165.497 136.992C165.889 136.992 166.192 136.927 166.407 136.796C166.621 136.656 166.729 136.465 166.729 136.222C166.729 135.979 166.64 135.793 166.463 135.662C166.295 135.522 166.075 135.41 165.805 135.326C165.534 135.233 165.245 135.144 164.937 135.06C164.638 134.967 164.353 134.85 164.083 134.71C163.812 134.57 163.588 134.379 163.411 134.136C163.243 133.893 163.159 133.571 163.159 133.17C163.159 132.769 163.257 132.423 163.453 132.134C163.649 131.835 163.919 131.607 164.265 131.448C164.619 131.289 165.044 131.21 165.539 131.21C166.061 131.21 166.523 131.303 166.925 131.49C167.335 131.667 167.671 131.938 167.933 132.302L167.121 133.114C166.934 132.871 166.701 132.685 166.421 132.554C166.15 132.423 165.842 132.358 165.497 132.358C165.133 132.358 164.853 132.423 164.657 132.554C164.47 132.675 164.377 132.848 164.377 133.072C164.377 133.296 164.461 133.469 164.629 133.59C164.797 133.711 165.016 133.814 165.287 133.898C165.567 133.982 165.856 134.071 166.155 134.164C166.453 134.248 166.738 134.365 167.009 134.514C167.279 134.663 167.499 134.864 167.667 135.116C167.844 135.368 167.933 135.699 167.933 136.11C167.933 136.735 167.709 137.23 167.261 137.594C166.822 137.958 166.229 138.14 165.483 138.14ZM171.457 138.14C171.084 138.14 170.729 138.093 170.393 138C170.067 137.897 169.763 137.757 169.483 137.58C169.203 137.393 168.961 137.174 168.755 136.922L169.567 136.11C169.81 136.409 170.09 136.633 170.407 136.782C170.725 136.922 171.079 136.992 171.471 136.992C171.863 136.992 172.167 136.927 172.381 136.796C172.596 136.656 172.703 136.465 172.703 136.222C172.703 135.979 172.615 135.793 172.437 135.662C172.269 135.522 172.05 135.41 171.779 135.326C171.509 135.233 171.219 135.144 170.911 135.06C170.613 134.967 170.328 134.85 170.057 134.71C169.787 134.57 169.563 134.379 169.385 134.136C169.217 133.893 169.133 133.571 169.133 133.17C169.133 132.769 169.231 132.423 169.427 132.134C169.623 131.835 169.894 131.607 170.239 131.448C170.594 131.289 171.019 131.21 171.513 131.21C172.036 131.21 172.498 131.303 172.899 131.49C173.31 131.667 173.646 131.938 173.907 132.302L173.095 133.114C172.909 132.871 172.675 132.685 172.395 132.554C172.125 132.423 171.817 132.358 171.471 132.358C171.107 132.358 170.827 132.423 170.631 132.554C170.445 132.675 170.351 132.848 170.351 133.072C170.351 133.296 170.435 133.469 170.603 133.59C170.771 133.711 170.991 133.814 171.261 133.898C171.541 133.982 171.831 134.071 172.129 134.164C172.428 134.248 172.713 134.365 172.983 134.514C173.254 134.663 173.473 134.864 173.641 135.116C173.819 135.368 173.907 135.699 173.907 136.11C173.907 136.735 173.683 137.23 173.235 137.594C172.797 137.958 172.204 138.14 171.457 138.14ZM182.934 138V134.122C182.934 133.618 182.775 133.203 182.458 132.876C182.141 132.549 181.73 132.386 181.226 132.386C180.89 132.386 180.591 132.461 180.33 132.61C180.069 132.759 179.863 132.965 179.714 133.226C179.565 133.487 179.49 133.786 179.49 134.122L178.972 133.828C178.972 133.324 179.084 132.876 179.308 132.484C179.532 132.092 179.845 131.784 180.246 131.56C180.647 131.327 181.1 131.21 181.604 131.21C182.108 131.21 182.551 131.322 182.934 131.546C183.326 131.77 183.634 132.083 183.858 132.484C184.082 132.885 184.194 133.347 184.194 133.87V138H182.934ZM178.23 138V128.004H179.49V138H178.23ZM188.938 138.14C188.285 138.14 187.697 137.986 187.174 137.678C186.651 137.37 186.236 136.955 185.928 136.432C185.62 135.9 185.466 135.307 185.466 134.654C185.466 134.01 185.62 133.431 185.928 132.918C186.236 132.395 186.651 131.98 187.174 131.672C187.697 131.364 188.285 131.21 188.938 131.21C189.582 131.21 190.165 131.364 190.688 131.672C191.22 131.971 191.64 132.381 191.948 132.904C192.256 133.427 192.41 134.01 192.41 134.654C192.41 135.307 192.256 135.9 191.948 136.432C191.64 136.955 191.22 137.37 190.688 137.678C190.165 137.986 189.582 138.14 188.938 138.14ZM188.938 136.922C189.358 136.922 189.731 136.824 190.058 136.628C190.385 136.432 190.641 136.166 190.828 135.83C191.015 135.485 191.108 135.093 191.108 134.654C191.108 134.225 191.01 133.842 190.814 133.506C190.627 133.17 190.371 132.909 190.044 132.722C189.727 132.526 189.358 132.428 188.938 132.428C188.518 132.428 188.145 132.526 187.818 132.722C187.491 132.909 187.235 133.17 187.048 133.506C186.861 133.842 186.768 134.225 186.768 134.654C186.768 135.093 186.861 135.485 187.048 135.83C187.235 136.166 187.491 136.432 187.818 136.628C188.145 136.824 188.518 136.922 188.938 136.922ZM196.504 138.14C195.962 138.14 195.472 138.019 195.034 137.776C194.604 137.524 194.268 137.179 194.026 136.74C193.783 136.301 193.662 135.793 193.662 135.214V131.35H194.922V135.158C194.922 135.522 194.982 135.839 195.104 136.11C195.234 136.371 195.421 136.572 195.664 136.712C195.906 136.852 196.191 136.922 196.518 136.922C197.012 136.922 197.4 136.768 197.68 136.46C197.96 136.143 198.1 135.709 198.1 135.158V131.35H199.36V135.214C199.36 135.793 199.238 136.301 198.996 136.74C198.753 137.179 198.417 137.524 197.988 137.776C197.568 138.019 197.073 138.14 196.504 138.14ZM201.049 138V131.35H202.309V138H201.049ZM202.309 134.206L201.833 133.996C201.833 133.147 202.029 132.47 202.421 131.966C202.813 131.462 203.377 131.21 204.115 131.21C204.451 131.21 204.754 131.271 205.025 131.392C205.295 131.504 205.547 131.695 205.781 131.966L204.955 132.82C204.815 132.671 204.661 132.563 204.493 132.498C204.325 132.433 204.129 132.4 203.905 132.4C203.438 132.4 203.055 132.549 202.757 132.848C202.458 133.147 202.309 133.599 202.309 134.206ZM208.631 138.14C208.258 138.14 207.903 138.093 207.567 138C207.241 137.897 206.937 137.757 206.657 137.58C206.377 137.393 206.135 137.174 205.929 136.922L206.741 136.11C206.984 136.409 207.264 136.633 207.581 136.782C207.899 136.922 208.253 136.992 208.645 136.992C209.037 136.992 209.341 136.927 209.555 136.796C209.77 136.656 209.877 136.465 209.877 136.222C209.877 135.979 209.789 135.793 209.611 135.662C209.443 135.522 209.224 135.41 208.953 135.326C208.683 135.233 208.393 135.144 208.085 135.06C207.787 134.967 207.502 134.85 207.231 134.71C206.961 134.57 206.737 134.379 206.559 134.136C206.391 133.893 206.307 133.571 206.307 133.17C206.307 132.769 206.405 132.423 206.601 132.134C206.797 131.835 207.068 131.607 207.413 131.448C207.768 131.289 208.193 131.21 208.687 131.21C209.21 131.21 209.672 131.303 210.073 131.49C210.484 131.667 210.82 131.938 211.081 132.302L210.269 133.114C210.083 132.871 209.849 132.685 209.569 132.554C209.299 132.423 208.991 132.358 208.645 132.358C208.281 132.358 208.001 132.423 207.805 132.554C207.619 132.675 207.525 132.848 207.525 133.072C207.525 133.296 207.609 133.469 207.777 133.59C207.945 133.711 208.165 133.814 208.435 133.898C208.715 133.982 209.005 134.071 209.303 134.164C209.602 134.248 209.887 134.365 210.157 134.514C210.428 134.663 210.647 134.864 210.815 135.116C210.993 135.368 211.081 135.699 211.081 136.11C211.081 136.735 210.857 137.23 210.409 137.594C209.971 137.958 209.378 138.14 208.631 138.14ZM217.574 139.624C217.061 139.195 216.622 138.663 216.258 138.028C215.894 137.403 215.614 136.717 215.418 135.97C215.222 135.223 215.124 134.449 215.124 133.646C215.124 132.843 215.222 132.069 215.418 131.322C215.614 130.575 215.894 129.889 216.258 129.264C216.622 128.629 217.061 128.097 217.574 127.668L218.302 128.326C217.639 128.905 217.126 129.651 216.762 130.566C216.407 131.481 216.23 132.507 216.23 133.646C216.23 134.775 216.407 135.797 216.762 136.712C217.126 137.627 217.639 138.378 218.302 138.966L217.574 139.624ZM221.15 138L218.518 131.35H219.834L221.738 136.53H221.318L223.208 131.35H223.936L225.826 136.53H225.406L227.31 131.35H228.626L226.008 138H225.266L223.348 132.974H223.81L221.878 138H221.15ZM232.634 138.14C231.972 138.14 231.374 137.991 230.842 137.692C230.31 137.384 229.89 136.969 229.582 136.446C229.274 135.923 229.12 135.331 229.12 134.668C229.12 134.015 229.27 133.427 229.568 132.904C229.876 132.381 230.287 131.971 230.8 131.672C231.323 131.364 231.906 131.21 232.55 131.21C233.166 131.21 233.708 131.35 234.174 131.63C234.65 131.91 235.019 132.297 235.28 132.792C235.551 133.287 235.686 133.847 235.686 134.472C235.686 134.565 235.682 134.668 235.672 134.78C235.663 134.883 235.644 135.004 235.616 135.144H230.002V134.094H234.944L234.482 134.5C234.482 134.052 234.403 133.674 234.244 133.366C234.086 133.049 233.862 132.806 233.572 132.638C233.283 132.461 232.933 132.372 232.522 132.372C232.093 132.372 231.715 132.465 231.388 132.652C231.062 132.839 230.81 133.1 230.632 133.436C230.455 133.772 230.366 134.169 230.366 134.626C230.366 135.093 230.46 135.503 230.646 135.858C230.833 136.203 231.099 136.474 231.444 136.67C231.79 136.857 232.186 136.95 232.634 136.95C233.008 136.95 233.348 136.885 233.656 136.754C233.974 136.623 234.244 136.427 234.468 136.166L235.28 136.992C234.963 137.365 234.571 137.65 234.104 137.846C233.647 138.042 233.157 138.14 232.634 138.14ZM240.14 138.14C239.478 138.14 238.88 137.991 238.348 137.692C237.816 137.384 237.396 136.969 237.088 136.446C236.78 135.923 236.626 135.331 236.626 134.668C236.626 134.015 236.776 133.427 237.074 132.904C237.382 132.381 237.793 131.971 238.306 131.672C238.829 131.364 239.412 131.21 240.056 131.21C240.672 131.21 241.214 131.35 241.68 131.63C242.156 131.91 242.525 132.297 242.786 132.792C243.057 133.287 243.192 133.847 243.192 134.472C243.192 134.565 243.188 134.668 243.178 134.78C243.169 134.883 243.15 135.004 243.122 135.144H237.508V134.094H242.45L241.988 134.5C241.988 134.052 241.909 133.674 241.75 133.366C241.592 133.049 241.368 132.806 241.078 132.638C240.789 132.461 240.439 132.372 240.028 132.372C239.599 132.372 239.221 132.465 238.894 132.652C238.568 132.839 238.316 133.1 238.138 133.436C237.961 133.772 237.872 134.169 237.872 134.626C237.872 135.093 237.966 135.503 238.152 135.858C238.339 136.203 238.605 136.474 238.95 136.67C239.296 136.857 239.692 136.95 240.14 136.95C240.514 136.95 240.854 136.885 241.162 136.754C241.48 136.623 241.75 136.427 241.974 136.166L242.786 136.992C242.469 137.365 242.077 137.65 241.61 137.846C241.153 138.042 240.663 138.14 240.14 138.14ZM248.822 138L245.714 134.598L248.794 131.35H250.32L246.89 134.934L246.946 134.206L250.446 138H248.822ZM244.566 138V128.004H245.826V138H244.566ZM253.97 138.14C253.354 138.14 252.803 137.991 252.318 137.692C251.833 137.384 251.445 136.969 251.156 136.446C250.876 135.923 250.736 135.335 250.736 134.682C250.736 134.029 250.876 133.441 251.156 132.918C251.445 132.395 251.833 131.98 252.318 131.672C252.803 131.364 253.354 131.21 253.97 131.21C254.465 131.21 254.913 131.317 255.314 131.532C255.715 131.737 256.037 132.027 256.28 132.4C256.532 132.764 256.672 133.189 256.7 133.674V135.676C256.672 136.152 256.537 136.577 256.294 136.95C256.051 137.323 255.729 137.617 255.328 137.832C254.927 138.037 254.474 138.14 253.97 138.14ZM254.18 136.95C254.6 136.95 254.964 136.852 255.272 136.656C255.589 136.46 255.837 136.194 256.014 135.858C256.191 135.513 256.28 135.121 256.28 134.682C256.28 134.225 256.187 133.828 256 133.492C255.823 133.156 255.575 132.89 255.258 132.694C254.95 132.498 254.586 132.4 254.166 132.4C253.746 132.4 253.377 132.498 253.06 132.694C252.743 132.89 252.491 133.161 252.304 133.506C252.127 133.842 252.038 134.229 252.038 134.668C252.038 135.116 252.127 135.513 252.304 135.858C252.491 136.194 252.743 136.46 253.06 136.656C253.387 136.852 253.76 136.95 254.18 136.95ZM257.47 138H256.196V136.208L256.434 134.584L256.196 132.974V128.004H257.47V138ZM262.132 138.14C261.526 138.14 260.975 137.991 260.48 137.692C259.986 137.384 259.594 136.969 259.304 136.446C259.024 135.923 258.884 135.335 258.884 134.682C258.884 134.029 259.024 133.441 259.304 132.918C259.594 132.395 259.981 131.98 260.466 131.672C260.961 131.364 261.516 131.21 262.132 131.21C262.636 131.21 263.084 131.317 263.476 131.532C263.878 131.737 264.2 132.027 264.442 132.4C264.685 132.764 264.82 133.189 264.848 133.674V135.676C264.82 136.152 264.685 136.577 264.442 136.95C264.209 137.323 263.892 137.617 263.49 137.832C263.098 138.037 262.646 138.14 262.132 138.14ZM262.342 136.95C262.968 136.95 263.472 136.74 263.854 136.32C264.237 135.891 264.428 135.345 264.428 134.682C264.428 134.225 264.34 133.828 264.162 133.492C263.994 133.147 263.752 132.881 263.434 132.694C263.117 132.498 262.748 132.4 262.328 132.4C261.908 132.4 261.535 132.498 261.208 132.694C260.891 132.89 260.639 133.161 260.452 133.506C260.275 133.842 260.186 134.229 260.186 134.668C260.186 135.116 260.275 135.513 260.452 135.858C260.639 136.194 260.896 136.46 261.222 136.656C261.549 136.852 261.922 136.95 262.342 136.95ZM264.344 138V136.208L264.582 134.584L264.344 132.974V131.35H265.618V138H264.344ZM269.637 138.056L266.753 131.35H268.153L270.295 136.6H269.847L272.101 131.35H273.501L270.393 138.056H269.637ZM267.733 140.786L269.693 136.768L270.393 138.056L269.133 140.786H267.733ZM274.362 139.624L273.634 138.966C274.297 138.378 274.806 137.627 275.16 136.712C275.515 135.797 275.692 134.775 275.692 133.646C275.692 132.507 275.515 131.481 275.16 130.566C274.806 129.651 274.297 128.905 273.634 128.326L274.362 127.668C274.876 128.097 275.314 128.629 275.678 129.264C276.042 129.889 276.322 130.575 276.518 131.322C276.714 132.069 276.812 132.843 276.812 133.646C276.812 134.449 276.714 135.223 276.518 135.97C276.322 136.717 276.042 137.403 275.678 138.028C275.314 138.663 274.876 139.195 274.362 139.624Z" fill="#A7AEB6"/>
<defs>
<linearGradient id="paint0_linear_1293_7254" x1="-24.2254" y1="57.6178" x2="98.8664" y2="20.3042" gradientUnits="userSpaceOnUse">
<stop stop-color="#29F2BC"/>
<stop offset="0.5" stop-color="#4877FF"/>
<stop offset="1" stop-color="#F945B3"/>
</linearGradient>
</defs>
</svg>
