<svg width="221" height="248" viewBox="0 0 221 248" fill="none" xmlns="http://www.w3.org/2000/svg">
<rect x="0.916748" width="219.704" height="248" rx="24" fill="white"/>
<rect width="219.704" height="48" transform="translate(0.916748 32)" fill="#4877FF" fill-opacity="0.1"/>
<path d="M13.4127 62L17.9567 50.896H19.0447L23.5727 62H21.9407L18.2127 52.608H18.7727L15.0127 62H13.4127ZM15.5727 59.488V58.176H21.4127V59.488H15.5727ZM25.1134 62V50.576H26.5534V62H25.1134ZM28.6602 62V50.576H30.1002V62H28.6602Z" fill="#4877FF"/>
<path d="M14.2287 110V98.896H15.7327V110H14.2287ZM23.4737 110V105.568C23.4737 104.992 23.2924 104.517 22.9297 104.144C22.5671 103.771 22.0977 103.584 21.5217 103.584C21.1377 103.584 20.7964 103.669 20.4977 103.84C20.1991 104.011 19.9644 104.245 19.7937 104.544C19.6231 104.843 19.5377 105.184 19.5377 105.568L18.9457 105.232C18.9457 104.656 19.0737 104.144 19.3297 103.696C19.5857 103.248 19.9431 102.896 20.4017 102.64C20.8604 102.373 21.3777 102.24 21.9537 102.24C22.5297 102.24 23.0364 102.384 23.4737 102.672C23.9217 102.96 24.2737 103.339 24.5297 103.808C24.7857 104.267 24.9137 104.757 24.9137 105.28V110H23.4737ZM18.0977 110V102.4H19.5377V110H18.0977ZM30.3354 110.16C29.5887 110.16 28.9114 109.984 28.3034 109.632C27.706 109.28 27.2314 108.805 26.8794 108.208C26.538 107.6 26.3674 106.928 26.3674 106.192C26.3674 105.445 26.538 104.773 26.8794 104.176C27.2314 103.579 27.706 103.109 28.3034 102.768C28.9114 102.416 29.5887 102.24 30.3354 102.24C30.922 102.24 31.466 102.352 31.9674 102.576C32.4687 102.789 32.9007 103.104 33.2634 103.52L32.3034 104.48C32.0687 104.203 31.7807 103.995 31.4394 103.856C31.1087 103.707 30.7407 103.632 30.3354 103.632C29.8554 103.632 29.4287 103.744 29.0554 103.968C28.682 104.181 28.3887 104.48 28.1754 104.864C27.962 105.248 27.8554 105.691 27.8554 106.192C27.8554 106.693 27.962 107.136 28.1754 107.52C28.3887 107.904 28.682 108.208 29.0554 108.432C29.4287 108.656 29.8554 108.768 30.3354 108.768C30.7407 108.768 31.1087 108.699 31.4394 108.56C31.7807 108.411 32.074 108.197 32.3194 107.92L33.2634 108.88C32.9114 109.285 32.4794 109.6 31.9674 109.824C31.466 110.048 30.922 110.16 30.3354 110.16ZM38.0072 110.16C37.2606 110.16 36.5886 109.984 35.9912 109.632C35.3939 109.28 34.9192 108.805 34.5672 108.208C34.2152 107.6 34.0392 106.923 34.0392 106.176C34.0392 105.44 34.2152 104.779 34.5672 104.192C34.9192 103.595 35.3939 103.12 35.9912 102.768C36.5886 102.416 37.2606 102.24 38.0072 102.24C38.7432 102.24 39.4099 102.416 40.0072 102.768C40.6152 103.109 41.0952 103.579 41.4472 104.176C41.7992 104.773 41.9752 105.44 41.9752 106.176C41.9752 106.923 41.7992 107.6 41.4472 108.208C41.0952 108.805 40.6152 109.28 40.0072 109.632C39.4099 109.984 38.7432 110.16 38.0072 110.16ZM38.0072 108.768C38.4872 108.768 38.9139 108.656 39.2872 108.432C39.6606 108.208 39.9539 107.904 40.1672 107.52C40.3806 107.125 40.4872 106.677 40.4872 106.176C40.4872 105.685 40.3752 105.248 40.1512 104.864C39.9379 104.48 39.6446 104.181 39.2712 103.968C38.9086 103.744 38.4872 103.632 38.0072 103.632C37.5272 103.632 37.1006 103.744 36.7272 103.968C36.3539 104.181 36.0606 104.48 35.8472 104.864C35.6339 105.248 35.5272 105.685 35.5272 106.176C35.5272 106.677 35.6339 107.125 35.8472 107.52C36.0606 107.904 36.3539 108.208 36.7272 108.432C37.1006 108.656 37.5272 108.768 38.0072 108.768ZM43.5977 110V102.4H45.0377V110H43.5977ZM48.7337 110V105.408C48.7337 104.843 48.5577 104.4 48.2057 104.08C47.8644 103.749 47.4324 103.584 46.9097 103.584C46.5577 103.584 46.2431 103.659 45.9657 103.808C45.6884 103.957 45.4644 104.165 45.2937 104.432C45.1231 104.699 45.0377 105.019 45.0377 105.392L44.4457 105.104C44.4457 104.528 44.5684 104.027 44.8137 103.6C45.0697 103.173 45.4164 102.843 45.8537 102.608C46.2911 102.363 46.7817 102.24 47.3257 102.24C47.8591 102.24 48.3391 102.357 48.7657 102.592C49.2031 102.827 49.5444 103.157 49.7897 103.584C50.0457 104.011 50.1737 104.517 50.1737 105.104V110H48.7337ZM53.8697 110V105.408C53.8697 104.843 53.6937 104.4 53.3417 104.08C53.0004 103.749 52.5737 103.584 52.0617 103.584C51.7097 103.584 51.3897 103.659 51.1017 103.808C50.8244 103.957 50.6004 104.165 50.4297 104.432C50.2591 104.699 50.1737 105.019 50.1737 105.392L49.3577 105.104C49.3897 104.517 49.5444 104.016 49.8217 103.6C50.1097 103.173 50.4777 102.843 50.9257 102.608C51.3737 102.363 51.8644 102.24 52.3977 102.24C52.9524 102.24 53.4484 102.357 53.8857 102.592C54.3231 102.827 54.6697 103.157 54.9257 103.584C55.1924 104.011 55.3257 104.523 55.3257 105.12V110H53.8697ZM57.3012 110V102.4H58.7412V110H57.3012ZM58.0212 100.88C57.7546 100.88 57.5359 100.795 57.3652 100.624C57.1946 100.443 57.1092 100.219 57.1092 99.952C57.1092 99.696 57.1946 99.4827 57.3652 99.312C57.5359 99.1307 57.7546 99.04 58.0212 99.04C58.2879 99.04 58.5066 99.1307 58.6772 99.312C58.8479 99.4827 58.9332 99.696 58.9332 99.952C58.9332 100.219 58.8479 100.443 58.6772 100.624C58.5066 100.795 58.2879 100.88 58.0212 100.88ZM66.2394 110V105.568C66.2394 104.992 66.058 104.517 65.6954 104.144C65.3327 103.771 64.8634 103.584 64.2874 103.584C63.9034 103.584 63.562 103.669 63.2634 103.84C62.9647 104.011 62.73 104.245 62.5594 104.544C62.3887 104.843 62.3034 105.184 62.3034 105.568L61.7114 105.232C61.7114 104.656 61.8394 104.144 62.0954 103.696C62.3514 103.248 62.7087 102.896 63.1674 102.64C63.626 102.373 64.1434 102.24 64.7194 102.24C65.2954 102.24 65.802 102.384 66.2394 102.672C66.6874 102.96 67.0394 103.339 67.2954 103.808C67.5514 104.267 67.6794 104.757 67.6794 105.28V110H66.2394ZM60.8634 110V102.4H62.3034V110H60.8634ZM72.781 113.344C72.0023 113.344 71.309 113.2 70.701 112.912C70.1037 112.624 69.6237 112.219 69.261 111.696L70.189 110.752C70.4983 111.147 70.8663 111.445 71.293 111.648C71.7197 111.861 72.2263 111.968 72.813 111.968C73.5917 111.968 74.205 111.76 74.653 111.344C75.1117 110.939 75.341 110.389 75.341 109.696V107.808L75.597 106.096L75.341 104.4V102.4H76.781V109.696C76.781 110.421 76.6103 111.056 76.269 111.6C75.9383 112.144 75.469 112.571 74.861 112.88C74.2637 113.189 73.5703 113.344 72.781 113.344ZM72.781 109.872C72.0877 109.872 71.4637 109.707 70.909 109.376C70.365 109.045 69.933 108.592 69.613 108.016C69.293 107.429 69.133 106.773 69.133 106.048C69.133 105.323 69.293 104.677 69.613 104.112C69.933 103.536 70.365 103.083 70.909 102.752C71.4637 102.411 72.0877 102.24 72.781 102.24C73.3783 102.24 73.9063 102.357 74.365 102.592C74.8237 102.827 75.1863 103.157 75.453 103.584C75.7303 104 75.8797 104.491 75.901 105.056V107.072C75.869 107.627 75.7143 108.117 75.437 108.544C75.1703 108.96 74.8077 109.285 74.349 109.52C73.8903 109.755 73.3677 109.872 72.781 109.872ZM73.069 108.512C73.5383 108.512 73.949 108.411 74.301 108.208C74.6637 108.005 74.941 107.723 75.133 107.36C75.325 106.987 75.421 106.555 75.421 106.064C75.421 105.573 75.3197 105.147 75.117 104.784C74.925 104.411 74.653 104.123 74.301 103.92C73.949 103.707 73.533 103.6 73.053 103.6C72.573 103.6 72.1517 103.707 71.789 103.92C71.4263 104.123 71.1383 104.411 70.925 104.784C70.7223 105.147 70.621 105.568 70.621 106.048C70.621 106.528 70.7223 106.955 70.925 107.328C71.1383 107.701 71.4263 107.995 71.789 108.208C72.1623 108.411 72.589 108.512 73.069 108.512ZM82.4787 110V98.896H83.5347L88.2387 106.624H87.5187L92.2227 98.896H93.2787V110H91.7747V101.536L92.1267 101.632L88.4147 107.728H87.3587L83.6467 101.632L83.9827 101.536V110H82.4787ZM99.1646 110.16C98.4073 110.16 97.7246 109.989 97.1166 109.648C96.5086 109.296 96.0286 108.821 95.6766 108.224C95.3246 107.627 95.1486 106.949 95.1486 106.192C95.1486 105.445 95.3193 104.773 95.6606 104.176C96.0126 103.579 96.482 103.109 97.0686 102.768C97.666 102.416 98.3326 102.24 99.0686 102.24C99.7726 102.24 100.391 102.4 100.925 102.72C101.469 103.04 101.89 103.483 102.189 104.048C102.498 104.613 102.653 105.253 102.653 105.968C102.653 106.075 102.647 106.192 102.637 106.32C102.626 106.437 102.605 106.576 102.573 106.736H96.1566V105.536H101.805L101.277 106C101.277 105.488 101.186 105.056 101.005 104.704C100.823 104.341 100.567 104.064 100.237 103.872C99.906 103.669 99.506 103.568 99.0366 103.568C98.546 103.568 98.114 103.675 97.7406 103.888C97.3673 104.101 97.0793 104.4 96.8766 104.784C96.674 105.168 96.5726 105.621 96.5726 106.144C96.5726 106.677 96.6793 107.147 96.8926 107.552C97.106 107.947 97.41 108.256 97.8046 108.48C98.1993 108.693 98.6526 108.8 99.1646 108.8C99.5913 108.8 99.9806 108.725 100.333 108.576C100.695 108.427 101.005 108.203 101.261 107.904L102.189 108.848C101.826 109.275 101.378 109.6 100.845 109.824C100.322 110.048 99.762 110.16 99.1646 110.16ZM106.639 110.16C106.212 110.16 105.807 110.107 105.423 110C105.049 109.883 104.703 109.723 104.383 109.52C104.063 109.307 103.785 109.056 103.551 108.768L104.479 107.84C104.756 108.181 105.076 108.437 105.439 108.608C105.801 108.768 106.207 108.848 106.655 108.848C107.103 108.848 107.449 108.773 107.695 108.624C107.94 108.464 108.063 108.245 108.063 107.968C108.063 107.691 107.961 107.477 107.759 107.328C107.567 107.168 107.316 107.04 107.007 106.944C106.697 106.837 106.367 106.736 106.015 106.64C105.673 106.533 105.348 106.4 105.039 106.24C104.729 106.08 104.473 105.861 104.271 105.584C104.079 105.307 103.983 104.939 103.983 104.48C103.983 104.021 104.095 103.627 104.319 103.296C104.543 102.955 104.852 102.693 105.247 102.512C105.652 102.331 106.137 102.24 106.703 102.24C107.3 102.24 107.828 102.347 108.287 102.56C108.756 102.763 109.14 103.072 109.439 103.488L108.511 104.416C108.297 104.139 108.031 103.925 107.711 103.776C107.401 103.627 107.049 103.552 106.655 103.552C106.239 103.552 105.919 103.627 105.695 103.776C105.481 103.915 105.375 104.112 105.375 104.368C105.375 104.624 105.471 104.821 105.663 104.96C105.855 105.099 106.105 105.216 106.415 105.312C106.735 105.408 107.065 105.509 107.407 105.616C107.748 105.712 108.073 105.845 108.383 106.016C108.692 106.187 108.943 106.416 109.135 106.704C109.337 106.992 109.439 107.371 109.439 107.84C109.439 108.555 109.183 109.12 108.671 109.536C108.169 109.952 107.492 110.16 106.639 110.16ZM113.467 110.16C113.04 110.16 112.635 110.107 112.251 110C111.878 109.883 111.531 109.723 111.211 109.52C110.891 109.307 110.614 109.056 110.379 108.768L111.307 107.84C111.584 108.181 111.904 108.437 112.267 108.608C112.63 108.768 113.035 108.848 113.483 108.848C113.931 108.848 114.278 108.773 114.523 108.624C114.768 108.464 114.891 108.245 114.891 107.968C114.891 107.691 114.79 107.477 114.587 107.328C114.395 107.168 114.144 107.04 113.835 106.944C113.526 106.837 113.195 106.736 112.843 106.64C112.502 106.533 112.176 106.4 111.867 106.24C111.558 106.08 111.302 105.861 111.099 105.584C110.907 105.307 110.811 104.939 110.811 104.48C110.811 104.021 110.923 103.627 111.147 103.296C111.371 102.955 111.68 102.693 112.075 102.512C112.48 102.331 112.966 102.24 113.531 102.24C114.128 102.24 114.656 102.347 115.115 102.56C115.584 102.763 115.968 103.072 116.267 103.488L115.339 104.416C115.126 104.139 114.859 103.925 114.539 103.776C114.23 103.627 113.878 103.552 113.483 103.552C113.067 103.552 112.747 103.627 112.523 103.776C112.31 103.915 112.203 104.112 112.203 104.368C112.203 104.624 112.299 104.821 112.491 104.96C112.683 105.099 112.934 105.216 113.243 105.312C113.563 105.408 113.894 105.509 114.235 105.616C114.576 105.712 114.902 105.845 115.211 106.016C115.52 106.187 115.771 106.416 115.963 106.704C116.166 106.992 116.267 107.371 116.267 107.84C116.267 108.555 116.011 109.12 115.499 109.536C114.998 109.952 114.32 110.16 113.467 110.16ZM121.111 110.16C120.418 110.16 119.788 109.989 119.223 109.648C118.658 109.296 118.21 108.821 117.879 108.224C117.559 107.627 117.399 106.955 117.399 106.208C117.399 105.461 117.559 104.789 117.879 104.192C118.21 103.595 118.652 103.12 119.207 102.768C119.772 102.416 120.407 102.24 121.111 102.24C121.687 102.24 122.199 102.363 122.647 102.608C123.106 102.843 123.474 103.173 123.751 103.6C124.028 104.016 124.183 104.501 124.215 105.056V107.344C124.183 107.888 124.028 108.373 123.751 108.8C123.484 109.227 123.122 109.563 122.663 109.808C122.215 110.043 121.698 110.16 121.111 110.16ZM121.351 108.8C122.066 108.8 122.642 108.56 123.079 108.08C123.516 107.589 123.735 106.965 123.735 106.208C123.735 105.685 123.634 105.232 123.431 104.848C123.239 104.453 122.962 104.149 122.599 103.936C122.236 103.712 121.815 103.6 121.335 103.6C120.855 103.6 120.428 103.712 120.055 103.936C119.692 104.16 119.404 104.469 119.191 104.864C118.988 105.248 118.887 105.691 118.887 106.192C118.887 106.704 118.988 107.157 119.191 107.552C119.404 107.936 119.698 108.24 120.071 108.464C120.444 108.688 120.871 108.8 121.351 108.8ZM123.639 110V107.952L123.911 106.096L123.639 104.256V102.4H125.095V110H123.639ZM130.343 113.344C129.565 113.344 128.871 113.2 128.263 112.912C127.666 112.624 127.186 112.219 126.823 111.696L127.751 110.752C128.061 111.147 128.429 111.445 128.855 111.648C129.282 111.861 129.789 111.968 130.375 111.968C131.154 111.968 131.767 111.76 132.215 111.344C132.674 110.939 132.903 110.389 132.903 109.696V107.808L133.159 106.096L132.903 104.4V102.4H134.343V109.696C134.343 110.421 134.173 111.056 133.831 111.6C133.501 112.144 133.031 112.571 132.423 112.88C131.826 113.189 131.133 113.344 130.343 113.344ZM130.343 109.872C129.65 109.872 129.026 109.707 128.471 109.376C127.927 109.045 127.495 108.592 127.175 108.016C126.855 107.429 126.695 106.773 126.695 106.048C126.695 105.323 126.855 104.677 127.175 104.112C127.495 103.536 127.927 103.083 128.471 102.752C129.026 102.411 129.65 102.24 130.343 102.24C130.941 102.24 131.469 102.357 131.927 102.592C132.386 102.827 132.749 103.157 133.015 103.584C133.293 104 133.442 104.491 133.463 105.056V107.072C133.431 107.627 133.277 108.117 132.999 108.544C132.733 108.96 132.37 109.285 131.911 109.52C131.453 109.755 130.93 109.872 130.343 109.872ZM130.631 108.512C131.101 108.512 131.511 108.411 131.863 108.208C132.226 108.005 132.503 107.723 132.695 107.36C132.887 106.987 132.983 106.555 132.983 106.064C132.983 105.573 132.882 105.147 132.679 104.784C132.487 104.411 132.215 104.123 131.863 103.92C131.511 103.707 131.095 103.6 130.615 103.6C130.135 103.6 129.714 103.707 129.351 103.92C128.989 104.123 128.701 104.411 128.487 104.784C128.285 105.147 128.183 105.568 128.183 106.048C128.183 106.528 128.285 106.955 128.487 107.328C128.701 107.701 128.989 107.995 129.351 108.208C129.725 108.411 130.151 108.512 130.631 108.512ZM139.977 110.16C139.22 110.16 138.537 109.989 137.929 109.648C137.321 109.296 136.841 108.821 136.489 108.224C136.137 107.627 135.961 106.949 135.961 106.192C135.961 105.445 136.132 104.773 136.473 104.176C136.825 103.579 137.294 103.109 137.881 102.768C138.478 102.416 139.145 102.24 139.881 102.24C140.585 102.24 141.204 102.4 141.737 102.72C142.281 103.04 142.702 103.483 143.001 104.048C143.31 104.613 143.465 105.253 143.465 105.968C143.465 106.075 143.46 106.192 143.449 106.32C143.438 106.437 143.417 106.576 143.385 106.736H136.969V105.536H142.617L142.089 106C142.089 105.488 141.998 105.056 141.817 104.704C141.636 104.341 141.38 104.064 141.049 103.872C140.718 103.669 140.318 103.568 139.849 103.568C139.358 103.568 138.926 103.675 138.553 103.888C138.18 104.101 137.892 104.4 137.689 104.784C137.486 105.168 137.385 105.621 137.385 106.144C137.385 106.677 137.492 107.147 137.705 107.552C137.918 107.947 138.222 108.256 138.617 108.48C139.012 108.693 139.465 108.8 139.977 108.8C140.404 108.8 140.793 108.725 141.145 108.576C141.508 108.427 141.817 108.203 142.073 107.904L143.001 108.848C142.638 109.275 142.19 109.6 141.657 109.824C141.134 110.048 140.574 110.16 139.977 110.16ZM147.451 110.16C147.025 110.16 146.619 110.107 146.235 110C145.862 109.883 145.515 109.723 145.195 109.52C144.875 109.307 144.598 109.056 144.363 108.768L145.291 107.84C145.569 108.181 145.889 108.437 146.251 108.608C146.614 108.768 147.019 108.848 147.467 108.848C147.915 108.848 148.262 108.773 148.507 108.624C148.753 108.464 148.875 108.245 148.875 107.968C148.875 107.691 148.774 107.477 148.571 107.328C148.379 107.168 148.129 107.04 147.819 106.944C147.51 106.837 147.179 106.736 146.827 106.64C146.486 106.533 146.161 106.4 145.851 106.24C145.542 106.08 145.286 105.861 145.083 105.584C144.891 105.307 144.795 104.939 144.795 104.48C144.795 104.021 144.907 103.627 145.131 103.296C145.355 102.955 145.665 102.693 146.059 102.512C146.465 102.331 146.95 102.24 147.515 102.24C148.113 102.24 148.641 102.347 149.099 102.56C149.569 102.763 149.953 103.072 150.251 103.488L149.323 104.416C149.11 104.139 148.843 103.925 148.523 103.776C148.214 103.627 147.862 103.552 147.467 103.552C147.051 103.552 146.731 103.627 146.507 103.776C146.294 103.915 146.187 104.112 146.187 104.368C146.187 104.624 146.283 104.821 146.475 104.96C146.667 105.099 146.918 105.216 147.227 105.312C147.547 105.408 147.878 105.509 148.219 105.616C148.561 105.712 148.886 105.845 149.195 106.016C149.505 106.187 149.755 106.416 149.947 106.704C150.15 106.992 150.251 107.371 150.251 107.84C150.251 108.555 149.995 109.12 149.483 109.536C148.982 109.952 148.305 110.16 147.451 110.16Z" fill="#676D73"/>
<path d="M14.2287 158V146.896H15.2847L15.7327 148.64V158H14.2287ZM21.9087 158L15.0927 148.896L15.2847 146.896L22.1167 155.984L21.9087 158ZM21.9087 158L21.4607 156.352V146.896H22.9647V158H21.9087ZM28.8521 158.16C28.0948 158.16 27.4121 157.989 26.8041 157.648C26.1961 157.296 25.7161 156.821 25.3641 156.224C25.0121 155.627 24.8361 154.949 24.8361 154.192C24.8361 153.445 25.0068 152.773 25.3481 152.176C25.7001 151.579 26.1695 151.109 26.7561 150.768C27.3535 150.416 28.0201 150.24 28.7561 150.24C29.4601 150.24 30.0788 150.4 30.6121 150.72C31.1561 151.04 31.5775 151.483 31.8761 152.048C32.1855 152.613 32.3401 153.253 32.3401 153.968C32.3401 154.075 32.3348 154.192 32.3241 154.32C32.3135 154.437 32.2921 154.576 32.2601 154.736H25.8441V153.536H31.4921L30.9641 154C30.9641 153.488 30.8735 153.056 30.6921 152.704C30.5108 152.341 30.2548 152.064 29.9241 151.872C29.5935 151.669 29.1935 151.568 28.7241 151.568C28.2335 151.568 27.8015 151.675 27.4281 151.888C27.0548 152.101 26.7668 152.4 26.5641 152.784C26.3615 153.168 26.2601 153.621 26.2601 154.144C26.2601 154.677 26.3668 155.147 26.5801 155.552C26.7935 155.947 27.0975 156.256 27.4921 156.48C27.8868 156.693 28.3401 156.8 28.8521 156.8C29.2788 156.8 29.6681 156.725 30.0201 156.576C30.3828 156.427 30.6921 156.203 30.9481 155.904L31.8761 156.848C31.5135 157.275 31.0655 157.6 30.5321 157.824C30.0095 158.048 29.4495 158.16 28.8521 158.16ZM35.9925 158L32.9845 150.4H34.4885L36.6645 156.32H36.1845L38.3445 150.4H39.1765L41.3365 156.32H40.8565L43.0325 150.4H44.5365L41.5445 158H40.6965L38.5045 152.256H39.0325L36.8245 158H35.9925ZM56.6806 158L51.3686 152.304C50.9526 151.856 50.6433 151.429 50.4406 151.024C50.238 150.619 50.1366 150.171 50.1366 149.68C50.1366 149.115 50.27 148.613 50.5366 148.176C50.8033 147.728 51.1713 147.376 51.6406 147.12C52.11 146.853 52.6486 146.72 53.2566 146.72C53.7046 146.72 54.11 146.795 54.4726 146.944C54.846 147.083 55.1713 147.269 55.4486 147.504C55.7366 147.739 55.9766 148.005 56.1686 148.304L55.1286 149.248C54.8833 148.907 54.6113 148.635 54.3126 148.432C54.0246 148.219 53.6726 148.112 53.2566 148.112C52.7766 148.112 52.3766 148.256 52.0566 148.544C51.7366 148.832 51.5766 149.205 51.5766 149.664C51.5766 150.048 51.6566 150.373 51.8166 150.64C51.9766 150.907 52.2166 151.216 52.5366 151.568L58.4406 158H56.6806ZM52.6966 158.16C51.9606 158.16 51.3153 158.016 50.7606 157.728C50.206 157.44 49.774 157.045 49.4646 156.544C49.166 156.032 49.0166 155.451 49.0166 154.8C49.0166 154.128 49.198 153.52 49.5606 152.976C49.9233 152.432 50.4513 152 51.1446 151.68L51.8326 152.576C51.406 152.789 51.07 153.083 50.8246 153.456C50.5793 153.819 50.4566 154.256 50.4566 154.768C50.4566 155.184 50.5526 155.541 50.7446 155.84C50.9366 156.139 51.2033 156.373 51.5446 156.544C51.8966 156.704 52.2966 156.784 52.7446 156.784C53.31 156.784 53.79 156.667 54.1846 156.432C54.5793 156.197 54.878 155.899 55.0806 155.536L56.0246 156.64C55.8113 156.928 55.5286 157.189 55.1766 157.424C54.8353 157.648 54.4513 157.829 54.0246 157.968C53.6086 158.096 53.166 158.16 52.6966 158.16ZM66.8262 158.16C66.0049 158.16 65.2689 157.979 64.6182 157.616C63.9782 157.243 63.4716 156.736 63.0982 156.096C62.7249 155.445 62.5382 154.709 62.5382 153.888V146.896H64.0422V153.856C64.0422 154.443 64.1649 154.949 64.4102 155.376C64.6556 155.803 64.9862 156.133 65.4022 156.368C65.8289 156.603 66.3036 156.72 66.8262 156.72C67.3702 156.72 67.8449 156.603 68.2502 156.368C68.6662 156.133 68.9916 155.803 69.2262 155.376C69.4716 154.949 69.5942 154.448 69.5942 153.872V146.896H71.1142V153.904C71.1142 154.725 70.9276 155.456 70.5542 156.096C70.1809 156.736 69.6742 157.243 69.0342 157.616C68.3942 157.979 67.6582 158.16 66.8262 158.16ZM77.3321 158.16C76.7561 158.16 76.2335 158.043 75.7641 157.808C75.3055 157.563 74.9375 157.227 74.6601 156.8C74.3828 156.373 74.2281 155.888 74.1961 155.344V153.056C74.2281 152.501 74.3828 152.016 74.6601 151.6C74.9481 151.173 75.3215 150.843 75.7801 150.608C76.2495 150.363 76.7668 150.24 77.3321 150.24C78.0255 150.24 78.6495 150.416 79.2041 150.768C79.7695 151.12 80.2121 151.595 80.5321 152.192C80.8521 152.789 81.0121 153.461 81.0121 154.208C81.0121 154.955 80.8521 155.627 80.5321 156.224C80.2121 156.821 79.7695 157.296 79.2041 157.648C78.6495 157.989 78.0255 158.16 77.3321 158.16ZM77.0921 156.8C77.5721 156.8 77.9935 156.688 78.3561 156.464C78.7188 156.24 79.0068 155.936 79.2201 155.552C79.4335 155.157 79.5401 154.704 79.5401 154.192C79.5401 153.691 79.4335 153.243 79.2201 152.848C79.0068 152.453 78.7188 152.149 78.3561 151.936C77.9935 151.712 77.5775 151.6 77.1081 151.6C76.6281 151.6 76.2068 151.712 75.8441 151.936C75.4815 152.149 75.1988 152.453 74.9961 152.848C74.7935 153.243 74.6921 153.696 74.6921 154.208C74.6921 154.709 74.7881 155.157 74.9801 155.552C75.1828 155.936 75.4655 156.24 75.8281 156.464C76.2015 156.688 76.6228 156.8 77.0921 156.8ZM73.3321 161.184V150.4H74.7721V152.4L74.5001 154.24L74.7721 156.096V161.184H73.3321ZM85.8606 158.16C85.1566 158.16 84.5273 157.989 83.9726 157.648C83.418 157.296 82.9753 156.821 82.6446 156.224C82.3246 155.627 82.1646 154.955 82.1646 154.208C82.1646 153.461 82.3246 152.789 82.6446 152.192C82.9753 151.595 83.418 151.12 83.9726 150.768C84.5273 150.416 85.1566 150.24 85.8606 150.24C86.426 150.24 86.938 150.363 87.3966 150.608C87.8553 150.843 88.2233 151.173 88.5006 151.6C88.7886 152.016 88.9486 152.501 88.9806 153.056V155.344C88.9486 155.888 88.794 156.373 88.5166 156.8C88.2393 157.227 87.8713 157.563 87.4126 157.808C86.954 158.043 86.4366 158.16 85.8606 158.16ZM86.1006 156.8C86.5806 156.8 86.9966 156.688 87.3486 156.464C87.7113 156.24 87.994 155.936 88.1966 155.552C88.3993 155.157 88.5006 154.709 88.5006 154.208C88.5006 153.685 88.394 153.232 88.1806 152.848C87.978 152.464 87.6953 152.16 87.3326 151.936C86.9806 151.712 86.5646 151.6 86.0846 151.6C85.6046 151.6 85.1833 151.712 84.8206 151.936C84.458 152.16 84.17 152.469 83.9566 152.864C83.754 153.248 83.6526 153.691 83.6526 154.192C83.6526 154.704 83.754 155.157 83.9566 155.552C84.17 155.936 84.458 156.24 84.8206 156.464C85.194 156.688 85.6206 156.8 86.1006 156.8ZM89.8606 158H88.4046V155.952L88.6766 154.096L88.4046 152.256V146.576H89.8606V158ZM95.1891 158.16C94.4958 158.16 93.8665 157.989 93.3011 157.648C92.7358 157.296 92.2878 156.821 91.9571 156.224C91.6371 155.627 91.4771 154.955 91.4771 154.208C91.4771 153.461 91.6371 152.789 91.9571 152.192C92.2878 151.595 92.7305 151.12 93.2851 150.768C93.8505 150.416 94.4851 150.24 95.1891 150.24C95.7651 150.24 96.2771 150.363 96.7251 150.608C97.1838 150.843 97.5518 151.173 97.8291 151.6C98.1065 152.016 98.2611 152.501 98.2931 153.056V155.344C98.2611 155.888 98.1065 156.373 97.8291 156.8C97.5625 157.227 97.1998 157.563 96.7411 157.808C96.2931 158.043 95.7758 158.16 95.1891 158.16ZM95.4291 156.8C96.1438 156.8 96.7198 156.56 97.1571 156.08C97.5945 155.589 97.8131 154.965 97.8131 154.208C97.8131 153.685 97.7118 153.232 97.5091 152.848C97.3171 152.453 97.0398 152.149 96.6771 151.936C96.3145 151.712 95.8931 151.6 95.4131 151.6C94.9331 151.6 94.5065 151.712 94.1331 151.936C93.7705 152.16 93.4825 152.469 93.2691 152.864C93.0665 153.248 92.9651 153.691 92.9651 154.192C92.9651 154.704 93.0665 155.157 93.2691 155.552C93.4825 155.936 93.7758 156.24 94.1491 156.464C94.5225 156.688 94.9491 156.8 95.4291 156.8ZM97.7171 158V155.952L97.9891 154.096L97.7171 152.256V150.4H99.1731V158H97.7171ZM102.406 158V147.216H103.846V158H102.406ZM100.534 151.712V150.4H105.718V151.712H100.534ZM110.415 158.16C109.657 158.16 108.975 157.989 108.367 157.648C107.759 157.296 107.279 156.821 106.927 156.224C106.575 155.627 106.399 154.949 106.399 154.192C106.399 153.445 106.569 152.773 106.911 152.176C107.263 151.579 107.732 151.109 108.319 150.768C108.916 150.416 109.583 150.24 110.319 150.24C111.023 150.24 111.641 150.4 112.175 150.72C112.719 151.04 113.14 151.483 113.439 152.048C113.748 152.613 113.903 153.253 113.903 153.968C113.903 154.075 113.897 154.192 113.887 154.32C113.876 154.437 113.855 154.576 113.823 154.736H107.407V153.536H113.055L112.527 154C112.527 153.488 112.436 153.056 112.255 152.704C112.073 152.341 111.817 152.064 111.487 151.872C111.156 151.669 110.756 151.568 110.287 151.568C109.796 151.568 109.364 151.675 108.991 151.888C108.617 152.101 108.329 152.4 108.127 152.784C107.924 153.168 107.823 153.621 107.823 154.144C107.823 154.677 107.929 155.147 108.143 155.552C108.356 155.947 108.66 156.256 109.055 156.48C109.449 156.693 109.903 156.8 110.415 156.8C110.841 156.8 111.231 156.725 111.583 156.576C111.945 156.427 112.255 156.203 112.511 155.904L113.439 156.848C113.076 157.275 112.628 157.6 112.095 157.824C111.572 158.048 111.012 158.16 110.415 158.16ZM118.689 158.16C117.985 158.16 117.355 157.989 116.801 157.648C116.246 157.296 115.803 156.821 115.473 156.224C115.153 155.627 114.993 154.955 114.993 154.208C114.993 153.461 115.153 152.789 115.473 152.192C115.803 151.595 116.246 151.12 116.801 150.768C117.355 150.416 117.985 150.24 118.689 150.24C119.254 150.24 119.766 150.363 120.225 150.608C120.683 150.843 121.051 151.173 121.329 151.6C121.617 152.016 121.777 152.501 121.809 153.056V155.344C121.777 155.888 121.622 156.373 121.345 156.8C121.067 157.227 120.699 157.563 120.241 157.808C119.782 158.043 119.265 158.16 118.689 158.16ZM118.929 156.8C119.409 156.8 119.825 156.688 120.177 156.464C120.539 156.24 120.822 155.936 121.025 155.552C121.227 155.157 121.329 154.709 121.329 154.208C121.329 153.685 121.222 153.232 121.009 152.848C120.806 152.464 120.523 152.16 120.161 151.936C119.809 151.712 119.393 151.6 118.913 151.6C118.433 151.6 118.011 151.712 117.649 151.936C117.286 152.16 116.998 152.469 116.785 152.864C116.582 153.248 116.481 153.691 116.481 154.192C116.481 154.704 116.582 155.157 116.785 155.552C116.998 155.936 117.286 156.24 117.649 156.464C118.022 156.688 118.449 156.8 118.929 156.8ZM122.689 158H121.233V155.952L121.505 154.096L121.233 152.256V146.576H122.689V158ZM133.409 158.16C132.609 158.16 131.868 158.016 131.185 157.728C130.503 157.429 129.905 157.019 129.393 156.496C128.892 155.973 128.503 155.365 128.225 154.672C127.948 153.979 127.809 153.237 127.809 152.448C127.809 151.648 127.948 150.901 128.225 150.208C128.503 149.515 128.892 148.912 129.393 148.4C129.905 147.877 130.497 147.472 131.169 147.184C131.852 146.885 132.593 146.736 133.393 146.736C134.268 146.736 135.036 146.885 135.697 147.184C136.359 147.483 136.945 147.888 137.457 148.4L136.417 149.44C136.065 149.045 135.633 148.736 135.121 148.512C134.62 148.288 134.044 148.176 133.393 148.176C132.807 148.176 132.268 148.283 131.777 148.496C131.287 148.699 130.86 148.992 130.497 149.376C130.135 149.76 129.852 150.213 129.649 150.736C129.457 151.259 129.361 151.829 129.361 152.448C129.361 153.067 129.457 153.637 129.649 154.16C129.852 154.683 130.135 155.136 130.497 155.52C130.86 155.904 131.287 156.203 131.777 156.416C132.268 156.619 132.807 156.72 133.393 156.72C134.087 156.72 134.689 156.608 135.201 156.384C135.713 156.149 136.145 155.835 136.497 155.44L137.537 156.464C137.025 156.997 136.423 157.413 135.729 157.712C135.047 158.011 134.273 158.16 133.409 158.16ZM142.335 158.16C141.589 158.16 140.917 157.984 140.319 157.632C139.722 157.28 139.247 156.805 138.895 156.208C138.543 155.6 138.367 154.923 138.367 154.176C138.367 153.44 138.543 152.779 138.895 152.192C139.247 151.595 139.722 151.12 140.319 150.768C140.917 150.416 141.589 150.24 142.335 150.24C143.071 150.24 143.738 150.416 144.335 150.768C144.943 151.109 145.423 151.579 145.775 152.176C146.127 152.773 146.303 153.44 146.303 154.176C146.303 154.923 146.127 155.6 145.775 156.208C145.423 156.805 144.943 157.28 144.335 157.632C143.738 157.984 143.071 158.16 142.335 158.16ZM142.335 156.768C142.815 156.768 143.242 156.656 143.615 156.432C143.989 156.208 144.282 155.904 144.495 155.52C144.709 155.125 144.815 154.677 144.815 154.176C144.815 153.685 144.703 153.248 144.479 152.864C144.266 152.48 143.973 152.181 143.599 151.968C143.237 151.744 142.815 151.632 142.335 151.632C141.855 151.632 141.429 151.744 141.055 151.968C140.682 152.181 140.389 152.48 140.175 152.864C139.962 153.248 139.855 153.685 139.855 154.176C139.855 154.677 139.962 155.125 140.175 155.52C140.389 155.904 140.682 156.208 141.055 156.432C141.429 156.656 141.855 156.768 142.335 156.768ZM153.302 158V153.568C153.302 152.992 153.121 152.517 152.758 152.144C152.395 151.771 151.926 151.584 151.35 151.584C150.966 151.584 150.625 151.669 150.326 151.84C150.027 152.011 149.793 152.245 149.622 152.544C149.451 152.843 149.366 153.184 149.366 153.568L148.774 153.232C148.774 152.656 148.902 152.144 149.158 151.696C149.414 151.248 149.771 150.896 150.23 150.64C150.689 150.373 151.206 150.24 151.782 150.24C152.358 150.24 152.865 150.384 153.302 150.672C153.75 150.96 154.102 151.339 154.358 151.808C154.614 152.267 154.742 152.757 154.742 153.28V158H153.302ZM147.926 158V150.4H149.366V158H147.926ZM157.766 158V147.216H159.206V158H157.766ZM155.894 151.712V150.4H161.078V151.712H155.894ZM165.486 158.16C164.793 158.16 164.163 157.989 163.598 157.648C163.033 157.296 162.585 156.821 162.254 156.224C161.934 155.627 161.774 154.955 161.774 154.208C161.774 153.461 161.934 152.789 162.254 152.192C162.585 151.595 163.027 151.12 163.582 150.768C164.147 150.416 164.782 150.24 165.486 150.24C166.062 150.24 166.574 150.363 167.022 150.608C167.481 150.843 167.849 151.173 168.126 151.6C168.403 152.016 168.558 152.501 168.59 153.056V155.344C168.558 155.888 168.403 156.373 168.126 156.8C167.859 157.227 167.497 157.563 167.038 157.808C166.59 158.043 166.073 158.16 165.486 158.16ZM165.726 156.8C166.441 156.8 167.017 156.56 167.454 156.08C167.891 155.589 168.11 154.965 168.11 154.208C168.11 153.685 168.009 153.232 167.806 152.848C167.614 152.453 167.337 152.149 166.974 151.936C166.611 151.712 166.19 151.6 165.71 151.6C165.23 151.6 164.803 151.712 164.43 151.936C164.067 152.16 163.779 152.469 163.566 152.864C163.363 153.248 163.262 153.691 163.262 154.192C163.262 154.704 163.363 155.157 163.566 155.552C163.779 155.936 164.073 156.24 164.446 156.464C164.819 156.688 165.246 156.8 165.726 156.8ZM168.014 158V155.952L168.286 154.096L168.014 152.256V150.4H169.47V158H168.014ZM175.038 158.16C174.292 158.16 173.614 157.984 173.006 157.632C172.409 157.28 171.934 156.805 171.582 156.208C171.241 155.6 171.07 154.928 171.07 154.192C171.07 153.445 171.241 152.773 171.582 152.176C171.934 151.579 172.409 151.109 173.006 150.768C173.614 150.416 174.292 150.24 175.038 150.24C175.625 150.24 176.169 150.352 176.67 150.576C177.172 150.789 177.604 151.104 177.966 151.52L177.006 152.48C176.772 152.203 176.484 151.995 176.142 151.856C175.812 151.707 175.444 151.632 175.038 151.632C174.558 151.632 174.132 151.744 173.758 151.968C173.385 152.181 173.092 152.48 172.878 152.864C172.665 153.248 172.558 153.691 172.558 154.192C172.558 154.693 172.665 155.136 172.878 155.52C173.092 155.904 173.385 156.208 173.758 156.432C174.132 156.656 174.558 156.768 175.038 156.768C175.444 156.768 175.812 156.699 176.142 156.56C176.484 156.411 176.777 156.197 177.022 155.92L177.966 156.88C177.614 157.285 177.182 157.6 176.67 157.824C176.169 158.048 175.625 158.16 175.038 158.16ZM180.469 158V147.216H181.909V158H180.469ZM178.597 151.712V150.4H183.781V151.712H178.597Z" fill="#676D73"/>
<path d="M17.3167 206.16C16.4421 206.16 15.6954 206 15.0767 205.68C14.4581 205.36 13.9087 204.896 13.4287 204.288L14.4527 203.264C14.8047 203.755 15.2101 204.128 15.6687 204.384C16.1274 204.629 16.6927 204.752 17.3647 204.752C18.0261 204.752 18.5541 204.608 18.9487 204.32C19.3541 204.032 19.5567 203.637 19.5567 203.136C19.5567 202.72 19.4607 202.384 19.2687 202.128C19.0767 201.872 18.8154 201.664 18.4847 201.504C18.1647 201.333 17.8127 201.184 17.4287 201.056C17.0447 200.917 16.6607 200.773 16.2767 200.624C15.8927 200.464 15.5407 200.272 15.2207 200.048C14.9007 199.813 14.6394 199.509 14.4367 199.136C14.2447 198.763 14.1487 198.293 14.1487 197.728C14.1487 197.099 14.2981 196.565 14.5967 196.128C14.9061 195.68 15.3221 195.339 15.8447 195.104C16.3781 194.859 16.9754 194.736 17.6367 194.736C18.3621 194.736 19.0127 194.88 19.5887 195.168C20.1647 195.445 20.6341 195.813 20.9967 196.272L19.9727 197.296C19.6421 196.912 19.2847 196.624 18.9007 196.432C18.5274 196.24 18.0954 196.144 17.6047 196.144C17.0074 196.144 16.5327 196.277 16.1807 196.544C15.8287 196.8 15.6527 197.163 15.6527 197.632C15.6527 198.005 15.7487 198.309 15.9407 198.544C16.1434 198.768 16.4047 198.96 16.7247 199.12C17.0447 199.28 17.3967 199.429 17.7807 199.568C18.1754 199.696 18.5647 199.84 18.9487 200C19.3327 200.16 19.6847 200.363 20.0047 200.608C20.3247 200.853 20.5807 201.173 20.7727 201.568C20.9754 201.952 21.0767 202.437 21.0767 203.024C21.0767 204.005 20.7354 204.773 20.0527 205.328C19.3807 205.883 18.4687 206.16 17.3167 206.16ZM26.2104 206.16C25.4637 206.16 24.7864 205.984 24.1784 205.632C23.581 205.28 23.1064 204.805 22.7544 204.208C22.413 203.6 22.2424 202.928 22.2424 202.192C22.2424 201.445 22.413 200.773 22.7544 200.176C23.1064 199.579 23.581 199.109 24.1784 198.768C24.7864 198.416 25.4637 198.24 26.2104 198.24C26.797 198.24 27.341 198.352 27.8424 198.576C28.3437 198.789 28.7757 199.104 29.1384 199.52L28.1784 200.48C27.9437 200.203 27.6557 199.995 27.3144 199.856C26.9837 199.707 26.6157 199.632 26.2104 199.632C25.7304 199.632 25.3037 199.744 24.9304 199.968C24.557 200.181 24.2637 200.48 24.0504 200.864C23.837 201.248 23.7304 201.691 23.7304 202.192C23.7304 202.693 23.837 203.136 24.0504 203.52C24.2637 203.904 24.557 204.208 24.9304 204.432C25.3037 204.656 25.7304 204.768 26.2104 204.768C26.6157 204.768 26.9837 204.699 27.3144 204.56C27.6557 204.411 27.949 204.197 28.1944 203.92L29.1384 204.88C28.7864 205.285 28.3544 205.6 27.8424 205.824C27.341 206.048 26.797 206.16 26.2104 206.16ZM35.9425 206V201.568C35.9425 200.992 35.7612 200.517 35.3985 200.144C35.0358 199.771 34.5665 199.584 33.9905 199.584C33.6065 199.584 33.2652 199.669 32.9665 199.84C32.6678 200.011 32.4332 200.245 32.2625 200.544C32.0918 200.843 32.0065 201.184 32.0065 201.568L31.4145 201.232C31.4145 200.656 31.5425 200.144 31.7985 199.696C32.0545 199.248 32.4118 198.896 32.8705 198.64C33.3292 198.373 33.8465 198.24 34.4225 198.24C34.9985 198.24 35.5052 198.368 35.9425 198.624C36.3905 198.88 36.7425 199.237 36.9985 199.696C37.2545 200.155 37.3825 200.683 37.3825 201.28V206H35.9425ZM30.5665 206V194.576H32.0065V206H30.5665ZM42.8521 206.16C42.0948 206.16 41.4121 205.989 40.8041 205.648C40.1961 205.296 39.7161 204.821 39.3641 204.224C39.0121 203.627 38.8361 202.949 38.8361 202.192C38.8361 201.445 39.0068 200.773 39.3481 200.176C39.7001 199.579 40.1695 199.109 40.7561 198.768C41.3535 198.416 42.0201 198.24 42.7561 198.24C43.4601 198.24 44.0788 198.4 44.6121 198.72C45.1561 199.04 45.5775 199.483 45.8761 200.048C46.1855 200.613 46.3401 201.253 46.3401 201.968C46.3401 202.075 46.3348 202.192 46.3241 202.32C46.3135 202.437 46.2921 202.576 46.2601 202.736H39.8441V201.536H45.4921L44.9641 202C44.9641 201.488 44.8735 201.056 44.6921 200.704C44.5108 200.341 44.2548 200.064 43.9241 199.872C43.5935 199.669 43.1935 199.568 42.7241 199.568C42.2335 199.568 41.8015 199.675 41.4281 199.888C41.0548 200.101 40.7668 200.4 40.5641 200.784C40.3615 201.168 40.2601 201.621 40.2601 202.144C40.2601 202.677 40.3668 203.147 40.5801 203.552C40.7935 203.947 41.0975 204.256 41.4921 204.48C41.8868 204.693 42.3401 204.8 42.8521 204.8C43.2788 204.8 43.6681 204.725 44.0201 204.576C44.3828 204.427 44.6921 204.203 44.9481 203.904L45.8761 204.848C45.5135 205.275 45.0655 205.6 44.5321 205.824C44.0095 206.048 43.4495 206.16 42.8521 206.16ZM51.1262 206.16C50.4222 206.16 49.7929 205.989 49.2382 205.648C48.6836 205.296 48.2409 204.821 47.9102 204.224C47.5902 203.627 47.4302 202.955 47.4302 202.208C47.4302 201.461 47.5902 200.789 47.9102 200.192C48.2409 199.595 48.6836 199.12 49.2382 198.768C49.7929 198.416 50.4222 198.24 51.1262 198.24C51.6916 198.24 52.2036 198.363 52.6622 198.608C53.1209 198.843 53.4889 199.173 53.7662 199.6C54.0542 200.016 54.2142 200.501 54.2462 201.056V203.344C54.2142 203.888 54.0596 204.373 53.7822 204.8C53.5049 205.227 53.1369 205.563 52.6782 205.808C52.2196 206.043 51.7022 206.16 51.1262 206.16ZM51.3662 204.8C51.8462 204.8 52.2622 204.688 52.6142 204.464C52.9769 204.24 53.2596 203.936 53.4622 203.552C53.6649 203.157 53.7662 202.709 53.7662 202.208C53.7662 201.685 53.6596 201.232 53.4462 200.848C53.2436 200.464 52.9609 200.16 52.5982 199.936C52.2462 199.712 51.8302 199.6 51.3502 199.6C50.8702 199.6 50.4489 199.712 50.0862 199.936C49.7236 200.16 49.4356 200.469 49.2222 200.864C49.0196 201.248 48.9182 201.691 48.9182 202.192C48.9182 202.704 49.0196 203.157 49.2222 203.552C49.4356 203.936 49.7236 204.24 50.0862 204.464C50.4596 204.688 50.8862 204.8 51.3662 204.8ZM55.1262 206H53.6702V203.952L53.9422 202.096L53.6702 200.256V194.576H55.1262V206ZM60.2787 206.16C59.6601 206.16 59.1001 206.021 58.5987 205.744C58.1081 205.456 57.7241 205.061 57.4467 204.56C57.1694 204.059 57.0307 203.477 57.0307 202.816V198.4H58.4707V202.752C58.4707 203.168 58.5401 203.531 58.6787 203.84C58.8281 204.139 59.0414 204.368 59.3187 204.528C59.5961 204.688 59.9214 204.768 60.2947 204.768C60.8601 204.768 61.3027 204.592 61.6227 204.24C61.9427 203.877 62.1027 203.381 62.1027 202.752V198.4H63.5427V202.816C63.5427 203.477 63.4041 204.059 63.1267 204.56C62.8494 205.061 62.4654 205.456 61.9747 205.744C61.4947 206.021 60.9294 206.16 60.2787 206.16ZM65.4727 206V194.576H66.9127V206H65.4727ZM72.5396 206.16C71.7823 206.16 71.0996 205.989 70.4916 205.648C69.8836 205.296 69.4036 204.821 69.0516 204.224C68.6996 203.627 68.5236 202.949 68.5236 202.192C68.5236 201.445 68.6943 200.773 69.0356 200.176C69.3876 199.579 69.857 199.109 70.4436 198.768C71.041 198.416 71.7076 198.24 72.4436 198.24C73.1476 198.24 73.7663 198.4 74.2996 198.72C74.8436 199.04 75.265 199.483 75.5636 200.048C75.873 200.613 76.0276 201.253 76.0276 201.968C76.0276 202.075 76.0223 202.192 76.0116 202.32C76.001 202.437 75.9796 202.576 75.9476 202.736H69.5316V201.536H75.1796L74.6516 202C74.6516 201.488 74.561 201.056 74.3796 200.704C74.1983 200.341 73.9423 200.064 73.6116 199.872C73.281 199.669 72.881 199.568 72.4116 199.568C71.921 199.568 71.489 199.675 71.1156 199.888C70.7423 200.101 70.4543 200.4 70.2516 200.784C70.049 201.168 69.9476 201.621 69.9476 202.144C69.9476 202.677 70.0543 203.147 70.2676 203.552C70.481 203.947 70.785 204.256 71.1796 204.48C71.5743 204.693 72.0276 204.8 72.5396 204.8C72.9663 204.8 73.3556 204.725 73.7076 204.576C74.0703 204.427 74.3796 204.203 74.6356 203.904L75.5636 204.848C75.201 205.275 74.753 205.6 74.2196 205.824C73.697 206.048 73.137 206.16 72.5396 206.16ZM81.1819 206V194.896H82.2379L86.9419 202.624H86.2219L90.9259 194.896H91.9819V206H90.4779V197.536L90.8299 197.632L87.1179 203.728H86.0619L82.3499 197.632L82.6859 197.536V206H81.1819ZM97.8677 206.16C97.1104 206.16 96.4277 205.989 95.8197 205.648C95.2117 205.296 94.7317 204.821 94.3797 204.224C94.0277 203.627 93.8517 202.949 93.8517 202.192C93.8517 201.445 94.0224 200.773 94.3637 200.176C94.7157 199.579 95.1851 199.109 95.7717 198.768C96.3691 198.416 97.0357 198.24 97.7717 198.24C98.4757 198.24 99.0944 198.4 99.6277 198.72C100.172 199.04 100.593 199.483 100.892 200.048C101.201 200.613 101.356 201.253 101.356 201.968C101.356 202.075 101.35 202.192 101.34 202.32C101.329 202.437 101.308 202.576 101.276 202.736H94.8597V201.536H100.508L99.9797 202C99.9797 201.488 99.8891 201.056 99.7077 200.704C99.5264 200.341 99.2704 200.064 98.9397 199.872C98.6091 199.669 98.2091 199.568 97.7397 199.568C97.2491 199.568 96.8171 199.675 96.4437 199.888C96.0704 200.101 95.7824 200.4 95.5797 200.784C95.3771 201.168 95.2757 201.621 95.2757 202.144C95.2757 202.677 95.3824 203.147 95.5957 203.552C95.8091 203.947 96.1131 204.256 96.5077 204.48C96.9024 204.693 97.3557 204.8 97.8677 204.8C98.2944 204.8 98.6837 204.725 99.0357 204.576C99.3984 204.427 99.7077 204.203 99.9637 203.904L100.892 204.848C100.529 205.275 100.081 205.6 99.5477 205.824C99.0251 206.048 98.4651 206.16 97.8677 206.16ZM105.342 206.16C104.915 206.16 104.51 206.107 104.126 206C103.753 205.883 103.406 205.723 103.086 205.52C102.766 205.307 102.489 205.056 102.254 204.768L103.182 203.84C103.459 204.181 103.779 204.437 104.142 204.608C104.505 204.768 104.91 204.848 105.358 204.848C105.806 204.848 106.153 204.773 106.398 204.624C106.643 204.464 106.766 204.245 106.766 203.968C106.766 203.691 106.665 203.477 106.462 203.328C106.27 203.168 106.019 203.04 105.71 202.944C105.401 202.837 105.07 202.736 104.718 202.64C104.377 202.533 104.051 202.4 103.742 202.24C103.433 202.08 103.177 201.861 102.974 201.584C102.782 201.307 102.686 200.939 102.686 200.48C102.686 200.021 102.798 199.627 103.022 199.296C103.246 198.955 103.555 198.693 103.95 198.512C104.355 198.331 104.841 198.24 105.406 198.24C106.003 198.24 106.531 198.347 106.99 198.56C107.459 198.763 107.843 199.072 108.142 199.488L107.214 200.416C107.001 200.139 106.734 199.925 106.414 199.776C106.105 199.627 105.753 199.552 105.358 199.552C104.942 199.552 104.622 199.627 104.398 199.776C104.185 199.915 104.078 200.112 104.078 200.368C104.078 200.624 104.174 200.821 104.366 200.96C104.558 201.099 104.809 201.216 105.118 201.312C105.438 201.408 105.769 201.509 106.11 201.616C106.451 201.712 106.777 201.845 107.086 202.016C107.395 202.187 107.646 202.416 107.838 202.704C108.041 202.992 108.142 203.371 108.142 203.84C108.142 204.555 107.886 205.12 107.374 205.536C106.873 205.952 106.195 206.16 105.342 206.16ZM112.17 206.16C111.743 206.16 111.338 206.107 110.954 206C110.581 205.883 110.234 205.723 109.914 205.52C109.594 205.307 109.317 205.056 109.082 204.768L110.01 203.84C110.287 204.181 110.607 204.437 110.97 204.608C111.333 204.768 111.738 204.848 112.186 204.848C112.634 204.848 112.981 204.773 113.226 204.624C113.471 204.464 113.594 204.245 113.594 203.968C113.594 203.691 113.493 203.477 113.29 203.328C113.098 203.168 112.847 203.04 112.538 202.944C112.229 202.837 111.898 202.736 111.546 202.64C111.205 202.533 110.879 202.4 110.57 202.24C110.261 202.08 110.005 201.861 109.802 201.584C109.61 201.307 109.514 200.939 109.514 200.48C109.514 200.021 109.626 199.627 109.85 199.296C110.074 198.955 110.383 198.693 110.778 198.512C111.183 198.331 111.669 198.24 112.234 198.24C112.831 198.24 113.359 198.347 113.818 198.56C114.287 198.763 114.671 199.072 114.97 199.488L114.042 200.416C113.829 200.139 113.562 199.925 113.242 199.776C112.933 199.627 112.581 199.552 112.186 199.552C111.77 199.552 111.45 199.627 111.226 199.776C111.013 199.915 110.906 200.112 110.906 200.368C110.906 200.624 111.002 200.821 111.194 200.96C111.386 201.099 111.637 201.216 111.946 201.312C112.266 201.408 112.597 201.509 112.938 201.616C113.279 201.712 113.605 201.845 113.914 202.016C114.223 202.187 114.474 202.416 114.666 202.704C114.869 202.992 114.97 203.371 114.97 203.84C114.97 204.555 114.714 205.12 114.202 205.536C113.701 205.952 113.023 206.16 112.17 206.16ZM119.814 206.16C119.121 206.16 118.491 205.989 117.926 205.648C117.361 205.296 116.913 204.821 116.582 204.224C116.262 203.627 116.102 202.955 116.102 202.208C116.102 201.461 116.262 200.789 116.582 200.192C116.913 199.595 117.355 199.12 117.91 198.768C118.475 198.416 119.11 198.24 119.814 198.24C120.39 198.24 120.902 198.363 121.35 198.608C121.809 198.843 122.177 199.173 122.454 199.6C122.731 200.016 122.886 200.501 122.918 201.056V203.344C122.886 203.888 122.731 204.373 122.454 204.8C122.187 205.227 121.825 205.563 121.366 205.808C120.918 206.043 120.401 206.16 119.814 206.16ZM120.054 204.8C120.769 204.8 121.345 204.56 121.782 204.08C122.219 203.589 122.438 202.965 122.438 202.208C122.438 201.685 122.337 201.232 122.134 200.848C121.942 200.453 121.665 200.149 121.302 199.936C120.939 199.712 120.518 199.6 120.038 199.6C119.558 199.6 119.131 199.712 118.758 199.936C118.395 200.16 118.107 200.469 117.894 200.864C117.691 201.248 117.59 201.691 117.59 202.192C117.59 202.704 117.691 203.157 117.894 203.552C118.107 203.936 118.401 204.24 118.774 204.464C119.147 204.688 119.574 204.8 120.054 204.8ZM122.342 206V203.952L122.614 202.096L122.342 200.256V198.4H123.798V206H122.342ZM129.047 209.344C128.268 209.344 127.575 209.2 126.967 208.912C126.369 208.624 125.889 208.219 125.527 207.696L126.455 206.752C126.764 207.147 127.132 207.445 127.559 207.648C127.985 207.861 128.492 207.968 129.079 207.968C129.857 207.968 130.471 207.76 130.919 207.344C131.377 206.939 131.607 206.389 131.607 205.696V203.808L131.863 202.096L131.607 200.4V198.4H133.047V205.696C133.047 206.421 132.876 207.056 132.535 207.6C132.204 208.144 131.735 208.571 131.127 208.88C130.529 209.189 129.836 209.344 129.047 209.344ZM129.047 205.872C128.353 205.872 127.729 205.707 127.175 205.376C126.631 205.045 126.199 204.592 125.879 204.016C125.559 203.429 125.399 202.773 125.399 202.048C125.399 201.323 125.559 200.677 125.879 200.112C126.199 199.536 126.631 199.083 127.175 198.752C127.729 198.411 128.353 198.24 129.047 198.24C129.644 198.24 130.172 198.357 130.631 198.592C131.089 198.827 131.452 199.157 131.719 199.584C131.996 200 132.145 200.491 132.167 201.056V203.072C132.135 203.627 131.98 204.117 131.703 204.544C131.436 204.96 131.073 205.285 130.615 205.52C130.156 205.755 129.633 205.872 129.047 205.872ZM129.335 204.512C129.804 204.512 130.215 204.411 130.567 204.208C130.929 204.005 131.207 203.723 131.399 203.36C131.591 202.987 131.687 202.555 131.687 202.064C131.687 201.573 131.585 201.147 131.383 200.784C131.191 200.411 130.919 200.123 130.567 199.92C130.215 199.707 129.799 199.6 129.319 199.6C128.839 199.6 128.417 199.707 128.055 199.92C127.692 200.123 127.404 200.411 127.191 200.784C126.988 201.147 126.887 201.568 126.887 202.048C126.887 202.528 126.988 202.955 127.191 203.328C127.404 203.701 127.692 203.995 128.055 204.208C128.428 204.411 128.855 204.512 129.335 204.512ZM138.68 206.16C137.923 206.16 137.24 205.989 136.632 205.648C136.024 205.296 135.544 204.821 135.192 204.224C134.84 203.627 134.664 202.949 134.664 202.192C134.664 201.445 134.835 200.773 135.176 200.176C135.528 199.579 135.998 199.109 136.584 198.768C137.182 198.416 137.848 198.24 138.584 198.24C139.288 198.24 139.907 198.4 140.44 198.72C140.984 199.04 141.406 199.483 141.704 200.048C142.014 200.613 142.168 201.253 142.168 201.968C142.168 202.075 142.163 202.192 142.152 202.32C142.142 202.437 142.12 202.576 142.088 202.736H135.672V201.536H141.32L140.792 202C140.792 201.488 140.702 201.056 140.52 200.704C140.339 200.341 140.083 200.064 139.752 199.872C139.422 199.669 139.022 199.568 138.552 199.568C138.062 199.568 137.63 199.675 137.256 199.888C136.883 200.101 136.595 200.4 136.392 200.784C136.19 201.168 136.088 201.621 136.088 202.144C136.088 202.677 136.195 203.147 136.408 203.552C136.622 203.947 136.926 204.256 137.32 204.48C137.715 204.693 138.168 204.8 138.68 204.8C139.107 204.8 139.496 204.725 139.848 204.576C140.211 204.427 140.52 204.203 140.776 203.904L141.704 204.848C141.342 205.275 140.894 205.6 140.36 205.824C139.838 206.048 139.278 206.16 138.68 206.16ZM146.154 206.16C145.728 206.16 145.322 206.107 144.938 206C144.565 205.883 144.218 205.723 143.898 205.52C143.578 205.307 143.301 205.056 143.066 204.768L143.994 203.84C144.272 204.181 144.592 204.437 144.954 204.608C145.317 204.768 145.722 204.848 146.17 204.848C146.618 204.848 146.965 204.773 147.21 204.624C147.456 204.464 147.578 204.245 147.578 203.968C147.578 203.691 147.477 203.477 147.274 203.328C147.082 203.168 146.832 203.04 146.522 202.944C146.213 202.837 145.882 202.736 145.53 202.64C145.189 202.533 144.864 202.4 144.554 202.24C144.245 202.08 143.989 201.861 143.786 201.584C143.594 201.307 143.498 200.939 143.498 200.48C143.498 200.021 143.61 199.627 143.834 199.296C144.058 198.955 144.368 198.693 144.762 198.512C145.168 198.331 145.653 198.24 146.218 198.24C146.816 198.24 147.344 198.347 147.802 198.56C148.272 198.763 148.656 199.072 148.954 199.488L148.026 200.416C147.813 200.139 147.546 199.925 147.226 199.776C146.917 199.627 146.565 199.552 146.17 199.552C145.754 199.552 145.434 199.627 145.21 199.776C144.997 199.915 144.89 200.112 144.89 200.368C144.89 200.624 144.986 200.821 145.178 200.96C145.37 201.099 145.621 201.216 145.93 201.312C146.25 201.408 146.581 201.509 146.922 201.616C147.264 201.712 147.589 201.845 147.898 202.016C148.208 202.187 148.458 202.416 148.65 202.704C148.853 202.992 148.954 203.371 148.954 203.84C148.954 204.555 148.698 205.12 148.186 205.536C147.685 205.952 147.008 206.16 146.154 206.16Z" fill="#676D73"/>
</svg>
