<svg width="240" height="43" viewBox="0 0 240 43" fill="none" xmlns="http://www.w3.org/2000/svg">
<g id="Risorsa 58c 2" clip-path="url(#clip0_1293_9165)">
<g id="Livello 1">
<g id="Group">
<path id="Vector" d="M189.261 41.6105C188.469 40.8078 188.072 39.8549 188.072 38.7445C188.072 37.6341 188.469 36.6813 189.261 35.8785C190.054 35.0757 190.994 34.6743 192.091 34.6743C193.187 34.6743 194.128 35.0757 194.92 35.8785C195.713 36.6813 196.109 37.6341 196.109 38.7445C196.109 39.8549 195.713 40.8078 194.92 41.6105C194.128 42.4133 193.187 42.8147 192.091 42.8147C190.994 42.8147 190.054 42.4133 189.261 41.6105Z" fill="white"/>
<path id="Vector_2" d="M4.4109 38.4593C1.4703 35.5558 0 31.947 0 27.633C0 23.3189 1.4703 19.6989 4.4109 16.7766C7.35151 13.8543 10.9884 12.395 15.3252 12.395C18.4547 12.395 21.2546 13.2166 23.7248 14.8596C26.1951 16.5027 28.0135 18.7535 29.1838 21.6196L23.6989 23.5102C22.9434 21.7921 21.8323 20.4379 20.362 19.4438C18.8917 18.4497 17.214 17.9545 15.3289 17.9545C12.729 17.9545 10.5402 18.8811 8.76996 20.7342C6.99597 22.5874 6.11083 24.887 6.11083 27.6367C6.11083 30.3864 6.99597 32.6785 8.76996 34.5129C10.5402 36.3473 12.729 37.2627 15.3289 37.2627C17.214 37.2627 18.8991 36.775 20.3916 35.8034C21.8805 34.828 22.9841 33.4625 23.6989 31.7069L29.1838 33.5976C28.0135 36.4636 26.1951 38.7144 23.7248 40.3575C21.2546 42.0006 18.4547 42.8221 15.3252 42.8221C10.9884 42.8221 7.35151 41.3704 4.4109 38.4668V38.4593Z" fill="white"/>
<path id="Vector_3" d="M48.6389 12.3949C51.9203 12.3949 54.5942 13.5616 56.6682 15.8912C58.7422 18.2208 59.7792 21.1806 59.7792 24.7706V42.2444H53.8424V25.6897C53.8424 23.4351 53.1276 21.5745 51.6943 20.104C50.2611 18.6334 48.4908 17.8982 46.3798 17.8982C44.0058 17.8982 42.0615 18.6334 40.5541 20.104C39.0468 21.5745 38.2913 23.4351 38.2913 25.6897V42.2444H32.3545V0.994629H38.2913V20.5279C39.0838 18.007 40.3912 16.0225 42.2207 14.5707C44.0503 13.119 46.1872 12.3949 48.6389 12.3949Z" fill="white"/>
<path id="Vector_4" d="M169.837 18.2963H163.674V12.9694H169.837V3.45596L175.773 3.34717V12.9656H183.917V18.2925H175.773V31.8123C175.773 33.6092 176.17 34.9072 176.962 35.7062C177.755 36.509 179.018 36.9104 180.751 36.9104H183.917V42.2373H180.751C177.018 42.2373 174.266 41.3595 172.492 39.6039C170.718 37.8482 169.833 35.1548 169.833 31.5272V18.2925L169.837 18.2963Z" fill="white"/>
<path id="Vector_5" d="M200.32 7.17331C199.583 6.4493 199.217 5.56773 199.217 4.53611C199.217 3.5045 199.583 2.62668 200.32 1.89892C201.057 1.17492 201.931 0.811035 202.95 0.811035C203.968 0.811035 204.835 1.17492 205.554 1.89892C206.268 2.62668 206.628 3.5045 206.628 4.53611C206.628 5.56773 206.268 6.44555 205.554 7.17331C204.839 7.90107 203.968 8.26119 202.95 8.26119C201.931 8.26119 201.054 7.89731 200.32 7.17331ZM205.894 42.2371H199.954V12.9616H205.894V42.2408V42.2371Z" fill="white"/>
<path id="Vector_6" d="M213.753 38.4553C210.812 35.5517 209.342 31.9429 209.342 27.6251C209.342 23.3074 210.812 19.6911 213.753 16.7688C216.693 13.8465 220.334 12.3872 224.671 12.3872C229.008 12.3872 232.644 13.8502 235.589 16.7688C238.529 19.6911 240 23.3111 240 27.6251C240 31.9392 238.529 35.5517 235.589 38.4553C232.648 41.3588 229.008 42.8106 224.671 42.8106C220.334 42.8106 216.693 41.3588 213.753 38.4553ZM218.108 20.7227C216.334 22.5758 215.449 24.8754 215.449 27.6251C215.449 30.3749 216.334 32.6669 218.108 34.5013C219.878 36.3358 222.067 37.2511 224.671 37.2511C227.274 37.2511 229.508 36.3358 231.259 34.5013C233.015 32.6669 233.889 30.3749 233.889 27.6251C233.889 24.8754 233.011 22.5271 231.259 20.6927C229.504 18.8583 227.308 17.9429 224.671 17.9429C222.034 17.9429 219.882 18.8695 218.108 20.7227Z" fill="white"/>
<path id="Vector_7" d="M78.5857 12.3911C70.2935 12.3911 63.2197 19.2035 63.2197 27.6028C63.2197 31.8043 64.8974 35.6081 67.6195 38.3616C70.3379 41.1151 74.4414 42.8145 78.5857 42.8145H79.0264C83.6373 42.8145 86.4816 40.4399 88.0815 38.658V37.225H78.582C75.9599 37.225 73.5859 36.1483 71.8675 34.4077C70.149 32.6633 69.0861 30.2587 69.0861 27.6028C69.0861 22.2909 73.3341 17.9844 78.582 17.9844C83.8299 17.9844 88.0815 22.2871 88.0815 27.6028V42.2405H93.9516V27.6028C93.9516 19.2035 86.8779 12.3911 78.5857 12.3911Z" fill="url(#paint0_linear_1293_9165)"/>
<path id="Vector_8" d="M112.728 12.3911C104.436 12.3911 97.3622 19.2035 97.3622 27.6028C97.3622 31.8043 99.0399 35.6081 101.762 38.3616C104.48 41.1151 108.584 42.8145 112.728 42.8145H113.169C117.78 42.8145 120.624 40.4399 122.224 38.658V37.225H112.724C110.102 37.225 107.728 36.1483 106.01 34.4077C104.291 32.6633 103.229 30.2587 103.229 27.6028C103.229 22.2909 107.477 17.9844 112.724 17.9844C117.972 17.9844 122.224 22.2871 122.224 27.6028V42.2405H128.094V27.6028C128.094 19.2035 121.02 12.3911 112.728 12.3911Z" fill="url(#paint1_linear_1293_9165)"/>
<path id="Vector_9" d="M146.923 12.3911C138.63 12.3911 131.557 19.2035 131.557 27.6028C131.557 31.8043 133.234 35.6081 135.956 38.3616C138.675 41.1151 142.778 42.8145 146.923 42.8145H147.363C151.974 42.8145 154.819 40.4399 156.418 38.658V37.225H146.919C144.297 37.225 141.923 36.1483 140.204 34.4077C138.486 32.6633 137.423 30.2587 137.423 27.6028C137.423 22.2909 141.671 17.9844 146.919 17.9844C152.167 17.9844 156.418 22.2871 156.418 27.6028V42.2405H162.289V27.6028C162.289 19.2035 155.215 12.3911 146.923 12.3911Z" fill="url(#paint2_linear_1293_9165)"/>
</g>
</g>
</g>
<defs>
<linearGradient id="paint0_linear_1293_9165" x1="63.0123" y1="34.2577" x2="157.425" y2="5.3486" gradientUnits="userSpaceOnUse">
<stop stop-color="#29F2BC"/>
<stop offset="0.5" stop-color="#4877FF"/>
<stop offset="1" stop-color="#F945B3"/>
</linearGradient>
<linearGradient id="paint1_linear_1293_9165" x1="66.0118" y1="44.0449" x2="160.421" y2="15.1358" gradientUnits="userSpaceOnUse">
<stop stop-color="#29F2BC"/>
<stop offset="0.5" stop-color="#4877FF"/>
<stop offset="1" stop-color="#F945B3"/>
</linearGradient>
<linearGradient id="paint2_linear_1293_9165" x1="69.0114" y1="53.8472" x2="163.421" y2="24.9344" gradientUnits="userSpaceOnUse">
<stop stop-color="#29F2BC"/>
<stop offset="0.5" stop-color="#4877FF"/>
<stop offset="1" stop-color="#F945B3"/>
</linearGradient>
<clipPath id="clip0_1293_9165">
<rect width="240" height="42" fill="white" transform="translate(0 0.814941)"/>
</clipPath>
</defs>
</svg>
