<svg width="110" height="26" viewBox="0 0 110 26" fill="none" xmlns="http://www.w3.org/2000/svg">
<path d="M2.63809 23.2922C0.879362 21.4893 0 19.2457 0 16.5613C0 13.8768 0.879362 11.6286 2.63809 9.81172C4.39681 7.99489 6.57196 7.08765 9.16574 7.08765C11.0374 7.08765 12.712 7.59841 14.1894 8.61994C15.6668 9.64147 16.7544 11.0408 17.4543 12.8227L14.1739 13.9981C13.722 12.9299 13.0575 12.088 12.1782 11.47C11.2988 10.8519 10.2954 10.5441 9.16796 10.5441C7.61302 10.5441 6.30394 11.1201 5.24516 12.2723C4.18417 13.4244 3.65478 14.8541 3.65478 16.5636C3.65478 18.2731 4.18417 19.6982 5.24516 20.8386C6.30394 21.9791 7.61302 22.5482 9.16796 22.5482C10.2954 22.5482 11.3032 22.245 12.1959 21.6409C13.0863 21.0345 13.7464 20.1856 14.1739 19.0941L17.4543 20.2696C16.7544 22.0514 15.6668 23.4508 14.1894 24.4723C12.712 25.4938 11.0374 26.0046 9.16574 26.0046C6.57196 26.0046 4.39681 25.102 2.63809 23.2968V23.2922Z" fill="#030037"/>
<path d="M29.0898 7.08773C31.0523 7.08773 32.6515 7.81306 33.8919 9.26139C35.1323 10.7097 35.7525 12.5499 35.7525 14.7818V25.6455H32.2019V15.3532C32.2019 13.9516 31.7744 12.7948 30.9172 11.8805C30.06 10.9663 29.0012 10.5091 27.7386 10.5091C26.3188 10.5091 25.1559 10.9663 24.2544 11.8805C23.3529 12.7948 22.901 13.9516 22.901 15.3532V25.6455H19.3503V0H22.901V12.1441C23.375 10.5768 24.1569 9.34302 25.2511 8.44044C26.3454 7.53785 27.6234 7.08773 29.0898 7.08773Z" fill="#030037"/>
<path d="M101.576 10.7563H97.8905V7.44451H101.576V1.53224L105.127 1.4646V7.44451H109.998V10.7563H105.127V19.1618C105.127 20.2789 105.364 21.0859 105.838 21.5826C106.312 22.0817 107.067 22.3313 108.104 22.3313H109.998V25.6431H108.104C105.871 25.6431 104.225 25.0974 103.164 24.0059C102.103 22.9144 101.574 21.2398 101.574 18.9845V10.7563H101.576Z" fill="#030037"/>
<path d="M47.0004 7.08765C42.041 7.08765 37.8103 11.323 37.8103 16.5449C37.8103 19.1571 38.8137 21.522 40.4417 23.2339C42.0676 24.9457 44.5218 26.0022 47.0004 26.0022H47.264C50.0217 26.0022 51.7228 24.5259 52.6797 23.4181V22.5272H46.9982C45.43 22.5272 44.0101 21.8578 42.9824 20.7757C41.9546 19.6912 41.3189 18.1962 41.3189 16.5449C41.3189 13.2425 43.8595 10.565 46.9982 10.565C50.1369 10.565 52.6797 13.2401 52.6797 16.5449V25.6454H56.1905V16.5449C56.1905 11.323 51.9598 7.08765 47.0004 7.08765Z" fill="url(#paint0_linear_1260_1954)"/>
<path d="M67.4207 7.08765C62.4613 7.08765 58.2306 11.323 58.2306 16.5449C58.2306 19.1571 59.234 21.522 60.862 23.2339C62.4878 24.9457 64.9421 26.0022 67.4207 26.0022H67.6843C70.442 26.0022 72.1431 24.5259 73.1 23.4181V22.5272H67.4185C65.8502 22.5272 64.4304 21.8578 63.4027 20.7757C62.3749 19.6912 61.7392 18.1962 61.7392 16.5449C61.7392 13.2425 64.2798 10.565 67.4185 10.565C70.5572 10.565 73.1 13.2401 73.1 16.5449V25.6454H76.6108V16.5449C76.6108 11.323 72.3801 7.08765 67.4207 7.08765Z" fill="url(#paint1_linear_1260_1954)"/>
<path d="M87.872 7.08765C82.9126 7.08765 78.6819 11.323 78.6819 16.5449C78.6819 19.1571 79.6853 21.522 81.3133 23.2339C82.9391 24.9457 85.3934 26.0022 87.872 26.0022H88.1356C90.8933 26.0022 92.5944 24.5259 93.5513 23.4181V22.5272H87.8698C86.3015 22.5272 84.8817 21.8578 83.854 20.7757C82.8262 19.6912 82.1905 18.1962 82.1905 16.5449C82.1905 13.2425 84.7311 10.565 87.8698 10.565C91.0085 10.565 93.5513 13.2401 93.5513 16.5449V25.6454H97.0621V16.5449C97.0621 11.323 92.8314 7.08765 87.872 7.08765Z" fill="url(#paint2_linear_1260_1954)"/>
<defs>
<linearGradient id="paint0_linear_1260_1954" x1="37.6863" y1="20.68" x2="94.5162" y2="3.9402" gradientUnits="userSpaceOnUse">
<stop stop-color="#29F2BC"/>
<stop offset="0.5" stop-color="#4877FF"/>
<stop offset="1" stop-color="#F945B3"/>
</linearGradient>
<linearGradient id="paint1_linear_1260_1954" x1="39.4805" y1="26.7649" x2="96.3082" y2="10.025" gradientUnits="userSpaceOnUse">
<stop stop-color="#29F2BC"/>
<stop offset="0.5" stop-color="#4877FF"/>
<stop offset="1" stop-color="#F945B3"/>
</linearGradient>
<linearGradient id="paint2_linear_1260_1954" x1="41.2747" y1="32.8591" x2="98.1025" y2="16.1171" gradientUnits="userSpaceOnUse">
<stop stop-color="#29F2BC"/>
<stop offset="0.5" stop-color="#4877FF"/>
<stop offset="1" stop-color="#F945B3"/>
</linearGradient>
</defs>
</svg>
