<svg width="88" height="592" viewBox="0 0 88 592" fill="none" xmlns="http://www.w3.org/2000/svg">
<path d="M0 0H68C79.0457 0 88 8.9543 88 20V572C88 583.046 79.0457 592 68 592H20C8.95431 592 0 583.046 0 572V0Z" fill="white"/>
<rect x="16" y="16" width="56" height="56" rx="12" fill="#EBF4F8"/>
<path d="M31.3817 38.3851C28.3194 38.3851 25.7072 40.8997 25.7072 44C25.7072 45.5509 26.3267 46.9549 27.332 47.9713C28.3359 48.9877 29.8513 49.6149 31.3817 49.6149H31.5445C33.2472 49.6149 34.2976 48.7384 34.8885 48.0807V47.5517H31.3803C30.412 47.5517 29.5353 47.1543 28.9007 46.5118C28.2661 45.8679 27.8736 44.9804 27.8736 44C27.8736 42.0393 29.4423 40.4496 31.3803 40.4496C33.3183 40.4496 34.8885 42.0379 34.8885 44V49.4031H37.0562V44C37.0562 40.8997 34.444 38.3851 31.3817 38.3851Z" fill="url(#paint0_linear_1293_7527)"/>
<path d="M43.9904 38.3851C40.9281 38.3851 38.3159 40.8997 38.3159 44C38.3159 45.5509 38.9354 46.9549 39.9407 47.9713C40.9446 48.9877 42.46 49.6149 43.9904 49.6149H44.1532C45.8559 49.6149 46.9063 48.7384 47.4972 48.0807V47.5517H43.989C43.0207 47.5517 42.144 47.1543 41.5094 46.5118C40.8748 45.8679 40.4823 44.9804 40.4823 44C40.4823 42.0393 42.051 40.4496 43.989 40.4496C45.927 40.4496 47.4972 42.0379 47.4972 44V49.4031H49.6649V44C49.6649 40.8997 47.0527 38.3851 43.9904 38.3851Z" fill="url(#paint1_linear_1293_7527)"/>
<path d="M56.6184 38.3851C53.5561 38.3851 50.9438 40.8997 50.9438 44C50.9438 45.5509 51.5634 46.9549 52.5687 47.9713C53.5725 48.9877 55.0879 49.6149 56.6184 49.6149H56.7811C58.4839 49.6149 59.5343 48.7384 60.1251 48.0807V47.5517H56.617C55.6487 47.5517 54.772 47.1543 54.1374 46.5118C53.5028 45.8679 53.1103 44.9804 53.1103 44C53.1103 42.0393 54.679 40.4496 56.617 40.4496C58.555 40.4496 60.1251 42.0379 60.1251 44V49.4031H62.2929V44C62.2929 40.8997 59.6806 38.3851 56.6184 38.3851Z" fill="url(#paint2_linear_1293_7527)"/>
<rect x="16.5" y="88.5" width="55" height="55" rx="11.5" fill="#2DC100" fill-opacity="0.1"/>
<rect x="16.5" y="88.5" width="55" height="55" rx="11.5" stroke="#2DC100"/>
<path d="M44 129C51.1797 129 57 123.18 57 116C57 108.82 51.1797 103 44 103C36.8203 103 31 108.82 31 116C31 123.18 36.8203 129 44 129Z" fill="#2DC100"/>
<path d="M49.7171 114.375C45.3961 112.18 40.4856 116.214 42.7311 119.915C43.774 121.652 46.1805 122.75 49.0272 121.927C49.5974 122.147 50.1041 122.506 50.6522 122.773C50.5045 122.292 50.3568 121.818 50.1957 121.345C53.1414 119.25 52.4973 115.789 49.7171 114.375ZM46.2677 116.872C46.228 116.976 46.1627 117.069 46.0777 117.142C45.9927 117.215 45.8908 117.265 45.7813 117.288C45.6717 117.311 45.5582 117.307 45.451 117.274C45.3438 117.242 45.2465 117.184 45.1679 117.104C45.0893 117.024 45.032 116.926 45.0012 116.818C44.9705 116.711 44.9673 116.597 44.9919 116.488C45.0165 116.379 45.0682 116.278 45.1422 116.194C45.2162 116.11 45.3101 116.046 45.4153 116.007C45.9131 115.798 46.4863 116.374 46.2677 116.872ZM49.5014 116.935H49.5103C49.4621 117.028 49.3931 117.109 49.3086 117.17C49.2241 117.232 49.1264 117.274 49.0232 117.291C48.9201 117.309 48.8142 117.303 48.7139 117.273C48.6136 117.243 48.5216 117.19 48.4452 117.118C48.3246 116.977 48.2445 116.805 48.2132 116.622C48.2827 116.31 48.4969 115.988 48.8426 115.973C49.3182 115.907 49.7452 116.498 49.5014 116.935Z" fill="white"/>
<path d="M47.6636 113.471C47.3682 112.02 46.3548 110.796 45.0784 110.089H45.0961C40.5639 107.528 34.9222 111.1 36.0124 115.312C36.3079 116.561 37.1691 117.61 38.218 118.309C38.0156 118.887 37.8221 119.463 37.6404 120.043C38.2992 119.698 38.9596 119.336 39.6199 118.984C40.4183 119.243 41.2554 119.362 42.0943 119.336C41.0602 116.352 43.7193 113.19 47.6636 113.471ZM43.5568 111.738C43.6844 111.692 43.8213 111.677 43.9557 111.696C44.0901 111.715 44.2179 111.766 44.328 111.846C44.4381 111.925 44.5271 112.03 44.5873 112.151C44.6476 112.273 44.6772 112.408 44.6736 112.543V112.552C44.6736 113.204 43.8109 113.611 43.3234 113.17C42.8182 112.805 42.9659 111.921 43.5568 111.738ZM40.5742 112.718C40.4575 113.285 39.7011 113.558 39.258 113.177C38.7439 112.814 38.8886 111.914 39.4914 111.731C40.0823 111.502 40.753 112.104 40.5742 112.718Z" fill="white"/>
<rect x="16" y="160" width="56" height="56" rx="12" fill="white"/>
<rect x="16.5" y="160.5" width="55" height="55" rx="11.5" stroke="#D6D9DF" stroke-opacity="0.5"/>
<g clip-path="url(#clip0_1293_7527)">
<path d="M32.625 176.769C30.5818 178.891 31 181.146 31 187.995C31 193.682 30.0077 199.384 35.2012 200.726C36.8229 201.143 51.1922 201.143 52.8118 200.724C54.9742 200.166 56.7335 198.412 56.974 195.354C57.0076 194.927 57.0076 181.07 56.9729 180.634C56.7172 177.377 54.712 175.499 52.0697 175.119C51.4642 175.031 51.3428 175.005 48.2358 175C37.2151 175.005 34.7992 174.515 32.625 176.769Z" fill="url(#paint3_linear_1293_7527)"/>
<path d="M43.9979 178.401C40.0643 178.401 36.3289 178.051 34.9022 181.712C34.3129 183.225 34.3984 185.189 34.3984 188.001C34.3984 190.469 34.3194 192.788 34.9022 194.289C36.3257 197.953 40.0914 197.602 43.9957 197.602C47.7624 197.602 51.6462 197.994 53.0903 194.289C53.6807 192.761 53.594 190.826 53.594 188.001C53.594 184.251 53.8009 181.829 51.982 180.012C50.1404 178.17 47.6498 178.401 43.9935 178.401H43.9979ZM43.1377 180.131C51.3429 180.118 52.3872 179.206 51.8109 191.877C51.6061 196.359 48.1936 195.867 43.9989 195.867C36.3506 195.867 36.1307 195.648 36.1307 187.997C36.1307 180.256 36.7374 180.135 43.1377 180.129V180.131ZM49.122 181.724C48.8166 181.724 48.5237 181.846 48.3077 182.062C48.0918 182.278 47.9704 182.57 47.9704 182.876C47.9704 183.181 48.0918 183.474 48.3077 183.69C48.5237 183.906 48.8166 184.027 49.122 184.027C49.4274 184.027 49.7204 183.906 49.9363 183.69C50.1523 183.474 50.2736 183.181 50.2736 182.876C50.2736 182.57 50.1523 182.278 49.9363 182.062C49.7204 181.846 49.4274 181.724 49.122 181.724ZM43.9979 183.071C43.3505 183.071 42.7095 183.199 42.1114 183.446C41.5133 183.694 40.9699 184.057 40.5122 184.515C39.5878 185.44 39.0685 186.694 39.0687 188.001C39.0688 189.309 39.5883 190.562 40.513 191.487C41.4376 192.411 42.6915 192.93 43.9989 192.93C45.3064 192.93 46.5602 192.411 47.4846 191.486C48.409 190.561 48.9282 189.307 48.9281 188C48.928 186.693 48.4084 185.439 47.4838 184.514C46.5592 183.59 45.3053 183.071 43.9979 183.071ZM43.9979 184.801C48.2283 184.801 48.2337 191.201 43.9979 191.201C39.7685 191.201 39.762 184.801 43.9979 184.801Z" fill="white"/>
</g>
<rect x="16" y="232" width="56" height="56" rx="12" fill="white"/>
<rect x="16.5" y="232.5" width="55" height="55" rx="11.5" stroke="#D6D9DF" stroke-opacity="0.5"/>
<g clip-path="url(#clip1_1293_7527)">
<path d="M57 260C57 267.183 51.1825 273 44 273C36.8175 273 31 267.183 31 260C31 252.817 36.8175 247 44 247C51.1825 247 57 252.817 57 260Z" fill="url(#paint4_linear_1293_7527)"/>
<path d="M41.6167 265.958C41.1942 265.958 41.27 265.796 41.1184 265.395L39.8834 261.322L47.5534 256.533L48.4525 256.772L47.705 258.808L41.6167 265.958Z" fill="#C8DAEA"/>
<path d="M41.6166 265.958C41.9416 265.958 42.0825 265.807 42.2666 265.633C42.5483 265.362 46.1666 261.842 46.1666 261.842L43.9458 261.3L41.8875 262.6L41.6166 265.85V265.958Z" fill="#A9C9DD"/>
<path d="M41.8333 262.643L47.0767 266.511C47.6725 266.836 48.1058 266.673 48.2575 265.958L50.3917 255.905C50.6083 255.028 50.0558 254.638 49.4817 254.898L36.9583 259.729C36.1025 260.076 36.1133 260.553 36.8067 260.758L40.0242 261.766L47.4667 257.075C47.8133 256.858 48.1383 256.978 47.8783 257.216L41.8333 262.643Z" fill="url(#paint5_linear_1293_7527)"/>
</g>
<rect x="16" y="304" width="56" height="56" rx="12" fill="white"/>
<rect x="16.5" y="304.5" width="55" height="55" rx="11.5" stroke="#D6D9DF" stroke-opacity="0.5"/>
<g clip-path="url(#clip2_1293_7527)">
<path d="M44.0033 319H43.9967C36.8289 319 31 324.83 31 332C31 334.844 31.9165 337.479 33.4749 339.62L31.8548 344.449L36.8516 342.852C38.9072 344.214 41.3594 345 44.0033 345C51.1711 345 57 339.168 57 332C57 324.832 51.1711 319 44.0033 319Z" fill="#32D851"/>
<path d="M51.5676 337.358C51.254 338.243 50.0093 338.978 49.0164 339.192C48.3371 339.337 47.4499 339.452 44.4631 338.214C40.6428 336.631 38.1825 332.749 37.9908 332.497C37.8071 332.245 36.447 330.442 36.447 328.576C36.447 326.711 37.3944 325.802 37.7763 325.412C38.0899 325.092 38.6083 324.946 39.1055 324.946C39.2664 324.946 39.411 324.954 39.541 324.96C39.9229 324.977 40.1146 324.999 40.3665 325.602C40.6801 326.358 41.4439 328.223 41.5349 328.415C41.6275 328.607 41.7201 328.867 41.5901 329.119C41.4683 329.379 41.361 329.494 41.1693 329.715C40.9775 329.936 40.7955 330.105 40.6038 330.342C40.4283 330.549 40.23 330.77 40.451 331.152C40.672 331.525 41.4358 332.772 42.5603 333.773C44.0114 335.065 45.1879 335.477 45.6088 335.653C45.9224 335.783 46.2961 335.752 46.5253 335.508C46.8161 335.195 47.1753 334.675 47.5409 334.163C47.8009 333.796 48.1291 333.75 48.4736 333.88C48.8246 334.002 50.682 334.92 51.0639 335.11C51.4458 335.302 51.6976 335.393 51.7903 335.554C51.8813 335.715 51.8813 336.47 51.5676 337.358Z" fill="#FAFAFA"/>
</g>
<rect x="16" y="376" width="56" height="56" rx="12" fill="white"/>
<rect x="16.5" y="376.5" width="55" height="55" rx="11.5" stroke="#D6D9DF" stroke-opacity="0.5"/>
<g clip-path="url(#clip3_1293_7527)">
<path d="M52.696 391.002H35.3041C33.8373 391.002 32.6432 392.196 32.6432 393.675V411.223C32.6432 412.703 33.8372 413.897 35.304 413.897H50.0224L49.3344 411.496L50.9958 413.04L52.5662 414.494L55.3568 416.96V393.675C55.3568 392.196 54.1627 391.002 52.696 391.002ZM47.6861 407.953C47.6861 407.953 47.2188 407.395 46.8294 406.901C48.5298 406.421 49.1787 405.357 49.1787 405.357C48.6465 405.707 48.1403 405.954 47.6861 406.122C47.0371 406.395 46.4141 406.577 45.8041 406.681C44.5581 406.914 43.4159 406.849 42.4425 406.668C41.7026 406.525 41.0667 406.317 40.5346 406.11C40.236 405.993 39.9115 405.85 39.587 405.668C39.5481 405.642 39.5092 405.629 39.4702 405.603C39.4443 405.59 39.4313 405.577 39.4183 405.564C39.1847 405.435 39.0549 405.344 39.0549 405.344C39.0549 405.344 39.6779 406.382 41.3263 406.875C40.9369 407.369 40.4567 407.953 40.4567 407.953C37.5882 407.862 36.498 405.98 36.498 405.98C36.498 401.8 38.367 398.413 38.367 398.413C40.236 397.011 42.0141 397.05 42.0141 397.05L42.144 397.206C39.8077 397.881 38.7304 398.906 38.7304 398.906C38.7304 398.906 39.016 398.75 39.4961 398.53C40.8849 397.92 41.9882 397.751 42.4425 397.712C42.5203 397.699 42.5853 397.686 42.6632 397.686C43.5329 397.573 44.4132 397.564 45.285 397.66C46.5179 397.803 47.8419 398.166 49.1916 398.906C49.1916 398.906 48.1663 397.933 45.9598 397.258L46.1415 397.05C46.1415 397.05 47.9197 397.011 49.7887 398.413C49.7887 398.413 51.6578 401.8 51.6578 405.98C51.6578 405.98 50.5545 407.862 47.6861 407.953V407.953ZM41.6507 401.891C40.9109 401.891 40.327 402.54 40.327 403.332C40.327 404.124 40.9239 404.773 41.6507 404.773C42.3906 404.773 42.9746 404.124 42.9746 403.332C42.9876 402.54 42.3905 401.891 41.6507 401.891ZM46.3882 401.891C45.6483 401.891 45.0642 402.54 45.0642 403.332C45.0642 404.124 45.6614 404.773 46.3882 404.773C47.128 404.773 47.712 404.124 47.712 403.332C47.712 402.54 47.128 401.891 46.3882 401.891Z" fill="#7289DA"/>
</g>
<rect x="16" y="448" width="56" height="56" rx="12" fill="white"/>
<rect x="16.5" y="448.5" width="55" height="55" rx="11.5" stroke="#D6D9DF" stroke-opacity="0.5"/>
<g clip-path="url(#clip4_1293_7527)">
<path d="M52.3495 488.557C46.8008 489.149 41.205 489.149 35.6563 488.557C34.5788 488.443 33.5729 487.963 32.8062 487.198C32.0395 486.432 31.5584 485.427 31.4431 484.349C30.8512 478.801 30.8512 473.205 31.4431 467.656C31.5569 466.579 32.0366 465.573 32.8022 464.806C33.5678 464.04 34.5731 463.558 35.6504 463.443C41.199 462.851 46.7949 462.851 52.3436 463.443C53.4211 463.557 54.427 464.037 55.1937 464.802C55.9604 465.568 56.4415 466.573 56.5568 467.65C57.1487 473.199 57.1487 478.795 56.5568 484.344C56.443 485.421 55.9633 486.427 55.1977 487.194C54.4321 487.96 53.4268 488.441 52.3495 488.557Z" fill="#6F3FAA"/>
<path d="M51.509 472.078V472.059C51.3347 471.352 50.8797 470.623 50.2828 470.008C49.5856 469.287 48.6977 468.721 47.8498 468.538H47.832C45.3033 468.054 42.7056 468.054 40.1768 468.538H40.1591C38.5843 468.88 36.8751 470.525 36.494 472.059V472.078C36.0257 474.204 36.0257 476.406 36.494 478.532V478.55C36.7658 479.643 37.7112 480.792 38.8015 481.487C39.1575 481.719 39.5451 481.898 39.9523 482.02V483.731C39.9528 483.867 39.9941 484.001 40.0708 484.114C40.1475 484.227 40.2562 484.315 40.3829 484.366C40.5097 484.417 40.6488 484.429 40.7826 484.401C40.9164 484.373 41.0388 484.306 41.1341 484.208L42.8684 482.405C43.2436 482.426 43.6218 482.438 43.997 482.438C45.2815 482.438 46.5631 482.316 47.8247 482.075H47.8424C49.4127 481.732 51.1234 480.086 51.5016 478.553V478.535C51.9727 476.409 51.9753 474.205 51.509 472.078ZM50.1366 478.216C49.8825 479.216 48.5855 480.461 47.5528 480.69C46.2116 480.947 44.8466 481.059 43.4815 481.023C43.4682 481.022 43.4549 481.024 43.4426 481.029C43.4303 481.034 43.4193 481.042 43.4106 481.052L42.1445 482.352L40.7973 483.734C40.7757 483.756 40.7478 483.772 40.7172 483.779C40.6866 483.786 40.6546 483.783 40.6255 483.771C40.5964 483.76 40.5714 483.74 40.5538 483.714C40.5363 483.688 40.5269 483.657 40.5269 483.626V480.789C40.527 480.766 40.519 480.744 40.5044 480.727C40.4898 480.709 40.4696 480.697 40.4472 480.693C40.2318 480.642 40.0241 480.563 39.8297 480.457C38.9522 479.989 38.0673 479.028 37.8634 478.216C37.4411 476.294 37.4411 474.304 37.8634 472.382C38.116 471.386 39.4204 470.144 40.4457 469.914C42.7934 469.464 45.2051 469.464 47.5528 469.914C48.1216 470.041 48.7716 470.473 49.2798 471.005C49.6978 471.438 50.0184 471.937 50.1366 472.387C50.5582 474.307 50.5582 476.296 50.1366 478.216Z" fill="white"/>
<path d="M47.5898 478.364C47.3979 478.802 47.0679 479.165 46.6503 479.398C46.5192 479.453 46.3832 479.496 46.244 479.526C46.0859 479.479 45.9353 479.446 45.8008 479.389C44.681 478.953 43.6385 478.34 42.7133 477.573C42.4385 477.339 42.1803 477.086 41.9407 476.815C41.349 476.134 40.852 475.376 40.4634 474.561C40.2743 474.176 40.1148 473.777 39.9523 473.379C39.8046 473.017 40.0232 472.641 40.2478 472.37C40.4675 472.12 40.7379 471.918 41.041 471.779C41.1477 471.726 41.2698 471.711 41.3861 471.738C41.5024 471.765 41.6056 471.832 41.6778 471.927C42.0552 472.351 42.3879 472.813 42.6705 473.305C42.7595 473.449 42.79 473.621 42.7556 473.786C42.7212 473.951 42.6246 474.096 42.4858 474.192C42.412 474.244 42.3381 474.303 42.2746 474.36C42.2119 474.407 42.1579 474.464 42.115 474.529C42.078 474.589 42.0555 474.658 42.0494 474.729C42.0432 474.8 42.0536 474.871 42.0796 474.938C42.3647 475.722 42.7975 476.377 43.4446 476.836C43.6635 476.991 43.8995 477.12 44.1478 477.222C44.3099 477.31 44.4921 477.355 44.6766 477.352C44.9987 477.313 45.105 476.957 45.3296 476.774C45.4326 476.69 45.5602 476.641 45.6933 476.635C45.8263 476.629 45.9578 476.666 46.0682 476.74C46.3075 476.888 46.538 477.055 46.7684 477.217C46.9964 477.373 47.2158 477.54 47.4258 477.72C47.524 477.791 47.5942 477.894 47.6241 478.012C47.6541 478.13 47.6419 478.254 47.5898 478.364ZM44.424 471.285H44.2349C44.2955 471.282 44.359 471.285 44.424 471.285Z" fill="white"/>
<path d="M47.6932 475.712C47.5455 475.712 47.4731 475.586 47.4628 475.449C47.4435 475.179 47.4288 474.907 47.3918 474.638C47.328 474.184 47.17 473.749 46.928 473.36C46.6792 472.955 46.3482 472.606 45.9563 472.337C45.5645 472.068 45.1204 471.884 44.653 471.797C44.4402 471.759 44.2231 471.75 44.0089 471.728C43.873 471.713 43.6942 471.704 43.6647 471.536C43.6603 471.503 43.6629 471.47 43.6724 471.438C43.6818 471.406 43.6979 471.377 43.7196 471.352C43.7413 471.327 43.768 471.307 43.798 471.294C43.8281 471.28 43.8607 471.273 43.8937 471.273C43.9291 471.271 43.9646 471.271 44 471.273C44.6457 471.278 45.2802 471.443 45.847 471.752C46.4139 472.061 46.8958 472.505 47.25 473.045C47.5296 473.481 47.7195 473.967 47.8084 474.477C47.8646 474.796 47.8853 475.124 47.9104 475.449C47.9154 475.481 47.9136 475.513 47.9051 475.544C47.8966 475.576 47.8816 475.605 47.8611 475.629C47.8405 475.654 47.815 475.674 47.786 475.689C47.7571 475.703 47.7254 475.711 47.6932 475.712Z" fill="white"/>
<path d="M46.894 475.022C46.8931 475.066 46.8872 475.11 46.8763 475.152C46.8634 475.195 46.8376 475.232 46.8025 475.26C46.7674 475.288 46.7247 475.304 46.6802 475.306C46.6356 475.309 46.5914 475.297 46.5535 475.274C46.5157 475.25 46.486 475.215 46.4685 475.174C46.4523 475.115 46.4448 475.053 46.4464 474.991C46.4498 474.661 46.3844 474.333 46.2543 474.029C46.2248 473.964 46.1923 473.898 46.1553 473.834C45.9439 473.47 45.63 473.175 45.2527 472.988C45.0251 472.88 44.7834 472.806 44.5348 472.766C44.4255 472.749 44.3161 472.738 44.2068 472.723C44.1784 472.722 44.1505 472.715 44.125 472.702C44.0994 472.689 44.0768 472.672 44.0583 472.65C44.0399 472.628 44.0262 472.603 44.0179 472.576C44.0097 472.548 44.0071 472.52 44.0103 472.491C44.0104 472.463 44.0165 472.434 44.0284 472.408C44.0402 472.381 44.0575 472.357 44.0791 472.338C44.1008 472.319 44.1262 472.305 44.1538 472.296C44.1814 472.287 44.2106 472.284 44.2393 472.288C44.6731 472.304 45.098 472.415 45.4847 472.613C45.9568 472.85 46.3419 473.231 46.5852 473.7C46.7223 473.974 46.8141 474.268 46.8571 474.571C46.865 474.611 46.8709 474.651 46.8748 474.691C46.8822 474.78 46.8851 474.868 46.8925 474.978C46.8925 474.988 46.894 475.001 46.894 475.022Z" fill="white"/>
<path d="M45.882 474.818C45.8737 474.856 45.8543 474.89 45.8264 474.916C45.7985 474.942 45.7633 474.96 45.7254 474.966H45.6929C45.6445 474.969 45.5964 474.956 45.5559 474.93C45.5154 474.903 45.4847 474.864 45.4684 474.818C45.4592 474.794 45.4533 474.769 45.4507 474.743C45.4429 474.643 45.4281 474.545 45.4064 474.447C45.3624 474.25 45.2505 474.075 45.0902 473.952C45.0127 473.897 44.9263 473.855 44.8347 473.828C44.7179 473.794 44.5953 473.803 44.4801 473.775C44.4232 473.765 44.3725 473.733 44.3393 473.685C44.3061 473.638 44.293 473.58 44.3028 473.523C44.3138 473.468 44.3443 473.419 44.3887 473.386C44.433 473.352 44.4881 473.335 44.5436 473.339C45.2202 473.388 45.7254 473.713 45.8554 474.438C45.8688 474.506 45.8782 474.574 45.8835 474.642C45.8918 474.701 45.8913 474.76 45.882 474.818Z" fill="white"/>
</g>
<rect x="16" y="520" width="56" height="56" rx="12" fill="white"/>
<rect x="16.5" y="520.5" width="55" height="55" rx="11.5" stroke="#D6D9DF" stroke-opacity="0.5"/>
<g clip-path="url(#clip5_1293_7527)">
<path fill-rule="evenodd" clip-rule="evenodd" d="M44 535C36.6767 535 31 540.364 31 547.61C31 551.4 32.5532 554.675 35.0827 556.937C35.2951 557.127 35.4233 557.393 35.4319 557.678L35.5027 559.991C35.5253 560.728 36.2872 561.208 36.9622 560.91L39.5425 559.771C39.7612 559.675 40.0064 559.657 40.2369 559.72C41.4226 560.046 42.6846 560.22 43.9999 560.22C51.3232 560.22 56.9999 554.856 56.9999 547.61C56.9999 540.364 51.3233 535 44 535Z" fill="url(#paint6_radial_1293_7527)"/>
<path fill-rule="evenodd" clip-rule="evenodd" d="M36.1936 551.298L40.0123 545.239C40.6198 544.275 41.9205 544.035 42.8319 544.719L45.8692 546.997C46.0048 547.099 46.1699 547.153 46.3394 547.153C46.509 547.152 46.6737 547.097 46.8088 546.994L50.9107 543.881C51.4583 543.466 52.1729 544.121 51.8065 544.702L47.9878 550.761C47.3803 551.725 46.0795 551.965 45.1681 551.281L42.1308 549.003C41.9952 548.901 41.8301 548.847 41.6606 548.847C41.491 548.848 41.3263 548.903 41.1913 549.006L37.0893 552.119C36.5418 552.534 35.8271 551.879 36.1936 551.298Z" fill="white"/>
</g>
<defs>
<linearGradient id="paint0_linear_1293_7527" x1="25.6306" y1="46.4551" x2="60.4938" y2="35.775" gradientUnits="userSpaceOnUse">
<stop stop-color="#29F2BC"/>
<stop offset="0.5" stop-color="#4877FF"/>
<stop offset="1" stop-color="#F945B3"/>
</linearGradient>
<linearGradient id="paint1_linear_1293_7527" x1="26.7384" y1="50.0677" x2="61.6002" y2="39.3876" gradientUnits="userSpaceOnUse">
<stop stop-color="#29F2BC"/>
<stop offset="0.5" stop-color="#4877FF"/>
<stop offset="1" stop-color="#F945B3"/>
</linearGradient>
<linearGradient id="paint2_linear_1293_7527" x1="27.8463" y1="53.6859" x2="62.7082" y2="43.0045" gradientUnits="userSpaceOnUse">
<stop stop-color="#29F2BC"/>
<stop offset="0.5" stop-color="#4877FF"/>
<stop offset="1" stop-color="#F945B3"/>
</linearGradient>
<linearGradient id="paint3_linear_1293_7527" x1="32.6748" y1="199.339" x2="56.8391" y2="178.425" gradientUnits="userSpaceOnUse">
<stop stop-color="#FFDD55"/>
<stop offset="0.5" stop-color="#FF543E"/>
<stop offset="1" stop-color="#C837AB"/>
</linearGradient>
<linearGradient id="paint4_linear_1293_7527" x1="47.8101" y1="251.109" x2="41.3101" y2="266.276" gradientUnits="userSpaceOnUse">
<stop stop-color="#37AEE2"/>
<stop offset="1" stop-color="#1E96C8"/>
</linearGradient>
<linearGradient id="paint5_linear_1293_7527" x1="44.974" y1="260.407" x2="47.6824" y2="264.74" gradientUnits="userSpaceOnUse">
<stop stop-color="#EFF7FC"/>
<stop offset="1" stop-color="white"/>
</linearGradient>
<radialGradient id="paint6_radial_1293_7527" cx="0" cy="0" r="1" gradientUnits="userSpaceOnUse" gradientTransform="translate(36.007 560.684) scale(28.3156 28.3156)">
<stop stop-color="#0099FF"/>
<stop offset="0.61" stop-color="#A033FF"/>
<stop offset="0.935" stop-color="#FF5280"/>
<stop offset="1" stop-color="#FF7061"/>
</radialGradient>
<clipPath id="clip0_1293_7527">
<rect width="26" height="26" fill="white" transform="translate(31 175)"/>
</clipPath>
<clipPath id="clip1_1293_7527">
<rect width="26" height="26" fill="white" transform="translate(31 247)"/>
</clipPath>
<clipPath id="clip2_1293_7527">
<rect width="26" height="26" fill="white" transform="translate(31 319)"/>
</clipPath>
<clipPath id="clip3_1293_7527">
<rect width="22.7136" height="26" fill="white" transform="translate(32.6432 391)"/>
</clipPath>
<clipPath id="clip4_1293_7527">
<rect width="26" height="26" fill="white" transform="translate(31 463)"/>
</clipPath>
<clipPath id="clip5_1293_7527">
<rect width="26" height="26" fill="white" transform="translate(31 535)"/>
</clipPath>
</defs>
</svg>
