<svg width="280" height="112" viewBox="0 0 280 112" fill="none" xmlns="http://www.w3.org/2000/svg">
<rect width="280" height="112" rx="24" fill="white"/>
<rect x="16" y="16" width="80" height="80" rx="12" fill="#FFF7D9"/>
<path fill-rule="evenodd" clip-rule="evenodd" d="M70.2259 70.2259C72.6667 67.7851 72.6667 63.8568 72.6667 56C72.6667 48.1433 72.6667 44.2149 70.2259 41.7741C67.7852 39.3333 63.8568 39.3333 56 39.3333C48.1433 39.3333 44.2149 39.3333 41.7742 41.7741C39.3334 44.2149 39.3334 48.1433 39.3334 56C39.3334 63.8568 39.3334 67.7851 41.7742 70.2259C44.2149 72.6667 48.1433 72.6667 56 72.6667C63.8568 72.6667 67.7852 72.6667 70.2259 70.2259ZM60.7141 50.036C61.4044 50.036 61.9641 50.5956 61.9641 51.286L61.9641 58.357C61.9641 59.0474 61.4044 59.607 60.7141 59.607C60.0237 59.607 59.4641 59.0474 59.4641 58.357L59.4641 54.3037L52.1699 61.5979C51.6817 62.0861 50.8903 62.0861 50.4021 61.5979C49.914 61.1098 49.914 60.3183 50.4021 59.8302L57.6963 52.536H53.643C52.9527 52.536 52.393 51.9763 52.393 51.286C52.393 50.5956 52.9527 50.036 53.643 50.036L60.7141 50.036Z" fill="#F8C618"/>
<path d="M111.724 30V20.564H113.04V30H111.724ZM108.42 21.488V20.284H116.33V21.488H108.42ZM121.611 30.14C120.92 30.14 120.276 30.014 119.679 29.762C119.082 29.5007 118.559 29.1413 118.111 28.684C117.663 28.2173 117.313 27.6807 117.061 27.074C116.818 26.4673 116.697 25.8187 116.697 25.128C116.697 24.428 116.818 23.7793 117.061 23.182C117.313 22.5753 117.658 22.0433 118.097 21.586C118.545 21.1287 119.063 20.774 119.651 20.522C120.248 20.27 120.892 20.144 121.583 20.144C122.274 20.144 122.913 20.27 123.501 20.522C124.098 20.774 124.621 21.1287 125.069 21.586C125.517 22.0433 125.867 22.5753 126.119 23.182C126.371 23.7887 126.497 24.442 126.497 25.142C126.497 25.8327 126.371 26.4813 126.119 27.088C125.867 27.6947 125.517 28.2267 125.069 28.684C124.63 29.1413 124.112 29.5007 123.515 29.762C122.927 30.014 122.292 30.14 121.611 30.14ZM121.583 28.88C122.283 28.88 122.894 28.7213 123.417 28.404C123.949 28.0773 124.369 27.634 124.677 27.074C124.985 26.5047 125.139 25.856 125.139 25.128C125.139 24.5867 125.05 24.092 124.873 23.644C124.696 23.1867 124.448 22.79 124.131 22.454C123.814 22.118 123.44 21.8613 123.011 21.684C122.582 21.4973 122.106 21.404 121.583 21.404C120.892 21.404 120.281 21.5627 119.749 21.88C119.226 22.1973 118.811 22.636 118.503 23.196C118.204 23.756 118.055 24.4 118.055 25.128C118.055 25.6693 118.139 26.1733 118.307 26.64C118.484 27.0973 118.727 27.494 119.035 27.83C119.352 28.1567 119.726 28.4133 120.155 28.6C120.594 28.7867 121.07 28.88 121.583 28.88ZM130.167 30V20.564H131.483V30H130.167ZM126.863 21.488V20.284H134.773V21.488H126.863ZM134.205 30L138.181 20.284H139.133L143.095 30H141.667L138.405 21.782H138.895L135.605 30H134.205ZM136.095 27.802V26.654H141.205V27.802H136.095ZM144.558 30V20.284H145.874V30H144.558ZM145.454 30V28.796H150.662V30H145.454ZM157.788 30.14C157.022 30.14 156.369 30 155.828 29.72C155.286 29.44 154.806 29.034 154.386 28.502L155.282 27.606C155.59 28.0353 155.944 28.362 156.346 28.586C156.747 28.8007 157.242 28.908 157.83 28.908C158.408 28.908 158.87 28.782 159.216 28.53C159.57 28.278 159.748 27.9327 159.748 27.494C159.748 27.13 159.664 26.836 159.496 26.612C159.328 26.388 159.099 26.206 158.81 26.066C158.53 25.9167 158.222 25.786 157.886 25.674C157.55 25.5527 157.214 25.4267 156.878 25.296C156.542 25.156 156.234 24.988 155.954 24.792C155.674 24.5867 155.445 24.3207 155.268 23.994C155.1 23.6673 155.016 23.2567 155.016 22.762C155.016 22.2113 155.146 21.7447 155.408 21.362C155.678 20.97 156.042 20.6713 156.5 20.466C156.966 20.2513 157.489 20.144 158.068 20.144C158.702 20.144 159.272 20.27 159.776 20.522C160.28 20.7647 160.69 21.0867 161.007 21.488L160.112 22.384C159.822 22.048 159.51 21.796 159.174 21.628C158.847 21.46 158.469 21.376 158.04 21.376C157.517 21.376 157.102 21.4927 156.794 21.726C156.486 21.95 156.332 22.2673 156.332 22.678C156.332 23.0047 156.416 23.2707 156.584 23.476C156.761 23.672 156.99 23.84 157.27 23.98C157.55 24.12 157.858 24.2507 158.194 24.372C158.539 24.484 158.88 24.61 159.216 24.75C159.552 24.89 159.86 25.0673 160.14 25.282C160.42 25.4967 160.644 25.7767 160.812 26.122C160.989 26.458 161.078 26.8827 161.078 27.396C161.078 28.2547 160.779 28.9267 160.182 29.412C159.594 29.8973 158.796 30.14 157.788 30.14ZM162.851 30V20.284H164.167V30H162.851ZM163.747 30V28.796H169.319V30H163.747ZM163.747 25.604V24.456H168.857V25.604H163.747ZM163.747 21.488V20.284H169.249V21.488H163.747ZM171.109 30V20.284H172.033L172.425 21.81V30H171.109ZM177.829 30L171.865 22.034L172.033 20.284L178.011 28.236L177.829 30ZM177.829 30L177.437 28.558V20.284H178.753V30H177.829ZM183.624 30V20.564H184.94V30H183.624ZM180.32 21.488V20.284H188.23V21.488H180.32Z" fill="#6F767D"/>
<path d="M109.12 74.28L119.44 63.32C120.293 62.4133 120.987 61.6 121.52 60.88C122.053 60.16 122.44 59.48 122.68 58.84C122.92 58.2 123.04 57.5467 123.04 56.88C123.04 55.6267 122.627 54.6533 121.8 53.96C121 53.24 119.973 52.88 118.72 52.88C117.387 52.88 116.213 53.2133 115.2 53.88C114.187 54.5467 113.28 55.5867 112.48 57L109.28 54.36C110.373 52.4667 111.72 51.04 113.32 50.08C114.92 49.0933 116.773 48.6 118.88 48.6C120.613 48.6 122.133 48.9467 123.44 49.64C124.747 50.3333 125.76 51.3067 126.48 52.56C127.2 53.7867 127.56 55.2133 127.56 56.84C127.56 58.0133 127.413 59.0667 127.12 60C126.853 60.9067 126.387 61.8267 125.72 62.76C125.053 63.6667 124.133 64.7333 122.96 65.96L115.04 74.16L109.12 74.28ZM109.12 77V74.28L113.08 72.88H128.12V77H109.12ZM139.521 77.4C137.574 77.4 135.841 77.0667 134.321 76.4C132.801 75.7067 131.521 74.7067 130.481 73.4L133.601 70.28C134.161 71.1333 134.947 71.8133 135.961 72.32C137.001 72.8267 138.161 73.08 139.441 73.08C140.614 73.08 141.641 72.8667 142.521 72.44C143.401 72.0133 144.094 71.4 144.601 70.6C145.107 69.8 145.361 68.8533 145.361 67.76C145.361 66.6133 145.107 65.6667 144.601 64.92C144.121 64.1467 143.467 63.5733 142.641 63.2C141.841 62.8 140.974 62.6 140.041 62.6C138.974 62.6 138.014 62.72 137.161 62.96C136.334 63.2 135.521 63.6267 134.721 64.24L134.841 61.36C135.267 60.8 135.761 60.3467 136.321 60C136.881 59.6267 137.534 59.3467 138.281 59.16C139.027 58.9733 139.907 58.88 140.921 58.88C142.894 58.88 144.547 59.2933 145.881 60.12C147.241 60.9467 148.267 62.0533 148.961 63.44C149.654 64.8 150.001 66.32 150.001 68C150.001 69.8133 149.547 71.4267 148.641 72.84C147.761 74.2533 146.534 75.3733 144.961 76.2C143.387 77 141.574 77.4 139.521 77.4ZM134.721 64.24L132.201 61.72L133.441 49H137.641L136.201 62.24L134.721 64.24ZM134.241 53.12L133.441 49H148.441V53.12H134.241Z" fill="#030037"/>
</svg>
