<svg width="243" height="112" viewBox="0 0 243 112" fill="none" xmlns="http://www.w3.org/2000/svg">
<path d="M0 24C0 10.7452 10.7452 0 24 0H243V112H24C10.7452 112 0 101.255 0 88V24Z" fill="white"/>
<rect x="16" y="16" width="80" height="80" rx="12" fill="#D8FFE5"/>
<path fill-rule="evenodd" clip-rule="evenodd" d="M56 72.6667C48.1432 72.6667 44.2149 72.6667 41.7741 70.2259C39.3333 67.7851 39.3333 63.8568 39.3333 56C39.3333 48.1433 39.3333 44.2149 41.7741 41.7741C44.2149 39.3333 48.1432 39.3333 56 39.3333C63.8567 39.3333 67.7851 39.3333 70.2259 41.7741C72.6666 44.2149 72.6666 48.1433 72.6666 56C72.6666 63.8568 72.6666 67.7851 70.2259 70.2259C67.7851 72.6667 63.8567 72.6667 56 72.6667ZM60.1238 50.0317C60.6586 50.4682 60.7382 51.2557 60.3016 51.7905L50.7778 63.4571C50.5404 63.748 50.1849 63.9167 49.8095 63.9167C49.4341 63.9167 49.0786 63.748 48.8412 63.4571L45.0317 58.7905C44.5951 58.2557 44.6747 57.4682 45.2095 57.0317C45.7443 56.5951 46.5317 56.6747 46.9683 57.2095L49.8095 60.69L58.365 50.2095C58.8016 49.6747 59.589 49.5951 60.1238 50.0317ZM66.7905 50.0317C67.3252 50.4683 67.4049 51.2557 66.9683 51.7905L57.4442 63.4572C57.192 63.7661 56.8076 63.9361 56.4094 63.9149C56.0112 63.8937 55.6471 63.6838 55.4291 63.3499L54.9532 62.6207C54.5759 62.0426 54.7387 61.2681 55.3168 60.8907C55.6565 60.669 56.0641 60.6338 56.419 60.7598L65.0317 50.2095C65.4682 49.6747 66.2557 49.5951 66.7905 50.0317Z" fill="#01B53E"/>
<path d="M111.724 30V20.564H113.04V30H111.724ZM108.42 21.488V20.284H116.33V21.488H108.42ZM121.611 30.14C120.92 30.14 120.276 30.014 119.679 29.762C119.082 29.5007 118.559 29.1413 118.111 28.684C117.663 28.2173 117.313 27.6807 117.061 27.074C116.818 26.4673 116.697 25.8187 116.697 25.128C116.697 24.428 116.818 23.7793 117.061 23.182C117.313 22.5753 117.658 22.0433 118.097 21.586C118.545 21.1287 119.063 20.774 119.651 20.522C120.248 20.27 120.892 20.144 121.583 20.144C122.274 20.144 122.913 20.27 123.501 20.522C124.098 20.774 124.621 21.1287 125.069 21.586C125.517 22.0433 125.867 22.5753 126.119 23.182C126.371 23.7887 126.497 24.442 126.497 25.142C126.497 25.8327 126.371 26.4813 126.119 27.088C125.867 27.6947 125.517 28.2267 125.069 28.684C124.63 29.1413 124.112 29.5007 123.515 29.762C122.927 30.014 122.292 30.14 121.611 30.14ZM121.583 28.88C122.283 28.88 122.894 28.7213 123.417 28.404C123.949 28.0773 124.369 27.634 124.677 27.074C124.985 26.5047 125.139 25.856 125.139 25.128C125.139 24.5867 125.05 24.092 124.873 23.644C124.696 23.1867 124.448 22.79 124.131 22.454C123.814 22.118 123.44 21.8613 123.011 21.684C122.582 21.4973 122.106 21.404 121.583 21.404C120.892 21.404 120.281 21.5627 119.749 21.88C119.226 22.1973 118.811 22.636 118.503 23.196C118.204 23.756 118.055 24.4 118.055 25.128C118.055 25.6693 118.139 26.1733 118.307 26.64C118.484 27.0973 118.727 27.494 119.035 27.83C119.352 28.1567 119.726 28.4133 120.155 28.6C120.594 28.7867 121.07 28.88 121.583 28.88ZM130.167 30V20.564H131.483V30H130.167ZM126.863 21.488V20.284H134.773V21.488H126.863ZM134.205 30L138.181 20.284H139.133L143.095 30H141.667L138.405 21.782H138.895L135.605 30H134.205ZM136.095 27.802V26.654H141.205V27.802H136.095ZM144.558 30V20.284H145.874V30H144.558ZM145.454 30V28.796H150.662V30H145.454ZM155.968 25.772V24.666H158.6C159.169 24.666 159.608 24.5213 159.916 24.232C160.224 23.9427 160.378 23.5507 160.378 23.056C160.378 22.5893 160.224 22.202 159.916 21.894C159.617 21.586 159.183 21.432 158.614 21.432H155.968V20.284H158.656C159.272 20.284 159.808 20.4053 160.266 20.648C160.723 20.8813 161.073 21.2033 161.316 21.614C161.568 22.0247 161.694 22.496 161.694 23.028C161.694 23.5787 161.568 24.0593 161.316 24.47C161.073 24.8807 160.723 25.2027 160.266 25.436C159.808 25.66 159.272 25.772 158.656 25.772H155.968ZM155.086 30V20.284H156.402V30H155.086ZM160.686 30L157.158 25.646L158.404 25.212L162.352 30H160.686ZM163.712 30V20.284H165.028V30H163.712ZM164.608 30V28.796H170.18V30H164.608ZM164.608 25.604V24.456H169.718V25.604H164.608ZM164.608 21.488V20.284H170.11V21.488H164.608ZM171.256 30L175.232 20.284H176.184L180.146 30H178.718L175.456 21.782H175.946L172.656 30H171.256ZM173.146 27.802V26.654H178.256V27.802H173.146ZM182.477 30V28.796H185.179C185.898 28.796 186.528 28.642 187.069 28.334C187.61 28.0167 188.03 27.5827 188.329 27.032C188.637 26.4813 188.791 25.8467 188.791 25.128C188.791 24.4187 188.637 23.7887 188.329 23.238C188.021 22.6873 187.596 22.258 187.055 21.95C186.514 21.642 185.888 21.488 185.179 21.488H182.491V20.284H185.207C185.916 20.284 186.57 20.4053 187.167 20.648C187.774 20.8907 188.296 21.2313 188.735 21.67C189.183 22.1087 189.528 22.622 189.771 23.21C190.023 23.798 190.149 24.442 190.149 25.142C190.149 25.8327 190.023 26.4767 189.771 27.074C189.528 27.662 189.188 28.1753 188.749 28.614C188.31 29.0527 187.788 29.3933 187.181 29.636C186.584 29.8787 185.935 30 185.235 30H182.477ZM181.609 30V20.284H182.925V30H181.609Z" fill="#6F767D"/>
<path d="M109.12 74.28L119.44 63.32C120.293 62.4133 120.987 61.6 121.52 60.88C122.053 60.16 122.44 59.48 122.68 58.84C122.92 58.2 123.04 57.5467 123.04 56.88C123.04 55.6267 122.627 54.6533 121.8 53.96C121 53.24 119.973 52.88 118.72 52.88C117.387 52.88 116.213 53.2133 115.2 53.88C114.187 54.5467 113.28 55.5867 112.48 57L109.28 54.36C110.373 52.4667 111.72 51.04 113.32 50.08C114.92 49.0933 116.773 48.6 118.88 48.6C120.613 48.6 122.133 48.9467 123.44 49.64C124.747 50.3333 125.76 51.3067 126.48 52.56C127.2 53.7867 127.56 55.2133 127.56 56.84C127.56 58.0133 127.413 59.0667 127.12 60C126.853 60.9067 126.387 61.8267 125.72 62.76C125.053 63.6667 124.133 64.7333 122.96 65.96L115.04 74.16L109.12 74.28ZM109.12 77V74.28L113.08 72.88H128.12V77H109.12ZM142.801 77.4C140.694 77.4 138.761 76.8133 137.001 75.64C135.267 74.44 133.881 72.76 132.841 70.6C131.801 68.44 131.281 65.8933 131.281 62.96C131.281 60.0267 131.787 57.4933 132.801 55.36C133.841 53.2 135.227 51.5333 136.961 50.36C138.694 49.1867 140.614 48.6 142.721 48.6C144.854 48.6 146.787 49.1867 148.521 50.36C150.254 51.5333 151.627 53.2 152.641 55.36C153.681 57.4933 154.201 60.04 154.201 63C154.201 65.9333 153.681 68.48 152.641 70.64C151.627 72.8 150.254 74.4667 148.521 75.64C146.814 76.8133 144.907 77.4 142.801 77.4ZM142.721 73.08C144.107 73.08 145.307 72.7067 146.321 71.96C147.334 71.2133 148.121 70.0933 148.681 68.6C149.267 67.1067 149.561 65.2267 149.561 62.96C149.561 60.72 149.267 58.8533 148.681 57.36C148.121 55.8667 147.321 54.76 146.281 54.04C145.267 53.2933 144.081 52.92 142.721 52.92C141.361 52.92 140.161 53.2933 139.121 54.04C138.107 54.76 137.321 55.8667 136.761 57.36C136.201 58.8267 135.921 60.6933 135.921 62.96C135.921 65.2267 136.201 67.1067 136.761 68.6C137.321 70.0933 138.107 71.2133 139.121 71.96C140.161 72.7067 141.361 73.08 142.721 73.08Z" fill="#030037"/>
</svg>
