<svg width="442" height="130" viewBox="0 0 442 130" fill="none" xmlns="http://www.w3.org/2000/svg">
<path d="M0 16C0 7.16344 7.16344 0 16 0H425.835C434.672 0 441.835 7.16344 441.835 16V130H0V16Z" fill="white"/>
<g clip-path="url(#clip0_1293_7509)">
<rect x="16" y="16" width="278" height="26" rx="13" fill="#F5F6F7"/>
<path fill-rule="evenodd" clip-rule="evenodd" d="M34.4231 22.4162C34.6412 21.8613 35.4251 21.8613 35.6432 22.4162L35.9285 23.1424L36.6516 23.4286C37.2045 23.6475 37.2046 24.4314 36.6516 24.6503L35.9285 24.9365L35.6432 25.6627C35.4251 26.2176 34.6412 26.2176 34.4231 25.6627L34.1378 24.9365L33.4147 24.6503C32.8618 24.4314 32.8618 23.6475 33.4147 23.4286L34.1378 23.1424L34.4231 22.4162ZM35.0332 22.6866L35.3096 23.3902C35.3761 23.5593 35.5096 23.6935 35.6788 23.7605L36.3835 24.0394L35.6788 24.3184C35.5096 24.3854 35.3761 24.5196 35.3096 24.6887L35.0332 25.3923L34.7567 24.6887C34.6902 24.5196 34.5567 24.3854 34.3876 24.3184L33.6828 24.0394L34.3876 23.7605C34.5567 23.6935 34.6902 23.5593 34.7567 23.3902L35.0332 22.6866Z" fill="url(#paint0_linear_1293_7509)"/>
<path fill-rule="evenodd" clip-rule="evenodd" d="M26.2095 23.2095C27.1554 22.2635 28.6891 22.2635 29.6351 23.2095L37.7905 31.3649C38.7365 32.3109 38.7365 33.8446 37.7905 34.7905C36.8446 35.7365 35.3109 35.7365 34.3649 34.7905L26.2095 26.6351C25.2635 25.6891 25.2635 24.1554 26.2095 23.2095ZM28.928 23.9166C28.3725 23.3611 27.472 23.3611 26.9166 23.9166C26.3611 24.472 26.3611 25.3725 26.9166 25.928L27.9741 26.9855L29.9855 24.9741L28.928 23.9166ZM35.072 34.0834L28.6812 27.6926L30.6926 25.6812L37.0834 32.072C37.6389 32.6275 37.6389 33.528 37.0834 34.0834C36.528 34.6389 35.6275 34.6389 35.072 34.0834Z" fill="url(#paint1_linear_1293_7509)"/>
<path fill-rule="evenodd" clip-rule="evenodd" d="M38.2213 26.9644C38.0032 26.4094 37.2193 26.4094 37.0012 26.9644L36.8982 27.2266L36.6373 27.3298C36.0844 27.5487 36.0844 28.3327 36.6373 28.5515L36.8982 28.6548L37.0012 28.917C37.2193 29.4719 38.0032 29.4719 38.2213 28.917L38.3243 28.6548L38.5852 28.5515C39.1381 28.3327 39.1381 27.5487 38.5852 27.3298L38.3243 27.2266L38.2213 26.9644ZM37.6113 27.2348L37.5171 27.4744C37.4507 27.6435 37.3172 27.7777 37.148 27.8447L36.9055 27.9407L37.148 28.0367C37.3172 28.1036 37.4507 28.2379 37.5171 28.4069L37.6113 28.6466L37.7054 28.4069C37.7719 28.2379 37.9054 28.1036 38.0746 28.0367L38.317 27.9407L38.0746 27.8447C37.9054 27.7777 37.7719 27.6435 37.7054 27.4744L37.6113 27.2348Z" fill="url(#paint2_linear_1293_7509)"/>
<path fill-rule="evenodd" clip-rule="evenodd" d="M27.1119 31.0829C27.33 30.5279 28.1139 30.5279 28.332 31.0829L28.435 31.3451L28.6959 31.4483C29.2488 31.6672 29.2488 32.4511 28.6959 32.67L28.435 32.7733L28.332 33.0355C28.1139 33.5904 27.33 33.5904 27.1119 33.0355L27.0089 32.7733L26.748 32.67C26.1951 32.4511 26.1951 31.6672 26.748 31.4483L27.0089 31.3451L27.1119 31.0829ZM27.6278 31.5929L27.7219 31.3533L27.8161 31.5929C27.8825 31.762 28.016 31.8962 28.1852 31.9632L28.4277 32.0592L28.1852 32.1552C28.016 32.2221 27.8825 32.3564 27.8161 32.5254L27.7219 32.7651L27.6278 32.5254C27.5613 32.3564 27.4278 32.2221 27.2586 32.1552L27.0162 32.0592L27.2586 31.9632C27.4278 31.8962 27.5613 31.762 27.6278 31.5929Z" fill="url(#paint3_linear_1293_7509)"/>
<path d="M51.85 34.14C51.0847 34.14 50.4313 34 49.89 33.72C49.3487 33.44 48.868 33.034 48.448 32.502L49.344 31.606C49.652 32.0353 50.0067 32.362 50.408 32.586C50.8093 32.8007 51.304 32.908 51.892 32.908C52.4707 32.908 52.9327 32.782 53.278 32.53C53.6327 32.278 53.81 31.9327 53.81 31.494C53.81 31.13 53.726 30.836 53.558 30.612C53.39 30.388 53.1613 30.206 52.872 30.066C52.592 29.9167 52.284 29.786 51.948 29.674C51.612 29.5527 51.276 29.4267 50.94 29.296C50.604 29.156 50.296 28.988 50.016 28.792C49.736 28.5867 49.5073 28.3207 49.33 27.994C49.162 27.6673 49.078 27.2567 49.078 26.762C49.078 26.2113 49.2087 25.7447 49.47 25.362C49.7407 24.97 50.1047 24.6713 50.562 24.466C51.0287 24.2513 51.5513 24.144 52.13 24.144C52.7647 24.144 53.334 24.27 53.838 24.522C54.342 24.7647 54.7527 25.0867 55.07 25.488L54.174 26.384C53.8847 26.048 53.572 25.796 53.236 25.628C52.9093 25.46 52.5313 25.376 52.102 25.376C51.5793 25.376 51.164 25.4927 50.856 25.726C50.548 25.95 50.394 26.2673 50.394 26.678C50.394 27.0047 50.478 27.2707 50.646 27.476C50.8233 27.672 51.052 27.84 51.332 27.98C51.612 28.12 51.92 28.2507 52.256 28.372C52.6013 28.484 52.942 28.61 53.278 28.75C53.614 28.89 53.922 29.0673 54.202 29.282C54.482 29.4967 54.706 29.7767 54.874 30.122C55.0513 30.458 55.14 30.8827 55.14 31.396C55.14 32.2547 54.8413 32.9267 54.244 33.412C53.656 33.8973 52.858 34.14 51.85 34.14ZM59.3636 34.14C58.8223 34.14 58.3323 34.0187 57.8936 33.776C57.4643 33.524 57.1283 33.1787 56.8856 32.74C56.643 32.3013 56.5216 31.7927 56.5216 31.214V27.35H57.7816V31.158C57.7816 31.522 57.8423 31.8393 57.9636 32.11C58.0943 32.3713 58.281 32.572 58.5236 32.712C58.7663 32.852 59.051 32.922 59.3776 32.922C59.8723 32.922 60.2596 32.768 60.5396 32.46C60.8196 32.1427 60.9596 31.7087 60.9596 31.158V27.35H62.2196V31.214C62.2196 31.7927 62.0983 32.3013 61.8556 32.74C61.613 33.1787 61.277 33.524 60.8476 33.776C60.4276 34.0187 59.933 34.14 59.3636 34.14ZM66.6664 36.926C65.985 36.926 65.3784 36.8 64.8464 36.548C64.3237 36.296 63.9037 35.9413 63.5864 35.484L64.3984 34.658C64.669 35.0033 64.991 35.2647 65.3644 35.442C65.7377 35.6287 66.181 35.722 66.6944 35.722C67.3757 35.722 67.9124 35.54 68.3044 35.176C68.7057 34.8213 68.9064 34.3407 68.9064 33.734V32.082L69.1304 30.584L68.9064 29.1V27.35H70.1664V33.734C70.1664 34.3687 70.017 34.924 69.7184 35.4C69.429 35.876 69.0184 36.2493 68.4864 36.52C67.9637 36.7907 67.357 36.926 66.6664 36.926ZM66.6664 33.888C66.0597 33.888 65.5137 33.7433 65.0284 33.454C64.5524 33.1647 64.1744 32.768 63.8944 32.264C63.6144 31.7507 63.4744 31.1767 63.4744 30.542C63.4744 29.9073 63.6144 29.3427 63.8944 28.848C64.1744 28.344 64.5524 27.9473 65.0284 27.658C65.5137 27.3593 66.0597 27.21 66.6664 27.21C67.189 27.21 67.651 27.3127 68.0524 27.518C68.4537 27.7233 68.771 28.0127 69.0044 28.386C69.247 28.75 69.3777 29.1793 69.3964 29.674V31.438C69.3684 31.9233 69.233 32.3527 68.9904 32.726C68.757 33.09 68.4397 33.3747 68.0384 33.58C67.637 33.7853 67.1797 33.888 66.6664 33.888ZM66.9184 32.698C67.329 32.698 67.6884 32.6093 67.9964 32.432C68.3137 32.2547 68.5564 32.0073 68.7244 31.69C68.8924 31.3633 68.9764 30.9853 68.9764 30.556C68.9764 30.1267 68.8877 29.7533 68.7104 29.436C68.5424 29.1093 68.3044 28.8573 67.9964 28.68C67.6884 28.4933 67.3244 28.4 66.9044 28.4C66.4844 28.4 66.1157 28.4933 65.7984 28.68C65.481 28.8573 65.229 29.1093 65.0424 29.436C64.865 29.7533 64.7764 30.122 64.7764 30.542C64.7764 30.962 64.865 31.3353 65.0424 31.662C65.229 31.9887 65.481 32.2453 65.7984 32.432C66.125 32.6093 66.4984 32.698 66.9184 32.698ZM74.7738 36.926C74.0925 36.926 73.4858 36.8 72.9538 36.548C72.4311 36.296 72.0111 35.9413 71.6938 35.484L72.5058 34.658C72.7765 35.0033 73.0985 35.2647 73.4718 35.442C73.8451 35.6287 74.2885 35.722 74.8018 35.722C75.4831 35.722 76.0198 35.54 76.4118 35.176C76.8131 34.8213 77.0138 34.3407 77.0138 33.734V32.082L77.2378 30.584L77.0138 29.1V27.35H78.2738V33.734C78.2738 34.3687 78.1245 34.924 77.8258 35.4C77.5365 35.876 77.1258 36.2493 76.5938 36.52C76.0711 36.7907 75.4645 36.926 74.7738 36.926ZM74.7738 33.888C74.1671 33.888 73.6211 33.7433 73.1358 33.454C72.6598 33.1647 72.2818 32.768 72.0018 32.264C71.7218 31.7507 71.5818 31.1767 71.5818 30.542C71.5818 29.9073 71.7218 29.3427 72.0018 28.848C72.2818 28.344 72.6598 27.9473 73.1358 27.658C73.6211 27.3593 74.1671 27.21 74.7738 27.21C75.2965 27.21 75.7585 27.3127 76.1598 27.518C76.5611 27.7233 76.8785 28.0127 77.1118 28.386C77.3545 28.75 77.4851 29.1793 77.5038 29.674V31.438C77.4758 31.9233 77.3405 32.3527 77.0978 32.726C76.8645 33.09 76.5471 33.3747 76.1458 33.58C75.7445 33.7853 75.2871 33.888 74.7738 33.888ZM75.0258 32.698C75.4365 32.698 75.7958 32.6093 76.1038 32.432C76.4211 32.2547 76.6638 32.0073 76.8318 31.69C76.9998 31.3633 77.0838 30.9853 77.0838 30.556C77.0838 30.1267 76.9951 29.7533 76.8178 29.436C76.6498 29.1093 76.4118 28.8573 76.1038 28.68C75.7958 28.4933 75.4318 28.4 75.0118 28.4C74.5918 28.4 74.2231 28.4933 73.9058 28.68C73.5885 28.8573 73.3365 29.1093 73.1498 29.436C72.9725 29.7533 72.8838 30.122 72.8838 30.542C72.8838 30.962 72.9725 31.3353 73.1498 31.662C73.3365 31.9887 73.5885 32.2453 73.9058 32.432C74.2325 32.6093 74.6058 32.698 75.0258 32.698ZM83.2032 34.14C82.5406 34.14 81.9432 33.9907 81.4112 33.692C80.8792 33.384 80.4592 32.9687 80.1512 32.446C79.8432 31.9233 79.6892 31.3307 79.6892 30.668C79.6892 30.0147 79.8386 29.4267 80.1372 28.904C80.4452 28.3813 80.8559 27.9707 81.3692 27.672C81.8919 27.364 82.4752 27.21 83.1192 27.21C83.7352 27.21 84.2766 27.35 84.7432 27.63C85.2192 27.91 85.5879 28.2973 85.8492 28.792C86.1199 29.2867 86.2552 29.8467 86.2552 30.472C86.2552 30.5653 86.2506 30.668 86.2412 30.78C86.2319 30.8827 86.2132 31.004 86.1852 31.144H80.5712V30.094H85.5132L85.0512 30.5C85.0512 30.052 84.9719 29.674 84.8132 29.366C84.6546 29.0487 84.4306 28.806 84.1412 28.638C83.8519 28.4607 83.5019 28.372 83.0912 28.372C82.6619 28.372 82.2839 28.4653 81.9572 28.652C81.6306 28.8387 81.3786 29.1 81.2012 29.436C81.0239 29.772 80.9352 30.1687 80.9352 30.626C80.9352 31.0927 81.0286 31.5033 81.2152 31.858C81.4019 32.2033 81.6679 32.474 82.0132 32.67C82.3586 32.8567 82.7552 32.95 83.2032 32.95C83.5766 32.95 83.9172 32.8847 84.2252 32.754C84.5426 32.6233 84.8132 32.4273 85.0372 32.166L85.8492 32.992C85.5319 33.3653 85.1399 33.65 84.6732 33.846C84.2159 34.042 83.7259 34.14 83.2032 34.14ZM89.7431 34.14C89.3697 34.14 89.0151 34.0933 88.6791 34C88.3524 33.8973 88.0491 33.7573 87.7691 33.58C87.4891 33.3933 87.2464 33.174 87.0411 32.922L87.8531 32.11C88.0957 32.4087 88.3757 32.6327 88.6931 32.782C89.0104 32.922 89.3651 32.992 89.7571 32.992C90.1491 32.992 90.4524 32.9267 90.6671 32.796C90.8817 32.656 90.9891 32.4647 90.9891 32.222C90.9891 31.9793 90.9004 31.7927 90.7231 31.662C90.5551 31.522 90.3357 31.41 90.0651 31.326C89.7944 31.2327 89.5051 31.144 89.1971 31.06C88.8984 30.9667 88.6137 30.85 88.3431 30.71C88.0724 30.57 87.8484 30.3787 87.6711 30.136C87.5031 29.8933 87.4191 29.5713 87.4191 29.17C87.4191 28.7687 87.5171 28.4233 87.7131 28.134C87.9091 27.8353 88.1797 27.6067 88.5251 27.448C88.8797 27.2893 89.3044 27.21 89.7991 27.21C90.3217 27.21 90.7837 27.3033 91.1851 27.49C91.5957 27.6673 91.9317 27.938 92.1931 28.302L91.3811 29.114C91.1944 28.8713 90.9611 28.6847 90.6811 28.554C90.4104 28.4233 90.1024 28.358 89.7571 28.358C89.3931 28.358 89.1131 28.4233 88.9171 28.554C88.7304 28.6753 88.6371 28.848 88.6371 29.072C88.6371 29.296 88.7211 29.4687 88.8891 29.59C89.0571 29.7113 89.2764 29.814 89.5471 29.898C89.8271 29.982 90.1164 30.0707 90.4151 30.164C90.7137 30.248 90.9984 30.3647 91.2691 30.514C91.5397 30.6633 91.7591 30.864 91.9271 31.116C92.1044 31.368 92.1931 31.6993 92.1931 32.11C92.1931 32.7353 91.9691 33.23 91.5211 33.594C91.0824 33.958 90.4897 34.14 89.7431 34.14ZM94.6257 34V24.564H95.8857V34H94.6257ZM92.9877 28.498V27.35H97.5237V28.498H92.9877ZM101.633 34.14C100.97 34.14 100.373 33.9907 99.8409 33.692C99.3089 33.384 98.8889 32.9687 98.5809 32.446C98.2729 31.9233 98.1189 31.3307 98.1189 30.668C98.1189 30.0147 98.2682 29.4267 98.5669 28.904C98.8749 28.3813 99.2856 27.9707 99.7989 27.672C100.322 27.364 100.905 27.21 101.549 27.21C102.165 27.21 102.706 27.35 103.173 27.63C103.649 27.91 104.018 28.2973 104.279 28.792C104.55 29.2867 104.685 29.8467 104.685 30.472C104.685 30.5653 104.68 30.668 104.671 30.78C104.662 30.8827 104.643 31.004 104.615 31.144H99.0009V30.094H103.943L103.481 30.5C103.481 30.052 103.402 29.674 103.243 29.366C103.084 29.0487 102.86 28.806 102.571 28.638C102.282 28.4607 101.932 28.372 101.521 28.372C101.092 28.372 100.714 28.4653 100.387 28.652C100.06 28.8387 99.8082 29.1 99.6309 29.436C99.4536 29.772 99.3649 30.1687 99.3649 30.626C99.3649 31.0927 99.4582 31.5033 99.6449 31.858C99.8316 32.2033 100.098 32.474 100.443 32.67C100.788 32.8567 101.185 32.95 101.633 32.95C102.006 32.95 102.347 32.8847 102.655 32.754C102.972 32.6233 103.243 32.4273 103.467 32.166L104.279 32.992C103.962 33.3653 103.57 33.65 103.103 33.846C102.646 34.042 102.156 34.14 101.633 34.14ZM108.873 34.14C108.257 34.14 107.706 33.9907 107.221 33.692C106.735 33.384 106.348 32.9687 106.059 32.446C105.779 31.9233 105.639 31.3353 105.639 30.682C105.639 30.0287 105.779 29.4407 106.059 28.918C106.348 28.3953 106.735 27.98 107.221 27.672C107.706 27.364 108.257 27.21 108.873 27.21C109.367 27.21 109.815 27.3173 110.217 27.532C110.618 27.7373 110.94 28.0267 111.183 28.4C111.435 28.764 111.575 29.1887 111.603 29.674V31.676C111.575 32.152 111.439 32.5767 111.197 32.95C110.954 33.3233 110.632 33.6173 110.231 33.832C109.829 34.0373 109.377 34.14 108.873 34.14ZM109.083 32.95C109.503 32.95 109.867 32.852 110.175 32.656C110.492 32.46 110.739 32.194 110.917 31.858C111.094 31.5127 111.183 31.1207 111.183 30.682C111.183 30.2247 111.089 29.828 110.903 29.492C110.725 29.156 110.478 28.89 110.161 28.694C109.853 28.498 109.489 28.4 109.069 28.4C108.649 28.4 108.28 28.498 107.963 28.694C107.645 28.89 107.393 29.1607 107.207 29.506C107.029 29.842 106.941 30.2293 106.941 30.668C106.941 31.116 107.029 31.5127 107.207 31.858C107.393 32.194 107.645 32.46 107.963 32.656C108.289 32.852 108.663 32.95 109.083 32.95ZM112.373 34H111.099V32.208L111.337 30.584L111.099 28.974V24.004H112.373V34ZM120.619 34.14C120.115 34.14 119.658 34.0373 119.247 33.832C118.846 33.6173 118.524 33.3233 118.281 32.95C118.039 32.5767 117.903 32.152 117.875 31.676V29.674C117.903 29.1887 118.039 28.764 118.281 28.4C118.533 28.0267 118.86 27.7373 119.261 27.532C119.672 27.3173 120.125 27.21 120.619 27.21C121.226 27.21 121.772 27.364 122.257 27.672C122.752 27.98 123.139 28.3953 123.419 28.918C123.699 29.4407 123.839 30.0287 123.839 30.682C123.839 31.3353 123.699 31.9233 123.419 32.446C123.139 32.9687 122.752 33.384 122.257 33.692C121.772 33.9907 121.226 34.14 120.619 34.14ZM120.409 32.95C120.829 32.95 121.198 32.852 121.515 32.656C121.833 32.46 122.085 32.194 122.271 31.858C122.458 31.5127 122.551 31.116 122.551 30.668C122.551 30.2293 122.458 29.8373 122.271 29.492C122.085 29.1467 121.833 28.8807 121.515 28.694C121.198 28.498 120.834 28.4 120.423 28.4C120.003 28.4 119.635 28.498 119.317 28.694C119 28.8807 118.753 29.1467 118.575 29.492C118.398 29.8373 118.309 30.234 118.309 30.682C118.309 31.1207 118.393 31.5127 118.561 31.858C118.739 32.194 118.986 32.46 119.303 32.656C119.63 32.852 119.999 32.95 120.409 32.95ZM117.119 36.786V27.35H118.379V29.1L118.141 30.71L118.379 32.334V36.786H117.119ZM125.268 34V27.35H126.528V34H125.268ZM126.528 30.206L126.052 29.996C126.052 29.1467 126.248 28.47 126.64 27.966C127.032 27.462 127.596 27.21 128.334 27.21C128.67 27.21 128.973 27.2707 129.244 27.392C129.514 27.504 129.766 27.6953 130 27.966L129.174 28.82C129.034 28.6707 128.88 28.5633 128.712 28.498C128.544 28.4327 128.348 28.4 128.124 28.4C127.657 28.4 127.274 28.5493 126.976 28.848C126.677 29.1467 126.528 29.5993 126.528 30.206ZM133.706 34.14C133.053 34.14 132.465 33.986 131.942 33.678C131.419 33.37 131.004 32.9547 130.696 32.432C130.388 31.9 130.234 31.3073 130.234 30.654C130.234 30.01 130.388 29.4313 130.696 28.918C131.004 28.3953 131.419 27.98 131.942 27.672C132.465 27.364 133.053 27.21 133.706 27.21C134.35 27.21 134.933 27.364 135.456 27.672C135.988 27.9707 136.408 28.3813 136.716 28.904C137.024 29.4267 137.178 30.01 137.178 30.654C137.178 31.3073 137.024 31.9 136.716 32.432C136.408 32.9547 135.988 33.37 135.456 33.678C134.933 33.986 134.35 34.14 133.706 34.14ZM133.706 32.922C134.126 32.922 134.499 32.824 134.826 32.628C135.153 32.432 135.409 32.166 135.596 31.83C135.783 31.4847 135.876 31.0927 135.876 30.654C135.876 30.2247 135.778 29.842 135.582 29.506C135.395 29.17 135.139 28.9087 134.812 28.722C134.495 28.526 134.126 28.428 133.706 28.428C133.286 28.428 132.913 28.526 132.586 28.722C132.259 28.9087 132.003 29.17 131.816 29.506C131.629 29.842 131.536 30.2247 131.536 30.654C131.536 31.0927 131.629 31.4847 131.816 31.83C132.003 32.166 132.259 32.432 132.586 32.628C132.913 32.824 133.286 32.922 133.706 32.922ZM138.598 34V27.35H139.858V34H138.598ZM143.092 34V29.982C143.092 29.4873 142.938 29.1 142.63 28.82C142.331 28.5307 141.953 28.386 141.496 28.386C141.188 28.386 140.912 28.4513 140.67 28.582C140.427 28.7127 140.231 28.8947 140.082 29.128C139.932 29.3613 139.858 29.6413 139.858 29.968L139.34 29.716C139.34 29.212 139.447 28.7733 139.662 28.4C139.886 28.0267 140.189 27.7373 140.572 27.532C140.954 27.3173 141.384 27.21 141.86 27.21C142.326 27.21 142.746 27.3127 143.12 27.518C143.502 27.7233 143.801 28.0127 144.016 28.386C144.24 28.7593 144.352 29.2027 144.352 29.716V34H143.092ZM147.586 34V29.982C147.586 29.4873 147.432 29.1 147.124 28.82C146.825 28.5307 146.452 28.386 146.004 28.386C145.696 28.386 145.416 28.4513 145.164 28.582C144.921 28.7127 144.725 28.8947 144.576 29.128C144.426 29.3613 144.352 29.6413 144.352 29.968L143.638 29.716C143.666 29.2027 143.801 28.764 144.044 28.4C144.296 28.0267 144.618 27.7373 145.01 27.532C145.402 27.3173 145.831 27.21 146.298 27.21C146.783 27.21 147.217 27.3127 147.6 27.518C147.982 27.7233 148.286 28.0127 148.51 28.386C148.743 28.7593 148.86 29.2073 148.86 29.73V34H147.586ZM154.074 34.14C153.57 34.14 153.113 34.0373 152.702 33.832C152.301 33.6173 151.979 33.3233 151.736 32.95C151.494 32.5767 151.358 32.152 151.33 31.676V29.674C151.358 29.1887 151.494 28.764 151.736 28.4C151.988 28.0267 152.315 27.7373 152.716 27.532C153.127 27.3173 153.58 27.21 154.074 27.21C154.681 27.21 155.227 27.364 155.712 27.672C156.207 27.98 156.594 28.3953 156.874 28.918C157.154 29.4407 157.294 30.0287 157.294 30.682C157.294 31.3353 157.154 31.9233 156.874 32.446C156.594 32.9687 156.207 33.384 155.712 33.692C155.227 33.9907 154.681 34.14 154.074 34.14ZM153.864 32.95C154.284 32.95 154.653 32.852 154.97 32.656C155.288 32.46 155.54 32.194 155.726 31.858C155.913 31.5127 156.006 31.116 156.006 30.668C156.006 30.2293 155.913 29.8373 155.726 29.492C155.54 29.1467 155.288 28.8807 154.97 28.694C154.653 28.498 154.289 28.4 153.878 28.4C153.458 28.4 153.09 28.498 152.772 28.694C152.455 28.8807 152.208 29.1467 152.03 29.492C151.853 29.8373 151.764 30.234 151.764 30.682C151.764 31.1207 151.848 31.5127 152.016 31.858C152.194 32.194 152.441 32.46 152.758 32.656C153.085 32.852 153.454 32.95 153.864 32.95ZM150.574 36.786V27.35H151.834V29.1L151.596 30.71L151.834 32.334V36.786H150.574ZM159.54 34V24.564H160.8V34H159.54ZM157.902 28.498V27.35H162.438V28.498H157.902ZM168.082 34V24.284H169.384V34H168.082ZM166.094 25.46V24.284H169.244V25.46H166.094ZM176.254 34L173.622 27.35H174.938L176.842 32.53H176.422L178.312 27.35H179.04L180.93 32.53H180.51L182.414 27.35H183.73L181.112 34H180.37L178.452 28.974H178.914L176.982 34H176.254ZM184.754 34V27.35H186.014V34H184.754ZM185.384 26.02C185.151 26.02 184.96 25.9453 184.81 25.796C184.661 25.6373 184.586 25.4413 184.586 25.208C184.586 24.984 184.661 24.7973 184.81 24.648C184.96 24.4893 185.151 24.41 185.384 24.41C185.618 24.41 185.809 24.4893 185.958 24.648C186.108 24.7973 186.182 24.984 186.182 25.208C186.182 25.4413 186.108 25.6373 185.958 25.796C185.809 25.9453 185.618 26.02 185.384 26.02ZM187.871 34V24.004H189.131V34H187.871ZM190.975 34V24.004H192.235V34H190.975ZM200.49 34.14C199.986 34.14 199.529 34.0373 199.118 33.832C198.717 33.6173 198.395 33.3233 198.152 32.95C197.91 32.5767 197.774 32.152 197.746 31.676V29.674C197.774 29.1887 197.91 28.764 198.152 28.4C198.404 28.0267 198.731 27.7373 199.132 27.532C199.543 27.3173 199.996 27.21 200.49 27.21C201.097 27.21 201.643 27.364 202.128 27.672C202.623 27.98 203.01 28.3953 203.29 28.918C203.57 29.4407 203.71 30.0287 203.71 30.682C203.71 31.3353 203.57 31.9233 203.29 32.446C203.01 32.9687 202.623 33.384 202.128 33.692C201.643 33.9907 201.097 34.14 200.49 34.14ZM200.28 32.95C200.7 32.95 201.069 32.852 201.386 32.656C201.704 32.46 201.956 32.194 202.142 31.858C202.329 31.5127 202.422 31.116 202.422 30.668C202.422 30.2293 202.329 29.8373 202.142 29.492C201.956 29.1467 201.704 28.8807 201.386 28.694C201.069 28.498 200.705 28.4 200.294 28.4C199.874 28.4 199.506 28.498 199.188 28.694C198.871 28.8807 198.624 29.1467 198.446 29.492C198.269 29.8373 198.18 30.234 198.18 30.682C198.18 31.1207 198.264 31.5127 198.432 31.858C198.61 32.194 198.857 32.46 199.174 32.656C199.501 32.852 199.87 32.95 200.28 32.95ZM196.99 34V24.004H198.25V28.974L198.012 30.584L198.25 32.208V34H196.99ZM208.219 34.14C207.556 34.14 206.959 33.9907 206.427 33.692C205.895 33.384 205.475 32.9687 205.167 32.446C204.859 31.9233 204.705 31.3307 204.705 30.668C204.705 30.0147 204.854 29.4267 205.153 28.904C205.461 28.3813 205.872 27.9707 206.385 27.672C206.908 27.364 207.491 27.21 208.135 27.21C208.751 27.21 209.292 27.35 209.759 27.63C210.235 27.91 210.604 28.2973 210.865 28.792C211.136 29.2867 211.271 29.8467 211.271 30.472C211.271 30.5653 211.266 30.668 211.257 30.78C211.248 30.8827 211.229 31.004 211.201 31.144H205.587V30.094H210.529L210.067 30.5C210.067 30.052 209.988 29.674 209.829 29.366C209.67 29.0487 209.446 28.806 209.157 28.638C208.868 28.4607 208.518 28.372 208.107 28.372C207.678 28.372 207.3 28.4653 206.973 28.652C206.646 28.8387 206.394 29.1 206.217 29.436C206.04 29.772 205.951 30.1687 205.951 30.626C205.951 31.0927 206.044 31.5033 206.231 31.858C206.418 32.2033 206.684 32.474 207.029 32.67C207.374 32.8567 207.771 32.95 208.219 32.95C208.592 32.95 208.933 32.8847 209.241 32.754C209.558 32.6233 209.829 32.4273 210.053 32.166L210.865 32.992C210.548 33.3653 210.156 33.65 209.689 33.846C209.232 34.042 208.742 34.14 208.219 34.14ZM217.671 34.14C217.297 34.14 216.943 34.0933 216.607 34C216.28 33.8973 215.977 33.7573 215.697 33.58C215.417 33.3933 215.174 33.174 214.969 32.922L215.781 32.11C216.023 32.4087 216.303 32.6327 216.621 32.782C216.938 32.922 217.293 32.992 217.685 32.992C218.077 32.992 218.38 32.9267 218.595 32.796C218.809 32.656 218.917 32.4647 218.917 32.222C218.917 31.9793 218.828 31.7927 218.651 31.662C218.483 31.522 218.263 31.41 217.993 31.326C217.722 31.2327 217.433 31.144 217.125 31.06C216.826 30.9667 216.541 30.85 216.271 30.71C216 30.57 215.776 30.3787 215.599 30.136C215.431 29.8933 215.347 29.5713 215.347 29.17C215.347 28.7687 215.445 28.4233 215.641 28.134C215.837 27.8353 216.107 27.6067 216.453 27.448C216.807 27.2893 217.232 27.21 217.727 27.21C218.249 27.21 218.711 27.3033 219.113 27.49C219.523 27.6673 219.859 27.938 220.121 28.302L219.309 29.114C219.122 28.8713 218.889 28.6847 218.609 28.554C218.338 28.4233 218.03 28.358 217.685 28.358C217.321 28.358 217.041 28.4233 216.845 28.554C216.658 28.6753 216.565 28.848 216.565 29.072C216.565 29.296 216.649 29.4687 216.817 29.59C216.985 29.7113 217.204 29.814 217.475 29.898C217.755 29.982 218.044 30.0707 218.343 30.164C218.641 30.248 218.926 30.3647 219.197 30.514C219.467 30.6633 219.687 30.864 219.855 31.116C220.032 31.368 220.121 31.6993 220.121 32.11C220.121 32.7353 219.897 33.23 219.449 33.594C219.01 33.958 218.417 34.14 217.671 34.14ZM226.235 34V30.122C226.235 29.618 226.077 29.2027 225.759 28.876C225.442 28.5493 225.031 28.386 224.527 28.386C224.191 28.386 223.893 28.4607 223.631 28.61C223.37 28.7593 223.165 28.9647 223.015 29.226C222.866 29.4873 222.791 29.786 222.791 30.122L222.273 29.828C222.273 29.324 222.385 28.876 222.609 28.484C222.833 28.092 223.146 27.784 223.547 27.56C223.949 27.3267 224.401 27.21 224.905 27.21C225.409 27.21 225.853 27.322 226.235 27.546C226.627 27.77 226.935 28.0827 227.159 28.484C227.383 28.8853 227.495 29.3473 227.495 29.87V34H226.235ZM221.531 34V24.004H222.791V34H221.531ZM232.239 34.14C231.586 34.14 230.998 33.986 230.475 33.678C229.953 33.37 229.537 32.9547 229.229 32.432C228.921 31.9 228.767 31.3073 228.767 30.654C228.767 30.01 228.921 29.4313 229.229 28.918C229.537 28.3953 229.953 27.98 230.475 27.672C230.998 27.364 231.586 27.21 232.239 27.21C232.883 27.21 233.467 27.364 233.989 27.672C234.521 27.9707 234.941 28.3813 235.249 28.904C235.557 29.4267 235.711 30.01 235.711 30.654C235.711 31.3073 235.557 31.9 235.249 32.432C234.941 32.9547 234.521 33.37 233.989 33.678C233.467 33.986 232.883 34.14 232.239 34.14ZM232.239 32.922C232.659 32.922 233.033 32.824 233.359 32.628C233.686 32.432 233.943 32.166 234.129 31.83C234.316 31.4847 234.409 31.0927 234.409 30.654C234.409 30.2247 234.311 29.842 234.115 29.506C233.929 29.17 233.672 28.9087 233.345 28.722C233.028 28.526 232.659 28.428 232.239 28.428C231.819 28.428 231.446 28.526 231.119 28.722C230.793 28.9087 230.536 29.17 230.349 29.506C230.163 29.842 230.069 30.2247 230.069 30.654C230.069 31.0927 230.163 31.4847 230.349 31.83C230.536 32.166 230.793 32.432 231.119 32.628C231.446 32.824 231.819 32.922 232.239 32.922ZM238.844 34L236.212 27.35H237.528L239.432 32.53H239.012L240.902 27.35H241.63L243.52 32.53H243.1L245.004 27.35H246.32L243.702 34H242.96L241.042 28.974H241.504L239.572 34H238.844ZM252.144 34V30.122C252.144 29.618 251.985 29.2027 251.668 28.876C251.35 28.5493 250.94 28.386 250.436 28.386C250.1 28.386 249.801 28.4607 249.54 28.61C249.278 28.7593 249.073 28.9647 248.924 29.226C248.774 29.4873 248.7 29.786 248.7 30.122L248.182 29.828C248.182 29.324 248.294 28.876 248.518 28.484C248.742 28.092 249.054 27.784 249.456 27.56C249.857 27.3267 250.31 27.21 250.814 27.21C251.318 27.21 251.761 27.336 252.144 27.588C252.536 27.84 252.844 28.1713 253.068 28.582C253.292 28.9833 253.404 29.4127 253.404 29.87V34H252.144ZM247.44 34V27.35H248.7V34H247.44ZM262.726 34V30.122C262.726 29.618 262.567 29.2027 262.25 28.876C261.932 28.5493 261.522 28.386 261.018 28.386C260.682 28.386 260.383 28.4607 260.122 28.61C259.86 28.7593 259.655 28.9647 259.506 29.226C259.356 29.4873 259.282 29.786 259.282 30.122L258.764 29.828C258.764 29.324 258.876 28.876 259.1 28.484C259.324 28.092 259.636 27.784 260.038 27.56C260.439 27.3267 260.892 27.21 261.396 27.21C261.9 27.21 262.343 27.322 262.726 27.546C263.118 27.77 263.426 28.0827 263.65 28.484C263.874 28.8853 263.986 29.3473 263.986 29.87V34H262.726ZM258.022 34V24.004H259.282V34H258.022ZM268.772 34.14C268.109 34.14 267.512 33.9907 266.98 33.692C266.448 33.384 266.028 32.9687 265.72 32.446C265.412 31.9233 265.258 31.3307 265.258 30.668C265.258 30.0147 265.407 29.4267 265.706 28.904C266.014 28.3813 266.424 27.9707 266.938 27.672C267.46 27.364 268.044 27.21 268.688 27.21C269.304 27.21 269.845 27.35 270.312 27.63C270.788 27.91 271.156 28.2973 271.418 28.792C271.688 29.2867 271.824 29.8467 271.824 30.472C271.824 30.5653 271.819 30.668 271.81 30.78C271.8 30.8827 271.782 31.004 271.754 31.144H266.14V30.094H271.082L270.62 30.5C270.62 30.052 270.54 29.674 270.382 29.366C270.223 29.0487 269.999 28.806 269.71 28.638C269.42 28.4607 269.07 28.372 268.66 28.372C268.23 28.372 267.852 28.4653 267.526 28.652C267.199 28.8387 266.947 29.1 266.77 29.436C266.592 29.772 266.504 30.1687 266.504 30.626C266.504 31.0927 266.597 31.5033 266.784 31.858C266.97 32.2033 267.236 32.474 267.582 32.67C267.927 32.8567 268.324 32.95 268.772 32.95C269.145 32.95 269.486 32.8847 269.794 32.754C270.111 32.6233 270.382 32.4273 270.606 32.166L271.418 32.992C271.1 33.3653 270.708 33.65 270.242 33.846C269.784 34.042 269.294 34.14 268.772 34.14ZM273.197 34V27.35H274.457V34H273.197ZM274.457 30.206L273.981 29.996C273.981 29.1467 274.177 28.47 274.569 27.966C274.961 27.462 275.526 27.21 276.263 27.21C276.599 27.21 276.903 27.2707 277.173 27.392C277.444 27.504 277.696 27.6953 277.929 27.966L277.103 28.82C276.963 28.6707 276.809 28.5633 276.641 28.498C276.473 28.4327 276.277 28.4 276.053 28.4C275.587 28.4 275.204 28.5493 274.905 28.848C274.607 29.1467 274.457 29.5993 274.457 30.206ZM281.678 34.14C281.015 34.14 280.418 33.9907 279.886 33.692C279.354 33.384 278.934 32.9687 278.626 32.446C278.318 31.9233 278.164 31.3307 278.164 30.668C278.164 30.0147 278.313 29.4267 278.612 28.904C278.92 28.3813 279.33 27.9707 279.844 27.672C280.366 27.364 280.95 27.21 281.594 27.21C282.21 27.21 282.751 27.35 283.218 27.63C283.694 27.91 284.062 28.2973 284.324 28.792C284.594 29.2867 284.73 29.8467 284.73 30.472C284.73 30.5653 284.725 30.668 284.716 30.78C284.706 30.8827 284.688 31.004 284.66 31.144H279.046V30.094H283.988L283.526 30.5C283.526 30.052 283.446 29.674 283.288 29.366C283.129 29.0487 282.905 28.806 282.616 28.638C282.326 28.4607 281.976 28.372 281.566 28.372C281.136 28.372 280.758 28.4653 280.432 28.652C280.105 28.8387 279.853 29.1 279.676 29.436C279.498 29.772 279.41 30.1687 279.41 30.626C279.41 31.0927 279.503 31.5033 279.69 31.858C279.876 32.2033 280.142 32.474 280.488 32.67C280.833 32.8567 281.23 32.95 281.678 32.95C282.051 32.95 282.392 32.8847 282.7 32.754C283.017 32.6233 283.288 32.4273 283.512 32.166L284.324 32.992C284.006 33.3653 283.614 33.65 283.148 33.846C282.69 34.042 282.2 34.14 281.678 34.14Z" fill="#2B2B2B"/>
<rect x="302" y="16" width="280" height="26" rx="13" fill="#F5F6F7"/>
<path fill-rule="evenodd" clip-rule="evenodd" d="M320.423 22.4162C320.641 21.8613 321.425 21.8613 321.643 22.4162L321.929 23.1424L322.652 23.4286C323.205 23.6475 323.205 24.4314 322.652 24.6503L321.929 24.9365L321.643 25.6627C321.425 26.2176 320.641 26.2176 320.423 25.6627L320.138 24.9365L319.415 24.6503C318.862 24.4314 318.862 23.6475 319.415 23.4286L320.138 23.1424L320.423 22.4162ZM321.033 22.6866L321.31 23.3902C321.376 23.5593 321.51 23.6935 321.679 23.7605L322.383 24.0394L321.679 24.3184C321.51 24.3854 321.376 24.5196 321.31 24.6887L321.033 25.3923L320.757 24.6887C320.69 24.5196 320.557 24.3854 320.388 24.3184L319.683 24.0394L320.388 23.7605C320.557 23.6935 320.69 23.5593 320.757 23.3902L321.033 22.6866Z" fill="url(#paint4_linear_1293_7509)"/>
<path fill-rule="evenodd" clip-rule="evenodd" d="M312.209 23.2095C313.155 22.2635 314.689 22.2635 315.635 23.2095L323.791 31.3649C324.736 32.3109 324.736 33.8446 323.791 34.7905C322.845 35.7365 321.311 35.7365 320.365 34.7905L312.209 26.6351C311.264 25.6891 311.264 24.1554 312.209 23.2095ZM314.928 23.9166C314.373 23.3611 313.472 23.3611 312.917 23.9166C312.361 24.472 312.361 25.3725 312.917 25.928L313.974 26.9855L315.985 24.9741L314.928 23.9166ZM321.072 34.0834L314.681 27.6926L316.693 25.6812L323.083 32.072C323.639 32.6275 323.639 33.528 323.083 34.0834C322.528 34.6389 321.627 34.6389 321.072 34.0834Z" fill="url(#paint5_linear_1293_7509)"/>
<path fill-rule="evenodd" clip-rule="evenodd" d="M324.221 26.9644C324.003 26.4094 323.219 26.4094 323.001 26.9644L322.898 27.2266L322.637 27.3298C322.084 27.5487 322.084 28.3327 322.637 28.5515L322.898 28.6548L323.001 28.917C323.219 29.4719 324.003 29.4719 324.221 28.917L324.324 28.6548L324.585 28.5515C325.138 28.3327 325.138 27.5487 324.585 27.3298L324.324 27.2266L324.221 26.9644ZM323.611 27.2348L323.517 27.4744C323.451 27.6435 323.317 27.7777 323.148 27.8447L322.906 27.9407L323.148 28.0367C323.317 28.1036 323.451 28.2379 323.517 28.4069L323.611 28.6466L323.705 28.4069C323.772 28.2379 323.905 28.1036 324.075 28.0367L324.317 27.9407L324.075 27.8447C323.905 27.7777 323.772 27.6435 323.705 27.4744L323.611 27.2348Z" fill="url(#paint6_linear_1293_7509)"/>
<path fill-rule="evenodd" clip-rule="evenodd" d="M313.112 31.0829C313.33 30.5279 314.114 30.5279 314.332 31.0829L314.435 31.3451L314.696 31.4483C315.249 31.6672 315.249 32.4511 314.696 32.67L314.435 32.7733L314.332 33.0355C314.114 33.5904 313.33 33.5904 313.112 33.0355L313.009 32.7733L312.748 32.67C312.195 32.4511 312.195 31.6672 312.748 31.4483L313.009 31.3451L313.112 31.0829ZM313.628 31.5929L313.722 31.3533L313.816 31.5929C313.883 31.762 314.016 31.8962 314.185 31.9632L314.428 32.0592L314.185 32.1552C314.016 32.2221 313.883 32.3564 313.816 32.5254L313.722 32.7651L313.628 32.5254C313.561 32.3564 313.428 32.2221 313.259 32.1552L313.016 32.0592L313.259 31.9632C313.428 31.8962 313.561 31.762 313.628 31.5929Z" fill="url(#paint7_linear_1293_7509)"/>
<path d="M337.85 34.14C337.085 34.14 336.431 34 335.89 33.72C335.349 33.44 334.868 33.034 334.448 32.502L335.344 31.606C335.652 32.0353 336.007 32.362 336.408 32.586C336.809 32.8007 337.304 32.908 337.892 32.908C338.471 32.908 338.933 32.782 339.278 32.53C339.633 32.278 339.81 31.9327 339.81 31.494C339.81 31.13 339.726 30.836 339.558 30.612C339.39 30.388 339.161 30.206 338.872 30.066C338.592 29.9167 338.284 29.786 337.948 29.674C337.612 29.5527 337.276 29.4267 336.94 29.296C336.604 29.156 336.296 28.988 336.016 28.792C335.736 28.5867 335.507 28.3207 335.33 27.994C335.162 27.6673 335.078 27.2567 335.078 26.762C335.078 26.2113 335.209 25.7447 335.47 25.362C335.741 24.97 336.105 24.6713 336.562 24.466C337.029 24.2513 337.551 24.144 338.13 24.144C338.765 24.144 339.334 24.27 339.838 24.522C340.342 24.7647 340.753 25.0867 341.07 25.488L340.174 26.384C339.885 26.048 339.572 25.796 339.236 25.628C338.909 25.46 338.531 25.376 338.102 25.376C337.579 25.376 337.164 25.4927 336.856 25.726C336.548 25.95 336.394 26.2673 336.394 26.678C336.394 27.0047 336.478 27.2707 336.646 27.476C336.823 27.672 337.052 27.84 337.332 27.98C337.612 28.12 337.92 28.2507 338.256 28.372C338.601 28.484 338.942 28.61 339.278 28.75C339.614 28.89 339.922 29.0673 340.202 29.282C340.482 29.4967 340.706 29.7767 340.874 30.122C341.051 30.458 341.14 30.8827 341.14 31.396C341.14 32.2547 340.841 32.9267 340.244 33.412C339.656 33.8973 338.858 34.14 337.85 34.14ZM345.364 34.14C344.822 34.14 344.332 34.0187 343.894 33.776C343.464 33.524 343.128 33.1787 342.886 32.74C342.643 32.3013 342.522 31.7927 342.522 31.214V27.35H343.782V31.158C343.782 31.522 343.842 31.8393 343.964 32.11C344.094 32.3713 344.281 32.572 344.524 32.712C344.766 32.852 345.051 32.922 345.378 32.922C345.872 32.922 346.26 32.768 346.54 32.46C346.82 32.1427 346.96 31.7087 346.96 31.158V27.35H348.22V31.214C348.22 31.7927 348.098 32.3013 347.856 32.74C347.613 33.1787 347.277 33.524 346.848 33.776C346.428 34.0187 345.933 34.14 345.364 34.14ZM352.666 36.926C351.985 36.926 351.378 36.8 350.846 36.548C350.324 36.296 349.904 35.9413 349.586 35.484L350.398 34.658C350.669 35.0033 350.991 35.2647 351.364 35.442C351.738 35.6287 352.181 35.722 352.694 35.722C353.376 35.722 353.912 35.54 354.304 35.176C354.706 34.8213 354.906 34.3407 354.906 33.734V32.082L355.13 30.584L354.906 29.1V27.35H356.166V33.734C356.166 34.3687 356.017 34.924 355.718 35.4C355.429 35.876 355.018 36.2493 354.486 36.52C353.964 36.7907 353.357 36.926 352.666 36.926ZM352.666 33.888C352.06 33.888 351.514 33.7433 351.028 33.454C350.552 33.1647 350.174 32.768 349.894 32.264C349.614 31.7507 349.474 31.1767 349.474 30.542C349.474 29.9073 349.614 29.3427 349.894 28.848C350.174 28.344 350.552 27.9473 351.028 27.658C351.514 27.3593 352.06 27.21 352.666 27.21C353.189 27.21 353.651 27.3127 354.052 27.518C354.454 27.7233 354.771 28.0127 355.004 28.386C355.247 28.75 355.378 29.1793 355.396 29.674V31.438C355.368 31.9233 355.233 32.3527 354.99 32.726C354.757 33.09 354.44 33.3747 354.038 33.58C353.637 33.7853 353.18 33.888 352.666 33.888ZM352.918 32.698C353.329 32.698 353.688 32.6093 353.996 32.432C354.314 32.2547 354.556 32.0073 354.724 31.69C354.892 31.3633 354.976 30.9853 354.976 30.556C354.976 30.1267 354.888 29.7533 354.71 29.436C354.542 29.1093 354.304 28.8573 353.996 28.68C353.688 28.4933 353.324 28.4 352.904 28.4C352.484 28.4 352.116 28.4933 351.798 28.68C351.481 28.8573 351.229 29.1093 351.042 29.436C350.865 29.7533 350.776 30.122 350.776 30.542C350.776 30.962 350.865 31.3353 351.042 31.662C351.229 31.9887 351.481 32.2453 351.798 32.432C352.125 32.6093 352.498 32.698 352.918 32.698ZM360.774 36.926C360.092 36.926 359.486 36.8 358.954 36.548C358.431 36.296 358.011 35.9413 357.694 35.484L358.506 34.658C358.776 35.0033 359.098 35.2647 359.472 35.442C359.845 35.6287 360.288 35.722 360.802 35.722C361.483 35.722 362.02 35.54 362.412 35.176C362.813 34.8213 363.014 34.3407 363.014 33.734V32.082L363.238 30.584L363.014 29.1V27.35H364.274V33.734C364.274 34.3687 364.124 34.924 363.826 35.4C363.536 35.876 363.126 36.2493 362.594 36.52C362.071 36.7907 361.464 36.926 360.774 36.926ZM360.774 33.888C360.167 33.888 359.621 33.7433 359.136 33.454C358.66 33.1647 358.282 32.768 358.002 32.264C357.722 31.7507 357.582 31.1767 357.582 30.542C357.582 29.9073 357.722 29.3427 358.002 28.848C358.282 28.344 358.66 27.9473 359.136 27.658C359.621 27.3593 360.167 27.21 360.774 27.21C361.296 27.21 361.758 27.3127 362.16 27.518C362.561 27.7233 362.878 28.0127 363.112 28.386C363.354 28.75 363.485 29.1793 363.504 29.674V31.438C363.476 31.9233 363.34 32.3527 363.098 32.726C362.864 33.09 362.547 33.3747 362.146 33.58C361.744 33.7853 361.287 33.888 360.774 33.888ZM361.026 32.698C361.436 32.698 361.796 32.6093 362.104 32.432C362.421 32.2547 362.664 32.0073 362.832 31.69C363 31.3633 363.084 30.9853 363.084 30.556C363.084 30.1267 362.995 29.7533 362.818 29.436C362.65 29.1093 362.412 28.8573 362.104 28.68C361.796 28.4933 361.432 28.4 361.012 28.4C360.592 28.4 360.223 28.4933 359.906 28.68C359.588 28.8573 359.336 29.1093 359.15 29.436C358.972 29.7533 358.884 30.122 358.884 30.542C358.884 30.962 358.972 31.3353 359.15 31.662C359.336 31.9887 359.588 32.2453 359.906 32.432C360.232 32.6093 360.606 32.698 361.026 32.698ZM369.203 34.14C368.541 34.14 367.943 33.9907 367.411 33.692C366.879 33.384 366.459 32.9687 366.151 32.446C365.843 31.9233 365.689 31.3307 365.689 30.668C365.689 30.0147 365.839 29.4267 366.137 28.904C366.445 28.3813 366.856 27.9707 367.369 27.672C367.892 27.364 368.475 27.21 369.119 27.21C369.735 27.21 370.277 27.35 370.743 27.63C371.219 27.91 371.588 28.2973 371.849 28.792C372.12 29.2867 372.255 29.8467 372.255 30.472C372.255 30.5653 372.251 30.668 372.241 30.78C372.232 30.8827 372.213 31.004 372.185 31.144H366.571V30.094H371.513L371.051 30.5C371.051 30.052 370.972 29.674 370.813 29.366C370.655 29.0487 370.431 28.806 370.141 28.638C369.852 28.4607 369.502 28.372 369.091 28.372C368.662 28.372 368.284 28.4653 367.957 28.652C367.631 28.8387 367.379 29.1 367.201 29.436C367.024 29.772 366.935 30.1687 366.935 30.626C366.935 31.0927 367.029 31.5033 367.215 31.858C367.402 32.2033 367.668 32.474 368.013 32.67C368.359 32.8567 368.755 32.95 369.203 32.95C369.577 32.95 369.917 32.8847 370.225 32.754C370.543 32.6233 370.813 32.4273 371.037 32.166L371.849 32.992C371.532 33.3653 371.14 33.65 370.673 33.846C370.216 34.042 369.726 34.14 369.203 34.14ZM375.743 34.14C375.37 34.14 375.015 34.0933 374.679 34C374.352 33.8973 374.049 33.7573 373.769 33.58C373.489 33.3933 373.246 33.174 373.041 32.922L373.853 32.11C374.096 32.4087 374.376 32.6327 374.693 32.782C375.01 32.922 375.365 32.992 375.757 32.992C376.149 32.992 376.452 32.9267 376.667 32.796C376.882 32.656 376.989 32.4647 376.989 32.222C376.989 31.9793 376.9 31.7927 376.723 31.662C376.555 31.522 376.336 31.41 376.065 31.326C375.794 31.2327 375.505 31.144 375.197 31.06C374.898 30.9667 374.614 30.85 374.343 30.71C374.072 30.57 373.848 30.3787 373.671 30.136C373.503 29.8933 373.419 29.5713 373.419 29.17C373.419 28.7687 373.517 28.4233 373.713 28.134C373.909 27.8353 374.18 27.6067 374.525 27.448C374.88 27.2893 375.304 27.21 375.799 27.21C376.322 27.21 376.784 27.3033 377.185 27.49C377.596 27.6673 377.932 27.938 378.193 28.302L377.381 29.114C377.194 28.8713 376.961 28.6847 376.681 28.554C376.41 28.4233 376.102 28.358 375.757 28.358C375.393 28.358 375.113 28.4233 374.917 28.554C374.73 28.6753 374.637 28.848 374.637 29.072C374.637 29.296 374.721 29.4687 374.889 29.59C375.057 29.7113 375.276 29.814 375.547 29.898C375.827 29.982 376.116 30.0707 376.415 30.164C376.714 30.248 376.998 30.3647 377.269 30.514C377.54 30.6633 377.759 30.864 377.927 31.116C378.104 31.368 378.193 31.6993 378.193 32.11C378.193 32.7353 377.969 33.23 377.521 33.594C377.082 33.958 376.49 34.14 375.743 34.14ZM380.626 34V24.564H381.886V34H380.626ZM378.988 28.498V27.35H383.524V28.498H378.988ZM387.633 34.14C386.97 34.14 386.373 33.9907 385.841 33.692C385.309 33.384 384.889 32.9687 384.581 32.446C384.273 31.9233 384.119 31.3307 384.119 30.668C384.119 30.0147 384.268 29.4267 384.567 28.904C384.875 28.3813 385.286 27.9707 385.799 27.672C386.322 27.364 386.905 27.21 387.549 27.21C388.165 27.21 388.706 27.35 389.173 27.63C389.649 27.91 390.018 28.2973 390.279 28.792C390.55 29.2867 390.685 29.8467 390.685 30.472C390.685 30.5653 390.68 30.668 390.671 30.78C390.662 30.8827 390.643 31.004 390.615 31.144H385.001V30.094H389.943L389.481 30.5C389.481 30.052 389.402 29.674 389.243 29.366C389.084 29.0487 388.86 28.806 388.571 28.638C388.282 28.4607 387.932 28.372 387.521 28.372C387.092 28.372 386.714 28.4653 386.387 28.652C386.06 28.8387 385.808 29.1 385.631 29.436C385.454 29.772 385.365 30.1687 385.365 30.626C385.365 31.0927 385.458 31.5033 385.645 31.858C385.832 32.2033 386.098 32.474 386.443 32.67C386.788 32.8567 387.185 32.95 387.633 32.95C388.006 32.95 388.347 32.8847 388.655 32.754C388.972 32.6233 389.243 32.4273 389.467 32.166L390.279 32.992C389.962 33.3653 389.57 33.65 389.103 33.846C388.646 34.042 388.156 34.14 387.633 34.14ZM394.873 34.14C394.257 34.14 393.706 33.9907 393.221 33.692C392.735 33.384 392.348 32.9687 392.059 32.446C391.779 31.9233 391.639 31.3353 391.639 30.682C391.639 30.0287 391.779 29.4407 392.059 28.918C392.348 28.3953 392.735 27.98 393.221 27.672C393.706 27.364 394.257 27.21 394.873 27.21C395.367 27.21 395.815 27.3173 396.217 27.532C396.618 27.7373 396.94 28.0267 397.183 28.4C397.435 28.764 397.575 29.1887 397.603 29.674V31.676C397.575 32.152 397.439 32.5767 397.197 32.95C396.954 33.3233 396.632 33.6173 396.231 33.832C395.829 34.0373 395.377 34.14 394.873 34.14ZM395.083 32.95C395.503 32.95 395.867 32.852 396.175 32.656C396.492 32.46 396.739 32.194 396.917 31.858C397.094 31.5127 397.183 31.1207 397.183 30.682C397.183 30.2247 397.089 29.828 396.903 29.492C396.725 29.156 396.478 28.89 396.161 28.694C395.853 28.498 395.489 28.4 395.069 28.4C394.649 28.4 394.28 28.498 393.963 28.694C393.645 28.89 393.393 29.1607 393.207 29.506C393.029 29.842 392.941 30.2293 392.941 30.668C392.941 31.116 393.029 31.5127 393.207 31.858C393.393 32.194 393.645 32.46 393.963 32.656C394.289 32.852 394.663 32.95 395.083 32.95ZM398.373 34H397.099V32.208L397.337 30.584L397.099 28.974V24.004H398.373V34ZM406.619 34.14C406.115 34.14 405.658 34.0373 405.247 33.832C404.846 33.6173 404.524 33.3233 404.281 32.95C404.039 32.5767 403.903 32.152 403.875 31.676V29.674C403.903 29.1887 404.039 28.764 404.281 28.4C404.533 28.0267 404.86 27.7373 405.261 27.532C405.672 27.3173 406.125 27.21 406.619 27.21C407.226 27.21 407.772 27.364 408.257 27.672C408.752 27.98 409.139 28.3953 409.419 28.918C409.699 29.4407 409.839 30.0287 409.839 30.682C409.839 31.3353 409.699 31.9233 409.419 32.446C409.139 32.9687 408.752 33.384 408.257 33.692C407.772 33.9907 407.226 34.14 406.619 34.14ZM406.409 32.95C406.829 32.95 407.198 32.852 407.515 32.656C407.833 32.46 408.085 32.194 408.271 31.858C408.458 31.5127 408.551 31.116 408.551 30.668C408.551 30.2293 408.458 29.8373 408.271 29.492C408.085 29.1467 407.833 28.8807 407.515 28.694C407.198 28.498 406.834 28.4 406.423 28.4C406.003 28.4 405.635 28.498 405.317 28.694C405 28.8807 404.753 29.1467 404.575 29.492C404.398 29.8373 404.309 30.234 404.309 30.682C404.309 31.1207 404.393 31.5127 404.561 31.858C404.739 32.194 404.986 32.46 405.303 32.656C405.63 32.852 405.999 32.95 406.409 32.95ZM403.119 36.786V27.35H404.379V29.1L404.141 30.71L404.379 32.334V36.786H403.119ZM411.268 34V27.35H412.528V34H411.268ZM412.528 30.206L412.052 29.996C412.052 29.1467 412.248 28.47 412.64 27.966C413.032 27.462 413.596 27.21 414.334 27.21C414.67 27.21 414.973 27.2707 415.244 27.392C415.514 27.504 415.766 27.6953 416 27.966L415.174 28.82C415.034 28.6707 414.88 28.5633 414.712 28.498C414.544 28.4327 414.348 28.4 414.124 28.4C413.657 28.4 413.274 28.5493 412.976 28.848C412.677 29.1467 412.528 29.5993 412.528 30.206ZM419.706 34.14C419.053 34.14 418.465 33.986 417.942 33.678C417.419 33.37 417.004 32.9547 416.696 32.432C416.388 31.9 416.234 31.3073 416.234 30.654C416.234 30.01 416.388 29.4313 416.696 28.918C417.004 28.3953 417.419 27.98 417.942 27.672C418.465 27.364 419.053 27.21 419.706 27.21C420.35 27.21 420.933 27.364 421.456 27.672C421.988 27.9707 422.408 28.3813 422.716 28.904C423.024 29.4267 423.178 30.01 423.178 30.654C423.178 31.3073 423.024 31.9 422.716 32.432C422.408 32.9547 421.988 33.37 421.456 33.678C420.933 33.986 420.35 34.14 419.706 34.14ZM419.706 32.922C420.126 32.922 420.499 32.824 420.826 32.628C421.153 32.432 421.409 32.166 421.596 31.83C421.783 31.4847 421.876 31.0927 421.876 30.654C421.876 30.2247 421.778 29.842 421.582 29.506C421.395 29.17 421.139 28.9087 420.812 28.722C420.495 28.526 420.126 28.428 419.706 28.428C419.286 28.428 418.913 28.526 418.586 28.722C418.259 28.9087 418.003 29.17 417.816 29.506C417.629 29.842 417.536 30.2247 417.536 30.654C417.536 31.0927 417.629 31.4847 417.816 31.83C418.003 32.166 418.259 32.432 418.586 32.628C418.913 32.824 419.286 32.922 419.706 32.922ZM424.598 34V27.35H425.858V34H424.598ZM429.092 34V29.982C429.092 29.4873 428.938 29.1 428.63 28.82C428.331 28.5307 427.953 28.386 427.496 28.386C427.188 28.386 426.912 28.4513 426.67 28.582C426.427 28.7127 426.231 28.8947 426.082 29.128C425.932 29.3613 425.858 29.6413 425.858 29.968L425.34 29.716C425.34 29.212 425.447 28.7733 425.662 28.4C425.886 28.0267 426.189 27.7373 426.572 27.532C426.954 27.3173 427.384 27.21 427.86 27.21C428.326 27.21 428.746 27.3127 429.12 27.518C429.502 27.7233 429.801 28.0127 430.016 28.386C430.24 28.7593 430.352 29.2027 430.352 29.716V34H429.092ZM433.586 34V29.982C433.586 29.4873 433.432 29.1 433.124 28.82C432.825 28.5307 432.452 28.386 432.004 28.386C431.696 28.386 431.416 28.4513 431.164 28.582C430.921 28.7127 430.725 28.8947 430.576 29.128C430.426 29.3613 430.352 29.6413 430.352 29.968L429.638 29.716C429.666 29.2027 429.801 28.764 430.044 28.4C430.296 28.0267 430.618 27.7373 431.01 27.532C431.402 27.3173 431.831 27.21 432.298 27.21C432.783 27.21 433.217 27.3127 433.6 27.518C433.982 27.7233 434.286 28.0127 434.51 28.386C434.743 28.7593 434.86 29.2073 434.86 29.73V34H433.586ZM440.074 34.14C439.57 34.14 439.113 34.0373 438.702 33.832C438.301 33.6173 437.979 33.3233 437.736 32.95C437.494 32.5767 437.358 32.152 437.33 31.676V29.674C437.358 29.1887 437.494 28.764 437.736 28.4C437.988 28.0267 438.315 27.7373 438.716 27.532C439.127 27.3173 439.58 27.21 440.074 27.21C440.681 27.21 441.227 27.364 441.712 27.672C442.207 27.98 442.594 28.3953 442.874 28.918C443.154 29.4407 443.294 30.0287 443.294 30.682C443.294 31.3353 443.154 31.9233 442.874 32.446C442.594 32.9687 442.207 33.384 441.712 33.692C441.227 33.9907 440.681 34.14 440.074 34.14ZM439.864 32.95C440.284 32.95 440.653 32.852 440.97 32.656C441.288 32.46 441.54 32.194 441.726 31.858C441.913 31.5127 442.006 31.116 442.006 30.668C442.006 30.2293 441.913 29.8373 441.726 29.492C441.54 29.1467 441.288 28.8807 440.97 28.694C440.653 28.498 440.289 28.4 439.878 28.4C439.458 28.4 439.09 28.498 438.772 28.694C438.455 28.8807 438.208 29.1467 438.03 29.492C437.853 29.8373 437.764 30.234 437.764 30.682C437.764 31.1207 437.848 31.5127 438.016 31.858C438.194 32.194 438.441 32.46 438.758 32.656C439.085 32.852 439.454 32.95 439.864 32.95ZM436.574 36.786V27.35H437.834V29.1L437.596 30.71L437.834 32.334V36.786H436.574ZM445.54 34V24.564H446.8V34H445.54ZM443.902 28.498V27.35H448.438V28.498H443.902ZM452.122 33.202L455.706 29.422C456.07 29.0487 456.355 28.7267 456.56 28.456C456.765 28.176 456.91 27.9193 456.994 27.686C457.087 27.4527 457.134 27.21 457.134 26.958C457.134 26.4633 456.975 26.076 456.658 25.796C456.341 25.516 455.93 25.376 455.426 25.376C454.931 25.376 454.497 25.4973 454.124 25.74C453.751 25.9733 453.419 26.3373 453.13 26.832L452.206 26.062C452.589 25.4273 453.051 24.9513 453.592 24.634C454.133 24.3073 454.759 24.144 455.468 24.144C456.065 24.144 456.583 24.2607 457.022 24.494C457.47 24.7273 457.815 25.054 458.058 25.474C458.301 25.894 458.422 26.384 458.422 26.944C458.422 27.3453 458.371 27.7047 458.268 28.022C458.175 28.3393 458.002 28.666 457.75 29.002C457.507 29.3287 457.167 29.7207 456.728 30.178L453.83 33.16L452.122 33.202ZM452.122 34V33.202L453.242 32.824H458.646V34H452.122ZM464.974 34L462.342 27.35H463.658L465.562 32.53H465.142L467.032 27.35H467.76L469.65 32.53H469.23L471.134 27.35H472.45L469.832 34H469.09L467.172 28.974H467.634L465.702 34H464.974ZM473.475 34V27.35H474.735V34H473.475ZM474.105 26.02C473.872 26.02 473.68 25.9453 473.531 25.796C473.382 25.6373 473.307 25.4413 473.307 25.208C473.307 24.984 473.382 24.7973 473.531 24.648C473.68 24.4893 473.872 24.41 474.105 24.41C474.338 24.41 474.53 24.4893 474.679 24.648C474.828 24.7973 474.903 24.984 474.903 25.208C474.903 25.4413 474.828 25.6373 474.679 25.796C474.53 25.9453 474.338 26.02 474.105 26.02ZM476.592 34V24.004H477.852V34H476.592ZM479.695 34V24.004H480.955V34H479.695ZM489.211 34.14C488.707 34.14 488.25 34.0373 487.839 33.832C487.438 33.6173 487.116 33.3233 486.873 32.95C486.63 32.5767 486.495 32.152 486.467 31.676V29.674C486.495 29.1887 486.63 28.764 486.873 28.4C487.125 28.0267 487.452 27.7373 487.853 27.532C488.264 27.3173 488.716 27.21 489.211 27.21C489.818 27.21 490.364 27.364 490.849 27.672C491.344 27.98 491.731 28.3953 492.011 28.918C492.291 29.4407 492.431 30.0287 492.431 30.682C492.431 31.3353 492.291 31.9233 492.011 32.446C491.731 32.9687 491.344 33.384 490.849 33.692C490.364 33.9907 489.818 34.14 489.211 34.14ZM489.001 32.95C489.421 32.95 489.79 32.852 490.107 32.656C490.424 32.46 490.676 32.194 490.863 31.858C491.05 31.5127 491.143 31.116 491.143 30.668C491.143 30.2293 491.05 29.8373 490.863 29.492C490.676 29.1467 490.424 28.8807 490.107 28.694C489.79 28.498 489.426 28.4 489.015 28.4C488.595 28.4 488.226 28.498 487.909 28.694C487.592 28.8807 487.344 29.1467 487.167 29.492C486.99 29.8373 486.901 30.234 486.901 30.682C486.901 31.1207 486.985 31.5127 487.153 31.858C487.33 32.194 487.578 32.46 487.895 32.656C488.222 32.852 488.59 32.95 489.001 32.95ZM485.711 34V24.004H486.971V28.974L486.733 30.584L486.971 32.208V34H485.711ZM496.94 34.14C496.277 34.14 495.68 33.9907 495.148 33.692C494.616 33.384 494.196 32.9687 493.888 32.446C493.58 31.9233 493.426 31.3307 493.426 30.668C493.426 30.0147 493.575 29.4267 493.874 28.904C494.182 28.3813 494.592 27.9707 495.106 27.672C495.628 27.364 496.212 27.21 496.856 27.21C497.472 27.21 498.013 27.35 498.48 27.63C498.956 27.91 499.324 28.2973 499.586 28.792C499.856 29.2867 499.992 29.8467 499.992 30.472C499.992 30.5653 499.987 30.668 499.978 30.78C499.968 30.8827 499.95 31.004 499.922 31.144H494.308V30.094H499.25L498.788 30.5C498.788 30.052 498.708 29.674 498.55 29.366C498.391 29.0487 498.167 28.806 497.878 28.638C497.588 28.4607 497.238 28.372 496.828 28.372C496.398 28.372 496.02 28.4653 495.694 28.652C495.367 28.8387 495.115 29.1 494.938 29.436C494.76 29.772 494.672 30.1687 494.672 30.626C494.672 31.0927 494.765 31.5033 494.952 31.858C495.138 32.2033 495.404 32.474 495.75 32.67C496.095 32.8567 496.492 32.95 496.94 32.95C497.313 32.95 497.654 32.8847 497.962 32.754C498.279 32.6233 498.55 32.4273 498.774 32.166L499.586 32.992C499.268 33.3653 498.876 33.65 498.41 33.846C497.952 34.042 497.462 34.14 496.94 34.14ZM506.392 34.14C506.018 34.14 505.664 34.0933 505.328 34C505.001 33.8973 504.698 33.7573 504.418 33.58C504.138 33.3933 503.895 33.174 503.69 32.922L504.502 32.11C504.744 32.4087 505.024 32.6327 505.342 32.782C505.659 32.922 506.014 32.992 506.406 32.992C506.798 32.992 507.101 32.9267 507.316 32.796C507.53 32.656 507.638 32.4647 507.638 32.222C507.638 31.9793 507.549 31.7927 507.372 31.662C507.204 31.522 506.984 31.41 506.714 31.326C506.443 31.2327 506.154 31.144 505.846 31.06C505.547 30.9667 505.262 30.85 504.992 30.71C504.721 30.57 504.497 30.3787 504.32 30.136C504.152 29.8933 504.068 29.5713 504.068 29.17C504.068 28.7687 504.166 28.4233 504.362 28.134C504.558 27.8353 504.828 27.6067 505.174 27.448C505.528 27.2893 505.953 27.21 506.448 27.21C506.97 27.21 507.432 27.3033 507.834 27.49C508.244 27.6673 508.58 27.938 508.842 28.302L508.03 29.114C507.843 28.8713 507.61 28.6847 507.33 28.554C507.059 28.4233 506.751 28.358 506.406 28.358C506.042 28.358 505.762 28.4233 505.566 28.554C505.379 28.6753 505.286 28.848 505.286 29.072C505.286 29.296 505.37 29.4687 505.538 29.59C505.706 29.7113 505.925 29.814 506.196 29.898C506.476 29.982 506.765 30.0707 507.064 30.164C507.362 30.248 507.647 30.3647 507.918 30.514C508.188 30.6633 508.408 30.864 508.576 31.116C508.753 31.368 508.842 31.6993 508.842 32.11C508.842 32.7353 508.618 33.23 508.17 33.594C507.731 33.958 507.138 34.14 506.392 34.14ZM514.956 34V30.122C514.956 29.618 514.797 29.2027 514.48 28.876C514.163 28.5493 513.752 28.386 513.248 28.386C512.912 28.386 512.613 28.4607 512.352 28.61C512.091 28.7593 511.885 28.9647 511.736 29.226C511.587 29.4873 511.512 29.786 511.512 30.122L510.994 29.828C510.994 29.324 511.106 28.876 511.33 28.484C511.554 28.092 511.867 27.784 512.268 27.56C512.669 27.3267 513.122 27.21 513.626 27.21C514.13 27.21 514.573 27.322 514.956 27.546C515.348 27.77 515.656 28.0827 515.88 28.484C516.104 28.8853 516.216 29.3473 516.216 29.87V34H514.956ZM510.252 34V24.004H511.512V34H510.252ZM520.96 34.14C520.307 34.14 519.719 33.986 519.196 33.678C518.673 33.37 518.258 32.9547 517.95 32.432C517.642 31.9 517.488 31.3073 517.488 30.654C517.488 30.01 517.642 29.4313 517.95 28.918C518.258 28.3953 518.673 27.98 519.196 27.672C519.719 27.364 520.307 27.21 520.96 27.21C521.604 27.21 522.187 27.364 522.71 27.672C523.242 27.9707 523.662 28.3813 523.97 28.904C524.278 29.4267 524.432 30.01 524.432 30.654C524.432 31.3073 524.278 31.9 523.97 32.432C523.662 32.9547 523.242 33.37 522.71 33.678C522.187 33.986 521.604 34.14 520.96 34.14ZM520.96 32.922C521.38 32.922 521.753 32.824 522.08 32.628C522.407 32.432 522.663 32.166 522.85 31.83C523.037 31.4847 523.13 31.0927 523.13 30.654C523.13 30.2247 523.032 29.842 522.836 29.506C522.649 29.17 522.393 28.9087 522.066 28.722C521.749 28.526 521.38 28.428 520.96 28.428C520.54 28.428 520.167 28.526 519.84 28.722C519.513 28.9087 519.257 29.17 519.07 29.506C518.883 29.842 518.79 30.2247 518.79 30.654C518.79 31.0927 518.883 31.4847 519.07 31.83C519.257 32.166 519.513 32.432 519.84 32.628C520.167 32.824 520.54 32.922 520.96 32.922ZM527.564 34L524.932 27.35H526.248L528.152 32.53H527.732L529.622 27.35H530.35L532.24 32.53H531.82L533.724 27.35H535.04L532.422 34H531.68L529.762 28.974H530.224L528.292 34H527.564ZM540.864 34V30.122C540.864 29.618 540.706 29.2027 540.388 28.876C540.071 28.5493 539.66 28.386 539.156 28.386C538.82 28.386 538.522 28.4607 538.26 28.61C537.999 28.7593 537.794 28.9647 537.644 29.226C537.495 29.4873 537.42 29.786 537.42 30.122L536.902 29.828C536.902 29.324 537.014 28.876 537.238 28.484C537.462 28.092 537.775 27.784 538.176 27.56C538.578 27.3267 539.03 27.21 539.534 27.21C540.038 27.21 540.482 27.336 540.864 27.588C541.256 27.84 541.564 28.1713 541.788 28.582C542.012 28.9833 542.124 29.4127 542.124 29.87V34H540.864ZM536.16 34V27.35H537.42V34H536.16ZM551.446 34V30.122C551.446 29.618 551.288 29.2027 550.97 28.876C550.653 28.5493 550.242 28.386 549.738 28.386C549.402 28.386 549.104 28.4607 548.842 28.61C548.581 28.7593 548.376 28.9647 548.226 29.226C548.077 29.4873 548.002 29.786 548.002 30.122L547.484 29.828C547.484 29.324 547.596 28.876 547.82 28.484C548.044 28.092 548.357 27.784 548.758 27.56C549.16 27.3267 549.612 27.21 550.116 27.21C550.62 27.21 551.064 27.322 551.446 27.546C551.838 27.77 552.146 28.0827 552.37 28.484C552.594 28.8853 552.706 29.3473 552.706 29.87V34H551.446ZM546.742 34V24.004H548.002V34H546.742ZM557.492 34.14C556.83 34.14 556.232 33.9907 555.7 33.692C555.168 33.384 554.748 32.9687 554.44 32.446C554.132 31.9233 553.978 31.3307 553.978 30.668C553.978 30.0147 554.128 29.4267 554.426 28.904C554.734 28.3813 555.145 27.9707 555.658 27.672C556.181 27.364 556.764 27.21 557.408 27.21C558.024 27.21 558.566 27.35 559.032 27.63C559.508 27.91 559.877 28.2973 560.138 28.792C560.409 29.2867 560.544 29.8467 560.544 30.472C560.544 30.5653 560.54 30.668 560.53 30.78C560.521 30.8827 560.502 31.004 560.474 31.144H554.86V30.094H559.802L559.34 30.5C559.34 30.052 559.261 29.674 559.102 29.366C558.944 29.0487 558.72 28.806 558.43 28.638C558.141 28.4607 557.791 28.372 557.38 28.372C556.951 28.372 556.573 28.4653 556.246 28.652C555.92 28.8387 555.668 29.1 555.49 29.436C555.313 29.772 555.224 30.1687 555.224 30.626C555.224 31.0927 555.318 31.5033 555.504 31.858C555.691 32.2033 555.957 32.474 556.302 32.67C556.648 32.8567 557.044 32.95 557.492 32.95C557.866 32.95 558.206 32.8847 558.514 32.754C558.832 32.6233 559.102 32.4273 559.326 32.166L560.138 32.992C559.821 33.3653 559.429 33.65 558.962 33.846C558.505 34.042 558.015 34.14 557.492 34.14ZM561.918 34V27.35H563.178V34H561.918ZM563.178 30.206L562.702 29.996C562.702 29.1467 562.898 28.47 563.29 27.966C563.682 27.462 564.247 27.21 564.984 27.21C565.32 27.21 565.623 27.2707 565.894 27.392C566.165 27.504 566.417 27.6953 566.65 27.966L565.824 28.82C565.684 28.6707 565.53 28.5633 565.362 28.498C565.194 28.4327 564.998 28.4 564.774 28.4C564.307 28.4 563.925 28.5493 563.626 28.848C563.327 29.1467 563.178 29.5993 563.178 30.206ZM570.399 34.14C569.736 34.14 569.139 33.9907 568.607 33.692C568.075 33.384 567.655 32.9687 567.347 32.446C567.039 31.9233 566.885 31.3307 566.885 30.668C566.885 30.0147 567.034 29.4267 567.333 28.904C567.641 28.3813 568.051 27.9707 568.565 27.672C569.087 27.364 569.671 27.21 570.315 27.21C570.931 27.21 571.472 27.35 571.939 27.63C572.415 27.91 572.783 28.2973 573.045 28.792C573.315 29.2867 573.451 29.8467 573.451 30.472C573.451 30.5653 573.446 30.668 573.437 30.78C573.427 30.8827 573.409 31.004 573.381 31.144H567.767V30.094H572.709L572.247 30.5C572.247 30.052 572.167 29.674 572.009 29.366C571.85 29.0487 571.626 28.806 571.337 28.638C571.047 28.4607 570.697 28.372 570.287 28.372C569.857 28.372 569.479 28.4653 569.153 28.652C568.826 28.8387 568.574 29.1 568.397 29.436C568.219 29.772 568.131 30.1687 568.131 30.626C568.131 31.0927 568.224 31.5033 568.411 31.858C568.597 32.2033 568.863 32.474 569.209 32.67C569.554 32.8567 569.951 32.95 570.399 32.95C570.772 32.95 571.113 32.8847 571.421 32.754C571.738 32.6233 572.009 32.4273 572.233 32.166L573.045 32.992C572.727 33.3653 572.335 33.65 571.869 33.846C571.411 34.042 570.921 34.14 570.399 34.14Z" fill="#2B2B2B"/>
</g>
<rect x="16.5" y="54.5" width="408.835" height="59" rx="15.5" fill="white"/>
<rect x="16.5" y="54.5" width="408.835" height="59" rx="15.5" stroke="#E6EAED"/>
<path d="M31.724 89V79.564H33.04V89H31.724ZM28.42 80.488V79.284H36.33V80.488H28.42ZM38.19 89.056L35.306 82.35H36.706L38.848 87.6H38.4L40.654 82.35H42.054L38.946 89.056H38.19ZM36.286 91.786L38.246 87.768L38.946 89.056L37.686 91.786H36.286ZM46.5334 89.14C46.0294 89.14 45.572 89.0373 45.1614 88.832C44.76 88.6173 44.438 88.3233 44.1954 87.95C43.9527 87.5767 43.8174 87.152 43.7894 86.676V84.674C43.8174 84.1887 43.9527 83.764 44.1954 83.4C44.4474 83.0267 44.774 82.7373 45.1754 82.532C45.586 82.3173 46.0387 82.21 46.5334 82.21C47.14 82.21 47.686 82.364 48.1714 82.672C48.666 82.98 49.0534 83.3953 49.3334 83.918C49.6134 84.4407 49.7534 85.0287 49.7534 85.682C49.7534 86.3353 49.6134 86.9233 49.3334 87.446C49.0534 87.9687 48.666 88.384 48.1714 88.692C47.686 88.9907 47.14 89.14 46.5334 89.14ZM46.3234 87.95C46.7434 87.95 47.112 87.852 47.4294 87.656C47.7467 87.46 47.9987 87.194 48.1854 86.858C48.372 86.5127 48.4654 86.116 48.4654 85.668C48.4654 85.2293 48.372 84.8373 48.1854 84.492C47.9987 84.1467 47.7467 83.8807 47.4294 83.694C47.112 83.498 46.748 83.4 46.3374 83.4C45.9174 83.4 45.5487 83.498 45.2314 83.694C44.914 83.8807 44.6667 84.1467 44.4894 84.492C44.312 84.8373 44.2234 85.234 44.2234 85.682C44.2234 86.1207 44.3074 86.5127 44.4754 86.858C44.6527 87.194 44.9 87.46 45.2174 87.656C45.544 87.852 45.9127 87.95 46.3234 87.95ZM43.0334 91.786V82.35H44.2934V84.1L44.0554 85.71L44.2934 87.334V91.786H43.0334ZM54.2618 89.14C53.5991 89.14 53.0018 88.9907 52.4698 88.692C51.9378 88.384 51.5178 87.9687 51.2098 87.446C50.9018 86.9233 50.7478 86.3307 50.7478 85.668C50.7478 85.0147 50.8971 84.4267 51.1958 83.904C51.5038 83.3813 51.9145 82.9707 52.4278 82.672C52.9505 82.364 53.5338 82.21 54.1778 82.21C54.7938 82.21 55.3351 82.35 55.8018 82.63C56.2778 82.91 56.6465 83.2973 56.9078 83.792C57.1785 84.2867 57.3138 84.8467 57.3138 85.472C57.3138 85.5653 57.3091 85.668 57.2998 85.78C57.2905 85.8827 57.2718 86.004 57.2438 86.144H51.6298V85.094H56.5718L56.1098 85.5C56.1098 85.052 56.0305 84.674 55.8718 84.366C55.7131 84.0487 55.4891 83.806 55.1998 83.638C54.9105 83.4607 54.5605 83.372 54.1498 83.372C53.7205 83.372 53.3425 83.4653 53.0158 83.652C52.6891 83.8387 52.4371 84.1 52.2598 84.436C52.0825 84.772 51.9938 85.1687 51.9938 85.626C51.9938 86.0927 52.0871 86.5033 52.2738 86.858C52.4605 87.2033 52.7265 87.474 53.0718 87.67C53.4171 87.8567 53.8138 87.95 54.2618 87.95C54.6351 87.95 54.9758 87.8847 55.2838 87.754C55.6011 87.6233 55.8718 87.4273 56.0958 87.166L56.9078 87.992C56.5905 88.3653 56.1985 88.65 55.7318 88.846C55.2745 89.042 54.7845 89.14 54.2618 89.14ZM63.7838 89.056L60.8998 82.35H62.2998L64.4418 87.6H63.9938L66.2478 82.35H67.6478L64.5398 89.056H63.7838ZM61.8798 91.786L63.8398 87.768L64.5398 89.056L63.2798 91.786H61.8798ZM71.46 89.14C70.8067 89.14 70.2187 88.986 69.696 88.678C69.1734 88.37 68.758 87.9547 68.45 87.432C68.142 86.9 67.988 86.3073 67.988 85.654C67.988 85.01 68.142 84.4313 68.45 83.918C68.758 83.3953 69.1734 82.98 69.696 82.672C70.2187 82.364 70.8067 82.21 71.46 82.21C72.104 82.21 72.6874 82.364 73.21 82.672C73.742 82.9707 74.162 83.3813 74.47 83.904C74.778 84.4267 74.932 85.01 74.932 85.654C74.932 86.3073 74.778 86.9 74.47 87.432C74.162 87.9547 73.742 88.37 73.21 88.678C72.6874 88.986 72.104 89.14 71.46 89.14ZM71.46 87.922C71.88 87.922 72.2534 87.824 72.58 87.628C72.9067 87.432 73.1634 87.166 73.35 86.83C73.5367 86.4847 73.63 86.0927 73.63 85.654C73.63 85.2247 73.532 84.842 73.336 84.506C73.1494 84.17 72.8927 83.9087 72.566 83.722C72.2487 83.526 71.88 83.428 71.46 83.428C71.04 83.428 70.6667 83.526 70.34 83.722C70.0134 83.9087 69.7567 84.17 69.57 84.506C69.3834 84.842 69.29 85.2247 69.29 85.654C69.29 86.0927 69.3834 86.4847 69.57 86.83C69.7567 87.166 70.0134 87.432 70.34 87.628C70.6667 87.824 71.04 87.922 71.46 87.922ZM79.0257 89.14C78.4844 89.14 77.9944 89.0187 77.5557 88.776C77.1264 88.524 76.7904 88.1787 76.5477 87.74C76.3051 87.3013 76.1837 86.7927 76.1837 86.214V82.35H77.4437V86.158C77.4437 86.522 77.5044 86.8393 77.6257 87.11C77.7564 87.3713 77.9431 87.572 78.1857 87.712C78.4284 87.852 78.7131 87.922 79.0397 87.922C79.5344 87.922 79.9217 87.768 80.2017 87.46C80.4817 87.1427 80.6217 86.7087 80.6217 86.158V82.35H81.8817V86.214C81.8817 86.7927 81.7604 87.3013 81.5177 87.74C81.2751 88.1787 80.9391 88.524 80.5097 88.776C80.0897 89.0187 79.5951 89.14 79.0257 89.14ZM83.5705 89V82.35H84.8305V89H83.5705ZM84.8305 85.206L84.3545 84.996C84.3545 84.1467 84.5505 83.47 84.9425 82.966C85.3345 82.462 85.8992 82.21 86.6365 82.21C86.9725 82.21 87.2758 82.2707 87.5465 82.392C87.8172 82.504 88.0692 82.6953 88.3025 82.966L87.4765 83.82C87.3365 83.6707 87.1825 83.5633 87.0145 83.498C86.8465 83.4327 86.6505 83.4 86.4265 83.4C85.9598 83.4 85.5772 83.5493 85.2785 83.848C84.9798 84.1467 84.8305 84.5993 84.8305 85.206ZM95.8478 89.14C95.3438 89.14 94.8865 89.0373 94.4758 88.832C94.0745 88.6173 93.7525 88.3233 93.5098 87.95C93.2672 87.5767 93.1318 87.152 93.1038 86.676V84.674C93.1318 84.1887 93.2672 83.764 93.5098 83.4C93.7618 83.0267 94.0885 82.7373 94.4898 82.532C94.9005 82.3173 95.3532 82.21 95.8478 82.21C96.4545 82.21 97.0005 82.364 97.4858 82.672C97.9805 82.98 98.3678 83.3953 98.6478 83.918C98.9278 84.4407 99.0678 85.0287 99.0678 85.682C99.0678 86.3353 98.9278 86.9233 98.6478 87.446C98.3678 87.9687 97.9805 88.384 97.4858 88.692C97.0005 88.9907 96.4545 89.14 95.8478 89.14ZM95.6378 87.95C96.0578 87.95 96.4265 87.852 96.7438 87.656C97.0612 87.46 97.3132 87.194 97.4998 86.858C97.6865 86.5127 97.7798 86.116 97.7798 85.668C97.7798 85.2293 97.6865 84.8373 97.4998 84.492C97.3132 84.1467 97.0612 83.8807 96.7438 83.694C96.4265 83.498 96.0625 83.4 95.6518 83.4C95.2318 83.4 94.8632 83.498 94.5458 83.694C94.2285 83.8807 93.9812 84.1467 93.8038 84.492C93.6265 84.8373 93.5378 85.234 93.5378 85.682C93.5378 86.1207 93.6218 86.5127 93.7898 86.858C93.9672 87.194 94.2145 87.46 94.5318 87.656C94.8585 87.852 95.2272 87.95 95.6378 87.95ZM92.3478 91.786V82.35H93.6078V84.1L93.3698 85.71L93.6078 87.334V91.786H92.3478ZM100.496 89V82.35H101.756V89H100.496ZM101.756 85.206L101.28 84.996C101.28 84.1467 101.476 83.47 101.868 82.966C102.26 82.462 102.825 82.21 103.562 82.21C103.898 82.21 104.202 82.2707 104.472 82.392C104.743 82.504 104.995 82.6953 105.228 82.966L104.402 83.82C104.262 83.6707 104.108 83.5633 103.94 83.498C103.772 83.4327 103.576 83.4 103.352 83.4C102.886 83.4 102.503 83.5493 102.204 83.848C101.906 84.1467 101.756 84.5993 101.756 85.206ZM108.935 89.14C108.281 89.14 107.693 88.986 107.171 88.678C106.648 88.37 106.233 87.9547 105.925 87.432C105.617 86.9 105.463 86.3073 105.463 85.654C105.463 85.01 105.617 84.4313 105.925 83.918C106.233 83.3953 106.648 82.98 107.171 82.672C107.693 82.364 108.281 82.21 108.935 82.21C109.579 82.21 110.162 82.364 110.685 82.672C111.217 82.9707 111.637 83.3813 111.945 83.904C112.253 84.4267 112.407 85.01 112.407 85.654C112.407 86.3073 112.253 86.9 111.945 87.432C111.637 87.9547 111.217 88.37 110.685 88.678C110.162 88.986 109.579 89.14 108.935 89.14ZM108.935 87.922C109.355 87.922 109.728 87.824 110.055 87.628C110.381 87.432 110.638 87.166 110.825 86.83C111.011 86.4847 111.105 86.0927 111.105 85.654C111.105 85.2247 111.007 84.842 110.811 84.506C110.624 84.17 110.367 83.9087 110.041 83.722C109.723 83.526 109.355 83.428 108.935 83.428C108.515 83.428 108.141 83.526 107.815 83.722C107.488 83.9087 107.231 84.17 107.045 84.506C106.858 84.842 106.765 85.2247 106.765 85.654C106.765 86.0927 106.858 86.4847 107.045 86.83C107.231 87.166 107.488 87.432 107.815 87.628C108.141 87.824 108.515 87.922 108.935 87.922ZM113.826 89V82.35H115.086V89H113.826ZM118.32 89V84.982C118.32 84.4873 118.166 84.1 117.858 83.82C117.56 83.5307 117.182 83.386 116.724 83.386C116.416 83.386 116.141 83.4513 115.898 83.582C115.656 83.7127 115.46 83.8947 115.31 84.128C115.161 84.3613 115.086 84.6413 115.086 84.968L114.568 84.716C114.568 84.212 114.676 83.7733 114.89 83.4C115.114 83.0267 115.418 82.7373 115.8 82.532C116.183 82.3173 116.612 82.21 117.088 82.21C117.555 82.21 117.975 82.3127 118.348 82.518C118.731 82.7233 119.03 83.0127 119.244 83.386C119.468 83.7593 119.58 84.2027 119.58 84.716V89H118.32ZM122.814 89V84.982C122.814 84.4873 122.66 84.1 122.352 83.82C122.054 83.5307 121.68 83.386 121.232 83.386C120.924 83.386 120.644 83.4513 120.392 83.582C120.15 83.7127 119.954 83.8947 119.804 84.128C119.655 84.3613 119.58 84.6413 119.58 84.968L118.866 84.716C118.894 84.2027 119.03 83.764 119.272 83.4C119.524 83.0267 119.846 82.7373 120.238 82.532C120.63 82.3173 121.06 82.21 121.526 82.21C122.012 82.21 122.446 82.3127 122.828 82.518C123.211 82.7233 123.514 83.0127 123.738 83.386C123.972 83.7593 124.088 84.2073 124.088 84.73V89H122.814ZM129.303 89.14C128.799 89.14 128.342 89.0373 127.931 88.832C127.53 88.6173 127.208 88.3233 126.965 87.95C126.722 87.5767 126.587 87.152 126.559 86.676V84.674C126.587 84.1887 126.722 83.764 126.965 83.4C127.217 83.0267 127.544 82.7373 127.945 82.532C128.356 82.3173 128.808 82.21 129.303 82.21C129.91 82.21 130.456 82.364 130.941 82.672C131.436 82.98 131.823 83.3953 132.103 83.918C132.383 84.4407 132.523 85.0287 132.523 85.682C132.523 86.3353 132.383 86.9233 132.103 87.446C131.823 87.9687 131.436 88.384 130.941 88.692C130.456 88.9907 129.91 89.14 129.303 89.14ZM129.093 87.95C129.513 87.95 129.882 87.852 130.199 87.656C130.516 87.46 130.768 87.194 130.955 86.858C131.142 86.5127 131.235 86.116 131.235 85.668C131.235 85.2293 131.142 84.8373 130.955 84.492C130.768 84.1467 130.516 83.8807 130.199 83.694C129.882 83.498 129.518 83.4 129.107 83.4C128.687 83.4 128.318 83.498 128.001 83.694C127.684 83.8807 127.436 84.1467 127.259 84.492C127.082 84.8373 126.993 85.234 126.993 85.682C126.993 86.1207 127.077 86.5127 127.245 86.858C127.422 87.194 127.67 87.46 127.987 87.656C128.314 87.852 128.682 87.95 129.093 87.95ZM125.803 91.786V82.35H127.063V84.1L126.825 85.71L127.063 87.334V91.786H125.803ZM134.768 89V79.564H136.028V89H134.768ZM133.13 83.498V82.35H137.666V83.498H133.13ZM146.517 89V85.122C146.517 84.618 146.358 84.2027 146.041 83.876C145.723 83.5493 145.313 83.386 144.809 83.386C144.473 83.386 144.174 83.4607 143.913 83.61C143.651 83.7593 143.446 83.9647 143.297 84.226C143.147 84.4873 143.073 84.786 143.073 85.122L142.555 84.828C142.555 84.324 142.667 83.876 142.891 83.484C143.115 83.092 143.427 82.784 143.829 82.56C144.23 82.3267 144.683 82.21 145.187 82.21C145.691 82.21 146.134 82.322 146.517 82.546C146.909 82.77 147.217 83.0827 147.441 83.484C147.665 83.8853 147.777 84.3473 147.777 84.87V89H146.517ZM141.813 89V79.004H143.073V89H141.813ZM152.563 89.14C151.9 89.14 151.303 88.9907 150.771 88.692C150.239 88.384 149.819 87.9687 149.511 87.446C149.203 86.9233 149.049 86.3307 149.049 85.668C149.049 85.0147 149.198 84.4267 149.497 83.904C149.805 83.3813 150.215 82.9707 150.729 82.672C151.251 82.364 151.835 82.21 152.479 82.21C153.095 82.21 153.636 82.35 154.103 82.63C154.579 82.91 154.947 83.2973 155.209 83.792C155.479 84.2867 155.615 84.8467 155.615 85.472C155.615 85.5653 155.61 85.668 155.601 85.78C155.591 85.8827 155.573 86.004 155.545 86.144H149.931V85.094H154.873L154.411 85.5C154.411 85.052 154.331 84.674 154.173 84.366C154.014 84.0487 153.79 83.806 153.501 83.638C153.211 83.4607 152.861 83.372 152.451 83.372C152.021 83.372 151.643 83.4653 151.317 83.652C150.99 83.8387 150.738 84.1 150.561 84.436C150.383 84.772 150.295 85.1687 150.295 85.626C150.295 86.0927 150.388 86.5033 150.575 86.858C150.761 87.2033 151.027 87.474 151.373 87.67C151.718 87.8567 152.115 87.95 152.563 87.95C152.936 87.95 153.277 87.8847 153.585 87.754C153.902 87.6233 154.173 87.4273 154.397 87.166L155.209 87.992C154.891 88.3653 154.499 88.65 154.033 88.846C153.575 89.042 153.085 89.14 152.563 89.14ZM156.988 89V82.35H158.248V89H156.988ZM158.248 85.206L157.772 84.996C157.772 84.1467 157.968 83.47 158.36 82.966C158.752 82.462 159.317 82.21 160.054 82.21C160.39 82.21 160.694 82.2707 160.964 82.392C161.235 82.504 161.487 82.6953 161.72 82.966L160.894 83.82C160.754 83.6707 160.6 83.5633 160.432 83.498C160.264 83.4327 160.068 83.4 159.844 83.4C159.378 83.4 158.995 83.5493 158.696 83.848C158.398 84.1467 158.248 84.5993 158.248 85.206ZM165.469 89.14C164.806 89.14 164.209 88.9907 163.677 88.692C163.145 88.384 162.725 87.9687 162.417 87.446C162.109 86.9233 161.955 86.3307 161.955 85.668C161.955 85.0147 162.104 84.4267 162.403 83.904C162.711 83.3813 163.122 82.9707 163.635 82.672C164.158 82.364 164.741 82.21 165.385 82.21C166.001 82.21 166.542 82.35 167.009 82.63C167.485 82.91 167.854 83.2973 168.115 83.792C168.386 84.2867 168.521 84.8467 168.521 85.472C168.521 85.5653 168.516 85.668 168.507 85.78C168.498 85.8827 168.479 86.004 168.451 86.144H162.837V85.094H167.779L167.317 85.5C167.317 85.052 167.238 84.674 167.079 84.366C166.92 84.0487 166.696 83.806 166.407 83.638C166.118 83.4607 165.768 83.372 165.357 83.372C164.928 83.372 164.55 83.4653 164.223 83.652C163.896 83.8387 163.644 84.1 163.467 84.436C163.29 84.772 163.201 85.1687 163.201 85.626C163.201 86.0927 163.294 86.5033 163.481 86.858C163.668 87.2033 163.934 87.474 164.279 87.67C164.624 87.8567 165.021 87.95 165.469 87.95C165.842 87.95 166.183 87.8847 166.491 87.754C166.808 87.6233 167.079 87.4273 167.303 87.166L168.115 87.992C167.798 88.3653 167.406 88.65 166.939 88.846C166.482 89.042 165.992 89.14 165.469 89.14ZM171.001 89.14C170.739 89.14 170.52 89.0513 170.343 88.874C170.175 88.6873 170.091 88.468 170.091 88.216C170.091 87.9547 170.175 87.74 170.343 87.572C170.52 87.3947 170.739 87.306 171.001 87.306C171.262 87.306 171.477 87.3947 171.645 87.572C171.822 87.74 171.911 87.9547 171.911 88.216C171.911 88.468 171.822 88.6873 171.645 88.874C171.477 89.0513 171.262 89.14 171.001 89.14ZM175.061 89.14C174.8 89.14 174.581 89.0513 174.403 88.874C174.235 88.6873 174.151 88.468 174.151 88.216C174.151 87.9547 174.235 87.74 174.403 87.572C174.581 87.3947 174.8 87.306 175.061 87.306C175.323 87.306 175.537 87.3947 175.705 87.572C175.883 87.74 175.971 87.9547 175.971 88.216C175.971 88.468 175.883 88.6873 175.705 88.874C175.537 89.0513 175.323 89.14 175.061 89.14ZM179.122 89.14C178.86 89.14 178.641 89.0513 178.464 88.874C178.296 88.6873 178.212 88.468 178.212 88.216C178.212 87.9547 178.296 87.74 178.464 87.572C178.641 87.3947 178.86 87.306 179.122 87.306C179.383 87.306 179.598 87.3947 179.766 87.572C179.943 87.74 180.032 87.9547 180.032 88.216C180.032 88.468 179.943 88.6873 179.766 88.874C179.598 89.0513 179.383 89.14 179.122 89.14Z" fill="#A7AEB6"/>
<rect x="285.835" y="66" width="128" height="36" rx="8" fill="url(#paint8_linear_1293_7509)"/>
<path fill-rule="evenodd" clip-rule="evenodd" d="M309.707 77.073H312.963C314.418 77.073 315.571 77.073 316.472 77.1942C317.401 77.319 318.152 77.5819 318.744 78.1744C319.337 78.7669 319.6 79.5181 319.724 80.4463C319.846 81.3482 319.846 82.5005 319.846 83.9554V84.0447C319.846 85.4996 319.846 86.652 319.724 87.5539C319.6 88.4821 319.337 89.2333 318.744 89.8258C318.152 90.4182 317.401 90.6811 316.472 90.8059C315.571 90.9272 314.418 90.9272 312.963 90.9272H309.707C308.252 90.9272 307.1 90.9272 306.198 90.8059C305.27 90.6811 304.519 90.4182 303.926 89.8258C303.334 89.2333 303.071 88.4821 302.946 87.5539C302.825 86.652 302.825 85.4996 302.825 84.0447V83.9554C302.825 82.5005 302.825 81.3481 302.946 80.4463C303.071 79.5181 303.334 78.7669 303.926 78.1744C304.519 77.5819 305.27 77.319 306.198 77.1942C307.1 77.073 308.252 77.073 309.707 77.073ZM310.741 78.2605H309.752C308.953 78.2605 308.276 78.2609 307.696 78.2774L307.954 78.966C308.145 79.4754 308.272 79.8117 308.398 80.0591C308.517 80.2933 308.609 80.3946 308.702 80.4593C308.796 80.524 308.923 80.5748 309.184 80.6039C309.46 80.6346 309.819 80.6355 310.363 80.6355H310.741V78.2605ZM311.929 80.6355V78.2605H312.919C313.718 78.2605 314.394 78.2609 314.975 78.2774L314.717 78.966C314.525 79.4754 314.398 79.8117 314.273 80.0591C314.154 80.2933 314.062 80.3946 313.968 80.4593C313.875 80.524 313.748 80.5748 313.487 80.6039C313.211 80.6346 312.851 80.6355 312.307 80.6355H311.929ZM310.331 81.823C309.828 81.823 309.402 81.823 309.052 81.7841C308.681 81.7427 308.339 81.6526 308.026 81.4353C307.712 81.2181 307.508 80.9299 307.339 80.5966C307.18 80.2833 307.03 79.8843 306.853 79.4129L306.458 78.3582C306.424 78.3623 306.39 78.3667 306.356 78.3711C305.56 78.4782 305.101 78.679 304.766 79.0141C304.431 79.3491 304.23 79.808 304.123 80.6045C304.014 81.4181 304.012 82.4905 304.012 84.0001C304.012 85.5096 304.014 86.5821 304.123 87.3957C304.23 88.1921 304.431 88.651 304.766 88.9861C305.101 89.3211 305.56 89.5219 306.356 89.629C307.17 89.7384 308.242 89.7397 309.752 89.7397H312.919C314.428 89.7397 315.501 89.7384 316.314 89.629C317.111 89.5219 317.57 89.3211 317.905 88.9861C318.24 88.651 318.44 88.1921 318.548 87.3957C318.657 86.5821 318.658 85.5096 318.658 84.0001C318.658 82.4905 318.657 81.4181 318.548 80.6045C318.44 79.808 318.24 79.3491 317.905 79.0141C317.57 78.679 317.111 78.4782 316.314 78.3711C316.281 78.3667 316.247 78.3623 316.213 78.3582L315.817 79.4129C315.64 79.8843 315.491 80.2832 315.332 80.5966C315.163 80.9299 314.958 81.2181 314.645 81.4353C314.331 81.6526 313.99 81.7427 313.618 81.7841C313.269 81.823 312.843 81.823 312.339 81.823H310.331ZM305.991 85.3855C305.991 84.0738 307.055 83.0105 308.366 83.0105C309.678 83.0105 310.741 84.0738 310.741 85.3855C310.741 86.6972 309.678 87.7605 308.366 87.7605C307.055 87.7605 305.991 86.6972 305.991 85.3855ZM308.366 84.198C307.711 84.198 307.179 84.7297 307.179 85.3855C307.179 86.0413 307.711 86.573 308.366 86.573C309.022 86.573 309.554 86.0413 309.554 85.3855C309.554 84.7297 309.022 84.198 308.366 84.198ZM311.929 85.3855C311.929 84.0738 312.992 83.0105 314.304 83.0105C315.616 83.0105 316.679 84.0738 316.679 85.3855C316.679 86.6972 315.616 87.7605 314.304 87.7605C312.992 87.7605 311.929 86.6972 311.929 85.3855ZM314.304 84.198C313.648 84.198 313.116 84.7297 313.116 85.3855C313.116 86.0413 313.648 86.573 314.304 86.573C314.96 86.573 315.491 86.0413 315.491 85.3855C315.491 84.7297 314.96 84.198 314.304 84.198Z" fill="white"/>
<path d="M335.107 90.16C334.339 90.16 333.614 90.0107 332.931 89.712C332.249 89.4133 331.651 89.0027 331.139 88.48C330.627 87.9467 330.222 87.3333 329.923 86.64C329.635 85.936 329.491 85.184 329.491 84.384C329.491 83.584 329.635 82.8373 329.923 82.144C330.222 81.4507 330.627 80.8427 331.139 80.32C331.662 79.7867 332.27 79.376 332.963 79.088C333.667 78.7893 334.425 78.64 335.235 78.64C336.121 78.64 336.942 78.8107 337.699 79.152C338.457 79.4933 339.091 79.9787 339.603 80.608L338.355 81.856C338.025 81.3867 337.582 81.0293 337.027 80.784C336.473 80.528 335.875 80.4 335.235 80.4C334.467 80.4 333.79 80.5707 333.203 80.912C332.627 81.2427 332.179 81.7067 331.859 82.304C331.539 82.9013 331.379 83.5947 331.379 84.384C331.379 85.1733 331.539 85.872 331.859 86.48C332.19 87.0773 332.633 87.5467 333.187 87.888C333.742 88.2293 334.371 88.4 335.075 88.4C335.822 88.4 336.462 88.2667 336.995 88C337.539 87.7227 337.955 87.3173 338.243 86.784C338.531 86.24 338.675 85.5733 338.675 84.784L339.827 85.616H335.043V83.936H340.579V84.192C340.579 85.5253 340.339 86.6347 339.859 87.52C339.39 88.4053 338.745 89.0667 337.923 89.504C337.102 89.9413 336.163 90.16 335.107 90.16ZM345.739 90.16C344.971 90.16 344.277 89.9893 343.659 89.648C343.051 89.296 342.565 88.816 342.203 88.208C341.851 87.6 341.675 86.9173 341.675 86.16C341.675 85.4027 341.851 84.7253 342.203 84.128C342.555 83.52 343.029 83.04 343.627 82.688C344.235 82.336 344.907 82.16 345.643 82.16C346.357 82.16 346.987 82.3253 347.531 82.656C348.085 82.9867 348.517 83.44 348.827 84.016C349.147 84.592 349.307 85.248 349.307 85.984C349.307 86.112 349.296 86.2453 349.275 86.384C349.264 86.512 349.243 86.656 349.211 86.816H342.907V85.376H348.299L347.643 85.952C347.621 85.4827 347.531 85.088 347.371 84.768C347.211 84.448 346.981 84.2027 346.683 84.032C346.395 83.8613 346.037 83.776 345.611 83.776C345.163 83.776 344.773 83.872 344.443 84.064C344.112 84.256 343.856 84.528 343.675 84.88C343.493 85.2213 343.403 85.632 343.403 86.112C343.403 86.592 343.499 87.0133 343.691 87.376C343.883 87.7387 344.155 88.0213 344.507 88.224C344.859 88.416 345.264 88.512 345.723 88.512C346.117 88.512 346.48 88.4427 346.811 88.304C347.152 88.1653 347.44 87.9627 347.675 87.696L348.795 88.832C348.421 89.2693 347.968 89.6 347.435 89.824C346.901 90.048 346.336 90.16 345.739 90.16ZM355.981 90V85.568C355.981 85.056 355.816 84.6347 355.485 84.304C355.165 83.9733 354.749 83.808 354.237 83.808C353.896 83.808 353.592 83.8827 353.325 84.032C353.059 84.1813 352.851 84.3893 352.701 84.656C352.552 84.9227 352.477 85.2267 352.477 85.568L351.789 85.184C351.789 84.5973 351.917 84.08 352.173 83.632C352.429 83.1733 352.781 82.816 353.229 82.56C353.688 82.2933 354.2 82.16 354.765 82.16C355.341 82.16 355.853 82.3093 356.301 82.608C356.749 82.896 357.101 83.2747 357.357 83.744C357.613 84.2027 357.741 84.6827 357.741 85.184V90H355.981ZM350.717 90V82.32H352.477V90H350.717ZM363.098 90.16C362.33 90.16 361.637 89.9893 361.018 89.648C360.41 89.296 359.925 88.816 359.562 88.208C359.21 87.6 359.034 86.9173 359.034 86.16C359.034 85.4027 359.21 84.7253 359.562 84.128C359.914 83.52 360.389 83.04 360.986 82.688C361.594 82.336 362.266 82.16 363.002 82.16C363.717 82.16 364.346 82.3253 364.89 82.656C365.445 82.9867 365.877 83.44 366.186 84.016C366.506 84.592 366.666 85.248 366.666 85.984C366.666 86.112 366.655 86.2453 366.634 86.384C366.623 86.512 366.602 86.656 366.57 86.816H360.266V85.376H365.658L365.002 85.952C364.981 85.4827 364.89 85.088 364.73 84.768C364.57 84.448 364.341 84.2027 364.042 84.032C363.754 83.8613 363.397 83.776 362.97 83.776C362.522 83.776 362.133 83.872 361.802 84.064C361.471 84.256 361.215 84.528 361.034 84.88C360.853 85.2213 360.762 85.632 360.762 86.112C360.762 86.592 360.858 87.0133 361.05 87.376C361.242 87.7387 361.514 88.0213 361.866 88.224C362.218 88.416 362.623 88.512 363.082 88.512C363.477 88.512 363.839 88.4427 364.17 88.304C364.511 88.1653 364.799 87.9627 365.034 87.696L366.154 88.832C365.781 89.2693 365.327 89.6 364.794 89.824C364.261 90.048 363.695 90.16 363.098 90.16ZM368.077 90V82.32H369.837V90H368.077ZM369.837 85.728L369.229 85.424C369.229 84.4533 369.442 83.6693 369.869 83.072C370.306 82.464 370.962 82.16 371.837 82.16C372.221 82.16 372.567 82.2293 372.877 82.368C373.186 82.5067 373.474 82.7307 373.741 83.04L372.589 84.224C372.45 84.0747 372.295 83.968 372.125 83.904C371.954 83.84 371.757 83.808 371.533 83.808C371.042 83.808 370.637 83.9627 370.317 84.272C369.997 84.5813 369.837 85.0667 369.837 85.728ZM377.574 90.16C376.881 90.16 376.251 89.984 375.686 89.632C375.131 89.28 374.689 88.8053 374.358 88.208C374.038 87.6 373.878 86.9227 373.878 86.176C373.878 85.4187 374.038 84.7413 374.358 84.144C374.689 83.536 375.131 83.056 375.686 82.704C376.251 82.3413 376.881 82.16 377.574 82.16C378.161 82.16 378.678 82.288 379.126 82.544C379.585 82.7893 379.947 83.1307 380.214 83.568C380.481 84.0053 380.614 84.5013 380.614 85.056V87.264C380.614 87.8187 380.481 88.3147 380.214 88.752C379.958 89.1893 379.601 89.536 379.142 89.792C378.683 90.0373 378.161 90.16 377.574 90.16ZM377.862 88.496C378.513 88.496 379.035 88.2773 379.43 87.84C379.835 87.4027 380.038 86.8427 380.038 86.16C380.038 85.7013 379.947 85.296 379.766 84.944C379.585 84.592 379.329 84.32 378.998 84.128C378.678 83.9253 378.299 83.824 377.862 83.824C377.435 83.824 377.057 83.9253 376.726 84.128C376.406 84.32 376.15 84.592 375.958 84.944C375.777 85.296 375.686 85.7013 375.686 86.16C375.686 86.6187 375.777 87.024 375.958 87.376C376.15 87.728 376.406 88.0053 376.726 88.208C377.057 88.4 377.435 88.496 377.862 88.496ZM379.926 90V87.936L380.23 86.064L379.926 84.208V82.32H381.686V90H379.926ZM384.807 90V79.12H386.567V90H384.807ZM382.967 83.92V82.32H388.407V83.92H382.967ZM393.035 90.16C392.267 90.16 391.574 89.9893 390.955 89.648C390.347 89.296 389.862 88.816 389.499 88.208C389.147 87.6 388.971 86.9173 388.971 86.16C388.971 85.4027 389.147 84.7253 389.499 84.128C389.851 83.52 390.326 83.04 390.923 82.688C391.531 82.336 392.203 82.16 392.939 82.16C393.654 82.16 394.283 82.3253 394.827 82.656C395.382 82.9867 395.814 83.44 396.123 84.016C396.443 84.592 396.603 85.248 396.603 85.984C396.603 86.112 396.593 86.2453 396.571 86.384C396.561 86.512 396.539 86.656 396.507 86.816H390.203V85.376H395.595L394.939 85.952C394.918 85.4827 394.827 85.088 394.667 84.768C394.507 84.448 394.278 84.2027 393.979 84.032C393.691 83.8613 393.334 83.776 392.907 83.776C392.459 83.776 392.07 83.872 391.739 84.064C391.409 84.256 391.153 84.528 390.971 84.88C390.79 85.2213 390.699 85.632 390.699 86.112C390.699 86.592 390.795 87.0133 390.987 87.376C391.179 87.7387 391.451 88.0213 391.803 88.224C392.155 88.416 392.561 88.512 393.019 88.512C393.414 88.512 393.777 88.4427 394.107 88.304C394.449 88.1653 394.737 87.9627 394.971 87.696L396.091 88.832C395.718 89.2693 395.265 89.6 394.731 89.824C394.198 90.048 393.633 90.16 393.035 90.16Z" fill="white"/>
<defs>
<linearGradient id="paint0_linear_1293_7509" x1="11.7284" y1="36.046" x2="53.2716" y2="23.4529" gradientUnits="userSpaceOnUse">
<stop stop-color="#29F2BC"/>
<stop offset="0.5" stop-color="#4877FF"/>
<stop offset="1" stop-color="#F945B3"/>
</linearGradient>
<linearGradient id="paint1_linear_1293_7509" x1="11.7284" y1="36.046" x2="53.2716" y2="23.4529" gradientUnits="userSpaceOnUse">
<stop stop-color="#29F2BC"/>
<stop offset="0.5" stop-color="#4877FF"/>
<stop offset="1" stop-color="#F945B3"/>
</linearGradient>
<linearGradient id="paint2_linear_1293_7509" x1="11.7284" y1="36.046" x2="53.2716" y2="23.4529" gradientUnits="userSpaceOnUse">
<stop stop-color="#29F2BC"/>
<stop offset="0.5" stop-color="#4877FF"/>
<stop offset="1" stop-color="#F945B3"/>
</linearGradient>
<linearGradient id="paint3_linear_1293_7509" x1="11.7284" y1="36.046" x2="53.2716" y2="23.4529" gradientUnits="userSpaceOnUse">
<stop stop-color="#29F2BC"/>
<stop offset="0.5" stop-color="#4877FF"/>
<stop offset="1" stop-color="#F945B3"/>
</linearGradient>
<linearGradient id="paint4_linear_1293_7509" x1="297.728" y1="36.046" x2="339.272" y2="23.4529" gradientUnits="userSpaceOnUse">
<stop stop-color="#29F2BC"/>
<stop offset="0.5" stop-color="#4877FF"/>
<stop offset="1" stop-color="#F945B3"/>
</linearGradient>
<linearGradient id="paint5_linear_1293_7509" x1="297.728" y1="36.046" x2="339.272" y2="23.4529" gradientUnits="userSpaceOnUse">
<stop stop-color="#29F2BC"/>
<stop offset="0.5" stop-color="#4877FF"/>
<stop offset="1" stop-color="#F945B3"/>
</linearGradient>
<linearGradient id="paint6_linear_1293_7509" x1="297.728" y1="36.046" x2="339.272" y2="23.4529" gradientUnits="userSpaceOnUse">
<stop stop-color="#29F2BC"/>
<stop offset="0.5" stop-color="#4877FF"/>
<stop offset="1" stop-color="#F945B3"/>
</linearGradient>
<linearGradient id="paint7_linear_1293_7509" x1="297.728" y1="36.046" x2="339.272" y2="23.4529" gradientUnits="userSpaceOnUse">
<stop stop-color="#29F2BC"/>
<stop offset="0.5" stop-color="#4877FF"/>
<stop offset="1" stop-color="#F945B3"/>
</linearGradient>
<linearGradient id="paint8_linear_1293_7509" x1="155.259" y1="103.456" x2="354.219" y2="-110.986" gradientUnits="userSpaceOnUse">
<stop stop-color="#29F2BC"/>
<stop offset="0.5" stop-color="#4877FF"/>
<stop offset="1" stop-color="#F945B3"/>
</linearGradient>
<clipPath id="clip0_1293_7509">
<rect width="409.835" height="26" fill="white" transform="translate(16 16)"/>
</clipPath>
</defs>
</svg>
